<svg width="26" height="24" viewBox="0 0 26 24" fill="none" xmlns="http://www.w3.org/2000/svg">
<g opacity="0.4">
<path d="M10.3398 16L11.9084 17.5L15.307 14.5" stroke="currentColor" stroke-width="1.5" stroke-linecap="round" stroke-linejoin="round"/>
<path d="M9.49252 2L5.70703 5.63" stroke="currentColor" stroke-width="1.5" stroke-miterlimit="10" stroke-linecap="round" stroke-linejoin="round"/>
<path d="M16.1641 2L19.9495 5.63" stroke="currentColor" stroke-width="1.5" stroke-miterlimit="10" stroke-linecap="round" stroke-linejoin="round"/>
</g>
<path d="M2.37305 7.84998C2.37305 5.99998 3.4083 5.84998 4.69453 5.84998H20.9658C22.2521 5.84998 23.2873 5.99998 23.2873 7.84998C23.2873 9.99998 22.2521 9.84998 20.9658 9.84998H4.69453C3.4083 9.84998 2.37305 9.99998 2.37305 7.84998Z" stroke="currentColor" stroke-width="1.5"/>
<path d="M3.94141 10L5.41586 18.64C5.75049 20.58 6.55569 22 9.54643 22H15.8521C19.1043 22 19.5853 20.64 19.9617 18.76L21.7185 10" stroke="currentColor" stroke-width="1.5" stroke-linecap="round"/>
</svg>
