<svg width="25" height="24" viewBox="0 0 25 24" fill="none" xmlns="http://www.w3.org/2000/svg">
<path d="M22.3977 18.3298C22.3977 18.6898 22.3177 19.0598 22.1477 19.4198C21.9777 19.7798 21.7577 20.1198 21.4677 20.4398C20.9777 20.9798 20.4377 21.3698 19.8277 21.6198C19.2277 21.8698 18.5777 21.9998 17.8777 21.9998C16.8577 21.9998 15.7677 21.7598 14.6177 21.2698C13.4677 20.7798 12.3177 20.1198 11.1777 19.2898C10.0277 18.4498 8.93773 17.5198 7.89773 16.4898C6.86773 15.4498 5.93773 14.3598 5.10773 13.2198C4.28773 12.0798 3.62773 10.9398 3.14773 9.80976C2.66773 8.66976 2.42773 7.57976 2.42773 6.53976C2.42773 5.85976 2.54773 5.20976 2.78773 4.60976C3.02773 3.99976 3.40773 3.43976 3.93773 2.93976C4.57773 2.30976 5.27773 1.99976 6.01773 1.99976C6.29773 1.99976 6.57773 2.05976 6.82773 2.17976C7.08773 2.29976 7.31773 2.47976 7.49773 2.73976L9.81773 6.00976C9.99773 6.25976 10.1277 6.48976 10.2177 6.70976C10.3077 6.91976 10.3577 7.12976 10.3577 7.31976C10.3577 7.55976 10.2877 7.79976 10.1477 8.02976C10.0177 8.25976 9.82773 8.49976 9.58773 8.73976L8.82773 9.52976C8.71773 9.63976 8.66773 9.76976 8.66773 9.92976C8.66773 10.0098 8.67773 10.0798 8.69773 10.1598C8.72773 10.2398 8.75773 10.2998 8.77773 10.3598C8.95773 10.6898 9.26773 11.1198 9.70773 11.6398C10.1577 12.1598 10.6377 12.6898 11.1577 13.2198C11.6977 13.7498 12.2177 14.2398 12.7477 14.6898C13.2677 15.1298 13.6977 15.4298 14.0377 15.6098C14.0877 15.6298 14.1477 15.6598 14.2177 15.6898C14.2977 15.7198 14.3777 15.7298 14.4677 15.7298C14.6377 15.7298 14.7677 15.6698 14.8777 15.5598L15.6377 14.8098C15.8877 14.5598 16.1277 14.3698 16.3577 14.2498C16.5877 14.1098 16.8177 14.0398 17.0677 14.0398C17.2577 14.0398 17.4577 14.0798 17.6777 14.1698C17.8977 14.2598 18.1277 14.3898 18.3777 14.5598L21.6877 16.9098C21.9477 17.0898 22.1277 17.2998 22.2377 17.5498C22.3377 17.7998 22.3977 18.0498 22.3977 18.3298Z" stroke="currentColor" stroke-width="1.5" stroke-miterlimit="10"/>
<path opacity="0.4" d="M18.9277 8.99976C18.9277 8.39976 18.4577 7.47976 17.7577 6.72976C17.1177 6.03976 16.2677 5.49976 15.4277 5.49976" stroke="currentColor" stroke-width="1.5" stroke-linecap="round" stroke-linejoin="round"/>
<path opacity="0.4" d="M22.4277 8.99976C22.4277 5.12976 19.2977 1.99976 15.4277 1.99976" stroke="currentColor" stroke-width="1.5" stroke-linecap="round" stroke-linejoin="round"/>
</svg>
