<svg width="24" height="25" viewBox="0 0 24 25" fill="none" xmlns="http://www.w3.org/2000/svg">
<path d="M4.02 6.36038C2.75 8.04038 2 10.1304 2 12.3904C2 17.9104 6.48 22.3904 12 22.3904C17.52 22.3904 22 17.9104 22 12.3904C22 6.87038 17.52 2.39038 12 2.39038" stroke="white" stroke-width="1.5" stroke-linecap="round" stroke-linejoin="round"/>
<path opacity="0.34" d="M5 12.3904C5 16.2604 8.13 19.3904 12 19.3904C15.87 19.3904 19 16.2604 19 12.3904C19 8.52038 15.87 5.39038 12 5.39038" stroke="white" stroke-width="1.5" stroke-linecap="round" stroke-linejoin="round"/>
<path opacity="0.34" d="M12 16.3904C14.21 16.3904 16 14.6004 16 12.3904C16 10.1804 14.21 8.39038 12 8.39038" stroke="white" stroke-width="1.5" stroke-linecap="round" stroke-linejoin="round"/>
</svg>
