<svg width="13" height="8" viewBox="0 0 13 8" fill="none" xmlns="http://www.w3.org/2000/svg">
<path d="M7.06774 0.33682L12.2427 5.75197C12.8534 6.3891 12.357 7.38975 11.4302 7.38975H1.08032C0.872887 7.38991 0.669798 7.33533 0.495376 7.23255C0.320953 7.12976 0.182591 6.98313 0.0968571 6.81021C0.0111237 6.63729 -0.0183468 6.44541 0.0119753 6.25755C0.0422974 6.06969 0.131126 5.89381 0.267825 5.75098L5.44275 0.337808C5.54403 0.231709 5.66893 0.146672 5.80907 0.0884075C5.9492 0.0301433 6.10133 -1.43051e-06 6.25525 -1.43051e-06C6.40916 -1.43051e-06 6.56129 0.0301433 6.70143 0.0884075C6.84156 0.146672 6.96646 0.231709 7.06774 0.337808V0.33682Z" fill="currentColor"/>
</svg>
