<svg width="26" height="25" viewBox="0 0 26 25" fill="none" xmlns="http://www.w3.org/2000/svg">
<path opacity="0.4" d="M9.13428 13.0059H16.4944" stroke="currentColor" stroke-width="1.5" stroke-miterlimit="10" stroke-linecap="round" stroke-linejoin="round"/>
<path opacity="0.4" d="M9.13428 17.0059H13.7396" stroke="currentColor" stroke-width="1.5" stroke-miterlimit="10" stroke-linecap="round" stroke-linejoin="round"/>
<path d="M11.2372 6.80588H15.443C17.5459 6.80588 17.5459 5.80588 17.5459 4.80588C17.5459 2.80588 16.4944 2.80588 15.443 2.80588H11.2372C10.1857 2.80588 9.13428 2.80588 9.13428 4.80588C9.13428 6.80588 10.1857 6.80588 11.2372 6.80588Z" stroke="currentColor" stroke-width="1.5" stroke-miterlimit="10" stroke-linecap="round" stroke-linejoin="round"/>
<path d="M17.5458 4.82588C21.0471 5.00588 22.803 6.23588 22.803 10.8059V16.8059C22.803 20.8059 21.7516 22.8059 16.4943 22.8059H10.1856C4.9284 22.8059 3.87695 20.8059 3.87695 16.8059V10.8059C3.87695 6.24588 5.63287 5.00588 9.13419 4.82588" stroke="currentColor" stroke-width="1.5" stroke-miterlimit="10" stroke-linecap="round" stroke-linejoin="round"/>
</svg>
