<svg width="26" height="25" viewBox="0 0 26 25" fill="none" xmlns="http://www.w3.org/2000/svg">
<path d="M10.6477 20.2512H15.5975C19.7223 20.2512 21.3722 18.6314 21.3722 14.5818V9.72227C21.3722 5.67269 19.7223 4.05286 15.5975 4.05286H10.6477C6.52296 4.05286 4.87305 5.67269 4.87305 9.72227V14.5818C4.87305 18.6314 6.52296 20.2512 10.6477 20.2512Z" stroke="#0A435A" stroke-width="1.5" stroke-linecap="round" stroke-linejoin="round"/>
<path opacity="0.4" d="M11.576 17.214H14.6696C17.2476 17.214 18.2788 16.2017 18.2788 13.6707V10.6335C18.2788 8.10248 17.2476 7.09009 14.6696 7.09009H11.576C8.99799 7.09009 7.9668 8.10248 7.9668 10.6335V13.6707C7.9668 16.2017 8.99799 17.214 11.576 17.214Z" stroke="currentColor" stroke-width="1.5" stroke-linecap="round" stroke-linejoin="round"/>
<path opacity="0.4" d="M9.00781 4.05287V2.02808" stroke="currentColor" stroke-width="1.5" stroke-linecap="round" stroke-linejoin="round"/>
<path opacity="0.4" d="M13.123 4.05287V2.02808" stroke="currentColor" stroke-width="1.5" stroke-linecap="round" stroke-linejoin="round"/>
<path opacity="0.4" d="M17.248 4.05287V2.02808" stroke="currentColor" stroke-width="1.5" stroke-linecap="round" stroke-linejoin="round"/>
<path opacity="0.4" d="M21.3711 8.10242H23.4335" stroke="currentColor" stroke-width="1.5" stroke-linecap="round" stroke-linejoin="round"/>
<path opacity="0.4" d="M21.3711 12.1521H23.4335" stroke="currentColor" stroke-width="1.5" stroke-linecap="round" stroke-linejoin="round"/>
<path opacity="0.4" d="M21.3711 16.2017H23.4335" stroke="currentColor" stroke-width="1.5" stroke-linecap="round" stroke-linejoin="round"/>
<path opacity="0.4" d="M17.248 20.2512V22.276" stroke="currentColor" stroke-width="1.5" stroke-linecap="round" stroke-linejoin="round"/>
<path opacity="0.4" d="M13.1328 20.2512V22.276" stroke="currentColor" stroke-width="1.5" stroke-linecap="round" stroke-linejoin="round"/>
<path opacity="0.4" d="M9.00781 20.2512V22.276" stroke="currentColor" stroke-width="1.5" stroke-linecap="round" stroke-linejoin="round"/>
<path opacity="0.4" d="M2.81055 8.10242H4.87294" stroke="currentColor" stroke-width="1.5" stroke-linecap="round" stroke-linejoin="round"/>
<path opacity="0.4" d="M2.81055 12.1521H4.87294" stroke="currentColor" stroke-width="1.5" stroke-linecap="round" stroke-linejoin="round"/>
<path opacity="0.4" d="M2.81055 16.2017H4.87294" stroke="currentColor" stroke-width="1.5" stroke-linecap="round" stroke-linejoin="round"/>
<path d="M13.1227 9.82349L12.1534 11.4838C11.9368 11.8483 12.1121 12.152 12.5452 12.152H13.7001C14.1332 12.152 14.3086 12.4557 14.092 12.8202L13.1227 14.4805" stroke="currentColor" stroke-width="1.5" stroke-linecap="round" stroke-linejoin="round"/>
</svg>
