<svg width="25" height="24" viewBox="0 0 25 24" fill="none" xmlns="http://www.w3.org/2000/svg">
<g opacity="0.4">
<path d="M12.3535 2V8L14.3422 6" stroke="white" stroke-width="1.5" stroke-linecap="round" stroke-linejoin="round"/>
<path d="M12.3539 8L10.3652 6" stroke="white" stroke-width="1.5" stroke-linecap="round" stroke-linejoin="round"/>
</g>
<path d="M7.38157 12C3.4043 12 3.4043 13.79 3.4043 16V17C3.4043 19.76 3.4043 22 8.37589 22H16.3304C20.3077 22 21.302 19.76 21.302 17V16C21.302 13.79 21.302 12 17.3248 12C16.3304 12 16.052 12.21 15.535 12.6L14.5208 13.68C13.3475 14.94 11.3588 14.94 10.1756 13.68L9.17134 12.6C8.6543 12.21 8.37589 12 7.38157 12Z" stroke="white" stroke-width="1.5" stroke-miterlimit="10" stroke-linecap="round" stroke-linejoin="round"/>
<path opacity="0.4" d="M5.39258 12V8.00004C5.39258 5.99004 5.39258 4.33004 8.37553 4.04004" stroke="white" stroke-width="1.5" stroke-miterlimit="10" stroke-linecap="round" stroke-linejoin="round"/>
<path opacity="0.4" d="M19.313 12V8.00004C19.313 5.99004 19.313 4.33004 16.3301 4.04004" stroke="white" stroke-width="1.5" stroke-miterlimit="10" stroke-linecap="round" stroke-linejoin="round"/>
</svg>
