<svg width="24" height="24" viewBox="0 0 24 24" fill="none" xmlns="http://www.w3.org/2000/svg">
<path d="M18.04 13.497C17.62 13.9054 17.38 14.4931 17.44 15.1206C17.53 16.1964 18.52 16.9833 19.6 16.9833H21.5V18.1687C21.5 20.2305 19.81 21.9139 17.74 21.9139H6.26C4.19 21.9139 2.5 20.2305 2.5 18.1687V11.465C2.5 9.40312 4.19 7.71973 6.26 7.71973H17.74C19.81 7.71973 21.5 9.40312 21.5 11.465V12.8994H19.48C18.92 12.8994 18.41 13.1185 18.04 13.497Z" stroke="currentColor" stroke-width="1.5" stroke-linecap="round" stroke-linejoin="round"/>
<path opacity="0.4" d="M2.5 12.3614V7.80936C2.5 6.62402 3.23 5.56813 4.34 5.14977L12.28 2.16152C13.52 1.69336 14.85 2.60978 14.85 3.93458V7.71969" stroke="currentColor" stroke-width="1.5" stroke-linecap="round" stroke-linejoin="round"/>
<path d="M22.5608 13.9154V15.9674C22.5608 16.5152 22.1208 16.9634 21.5608 16.9833H19.6008C18.5208 16.9833 17.5308 16.1964 17.4408 15.1207C17.3808 14.4931 17.6208 13.9054 18.0408 13.497C18.4108 13.1185 18.9208 12.8994 19.4808 12.8994H21.5608C22.1208 12.9193 22.5608 13.3675 22.5608 13.9154Z" stroke="currentColor" stroke-width="1.5" stroke-linecap="round" stroke-linejoin="round"/>
<path opacity="0.4" d="M7 11.9531H14" stroke="currentColor" stroke-width="1.5" stroke-linecap="round" stroke-linejoin="round"/>
</svg>
