<svg width="28" height="28" viewBox="0 0 28 28" fill="none" xmlns="http://www.w3.org/2000/svg">
<path d="M16.9526 11.0482L11.0492 16.9516C10.2909 16.1932 9.82422 15.1549 9.82422 13.9999C9.82422 11.6899 11.6909 9.82324 14.0009 9.82324C15.1559 9.82324 16.1942 10.2899 16.9526 11.0482Z" stroke="#292D32" stroke-width="1.5" stroke-linecap="round" stroke-linejoin="round"/>
<path d="M20.7898 6.73156C18.7481 5.19156 16.4148 4.35156 13.9998 4.35156C9.88148 4.35156 6.04315 6.77823 3.37148 10.9782C2.32148 12.6232 2.32148 15.3882 3.37148 17.0332C4.29315 18.4799 5.36648 19.7282 6.53315 20.7316" stroke="#292D32" stroke-width="1.5" stroke-linecap="round" stroke-linejoin="round"/>
<path opacity="0.4" d="M9.82422 22.7853C11.1542 23.3453 12.5659 23.6486 14.0009 23.6486C18.1192 23.6486 21.9576 21.222 24.6292 17.022C25.6792 15.377 25.6792 12.612 24.6292 10.967C24.2442 10.3603 23.8242 9.78862 23.3926 9.25195" stroke="#292D32" stroke-width="1.5" stroke-linecap="round" stroke-linejoin="round"/>
<path opacity="0.4" d="M18.0947 14.8164C17.7914 16.4614 16.4497 17.8031 14.8047 18.1064" stroke="#292D32" stroke-width="1.5" stroke-linecap="round" stroke-linejoin="round"/>
<path d="M11.049 16.9521L2.33398 25.6671" stroke="#292D32" stroke-width="1.5" stroke-linecap="round" stroke-linejoin="round"/>
<path d="M25.6662 2.33301L16.9512 11.048" stroke="#292D32" stroke-width="1.5" stroke-linecap="round" stroke-linejoin="round"/>
</svg>
