<svg width="30" height="30" viewBox="0 0 30 30" fill="none" xmlns="http://www.w3.org/2000/svg">
<path d="M2.647 20.416C2.069 19.107 1.706 17.734 1.566 16.326C1.522 15.886 1.5 15.439 1.5 15C1.5 14.594 1.519 14.191 1.554 13.794C1.696 12.211 2.111 10.684 2.791 9.24805L6.062 11.792C5.688 12.827 5.5 13.904 5.5 15C5.5 16.014 5.666 17.021 5.994 17.999L2.647 20.416Z" fill="#FFEEA3"/>
<path d="M2.988 10.035L5.473 11.968C5.159 12.95 5 13.967 5 15C5 15.947 5.137 16.887 5.408 17.805L2.867 19.64C2.448 18.554 2.178 17.427 2.063 16.276C2.021 15.854 2 15.425 2 15C2 14.613 2.017 14.223 2.052 13.839C2.169 12.524 2.483 11.249 2.988 10.035ZM2.616 8.479C1.772 10.079 1.224 11.86 1.055 13.75C1.019 14.162 1 14.579 1 15C1 15.464 1.023 15.923 1.068 16.375C1.239 18.084 1.722 19.7 2.449 21.175L6.59 18.184C6.215 17.193 6 16.123 6 15C6 13.805 6.238 12.668 6.66 11.625L2.616 8.479Z" fill="#BA9B48"/>
<path d="M5.749 18.7921C5.269 17.6221 5 16.3431 5 15.0001C5 13.5731 5.308 12.2201 5.847 10.9921L3.416 9.10205C2.512 10.8711 2 12.8751 2 15.0001C2 17.0011 2.465 18.8881 3.272 20.581L5.749 18.7921Z" fill="#FFEEA3"/>
<path d="M3.25879 8.346C5.65979 4.112 10.1208 1.5 14.9998 1.5C18.1678 1.5 21.2168 2.615 23.6418 4.651L20.7938 7.499C19.1328 6.207 17.0938 5.5 14.9998 5.5C11.3328 5.5 8.04979 7.575 6.46279 10.838L3.25879 8.346Z" fill="#F78F8F"/>
<path d="M15.0002 2C17.8672 2 20.6332 2.949 22.8952 4.691L20.7462 6.84C19.0652 5.648 17.0572 5 15.0002 5C11.3472 5 8.05721 6.955 6.29821 10.076L3.91321 8.221C6.27121 4.363 10.4462 2 15.0002 2ZM15.0002 1C9.62421 1 4.96221 4.034 2.61621 8.479L6.66021 11.624C7.99621 8.328 11.2242 6 15.0002 6C17.2312 6 19.2602 6.825 20.8282 8.172L24.3742 4.626C21.8952 2.377 18.6132 1 15.0002 1Z" fill="#C74343"/>
<path d="M5.84702 10.9918C7.26602 7.7578 10.338 5.41381 14 5.0498V2.0498C9.37302 2.4038 5.42402 5.1738 3.41602 9.1018L5.84702 10.9918Z" fill="#F78F8F"/>
<path d="M14.9998 28.5C9.97084 28.5 5.44484 25.764 3.08984 21.33L6.37284 18.959C7.90884 22.298 11.2978 24.5 14.9998 24.5C17.0168 24.5 18.9938 23.849 20.6128 22.66L23.6788 25.318C21.2468 27.374 18.1868 28.5 14.9998 28.5Z" fill="#BAE0BD"/>
<path d="M6.1882 19.7091C7.9102 22.9181 11.3072 25.0001 15.0002 25.0001C16.9892 25.0001 18.9412 24.3991 20.5812 23.2941L22.9002 25.3041C20.6382 27.0501 17.8722 28.0001 15.0002 28.0001C10.3032 28.0001 6.0622 25.5211 3.7422 21.4751L6.1882 19.7091ZM6.5912 18.1851L2.4502 21.1751C4.7332 25.8061 9.4882 29.0001 15.0002 29.0001C18.6452 29.0001 21.9532 27.5981 24.4392 25.3141L20.6322 22.0151C19.0922 23.2561 17.1342 24.0001 15.0002 24.0001C11.1522 24.0001 7.87819 21.5811 6.5912 18.1851Z" fill="#5E9C76"/>
<path d="M21.401 22.68C19.666 24.128 17.435 25 15 25C10.82 25 7.24397 22.434 5.74897 18.792L3.27197 20.581C5.36197 24.964 9.82097 28 15 28C18.341 28 21.378 26.729 23.681 24.657L21.401 22.68Z" fill="#BAE0BD"/>
<path d="M21.396 22.015C23.377 20.213 24.5 17.695 24.5 15C24.5 14.161 24.385 13.323 24.158 12.5H28.261C28.42 13.339 28.5 14.178 28.5 15C28.5 18.688 27.017 22.134 24.432 24.646L21.396 22.015Z" fill="#8BB7F0"/>
<path d="M27.8408 13C27.9468 13.671 27.9998 14.341 27.9998 15C27.9998 18.394 26.6948 21.575 24.4068 23.962L22.1368 21.995C23.9698 20.134 24.9998 17.649 24.9998 15C24.9998 14.33 24.9308 13.661 24.7928 13H27.8408ZM28.6698 12H23.4768C23.8098 12.94 23.9998 13.946 23.9998 15C23.9998 17.884 22.6388 20.444 20.5288 22.091C20.5628 22.065 20.5988 22.041 20.6318 22.015L24.4388 25.314C23.8238 25.879 23.1578 26.389 22.4488 26.838C26.3808 24.36 28.9998 19.991 28.9998 15C28.9998 13.969 28.8808 12.967 28.6698 12Z" fill="#4E7AB5"/>
<path d="M15.5 12.5H26.5V16.5H15.5V12.5Z" fill="#8BB7F0"/>
<path d="M26 13V16H16V13H26ZM27 12H15V17H27V12Z" fill="#4E7AB5"/>
<path d="M27.4999 13H21.9999V16H24.9439C24.6769 18.679 23.3589 21.047 21.4009 22.68L23.6819 24.657C26.3269 22.277 27.9999 18.838 27.9999 15L27.4999 13Z" fill="#8BB7F0"/>
</svg>
