<svg width="30" height="24" viewBox="0 0 30 24" fill="none" xmlns="http://www.w3.org/2000/svg">
<path d="M26.6294 10V13C26.6294 17 24.2237 19 19.4123 19H18.8108C18.438 19 18.0771 19.15 17.8486 19.4L16.0443 21.4C15.2504 22.28 13.9513 22.28 13.1574 21.4L11.3531 19.4C11.1607 19.18 10.7156 19 10.3908 19H9.78941C4.97798 19 2.57227 18 2.57227 13V8C2.57227 4 4.97798 2 9.78941 2H17.0066" stroke="currentColor" stroke-width="1.5" stroke-miterlimit="10" stroke-linecap="round" stroke-linejoin="round"/>
<path opacity="0.4" d="M23.6224 7C25.2832 7 26.6295 5.88071 26.6295 4.5C26.6295 3.11929 25.2832 2 23.6224 2C21.9616 2 20.6152 3.11929 20.6152 4.5C20.6152 5.88071 21.9616 7 23.6224 7Z" stroke="currentColor" stroke-width="1.5" stroke-linecap="round" stroke-linejoin="round"/>
<path opacity="0.4" d="M19.4073 11H19.4181" stroke="currentColor" stroke-width="2" stroke-linecap="round" stroke-linejoin="round"/>
<path opacity="0.4" d="M14.5948 11H14.6056" stroke="currentColor" stroke-width="2" stroke-linecap="round" stroke-linejoin="round"/>
<path opacity="0.4" d="M9.78232 11H9.79313" stroke="currentColor" stroke-width="2" stroke-linecap="round" stroke-linejoin="round"/>
</svg>
