<svg width="24" height="24" viewBox="0 0 24 24" fill="none" xmlns="http://www.w3.org/2000/svg">
<path opacity="0.4" d="M12.1605 10.8275C12.0605 10.8175 11.9405 10.8175 11.8305 10.8275C9.45055 10.7478 7.56055 8.80541 7.56055 6.41481C7.56055 3.9744 9.54055 1.99219 12.0005 1.99219C14.4505 1.99219 16.4405 3.9744 16.4405 6.41481C16.4305 8.80541 14.5405 10.7478 12.1605 10.8275Z" stroke="currentColor" stroke-width="1.5" stroke-linecap="round" stroke-linejoin="round"/>
<path d="M7.1607 14.5029C4.7407 16.1165 4.7407 18.7462 7.1607 20.3499C9.9107 22.1827 14.4207 22.1827 17.1707 20.3499C19.5907 18.7362 19.5907 16.1066 17.1707 14.5029C14.4307 12.68 9.9207 12.68 7.1607 14.5029Z" stroke="currentColor" stroke-width="1.5" stroke-linecap="round" stroke-linejoin="round"/>
</svg>
