<svg width="25" height="24" viewBox="0 0 25 24" fill="none" xmlns="http://www.w3.org/2000/svg">
<path d="M21.8317 11.1203C21.8317 16.0103 18.2817 20.5903 13.4317 21.9303C13.1017 22.0203 12.7417 22.0203 12.4117 21.9303C7.56171 20.5903 4.01172 16.0103 4.01172 11.1203V6.73028C4.01172 5.91028 4.63173 4.98028 5.40173 4.67028L10.9717 2.39031C12.2217 1.88031 13.6317 1.88031 14.8817 2.39031L20.4517 4.67028C21.2117 4.98028 21.8417 5.91028 21.8417 6.73028L21.8317 11.1203Z" stroke="currentColor" stroke-width="1.5" stroke-linecap="round" stroke-linejoin="round"/>
<g opacity="0.4">
<path d="M12.9219 12.5C14.0264 12.5 14.9219 11.6046 14.9219 10.5C14.9219 9.39543 14.0264 8.5 12.9219 8.5C11.8173 8.5 10.9219 9.39543 10.9219 10.5C10.9219 11.6046 11.8173 12.5 12.9219 12.5Z" stroke="currentColor" stroke-width="1.5" stroke-miterlimit="10" stroke-linecap="round" stroke-linejoin="round"/>
<path d="M12.9219 12.5V15.5" stroke="currentColor" stroke-width="1.5" stroke-miterlimit="10" stroke-linecap="round" stroke-linejoin="round"/>
</g>
</svg>
