<svg width="25" height="24" viewBox="0 0 25 24" fill="none" xmlns="http://www.w3.org/2000/svg">
<path d="M22.4277 10.4998V15.4998C22.4277 18.9998 20.4277 20.4998 17.4277 20.4998H7.42773C4.42773 20.4998 2.42773 18.9998 2.42773 15.4998V8.49976C2.42773 4.99976 4.42773 3.49976 7.42773 3.49976H14.4277" stroke="currentColor" stroke-width="1.5" stroke-miterlimit="10" stroke-linecap="round" stroke-linejoin="round"/>
<path opacity="0.4" d="M7.42773 8.99976L10.5577 11.4998C11.5877 12.3198 13.2777 12.3198 14.3077 11.4998L15.4877 10.5598" stroke="currentColor" stroke-width="1.5" stroke-miterlimit="10" stroke-linecap="round" stroke-linejoin="round"/>
<path opacity="0.4" d="M19.9277 7.99976C21.3084 7.99976 22.4277 6.88047 22.4277 5.49976C22.4277 4.11904 21.3084 2.99976 19.9277 2.99976C18.547 2.99976 17.4277 4.11904 17.4277 5.49976C17.4277 6.88047 18.547 7.99976 19.9277 7.99976Z" stroke="currentColor" stroke-width="1.5" stroke-miterlimit="10" stroke-linecap="round" stroke-linejoin="round"/>
</svg>
