<svg width="21" height="21" viewBox="0 0 21 21" fill="none" xmlns="http://www.w3.org/2000/svg">
<path d="M10.1668 0.0429688C4.5662 0.0429688 0.00976562 4.52897 0.00976562 10.043C0.00976562 15.557 4.5662 20.043 10.1668 20.043C15.7674 20.043 20.3238 15.557 20.3238 10.043C20.3238 4.52897 15.7674 0.0429688 10.1668 0.0429688ZM10.1668 2.04297C14.647 2.04297 18.2924 5.63197 18.2924 10.043C18.2924 14.454 14.647 18.043 10.1668 18.043C5.68652 18.043 2.04117 14.454 2.04117 10.043C2.04117 5.63197 5.68652 2.04297 10.1668 2.04297ZM9.15108 3.04297V10.043H11.1825V3.04297H9.15108ZM6.81417 4.98828C5.09764 6.10428 4.07257 7.979 4.07257 10C4.07257 13.309 6.80583 16 10.1668 16C13.5277 16 16.261 13.308 16.261 10C16.261 7.978 15.2359 6.10428 13.5194 4.98828L12.4005 6.6582C13.5462 7.4022 14.2296 8.652 14.2296 10C14.2296 12.206 12.4074 14 10.1668 14C7.92614 14 6.10398 12.206 6.10398 10C6.10398 8.652 6.78732 7.4022 7.93303 6.6582L6.81417 4.98828Z" fill="white"/>
</svg>
