<svg width="173" height="152" viewBox="0 0 173 152" fill="none" xmlns="http://www.w3.org/2000/svg">
<g clip-path="url(#clip0_695_2607)">
<path d="M173.001 36.1209H172.168V13.2417C172.168 9.72982 170.776 6.36173 168.298 3.87842C165.82 1.39511 162.458 1.72732e-09 158.954 1.72731e-09H110.58C108.845 -2.80843e-05 107.126 0.342452 105.523 1.00789C103.92 1.67332 102.463 2.64868 101.236 3.87827C100.009 5.10786 99.0353 6.5676 98.3712 8.17415C97.7071 9.7807 97.3653 11.5026 97.3652 13.2415V138.758C97.3652 142.27 98.7575 145.638 101.236 148.122C103.714 150.605 107.075 152 110.58 152H158.953C162.458 152 165.819 150.605 168.297 148.122C170.775 145.638 172.168 142.27 172.168 138.758V52.4066H173L173.001 36.1209Z" fill="#3F3D56"/>
<path d="M169.473 12.3549V139.645C169.473 142.308 168.417 144.861 166.538 146.744C164.659 148.627 162.111 149.685 159.454 149.686H110.088C107.43 149.687 104.88 148.629 103 146.746C101.12 144.863 100.063 142.309 100.062 139.645V12.3549C100.063 9.69123 101.12 7.13698 103 5.2539C104.88 3.37082 107.429 2.31314 110.087 2.31348H116.076C115.782 3.03807 115.67 3.82394 115.75 4.60202C115.83 5.3801 116.1 6.12657 116.535 6.77581C116.97 7.42506 117.558 7.9572 118.247 8.32546C118.936 8.69373 119.704 8.88684 120.485 8.88783H148.629C149.41 8.88684 150.178 8.69373 150.867 8.32546C151.555 7.9572 152.143 7.42506 152.579 6.77581C153.014 6.12657 153.283 5.3801 153.364 4.60202C153.444 3.82394 153.332 3.03807 153.038 2.31348H159.452C162.109 2.31393 164.658 3.37174 166.537 5.25435C168.416 7.13697 169.472 9.69028 169.473 12.3529V12.3549Z" fill="white"/>
<path d="M135.297 63.2786C129.677 63.2807 124.285 61.0455 120.309 57.0646C116.333 53.0838 114.098 47.6833 114.096 42.0512V42.0323C114.096 41.9879 114.096 41.941 114.098 41.8965C114.162 30.262 123.673 20.7876 135.297 20.7876C140.92 20.7873 146.313 23.0253 150.289 27.0093C154.265 30.9934 156.499 36.397 156.5 42.0316C156.5 47.6662 154.267 53.0701 150.291 57.0546C146.315 61.039 140.922 63.2776 135.3 63.278H135.297V63.2786ZM135.297 21.2346C129.818 21.2469 124.564 23.4254 120.678 27.297C116.793 31.1685 114.588 36.4201 114.545 41.9109C114.542 41.9583 114.542 41.9964 114.542 42.0326C114.542 46.1465 115.759 50.1682 118.039 53.5892C120.32 57.0101 123.561 59.6765 127.354 61.2513C131.147 62.8262 135.321 63.2386 139.347 62.4365C143.374 61.6344 147.073 59.6538 149.976 56.7451C152.88 53.8365 154.857 50.1304 155.659 46.0956C156.46 42.0608 156.049 37.8785 154.479 34.0775C152.908 30.2765 150.248 27.0275 146.835 24.7415C143.421 22.4555 139.408 21.2351 135.303 21.2346H135.297Z" fill="#E6E6E6"/>
<path d="M157.221 85.6154H113.353C113.138 85.6152 112.931 85.5293 112.779 85.3767C112.627 85.2241 112.541 85.0172 112.541 84.8014V73.8975C112.541 73.6817 112.627 73.4748 112.779 73.3222C112.932 73.1696 113.138 73.0838 113.353 73.0835H157.221C157.436 73.0838 157.643 73.1696 157.795 73.3222C157.947 73.4748 158.033 73.6817 158.033 73.8975V84.8016C158.033 85.0174 157.947 85.2243 157.795 85.3769C157.643 85.5295 157.436 85.6153 157.221 85.6156V85.6154ZM113.353 73.409C113.224 73.4091 113.1 73.4606 113.009 73.5522C112.917 73.6438 112.866 73.768 112.866 73.8975V84.8016C112.866 84.9311 112.917 85.0553 113.009 85.1469C113.1 85.2385 113.224 85.29 113.353 85.2901H157.221C157.35 85.29 157.474 85.2385 157.566 85.1469C157.657 85.0553 157.708 84.9311 157.708 84.8016V73.8975C157.708 73.768 157.657 73.6438 157.566 73.5522C157.474 73.4606 157.35 73.4091 157.221 73.409H113.353Z" fill="#E6E6E6"/>
<path d="M126.92 77.0703C126.769 77.0703 126.625 77.1304 126.518 77.2372C126.411 77.3441 126.352 77.489 126.352 77.6402C126.352 77.7913 126.411 77.9362 126.518 78.0431C126.625 78.15 126.769 78.21 126.92 78.21H153.728C153.803 78.2129 153.877 78.201 153.947 78.175C154.017 78.149 154.082 78.1095 154.136 78.0586C154.191 78.0078 154.235 77.9466 154.267 77.8786C154.298 77.8106 154.315 77.7371 154.318 77.6623C154.321 77.5875 154.309 77.5129 154.283 77.4427C154.257 77.3725 154.218 77.3081 154.167 77.2532C154.116 77.1983 154.055 77.1539 153.987 77.1226C153.92 77.0914 153.846 77.0738 153.772 77.0709C153.763 77.0706 153.755 77.0705 153.747 77.0705H126.92V77.0703Z" fill="#E6E6E6"/>
<path d="M126.92 80.4893C126.769 80.4893 126.625 80.5493 126.518 80.6562C126.411 80.763 126.352 80.908 126.352 81.0591C126.352 81.2102 126.411 81.3552 126.518 81.4621C126.625 81.5689 126.769 81.629 126.92 81.629H153.728C153.803 81.6318 153.877 81.6199 153.947 81.594C154.017 81.568 154.082 81.5284 154.136 81.4776C154.191 81.4267 154.235 81.3655 154.267 81.2975C154.298 81.2295 154.315 81.156 154.318 81.0812C154.321 81.0064 154.309 80.9318 154.283 80.8616C154.257 80.7914 154.218 80.727 154.167 80.6721C154.116 80.6172 154.055 80.5729 153.987 80.5416C153.92 80.5103 153.846 80.4927 153.772 80.4899C153.763 80.4896 153.755 80.4894 153.747 80.4895L126.92 80.4893Z" fill="#E6E6E6"/>
<path d="M157.221 103.85H113.353C113.138 103.85 112.931 103.764 112.779 103.611C112.627 103.459 112.541 103.252 112.541 103.036V92.1319C112.541 91.9161 112.627 91.7092 112.779 91.5566C112.932 91.404 113.138 91.3182 113.353 91.3179H157.221C157.436 91.3182 157.643 91.404 157.795 91.5566C157.947 91.7092 158.033 91.9161 158.033 92.1319V103.036C158.033 103.252 157.947 103.459 157.795 103.611C157.643 103.764 157.436 103.85 157.221 103.85ZM113.353 91.6434C113.224 91.6435 113.1 91.695 113.009 91.7866C112.917 91.8782 112.866 92.0023 112.866 92.1319V103.036C112.866 103.166 112.917 103.29 113.009 103.381C113.1 103.473 113.224 103.524 113.353 103.524H157.221C157.35 103.524 157.474 103.473 157.566 103.381C157.657 103.29 157.708 103.166 157.708 103.036V92.1319C157.708 92.0023 157.657 91.8782 157.566 91.7866C157.474 91.695 157.35 91.6435 157.221 91.6434H113.353Z" fill="#E6E6E6"/>
<path d="M126.92 95.3042C126.769 95.3042 126.625 95.3642 126.518 95.4711C126.411 95.578 126.352 95.7229 126.352 95.8741C126.352 96.0252 126.411 96.1701 126.518 96.277C126.625 96.3839 126.769 96.4439 126.92 96.4439H153.728C153.877 96.4431 154.019 96.3839 154.125 96.2791C154.231 96.1743 154.291 96.0322 154.294 95.8833C154.296 95.7343 154.24 95.5903 154.138 95.4821C154.036 95.3739 153.895 95.3101 153.747 95.3044L126.92 95.3042Z" fill="#E6E6E6"/>
<path d="M126.92 98.7236C126.769 98.7236 126.625 98.7837 126.518 98.8905C126.411 98.9974 126.352 99.1424 126.352 99.2935C126.352 99.4446 126.411 99.5896 126.518 99.6964C126.625 99.8033 126.769 99.8633 126.92 99.8633H153.728C153.877 99.8625 154.019 99.8033 154.125 99.6986C154.231 99.5938 154.291 99.4517 154.294 99.3027C154.296 99.1537 154.24 99.0097 154.138 98.9015C154.036 98.7933 153.895 98.7296 153.747 98.7238L126.92 98.7236Z" fill="#E6E6E6"/>
<path d="M157.221 122.084H113.353C113.138 122.084 112.931 121.998 112.779 121.845C112.627 121.693 112.541 121.486 112.541 121.27V110.366C112.541 110.15 112.627 109.944 112.779 109.791C112.932 109.638 113.138 109.553 113.353 109.552H157.221C157.436 109.553 157.643 109.638 157.795 109.791C157.947 109.944 158.033 110.15 158.033 110.366V121.27C158.033 121.486 157.947 121.693 157.795 121.846C157.643 121.998 157.436 122.084 157.221 122.084V122.084ZM113.353 109.878C113.224 109.878 113.1 109.929 113.009 110.021C112.917 110.113 112.866 110.237 112.866 110.366V121.27C112.866 121.4 112.917 121.524 113.009 121.616C113.1 121.707 113.224 121.759 113.353 121.759H157.221C157.35 121.759 157.474 121.707 157.566 121.616C157.657 121.524 157.708 121.4 157.708 121.27V110.366C157.708 110.237 157.657 110.113 157.566 110.021C157.474 109.929 157.35 109.878 157.221 109.878H113.353Z" fill="#E6E6E6"/>
<path d="M126.92 113.539C126.769 113.539 126.625 113.599 126.518 113.705C126.411 113.812 126.352 113.957 126.352 114.108C126.352 114.26 126.411 114.405 126.518 114.511C126.625 114.618 126.769 114.678 126.92 114.678H153.728C153.803 114.681 153.877 114.669 153.947 114.643C154.017 114.617 154.082 114.578 154.136 114.527C154.191 114.476 154.235 114.415 154.267 114.347C154.298 114.279 154.315 114.205 154.318 114.131C154.321 114.056 154.309 113.981 154.283 113.911C154.257 113.841 154.218 113.776 154.167 113.721C154.116 113.667 154.055 113.622 153.987 113.591C153.92 113.56 153.846 113.542 153.772 113.539C153.763 113.539 153.755 113.539 153.747 113.539L126.92 113.539Z" fill="#E6E6E6"/>
<path d="M126.92 116.958C126.769 116.958 126.625 117.018 126.518 117.125C126.411 117.232 126.352 117.377 126.352 117.528C126.352 117.679 126.411 117.824 126.518 117.931C126.625 118.038 126.769 118.098 126.92 118.098H153.728C153.803 118.101 153.877 118.089 153.947 118.063C154.017 118.037 154.082 117.997 154.136 117.946C154.191 117.895 154.235 117.834 154.267 117.766C154.298 117.698 154.315 117.625 154.318 117.55C154.321 117.475 154.309 117.401 154.283 117.33C154.257 117.26 154.218 117.196 154.167 117.141C154.116 117.086 154.055 117.042 153.987 117.01C153.92 116.979 153.846 116.961 153.772 116.959C153.763 116.958 153.755 116.958 153.747 116.958L126.92 116.958Z" fill="#E6E6E6"/>
<path d="M141.996 41.5168H135.813V35.3208H134.783V41.5168H128.6V42.5494H134.783V48.7454H135.813V42.5494H141.996V41.5168Z" fill="#00BFA6"/>
<path d="M47.0456 119.433C47.0456 119.433 41.9899 124.981 41.2677 137.767C40.5454 150.553 40.3047 152 40.3047 152H58.3608L61.7296 143.317L65.5824 152H82.6754C82.6754 152 84.6014 125.463 82.6754 124.739C80.7494 124.015 47.0456 119.433 47.0456 119.433Z" fill="#2F2E41"/>
<path d="M71.239 54.1763C76.0255 54.1763 79.9057 50.2881 79.9057 45.4917C79.9057 40.6954 76.0255 36.8071 71.239 36.8071C66.4525 36.8071 62.5723 40.6954 62.5723 45.4917C62.5723 50.2881 66.4525 54.1763 71.239 54.1763Z" fill="#FFB8B8"/>
<path d="M108.676 119.675L95.4353 95.5502L87.7305 83.0057L96.8796 78.9043L101.935 88.7953C101.935 88.7953 108.676 98.6862 110.361 106.889C112.046 115.091 113.732 118.951 113.732 118.951L108.676 119.675Z" fill="#FFB8B8"/>
<path d="M35.7297 112.678L55.4709 95.3081L54.509 81.3159H48.9718L47.2857 88.5533L31.3965 109.541L35.7297 112.678Z" fill="#FFB8B8"/>
<path d="M61.2493 58.3984C61.2493 58.3984 68.3992 61.402 73.7315 57.729C73.7315 57.729 86.7682 59.8463 87.4904 60.5696C88.2127 61.2929 86.7682 83.0046 86.7682 83.0046L83.8796 95.3085C83.8796 95.3085 87.9723 114.125 81.9536 118.95L83.1574 125.464C83.1574 125.464 56.4347 127.394 45.8418 120.88L47.7674 114.366L52.8231 93.8606L49.6933 65.3945C49.6933 65.3945 52.1 58.8809 61.2493 58.3984Z" fill="#E4E4E4"/>
<path d="M81.3503 61.655L87.6098 60.6909C87.6098 60.6909 90.7395 61.1734 93.6285 67.2045C96.5175 73.2357 99.6472 81.1965 99.6472 81.1965L88.8137 86.0214L79.9062 72.0294L81.3503 61.655Z" fill="#E4E4E4"/>
<path d="M51.1381 64.1885L49.6936 65.3947C49.6936 65.3947 47.7676 72.3908 47.7676 77.2155V83.7291L56.4345 84.6941L51.1381 64.1885Z" fill="#E4E4E4"/>
<path d="M62.5763 47.8487C62.5763 47.8487 61.3982 46.5738 61.5175 44.9779C61.5961 44.0701 61.5382 43.1556 61.3457 42.265C61.3457 42.265 61.7145 39.653 62.259 38.1388C62.8034 36.6246 62.3443 36.0978 64.6848 35.2712C67.0253 34.4446 65.5353 31.4556 72.4353 33.8383C72.6977 34.1038 73.0328 34.2855 73.3981 34.3604C73.7635 34.4353 74.1429 34.4001 74.4883 34.2592C75.7622 33.7917 76.5299 35.5454 76.5299 35.5454C76.5299 35.5454 77.3245 34.892 77.7704 35.5713C78.2162 36.2505 80.3727 34.7025 81.1639 39.6436C81.9551 44.5846 79.2401 48.991 79.2401 48.991C79.2401 48.991 78.8591 41.0842 74.3779 40.9407C69.8968 40.7972 64.8291 39.0965 64.2005 42.426C63.572 45.7555 62.5763 47.8487 62.5763 47.8487Z" fill="#2F2E41"/>
<path d="M32.571 116.373C34.6337 116.373 36.306 114.697 36.306 112.63C36.306 110.563 34.6337 108.887 32.571 108.887C30.5082 108.887 28.8359 110.563 28.8359 112.63C28.8359 114.697 30.5082 116.373 32.571 116.373Z" fill="#FFB8B8"/>
<path d="M5.64457 137.908L67.1584 125.604L62.0177 99.7983L0.503906 112.102L5.64457 137.908Z" fill="white"/>
<path d="M67.6614 125.941L5.30842 138.414L0 111.766L62.353 99.2935L67.6614 125.941ZM5.98029 137.404L66.6549 125.268L61.6813 100.302L1.00696 112.439L5.98029 137.404Z" fill="#E4E4E4"/>
<path d="M25.7004 129.706L25.6752 129.717C25.4746 129.799 25.2713 129.878 25.0624 129.946C24.9922 129.97 24.9194 129.992 24.8489 130.014C24.7784 130.035 24.7055 130.058 24.6325 130.077C24.5137 130.112 24.392 130.142 24.2697 130.17C24.2174 130.184 24.1623 130.195 24.1095 130.207L24.0777 130.213C24.0122 130.227 23.9466 130.241 23.8807 130.253L23.71 130.283C23.6783 130.29 23.647 130.294 23.6161 130.299C22.2595 130.512 20.8723 130.414 19.5589 130.013C18.2454 129.612 17.0399 128.917 16.0329 127.982C15.0259 127.046 14.2437 125.894 13.745 124.612C13.2464 123.33 13.0443 121.951 13.154 120.58C13.2637 119.208 13.6823 117.879 14.3784 116.693C15.0744 115.507 16.0298 114.495 17.1726 113.732C18.3154 112.969 19.6159 112.476 20.9764 112.289C22.3369 112.103 23.7218 112.228 25.0272 112.655C23.8458 113.724 22.9657 115.086 22.475 116.603C21.9844 118.121 21.9004 119.741 22.2316 121.302C22.5628 122.862 23.2975 124.308 24.362 125.494C25.4265 126.68 26.7835 127.565 28.2969 128.06C27.5317 128.754 26.6537 129.31 25.701 129.707L25.7004 129.706Z" fill="#00BFA6"/>
<path d="M38.686 125.077C39.083 125.276 39.4944 125.446 39.9167 125.583C38.7345 126.657 37.2897 127.397 35.7292 127.73L35.6151 127.754C34.2528 128.028 32.8459 127.985 31.5027 127.629C30.1595 127.273 28.9158 126.612 27.8673 125.699C26.8187 124.785 25.9934 123.642 25.4546 122.359C24.9159 121.076 24.6782 119.685 24.7598 118.295C24.8414 116.906 25.2402 115.553 25.9253 114.342C26.6105 113.13 27.5639 112.093 28.7121 111.309C29.8603 110.524 31.1727 110.015 32.5483 109.819C33.9239 109.623 35.3261 109.745 36.647 110.178C35.5457 111.169 34.7036 112.416 34.1943 113.809C33.6849 115.202 33.5237 116.699 33.7249 118.169C33.9261 119.639 34.4834 121.037 35.3482 122.241C36.2131 123.445 37.359 124.419 38.686 125.077Z" fill="#00BFA6"/>
<path d="M54.3405 114.459C54.7142 116.22 54.5584 118.052 53.8929 119.724C53.2274 121.396 52.0821 122.833 50.6017 123.853C49.1213 124.872 47.3724 125.43 45.5761 125.453C43.7798 125.477 42.0168 124.967 40.51 123.986C39.0033 123.006 37.8204 121.6 37.1111 119.946C36.4018 118.292 36.1978 116.465 36.525 114.695C36.8521 112.925 37.6958 111.292 38.9492 110.002C40.2026 108.712 41.8094 107.824 43.5666 107.45C44.7333 107.201 45.9375 107.185 47.1103 107.403C48.2832 107.62 49.4018 108.067 50.4022 108.718C51.4026 109.369 52.2654 110.211 52.9411 111.196C53.6168 112.181 54.0923 113.29 54.3405 114.459Z" fill="#00BFA6"/>
<path d="M50.5367 122.581C50.6226 122.984 50.6675 123.394 50.6707 123.806C49.6705 124.508 48.5397 125 47.3456 125.255C46.1514 125.509 44.9184 125.52 43.7199 125.287C43.5555 124.91 43.4298 124.516 43.3446 124.113C42.9001 122.019 43.589 120.022 44.9289 119.119C44.2913 118.997 43.7154 118.658 43.2991 118.159C42.8827 117.66 42.6515 117.032 42.6447 116.381C42.6379 115.731 42.8559 115.098 43.2617 114.591C43.6675 114.083 44.2361 113.732 44.8711 113.596C45.506 113.461 46.1681 113.55 46.7449 113.848C47.3218 114.146 47.7779 114.636 48.0358 115.232C48.2937 115.829 48.3376 116.497 48.1599 117.123C47.9822 117.749 47.594 118.293 47.0611 118.665C48.6525 118.943 50.0923 120.486 50.5367 122.581Z" fill="white"/>
<path d="M38.687 125.078L38.6929 125.106C38.7693 125.611 38.8039 126.123 38.7964 126.634C37.8555 127.296 36.8038 127.487 35.6161 127.755L35.5019 127.78C34.308 128.036 33.0746 128.047 31.8762 127.812C31.86 127.778 31.8458 127.742 31.8338 127.706C31.6891 127.362 31.5777 127.004 31.5012 126.638C31.0567 124.544 31.7456 122.547 33.0854 121.644C32.4478 121.522 31.8719 121.183 31.4554 120.684C31.039 120.185 30.8077 119.557 30.8009 118.906C30.7941 118.256 31.0122 117.623 31.4181 117.116C31.824 116.608 32.3927 116.257 33.0276 116.122C33.2428 116.075 33.4628 116.055 33.6828 116.062C33.507 117.896 33.8914 119.74 34.7851 121.35C35.6788 122.96 37.0397 124.261 38.6873 125.078L38.687 125.078Z" fill="white"/>
<path d="M27.291 127.663C27.3632 128.026 27.4008 128.395 27.4033 128.765C26.6844 129.27 25.896 129.668 25.0627 129.946C24.9925 129.97 24.9198 129.992 24.8492 130.013C24.7787 130.035 24.7058 130.057 24.6328 130.077C24.514 130.112 24.3924 130.142 24.2701 130.17C24.245 130.178 24.2177 130.183 24.1922 130.189L24.0781 130.213C24.0125 130.227 23.947 130.241 23.881 130.253L23.7104 130.283C23.6786 130.29 23.6473 130.294 23.6164 130.298C22.5669 130.468 21.4957 130.451 20.4524 130.246C20.4497 130.242 20.4479 130.237 20.4472 130.232C20.4327 130.202 20.4202 130.171 20.41 130.14C20.2652 129.795 20.1538 129.438 20.0773 129.072C19.6329 126.978 20.3218 124.981 21.6616 124.078C21.024 123.956 20.448 123.617 20.0316 123.118C19.6152 122.619 19.3839 121.991 19.3771 121.34C19.3703 120.69 19.5884 120.057 19.9942 119.549C20.4001 119.042 20.9688 118.691 21.6038 118.555C21.7562 118.523 21.911 118.503 22.0667 118.497C21.8774 120.379 22.2789 122.274 23.2154 123.917C24.152 125.561 25.5767 126.87 27.2912 127.663L27.291 127.663Z" fill="white"/>
<path d="M120.878 80.9853C120.878 81.1913 120.858 81.3968 120.816 81.5987C120.254 81.8375 119.65 81.9606 119.04 81.9606C118.429 81.9606 117.825 81.8375 117.263 81.5987C117.222 81.3968 117.201 81.1913 117.201 80.9853C117.201 79.9147 117.745 79.0098 118.495 78.7074C118.195 78.5813 117.949 78.3553 117.797 78.0678C117.645 77.7803 117.597 77.4491 117.661 77.1302C117.726 76.8114 117.898 76.5246 118.149 76.3186C118.4 76.1126 118.715 76 119.04 76C119.364 76 119.679 76.1126 119.93 76.3186C120.181 76.5246 120.353 76.8114 120.418 77.1302C120.482 77.4491 120.434 77.7803 120.282 78.0678C120.13 78.3553 119.884 78.5813 119.585 78.7074C120.334 79.0098 120.878 79.9146 120.878 80.9853Z" fill="#00BFA6"/>
<path d="M120.878 99.5893C120.878 99.7953 120.858 100.001 120.816 100.203C120.254 100.442 119.65 100.565 119.04 100.565C118.429 100.565 117.825 100.442 117.263 100.203C117.222 100.001 117.201 99.7953 117.201 99.5893C117.201 98.5187 117.745 97.6138 118.495 97.3114C118.195 97.1853 117.949 96.9593 117.797 96.6718C117.645 96.3844 117.597 96.0531 117.661 95.7342C117.726 95.4154 117.898 95.1286 118.149 94.9226C118.4 94.7166 118.715 94.604 119.04 94.604C119.364 94.604 119.679 94.7166 119.93 94.9226C120.181 95.1286 120.353 95.4154 120.418 95.7342C120.482 96.0531 120.434 96.3844 120.282 96.6718C120.13 96.9593 119.884 97.1853 119.585 97.3114C120.334 97.6138 120.878 98.5187 120.878 99.5893Z" fill="#00BFA6"/>
<path d="M120.878 117.823C120.878 118.029 120.858 118.235 120.816 118.437C120.254 118.675 119.65 118.799 119.04 118.799C118.429 118.799 117.825 118.675 117.263 118.437C117.222 118.235 117.201 118.029 117.201 117.823C117.201 116.753 117.745 115.848 118.495 115.545C118.195 115.419 117.949 115.193 117.797 114.906C117.645 114.618 117.597 114.287 117.661 113.968C117.726 113.649 117.898 113.362 118.149 113.156C118.4 112.95 118.715 112.838 119.04 112.838C119.364 112.838 119.679 112.95 119.93 113.156C120.181 113.362 120.353 113.649 120.418 113.968C120.482 114.287 120.434 114.618 120.282 114.906C120.13 115.193 119.884 115.419 119.585 115.545C120.334 115.848 120.878 116.753 120.878 117.823Z" fill="#00BFA6"/>
<path d="M111.432 124.072C113.318 124.072 114.847 122.54 114.847 120.65C114.847 118.76 113.318 117.228 111.432 117.228C109.546 117.228 108.018 118.76 108.018 120.65C108.018 122.54 109.546 124.072 111.432 124.072Z" fill="#FFB8B8"/>
</g>
<defs>
<clipPath id="clip0_695_2607">
<rect width="173" height="152" fill="white"/>
</clipPath>
</defs>
</svg>
