<svg width="96" height="97" viewBox="0 0 96 97" fill="none" xmlns="http://www.w3.org/2000/svg">
<path d="M82.4677 56.9841L82.4566 60.4105C82.4529 62.2142 81.2695 64.0161 78.9083 65.3878C74.136 68.1607 66.371 68.1607 61.5858 65.3988C59.1729 64.0068 57.971 62.181 57.9766 60.3588L57.9858 56.9324C57.9803 58.7545 59.184 60.5804 61.595 61.9724C66.3803 64.7342 74.1452 64.7342 78.9194 61.9613C81.2806 60.5896 82.4621 58.7878 82.4677 56.9841Z" fill="#1E6373"/>
<path d="M78.8607 51.9386C83.6441 54.7004 83.6699 59.1995 78.9161 61.9613C74.1438 64.7343 66.3788 64.7343 61.5936 61.9724C56.7899 59.1995 56.7844 54.7133 61.5585 51.9386C66.3105 49.1767 74.057 49.1657 78.8607 51.9386Z" fill="#9B9B9B"/>
<path d="M70.2511 62.7479C67.205 62.7479 64.3619 62.074 62.2425 60.8519C60.3336 59.7497 59.2831 58.3633 59.2813 56.9491C59.2776 55.5386 60.3188 54.1577 62.2093 53.0593C64.3194 51.8334 67.157 51.1577 70.2031 51.1577C73.2437 51.1577 76.0886 51.8334 78.2154 53.0593C80.1206 54.1596 81.1693 55.5479 81.1711 56.9694C81.1748 58.3762 80.1428 59.7516 78.2671 60.8408C76.1514 62.0703 73.3046 62.7479 70.2511 62.7479Z" fill="#1E6373"/>
<path d="M75.4631 58.0548C75.5579 57.9101 75.6202 57.7465 75.6457 57.5754C75.6712 57.4042 75.6593 57.2296 75.6108 57.0635C75.5 56.7441 75.2378 56.4635 74.8446 56.2401C74.3633 55.9472 73.8189 55.7737 73.2569 55.7342C72.7123 55.7158 72.188 55.7527 71.6655 55.8653C71.2169 55.9761 70.7111 56.1275 70.1314 56.3324L67.9234 55.0604C68.4292 54.7982 68.972 54.5933 69.5332 54.4438L69.7935 54.3515C69.9818 54.237 70.0557 54.1078 70.0372 53.9767C70.0188 53.8456 69.9449 53.733 69.7935 53.6388C69.4863 53.485 69.1325 53.452 68.8021 53.5465C68.1098 53.7311 67.3991 53.9952 66.7271 54.3496L66.1455 54.0136C65.9892 53.9358 65.8161 53.8977 65.6415 53.9028C65.4722 53.8972 65.3044 53.9354 65.1541 54.0136C65.0249 54.0875 64.9492 54.2001 64.9492 54.2942C64.9492 54.405 65.0231 54.4992 65.1726 54.5933L65.7541 54.9293C65.3424 55.2302 65.0618 55.5293 64.9307 55.8468C64.8533 55.9959 64.8083 56.1597 64.7988 56.3274C64.7893 56.4951 64.8153 56.6629 64.8754 56.8198C65.0231 57.1373 65.3037 57.3995 65.6784 57.6247C66.1455 57.885 66.6329 58.0364 67.1923 58.0733C67.6981 58.1102 68.2409 58.0733 68.7467 57.9422C69.1769 57.8684 69.7012 57.717 70.2421 57.5305L72.3763 58.7656C71.7497 59.0653 71.0906 59.2915 70.412 59.4395C70.3007 59.4677 70.1938 59.5112 70.0944 59.5687C69.9246 59.6628 69.8138 59.7939 69.8323 59.925C69.8323 60.0542 69.9246 60.1687 70.0944 60.261C70.2237 60.3348 70.3751 60.3921 70.5615 60.4105L71.0655 60.3736C71.9436 60.1742 72.7972 59.8795 73.6114 59.4948L74.1911 59.8308C74.3387 59.9047 74.5271 59.9619 74.6951 59.9619C74.8647 59.9528 75.0306 59.9088 75.1824 59.8327C75.3117 59.757 75.3874 59.6444 75.3874 59.5502C75.3874 59.4395 75.3135 59.3453 75.1824 59.2696L74.5843 58.9152C74.9941 58.653 75.2951 58.3539 75.4631 58.0548ZM66.9135 56.8382C66.6514 56.6702 66.5203 56.5022 66.5757 56.277C66.6126 56.0721 66.764 55.8653 67.0077 55.6604L68.9147 56.7625C68.4846 56.8936 68.0914 56.9693 67.7923 57.0062C67.4891 57.0416 67.1823 56.9829 66.9135 56.8382ZM73.3308 58.2044L71.4772 57.1188C71.9461 56.9693 72.3763 56.8567 72.6957 56.8198C73.0298 56.7644 73.2735 56.8013 73.4803 56.9305C73.8717 57.1558 74.2649 57.5305 73.3308 58.2044Z" fill="#9B9B9B"/>
<path d="M82.4677 52.2081L82.4566 55.6345C82.4529 57.4382 81.2695 59.2382 78.9083 60.6099C74.136 63.3847 66.371 63.3847 61.5858 60.6228C59.1729 59.229 57.971 57.405 57.9766 55.5828L57.9858 52.1545C57.9803 53.9785 59.184 55.8025 61.595 57.1945C66.3803 59.9582 74.1452 59.9582 78.9194 57.1835C81.2806 55.8118 82.4621 54.0118 82.4677 52.2081Z" fill="#1E6373"/>
<path d="M78.8607 47.1626C83.6441 49.9226 83.6699 54.4217 78.9161 57.1835C74.1438 59.9583 66.3788 59.9583 61.5936 57.1964C56.7899 54.4217 56.7844 49.9355 61.5585 47.1607C66.3105 44.3989 74.057 44.3878 78.8607 47.1607V47.1626Z" fill="#9B9B9B"/>
<path d="M70.2511 57.97C67.205 57.97 64.3619 57.298 62.2425 56.074C60.3336 54.9719 59.2831 53.5873 59.2813 52.1713C59.2776 50.7608 60.3188 49.3799 62.2093 48.2814C64.3194 47.0556 67.157 46.3799 70.2031 46.3799C73.2437 46.3799 76.0886 47.0556 78.2154 48.2814C80.1206 49.3836 81.1693 50.77 81.1711 52.1916C81.1748 53.6002 80.1428 54.9756 78.2671 56.0648C76.1514 57.2943 73.3046 57.97 70.2511 57.97Z" fill="#1E6373"/>
<path d="M75.4631 53.277C75.5579 53.1323 75.6202 52.9687 75.6457 52.7975C75.6712 52.6264 75.6593 52.4517 75.6108 52.2856C75.5 51.9681 75.2378 51.6875 74.8446 51.4622C74.3633 51.1693 73.8189 50.9959 73.2569 50.9564C72.7123 50.9379 72.188 50.9749 71.6655 51.0875C71.2169 51.2001 70.7111 51.3496 70.1314 51.5564L67.9234 50.2825C68.4292 50.0222 68.972 49.8155 69.5332 49.6659L69.7935 49.5736C69.9818 49.461 70.0557 49.3299 70.0372 49.1989C70.0188 49.0678 69.9449 48.9552 69.7935 48.861C69.4863 48.7072 69.1325 48.6742 68.8021 48.7687C68.1098 48.9552 67.3991 49.2173 66.7271 49.5736L66.1455 49.2358C65.9892 49.158 65.8161 49.1199 65.6415 49.125C65.4722 49.1194 65.3044 49.1575 65.1541 49.2358C65.0249 49.3096 64.9492 49.4222 64.9492 49.5164C64.9492 49.629 65.0231 49.7232 65.1726 49.8155L65.7541 50.1533C65.3424 50.4524 65.0618 50.7515 64.9307 51.069C64.8533 51.2181 64.8083 51.3818 64.7988 51.5495C64.7893 51.7172 64.8153 51.8851 64.8754 52.0419C65.0231 52.3595 65.3037 52.6216 65.6784 52.8469C66.1455 53.109 66.6329 53.2585 67.1923 53.2955C67.6981 53.3324 68.2409 53.2955 68.7467 53.1662C69.1769 53.0905 69.7012 52.941 70.2421 52.7527L72.3763 53.9878C71.7497 54.2875 71.0906 54.5136 70.412 54.6616C70.3007 54.6899 70.1938 54.7334 70.0944 54.7909C69.9246 54.885 69.8138 55.0161 69.8323 55.1472C69.8323 55.2782 69.9246 55.3909 70.0944 55.485C70.2237 55.5589 70.3751 55.6142 70.5615 55.6327L71.0655 55.5958C71.9436 55.3963 72.7972 55.1017 73.6114 54.717L74.1911 55.0549C74.3387 55.1287 74.5271 55.1841 74.6951 55.1841C74.8647 55.1749 75.0306 55.1309 75.1824 55.0549C75.3117 54.981 75.3874 54.8665 75.3874 54.7742C75.3874 54.6616 75.3135 54.5675 75.1824 54.4936L74.5843 54.1373C74.9941 53.8752 75.2951 53.5761 75.4631 53.277ZM66.9135 52.0604C66.6514 51.8942 66.5203 51.7244 66.5757 51.4992C66.6126 51.2942 66.764 51.0875 67.0077 50.8825L68.9147 51.9865C68.4846 52.1158 68.0914 52.1915 67.7923 52.2284C67.4893 52.2643 67.1825 52.2045 66.9135 52.0604ZM73.3308 53.4265L71.4772 52.341C71.9461 52.1933 72.3763 52.0789 72.6957 52.0419C73.0298 51.9865 73.2735 52.0235 73.4803 52.1527C73.8717 52.3798 74.2649 52.7527 73.3308 53.4265Z" fill="#9B9B9B"/>
<path d="M82.5028 47.3804L82.4917 50.8069C82.488 52.6088 81.3047 54.4106 78.9434 55.7823C74.1711 58.5571 66.4044 58.5571 61.621 55.7934C59.208 54.4014 58.0062 52.5774 58.0117 50.7534L58.021 47.3269C58.0154 49.1509 59.2191 50.9749 61.6302 52.3669C66.4154 55.1306 74.1803 55.1306 78.9545 52.3558C81.3157 50.9841 82.4973 49.1823 82.5028 47.3804Z" fill="#1E6373"/>
<path d="M78.8961 42.3331C83.6795 45.095 83.7053 49.594 78.9515 52.3559C74.1792 55.1307 66.4142 55.1306 61.629 52.367C56.8253 49.594 56.8198 45.1079 61.5921 42.3331C66.3459 39.5713 74.0905 39.5602 78.8961 42.3331Z" fill="#9B9B9B"/>
<path d="M70.2863 53.1442C67.2401 53.1442 64.397 52.4704 62.2776 51.2464C60.3687 50.1442 59.3164 48.7596 59.3164 47.3436C59.3127 45.9332 60.354 44.5522 62.2444 43.4538C64.3546 42.2279 67.1921 41.5522 70.2364 41.5522C73.2789 41.5522 76.1256 42.2279 78.2487 43.4538C80.1558 44.5541 81.2063 45.9424 81.2063 47.3639C81.21 48.7707 80.178 50.1479 78.3023 51.2353C76.1866 52.4649 73.3398 53.1424 70.2863 53.1424V53.1442Z" fill="#1E6373"/>
<path d="M75.4982 48.4494C75.5931 48.3046 75.6554 48.1411 75.6809 47.9699C75.7064 47.7987 75.6945 47.6241 75.6459 47.458C75.5351 47.1405 75.273 46.858 74.8797 46.6346C74.3979 46.3414 73.8529 46.168 73.2902 46.1288C72.7474 46.1103 72.2231 46.1472 71.7007 46.2598C71.2502 46.3725 70.7462 46.522 70.1665 46.7288L67.9585 45.4549C68.4644 45.1946 69.0053 44.9878 69.5665 44.8383L69.8287 44.746C70.017 44.6334 70.0908 44.5023 70.0724 44.3712C70.0539 44.2401 69.9801 44.1275 69.8287 44.0334C69.5214 43.8795 69.1676 43.8466 68.8373 43.9411C68.145 44.1275 67.4342 44.3897 66.7604 44.7441L66.1807 44.4081C66.0243 44.3303 65.8512 44.2923 65.6767 44.2974C65.5074 44.2917 65.3395 44.3299 65.1893 44.4081C65.0601 44.482 64.9844 44.5946 64.9844 44.6888C64.9844 44.7995 65.0582 44.8955 65.2077 44.9878L65.7893 45.3257C65.3776 45.6248 65.097 45.9238 64.9659 46.2414C64.8885 46.3904 64.8435 46.5542 64.834 46.7219C64.8244 46.8896 64.8505 47.0574 64.9105 47.2143C65.0582 47.5318 65.3388 47.794 65.7136 48.0192C66.1807 48.2814 66.6681 48.4309 67.2274 48.4678C67.7333 48.5048 68.2761 48.4678 68.7819 48.3368C69.2121 48.2629 69.7364 48.1115 70.2773 47.9251L72.4114 49.1601C71.7849 49.4599 71.1257 49.686 70.4471 49.834C70.3352 49.8621 70.2277 49.9056 70.1278 49.9632C69.9616 50.0574 69.8471 50.1885 69.8674 50.3195C69.8674 50.4506 69.9598 50.5632 70.1278 50.6574C70.2588 50.7312 70.4084 50.7866 70.5967 50.8051L71.1007 50.7681C71.9787 50.5687 72.8324 50.274 73.6465 49.8894L74.2262 50.2254C74.3739 50.3011 74.5622 50.3565 74.7302 50.3565C74.8998 50.3473 75.0657 50.3033 75.2176 50.2272C75.3468 50.1515 75.4225 50.0389 75.4225 49.9466C75.4225 49.834 75.3487 49.7398 75.2176 49.666L74.6176 49.3097C75.0293 49.0475 75.3302 48.7484 75.4982 48.4494ZM66.9487 47.2328C66.6865 47.0648 66.5554 46.8968 66.6108 46.6715C66.6478 46.4666 66.7991 46.2598 67.041 46.0549L68.9499 47.1589C68.5197 47.2881 68.1265 47.3638 67.8274 47.4008C67.5244 47.4367 67.2177 47.3768 66.9487 47.2328ZM73.3659 48.5989L71.5124 47.5134C71.9813 47.3657 72.4114 47.2512 72.729 47.2143C73.065 47.1589 73.3087 47.1958 73.5154 47.3251C73.9068 47.5503 74.3001 47.9251 73.3659 48.5989Z" fill="#9B9B9B"/>
<path d="M82.5028 47.3804L82.4917 50.8069C82.488 52.6088 81.3047 54.4106 78.9434 55.7823C74.1711 58.5571 66.4044 58.5571 61.621 55.7934C59.208 54.4014 58.0062 52.5774 58.0117 50.7534L58.021 47.3269C58.0154 49.1509 59.2191 50.9749 61.6302 52.3669C66.4154 55.1306 74.1803 55.1306 78.9545 52.3558C81.3157 50.9841 82.4973 49.1823 82.5028 47.3804Z" fill="#1E6373"/>
<path d="M78.8961 42.3331C83.6795 45.095 83.7053 49.594 78.9515 52.3559C74.1792 55.1307 66.4142 55.1306 61.629 52.367C56.8253 49.594 56.8198 45.1079 61.5921 42.3331C66.3459 39.5713 74.0905 39.5602 78.8961 42.3331Z" fill="#9B9B9B"/>
<path d="M70.2863 53.1442C67.2401 53.1442 64.397 52.4704 62.2776 51.2464C60.3687 50.1442 59.3164 48.7596 59.3164 47.3436C59.3127 45.9332 60.354 44.5522 62.2444 43.4538C64.3546 42.2279 67.1921 41.5522 70.2364 41.5522C73.2789 41.5522 76.1256 42.2279 78.2487 43.4538C80.1558 44.5541 81.2063 45.9424 81.2063 47.3639C81.21 48.7707 80.178 50.1479 78.3023 51.2353C76.1866 52.4649 73.3398 53.1424 70.2863 53.1424V53.1442Z" fill="#1E6373"/>
<path d="M75.4982 48.4494C75.5931 48.3046 75.6554 48.1411 75.6809 47.9699C75.7064 47.7987 75.6945 47.6241 75.6459 47.458C75.5351 47.1405 75.273 46.858 74.8797 46.6346C74.3979 46.3414 73.8529 46.168 73.2902 46.1288C72.7474 46.1103 72.2231 46.1472 71.7007 46.2598C71.2502 46.3725 70.7462 46.522 70.1665 46.7288L67.9585 45.4549C68.4644 45.1946 69.0053 44.9878 69.5665 44.8383L69.8287 44.746C70.017 44.6334 70.0908 44.5023 70.0724 44.3712C70.0539 44.2401 69.9801 44.1275 69.8287 44.0334C69.5214 43.8795 69.1676 43.8466 68.8373 43.9411C68.145 44.1275 67.4342 44.3897 66.7604 44.7441L66.1807 44.4081C66.0243 44.3303 65.8512 44.2923 65.6767 44.2974C65.5074 44.2917 65.3395 44.3299 65.1893 44.4081C65.0601 44.482 64.9844 44.5946 64.9844 44.6888C64.9844 44.7995 65.0582 44.8955 65.2077 44.9878L65.7893 45.3257C65.3776 45.6248 65.097 45.9238 64.9659 46.2414C64.8885 46.3904 64.8435 46.5542 64.834 46.7219C64.8244 46.8896 64.8505 47.0574 64.9105 47.2143C65.0582 47.5318 65.3388 47.794 65.7136 48.0192C66.1807 48.2814 66.6681 48.4309 67.2274 48.4678C67.7333 48.5048 68.2761 48.4678 68.7819 48.3368C69.2121 48.2629 69.7364 48.1115 70.2773 47.9251L72.4114 49.1601C71.7849 49.4599 71.1257 49.686 70.4471 49.834C70.3352 49.8621 70.2277 49.9056 70.1278 49.9632C69.9616 50.0574 69.8471 50.1885 69.8674 50.3195C69.8674 50.4506 69.9598 50.5632 70.1278 50.6574C70.2588 50.7312 70.4084 50.7866 70.5967 50.8051L71.1007 50.7681C71.9787 50.5687 72.8324 50.274 73.6465 49.8894L74.2262 50.2254C74.3739 50.3011 74.5622 50.3565 74.7302 50.3565C74.8998 50.3473 75.0657 50.3033 75.2176 50.2272C75.3468 50.1515 75.4225 50.0389 75.4225 49.9466C75.4225 49.834 75.3487 49.7398 75.2176 49.666L74.6176 49.3097C75.0293 49.0475 75.3302 48.7484 75.4982 48.4494ZM66.9487 47.2328C66.6865 47.0648 66.5554 46.8968 66.6108 46.6715C66.6478 46.4666 66.7991 46.2598 67.041 46.0549L68.9499 47.1589C68.5197 47.2881 68.1265 47.3638 67.8274 47.4008C67.5244 47.4367 67.2177 47.3768 66.9487 47.2328ZM73.3659 48.5989L71.5124 47.5134C71.9813 47.3657 72.4114 47.2512 72.729 47.2143C73.065 47.1589 73.3087 47.1958 73.5154 47.3251C73.9068 47.5503 74.3001 47.9251 73.3659 48.5989Z" fill="#9B9B9B"/>
<path d="M82.5028 42.551L82.4917 45.9793C82.488 47.7811 81.3047 49.583 78.9434 50.9547C74.1711 53.7276 66.4044 53.7276 61.621 50.9657C59.208 49.5737 58.0062 47.7497 58.0117 45.9257L58.021 42.4993C58.0154 44.3233 59.2191 46.1473 61.6302 47.5393C66.4154 50.3011 74.1803 50.3011 78.9545 47.5282C81.3157 46.1565 82.4973 44.3547 82.5028 42.551Z" fill="#1E6373"/>
<path d="M78.8961 37.5073C83.6795 40.2673 83.7053 44.7664 78.9515 47.5282C74.1792 50.3012 66.4142 50.3012 61.629 47.5393C56.8253 44.7664 56.8198 40.2802 61.5921 37.5055C66.3459 34.7436 74.0905 34.7344 78.8961 37.5073Z" fill="#9B9B9B"/>
<path d="M70.2863 48.3145C67.2401 48.3145 64.397 47.6425 62.2776 46.4185C60.3687 45.3164 59.3164 43.9299 59.3164 42.5158C59.3127 41.1053 60.354 39.7244 62.2444 38.6259C64.3546 37.4001 67.1921 36.7244 70.2364 36.7244C73.2789 36.7244 76.1256 37.4001 78.2487 38.6259C80.1558 39.7262 81.2063 41.1145 81.2063 42.5361C81.21 43.9428 80.178 45.3201 78.3023 46.4074C76.1866 47.637 73.3398 48.3145 70.2863 48.3145Z" fill="#1E6373"/>
<path d="M75.4982 43.6217C75.5931 43.477 75.6554 43.3134 75.6809 43.1423C75.7064 42.9711 75.6945 42.7965 75.6459 42.6304C75.5351 42.311 75.273 42.0304 74.8797 41.807C74.3979 41.5138 73.8529 41.3403 73.2902 41.3011C72.7474 41.2827 72.2231 41.3196 71.7007 41.4322C71.2502 41.543 70.7462 41.6944 70.1665 41.8993L67.9585 40.6273C68.4644 40.367 69.0053 40.1602 69.5665 40.0107L69.8287 39.9184C70.017 39.8057 70.0908 39.6747 70.0724 39.5436C70.0539 39.4125 69.9801 39.2999 69.8287 39.2057C69.5214 39.0519 69.1676 39.0189 68.8373 39.1134C68.145 39.298 67.4342 39.562 66.7604 39.9165L66.1807 39.5805C66.0243 39.5027 65.8512 39.4646 65.6767 39.4697C65.5074 39.4641 65.3395 39.5023 65.1893 39.5805C65.0601 39.6544 64.9844 39.767 64.9844 39.8611C64.9844 39.9719 65.0582 40.066 65.2077 40.1602L65.7893 40.4962C65.3776 40.7971 65.097 41.0962 64.9659 41.4137C64.8885 41.5628 64.8435 41.7266 64.834 41.8943C64.8244 42.062 64.8505 42.2298 64.9105 42.3867C65.0582 42.7042 65.3388 42.9664 65.7136 43.1916C66.1807 43.4537 66.6681 43.6033 67.2274 43.6402C67.7333 43.6771 68.2761 43.6402 68.7819 43.5091C69.2121 43.4353 69.7364 43.2839 70.2773 43.0974L72.4114 44.3325C71.7849 44.6322 71.1257 44.8583 70.4471 45.0064C70.3352 45.0345 70.2277 45.078 70.1278 45.1356C69.9616 45.2297 69.8471 45.3608 69.8674 45.4919C69.8674 45.623 69.9598 45.7356 70.1278 45.8279C70.2588 45.9036 70.4084 45.959 70.5967 45.9793L71.1007 45.9424C71.9788 45.7423 72.8325 45.447 73.6465 45.0617L74.2262 45.3977C74.3739 45.4734 74.5622 45.5288 74.7302 45.5288C74.8998 45.5197 75.0657 45.4757 75.2176 45.3996C75.3468 45.3239 75.4225 45.2113 75.4225 45.1171C75.4225 45.0064 75.3487 44.9122 75.2176 44.8365L74.6176 44.482C75.0293 44.2199 75.3302 43.9208 75.4982 43.6217ZM66.9487 42.4051C66.6865 42.2371 66.5554 42.0691 66.6108 41.8439C66.6478 41.639 66.7991 41.4322 67.041 41.2273L68.9499 42.3294C68.5197 42.4605 68.1265 42.5362 67.8274 42.5731C67.5244 42.609 67.2177 42.551 66.9487 42.407V42.4051ZM73.3659 43.7713L71.5124 42.6857C71.9813 42.5362 72.4114 42.4236 72.729 42.3867C73.065 42.3313 73.3087 42.3682 73.5154 42.4974C73.9068 42.7227 74.3001 43.0974 73.3659 43.7713Z" fill="#9B9B9B"/>
<path d="M82.5028 37.7694L82.4917 41.1958C82.488 42.9977 81.3047 44.7995 78.9434 46.1712C74.1711 48.946 66.4044 48.946 61.621 46.1841C59.208 44.7903 58.0062 42.9663 58.0117 41.1441L58.021 37.7158C58.0154 39.5398 59.2191 41.3638 61.6302 42.7558C66.4154 45.5195 74.1803 45.5195 78.9545 42.7447C81.3157 41.373 82.4973 39.5712 82.5028 37.7694Z" fill="#1E6373"/>
<path d="M78.8961 32.722C83.6795 35.4839 83.7053 39.9829 78.9515 42.7448C74.1792 45.5196 66.4142 45.5196 61.629 42.7577C56.8253 39.9829 56.8198 35.4968 61.5921 32.722C66.3459 29.9602 74.0905 29.9491 78.8961 32.722Z" fill="#9B9B9B"/>
<path d="M70.2863 43.5313C67.2401 43.5313 64.397 42.8593 62.2776 41.6353C60.3687 40.5332 59.3164 39.1485 59.3164 37.7325C59.3127 36.3221 60.354 34.9412 62.2444 33.8427C64.3546 32.6169 67.1921 31.9412 70.2364 31.9412C73.2789 31.9412 76.1256 32.6169 78.2487 33.8427C80.1558 34.9449 81.2063 36.3313 81.2063 37.7529C81.21 39.1615 80.178 40.5369 78.3023 41.6261C76.1866 42.8556 73.3398 43.5313 70.2863 43.5313Z" fill="#1E6373"/>
<path d="M75.4982 38.8364C75.5928 38.6919 75.655 38.5287 75.6805 38.3579C75.706 38.187 75.6942 38.0127 75.6459 37.8469C75.5351 37.5294 75.273 37.2488 74.8797 37.0235C74.3979 36.7303 73.8529 36.5569 73.2902 36.5177C72.7474 36.4992 72.2231 36.5361 71.7007 36.6487C71.1821 36.7803 70.6701 36.9368 70.1665 37.1177L67.9585 35.8438C68.4644 35.5835 69.0053 35.3768 69.5665 35.2272L69.8287 35.1349C70.017 35.0223 70.0908 34.8912 70.0724 34.7601C70.0539 34.6291 69.9801 34.5164 69.8287 34.4223C69.5214 34.2684 69.1676 34.2355 68.8373 34.33C68.145 34.5164 67.4342 34.7786 66.7604 35.1331L66.1807 34.7971C66.0243 34.7192 65.8512 34.6812 65.6767 34.6863C65.5074 34.6806 65.3395 34.7188 65.1893 34.7971C65.0601 34.8709 64.9844 34.9835 64.9844 35.0777C64.9844 35.1884 65.0582 35.2844 65.2077 35.3768L65.7893 35.7146C65.3776 36.0137 65.097 36.3128 64.9659 36.6303C64.8885 36.7793 64.8435 36.9431 64.834 37.1108C64.8244 37.2785 64.8505 37.4463 64.9105 37.6032C65.0582 37.9207 65.3388 38.1829 65.7136 38.4081C66.1807 38.6703 66.6681 38.8198 67.2274 38.8568C67.7333 38.8937 68.2761 38.8568 68.7819 38.7275C69.2121 38.6518 69.7364 38.5004 70.2773 38.314L72.4114 39.5491C71.7849 39.8488 71.1257 40.0749 70.4471 40.2229C70.3352 40.251 70.2277 40.2945 70.1278 40.3521C69.9616 40.4463 69.8471 40.5774 69.8674 40.7084C69.8674 40.8395 69.9598 40.9521 70.1278 41.0463C70.2588 41.1201 70.4084 41.1755 70.5967 41.194L71.1007 41.1571C71.9787 40.9576 72.8324 40.663 73.6465 40.2783L74.2262 40.6161C74.3739 40.69 74.5622 40.7454 74.7302 40.7454C74.8998 40.7362 75.0657 40.6922 75.2176 40.6161C75.3468 40.5423 75.4225 40.4278 75.4225 40.3355C75.4225 40.2229 75.3487 40.1288 75.2176 40.0549L74.6176 39.6986C75.0293 39.4364 75.3302 39.1355 75.4982 38.8364ZM66.9487 37.6217C66.6865 37.4537 66.5554 37.2857 66.6108 37.0604C66.6478 36.8555 66.7991 36.6487 67.041 36.4438L68.9499 37.5478C68.5197 37.6771 68.1265 37.7527 67.8274 37.7897C67.5244 37.8256 67.2177 37.7657 66.9487 37.6217ZM73.3659 38.9878L71.5124 37.9023C71.9813 37.7546 72.4114 37.6401 72.729 37.6032C73.065 37.5478 73.3087 37.5848 73.5154 37.714C73.9068 37.9411 74.3001 38.314 73.3659 38.9878Z" fill="#9B9B9B"/>
<path d="M82.5028 33.0468L82.4917 36.4733C82.488 38.277 81.3047 40.077 78.9434 41.4505C74.1711 44.2234 66.4044 44.2234 61.621 41.4616C59.208 40.0696 58.0062 38.2437 58.0117 36.4216L58.021 32.9951C58.0154 34.8173 59.2191 36.6431 61.6302 38.0351C66.4154 40.797 74.1803 40.797 78.9545 38.024C81.3157 36.6505 82.4973 34.8505 82.5028 33.0468Z" fill="#1E6373"/>
<path d="M78.8961 27.9994C83.6795 30.7631 83.7053 35.2604 78.9515 38.0241C74.1792 40.797 66.4142 40.797 61.629 38.0351C56.8253 35.2622 56.8198 30.7761 61.5921 28.0013C66.3459 25.2394 74.0905 25.2265 78.8961 28.0013V27.9994Z" fill="#9B9B9B"/>
<path d="M70.2863 38.8106C67.2401 38.8106 64.397 38.1368 62.2776 36.9146C60.3687 35.8125 59.3164 34.426 59.3164 33.0118C59.3127 31.6014 60.354 30.2205 62.2444 29.1202C64.3546 27.8962 67.1921 27.2205 70.2364 27.2205C73.2789 27.2205 76.1256 27.8962 78.2487 29.122C80.1558 30.2223 81.2063 31.6106 81.2063 33.0322C81.21 34.4389 80.178 35.8143 78.3023 36.9035C76.1866 38.1331 73.3398 38.8106 70.2863 38.8106Z" fill="#1E6373"/>
<path d="M70.7289 35.255L68.196 33.7818L66.1985 32.6206L65.2385 33.1763L64.5 32.7498L66.156 31.7935L64.7714 30.9886L65.5874 30.516L66.972 31.3209L67.5609 30.983L66.1745 30.1781L67.0015 29.7L68.3862 30.5049L69.1948 30.0396C69.9554 29.6003 71.1923 29.5947 71.9382 30.0286C72.6932 30.4661 72.6877 31.188 71.9289 31.6273C72.8815 31.0883 74.3843 31.0938 75.3129 31.6329C76.26 32.183 76.2545 33.0599 75.3129 33.6046L74.5135 34.0661L75.7265 34.7713L74.8994 35.2476L73.6865 34.5424L73.0994 34.8821L74.3123 35.5873L73.4945 36.06L72.2815 35.3529L70.5886 36.3313L69.9295 35.7147L70.7289 35.255ZM72.0655 34.6033L73.5849 33.7264C74.0945 33.431 74.0982 32.9547 73.5905 32.6593C73.0846 32.3658 72.2502 32.3603 71.7406 32.6538L70.2212 33.5326L72.0655 34.6033ZM68.5652 31.1769L67.4298 31.8323L69.1708 32.844L70.3043 32.1886C70.7954 31.9043 70.7991 31.4501 70.3209 31.1732C69.8409 30.8944 69.0545 30.8944 68.5652 31.1769Z" fill="#9B9B9B"/>
<path opacity="0.4" d="M70.4002 25.9262V40.1047C68.0058 40.1194 65.6261 39.7299 63.5547 38.9379V27.0745C65.6261 26.2991 68.0224 25.9114 70.4002 25.9262ZM76.9707 27.0911V38.9379C75.4895 39.5003 73.9375 39.8544 72.359 39.9902V26.0388C73.935 26.1902 75.485 26.5438 76.9707 27.0911Z" fill="white"/>
<path d="M59.6903 69.6081L59.6811 73.0345C59.6755 74.8382 58.494 76.6382 56.1328 78.0099C51.3586 80.7847 43.5937 80.7847 38.8085 78.0229C36.3955 76.629 35.1937 74.805 35.1992 72.9829L35.2085 69.5564C35.2029 71.3786 36.4066 73.2025 38.8195 74.5964C43.6011 77.3582 51.3679 77.3582 56.142 74.5835C58.5032 73.2118 59.6848 71.4118 59.6903 69.6081Z" fill="#1E6373"/>
<path d="M56.0843 64.5626C60.8658 67.3244 60.8917 71.8216 56.1397 74.5835C51.3655 77.3583 43.6006 77.3583 38.8172 74.5964C34.0117 71.8216 34.008 67.3355 38.7803 64.5626C43.5341 61.8007 51.2806 61.7878 56.0843 64.5626Z" fill="#9B9B9B"/>
<path d="M47.4738 75.3718C44.4276 75.3718 41.5845 74.6979 39.4651 73.4758C37.5562 72.3736 36.5058 70.9872 36.5039 69.5712C36.5021 68.1626 37.5414 66.7816 39.4338 65.6813C41.5421 64.4555 44.3796 63.7798 47.4239 63.7798C50.4664 63.7798 53.3131 64.4573 55.4362 65.6832C57.3433 66.7835 58.3938 68.1718 58.3956 69.5933C58.3956 71.0001 57.3654 72.3755 55.4916 73.4647C53.3741 74.6943 50.5273 75.3718 47.4738 75.3718Z" fill="#1E6373"/>
<path d="M52.6853 70.6771C52.7805 70.5325 52.8431 70.369 52.8689 70.1978C52.8948 70.0267 52.8831 69.852 52.8348 69.6857C52.7241 69.3682 52.4601 69.0876 52.0687 68.8623C51.5862 68.5695 51.0404 68.3967 50.4773 68.3583C49.9345 68.3399 49.4121 68.3768 48.8878 68.4876C48.3691 68.6191 47.8572 68.7756 47.3536 68.9565L45.1456 67.6845C45.6515 67.4223 46.1942 67.2174 46.7555 67.0679L47.0176 66.9737C47.2022 66.863 47.2779 66.73 47.2595 66.599C47.241 66.4697 47.1672 66.3553 47.0176 66.263C46.7099 66.1086 46.3553 66.0757 46.0244 66.1707C45.3339 66.3553 44.6213 66.6174 43.9493 66.9737L43.3696 66.6359C43.2127 66.5578 43.0389 66.5197 42.8638 66.5251C42.6945 66.5195 42.5266 66.5576 42.3764 66.6359C42.2472 66.7116 42.1715 66.8242 42.1715 66.9183C42.1715 67.0291 42.2453 67.1233 42.3967 67.2174L42.9764 67.5534C42.5647 67.8525 42.2841 68.1516 42.153 68.471C42.0758 68.6198 42.031 68.7832 42.0215 68.9506C42.0119 69.1179 42.0379 69.2854 42.0976 69.442C42.2453 69.7614 42.5278 70.0236 42.9007 70.247C43.3696 70.5091 43.8552 70.6587 44.4164 70.6956C44.9222 70.7325 45.4632 70.6956 45.969 70.5663C46.3992 70.4907 46.9235 70.3411 47.4644 70.1547L49.5985 71.3879C48.972 71.6876 48.3128 71.9137 47.6342 72.0617C47.5229 72.0906 47.416 72.1347 47.3167 72.1928C47.1468 72.2851 47.0361 72.418 47.0545 72.5491C47.0545 72.6783 47.1468 72.791 47.3167 72.8851C47.4459 72.959 47.5973 73.0162 47.7838 73.0346L48.2896 72.9977C49.167 72.7982 50.0201 72.5035 50.8336 72.119L51.4133 72.455C51.561 72.5288 51.7493 72.5842 51.9173 72.5842C52.0869 72.575 52.2528 72.531 52.4047 72.455C52.5339 72.3811 52.6096 72.2685 52.6096 72.1743C52.6096 72.0636 52.5358 71.9676 52.4047 71.8937L51.8065 71.5374C52.2182 71.2771 52.5173 70.9762 52.6853 70.6771ZM44.1358 69.4623C43.8736 69.2925 43.7425 69.1245 43.7998 68.9011C43.8367 68.6943 43.9844 68.4894 44.2299 68.2827L46.137 69.3867C45.7068 69.5177 45.3136 69.5934 45.0145 69.6303C44.7113 69.6657 44.4046 69.6071 44.1358 69.4623ZM50.553 70.8285L48.7013 69.743C49.1684 69.5934 49.5985 69.4808 49.9161 69.442C50.2539 69.3866 50.4958 69.4236 50.7025 69.5547C51.0958 69.7799 51.4872 70.1546 50.553 70.8285Z" fill="#9B9B9B"/>
<path d="M59.7236 64.7805L59.7144 68.2069C59.7107 70.0106 58.5273 71.8106 56.1679 73.1823C51.3938 75.9571 43.6289 75.9571 38.8436 73.1952C36.4307 71.8014 35.2289 69.9774 35.2344 68.1552L35.2436 64.7288C35.2381 66.5509 36.4418 68.3749 38.8547 69.7688C43.6362 72.5306 51.403 72.5306 56.1772 69.7558C58.5384 68.3842 59.7199 66.5841 59.7255 64.7805H59.7236Z" fill="#1E6373"/>
<path d="M56.1183 59.7349C60.9035 62.4968 60.9275 66.994 56.1737 69.7559C51.4014 72.5306 43.6364 72.5306 38.8531 69.7688C34.0475 66.994 34.042 62.5078 38.8161 59.7349C43.57 56.9731 51.3146 56.9602 56.1183 59.7349Z" fill="#9B9B9B"/>
<path d="M47.5089 70.5441C44.4628 70.5441 41.6197 69.8703 39.5003 68.6463C37.5914 67.546 36.5409 66.1595 36.5391 64.7435C36.5354 63.3349 37.5766 61.954 39.4671 60.8537C41.5772 59.6278 44.4148 58.9521 47.4609 58.9521C50.5015 58.9521 53.3465 59.6297 55.4732 60.8555C57.3785 61.9558 58.4271 63.3423 58.4308 64.7638C58.4308 66.1725 57.4006 67.5478 55.5249 68.6371C53.4092 69.8666 50.5625 70.5441 47.5089 70.5441Z" fill="#1E6373"/>
<path d="M52.717 65.8494C52.8121 65.7048 52.8748 65.5413 52.9006 65.3701C52.9264 65.199 52.9148 65.0242 52.8665 64.858C52.7557 64.5405 52.4917 64.2598 52.0985 64.0346C51.6171 63.7424 51.0727 63.5695 50.5108 63.5306C49.9662 63.5122 49.4437 63.5491 48.9194 63.6598C48.4008 63.7914 47.8888 63.9479 47.3853 64.1288L45.1773 62.8549C45.6831 62.5946 46.2259 62.3897 46.7871 62.2383L47.0474 62.146C47.2357 62.0334 47.3096 61.9023 47.2911 61.7712C47.2727 61.642 47.1988 61.5275 47.0474 61.4352C46.7402 61.2814 46.3864 61.2484 46.056 61.3429C45.3637 61.5275 44.653 61.7897 43.981 62.146L43.4013 61.8082C43.2444 61.73 43.0706 61.692 42.8954 61.6974C42.7261 61.6917 42.5583 61.7299 42.408 61.8082C42.2788 61.882 42.2031 61.9965 42.2031 62.0888C42.2031 62.2014 42.277 62.2955 42.4283 62.3897L43.008 62.7257C42.5963 63.0248 42.3157 63.3238 42.1847 63.6414C42.1072 63.7904 42.0622 63.9542 42.0527 64.1219C42.0432 64.2896 42.0693 64.4574 42.1293 64.6143C42.277 64.9337 42.5576 65.1958 42.9323 65.4192C43.4013 65.6814 43.8868 65.8309 44.448 65.8678C44.9539 65.9048 45.4948 65.8678 46.0007 65.7386C46.4308 65.6629 46.9551 65.5134 47.496 65.3251L49.6302 66.562C49.0036 66.8611 48.3444 67.0866 47.6659 67.234C47.5545 67.2629 47.4477 67.307 47.3483 67.3651C47.1785 67.4574 47.0677 67.5903 47.0862 67.7214C47.0862 67.8506 47.1785 67.9632 47.3483 68.0574C47.4776 68.1312 47.629 68.1866 47.8154 68.2069L48.3213 68.17C49.1988 67.9698 50.0518 67.6746 50.8653 67.2894L51.445 67.6272C51.5927 67.7011 51.781 67.7565 51.949 67.7565C52.1186 67.7473 52.2845 67.7033 52.4363 67.6272C52.5656 67.5534 52.6413 67.4408 52.6413 67.3466C52.6413 67.2358 52.5674 67.1398 52.4363 67.066L51.8382 66.7097C52.2499 66.4475 52.549 66.1485 52.717 65.8494ZM44.1674 64.6346C43.9053 64.4648 43.7742 64.2968 43.8314 64.0734C43.8683 63.8666 44.016 63.6617 44.2616 63.4549L46.1687 64.5589C45.7385 64.6882 45.3453 64.7638 45.0462 64.8026C44.743 64.838 44.4362 64.7793 44.1674 64.6346ZM50.5847 66.0008L48.7311 64.9152C49.2 64.7638 49.6302 64.6531 49.9496 64.6143C50.2856 64.5589 50.5274 64.5958 50.7342 64.7269C51.1274 64.9522 51.5188 65.3251 50.5847 66.0008Z" fill="#9B9B9B"/>
<path d="M59.7236 64.7805L59.7144 68.2069C59.7107 70.0106 58.5273 71.8106 56.1679 73.1823C51.3938 75.9571 43.6289 75.9571 38.8436 73.1952C36.4307 71.8014 35.2289 69.9774 35.2344 68.1552L35.2436 64.7288C35.2381 66.5509 36.4418 68.3749 38.8547 69.7688C43.6362 72.5306 51.403 72.5306 56.1772 69.7558C58.5384 68.3842 59.7199 66.5841 59.7255 64.7805H59.7236Z" fill="#1E6373"/>
<path d="M56.1183 59.7349C60.9035 62.4968 60.9275 66.994 56.1737 69.7559C51.4014 72.5306 43.6364 72.5306 38.8531 69.7688C34.0475 66.994 34.042 62.5078 38.8161 59.7349C43.57 56.9731 51.3146 56.9602 56.1183 59.7349Z" fill="#9B9B9B"/>
<path d="M47.5089 70.5441C44.4628 70.5441 41.6197 69.8703 39.5003 68.6463C37.5914 67.546 36.5409 66.1595 36.5391 64.7435C36.5354 63.3349 37.5766 61.954 39.4671 60.8537C41.5772 59.6278 44.4148 58.9521 47.4609 58.9521C50.5015 58.9521 53.3465 59.6297 55.4732 60.8555C57.3785 61.9558 58.4271 63.3423 58.4308 64.7638C58.4308 66.1725 57.4006 67.5478 55.5249 68.6371C53.4092 69.8666 50.5625 70.5441 47.5089 70.5441Z" fill="#1E6373"/>
<path d="M52.717 65.8494C52.8121 65.7048 52.8748 65.5413 52.9006 65.3701C52.9264 65.199 52.9148 65.0242 52.8665 64.858C52.7557 64.5405 52.4917 64.2598 52.0985 64.0346C51.6171 63.7424 51.0727 63.5695 50.5108 63.5306C49.9662 63.5122 49.4437 63.5491 48.9194 63.6598C48.4008 63.7914 47.8888 63.9479 47.3853 64.1288L45.1773 62.8549C45.6831 62.5946 46.2259 62.3897 46.7871 62.2383L47.0474 62.146C47.2357 62.0334 47.3096 61.9023 47.2911 61.7712C47.2727 61.642 47.1988 61.5275 47.0474 61.4352C46.7402 61.2814 46.3864 61.2484 46.056 61.3429C45.3637 61.5275 44.653 61.7897 43.981 62.146L43.4013 61.8082C43.2444 61.73 43.0706 61.692 42.8954 61.6974C42.7261 61.6917 42.5583 61.7299 42.408 61.8082C42.2788 61.882 42.2031 61.9965 42.2031 62.0888C42.2031 62.2014 42.277 62.2955 42.4283 62.3897L43.008 62.7257C42.5963 63.0248 42.3157 63.3238 42.1847 63.6414C42.1072 63.7904 42.0622 63.9542 42.0527 64.1219C42.0432 64.2896 42.0693 64.4574 42.1293 64.6143C42.277 64.9337 42.5576 65.1958 42.9323 65.4192C43.4013 65.6814 43.8868 65.8309 44.448 65.8678C44.9539 65.9048 45.4948 65.8678 46.0007 65.7386C46.4308 65.6629 46.9551 65.5134 47.496 65.3251L49.6302 66.562C49.0036 66.8611 48.3444 67.0866 47.6659 67.234C47.5545 67.2629 47.4477 67.307 47.3483 67.3651C47.1785 67.4574 47.0677 67.5903 47.0862 67.7214C47.0862 67.8506 47.1785 67.9632 47.3483 68.0574C47.4776 68.1312 47.629 68.1866 47.8154 68.2069L48.3213 68.17C49.1988 67.9698 50.0518 67.6746 50.8653 67.2894L51.445 67.6272C51.5927 67.7011 51.781 67.7565 51.949 67.7565C52.1186 67.7473 52.2845 67.7033 52.4363 67.6272C52.5656 67.5534 52.6413 67.4408 52.6413 67.3466C52.6413 67.2358 52.5674 67.1398 52.4363 67.066L51.8382 66.7097C52.2499 66.4475 52.549 66.1485 52.717 65.8494ZM44.1674 64.6346C43.9053 64.4648 43.7742 64.2968 43.8314 64.0734C43.8683 63.8666 44.016 63.6617 44.2616 63.4549L46.1687 64.5589C45.7385 64.6882 45.3453 64.7638 45.0462 64.8026C44.743 64.838 44.4362 64.7793 44.1674 64.6346ZM50.5847 66.0008L48.7311 64.9152C49.2 64.7638 49.6302 64.6531 49.9496 64.6143C50.2856 64.5589 50.5274 64.5958 50.7342 64.7269C51.1274 64.9522 51.5188 65.3251 50.5847 66.0008Z" fill="#9B9B9B"/>
<path d="M59.7236 59.9528L59.7144 63.3793C59.7107 65.183 58.5273 66.983 56.1679 68.3547C51.3938 71.1294 43.6289 71.1294 38.8436 68.3676C36.4307 66.9737 35.2289 65.1497 35.2344 63.3276L35.2436 59.9011C35.2381 61.7233 36.4418 63.5473 38.8547 64.9411C43.6362 67.703 51.403 67.703 56.1772 64.9282C58.5384 63.5565 59.7199 61.7565 59.7255 59.9528H59.7236Z" fill="#1E6373"/>
<path d="M56.1183 54.9072C60.9035 57.6691 60.9275 62.1663 56.1737 64.9282C51.4014 67.7029 43.6364 67.7029 38.8531 64.9411C34.0475 62.1663 34.042 57.6802 38.8161 54.9072C43.57 52.1436 51.3146 52.1325 56.1183 54.9072Z" fill="#9B9B9B"/>
<path d="M47.5089 65.7165C44.4628 65.7165 41.6197 65.0427 39.5003 63.8187C37.5914 62.7184 36.5409 61.3319 36.5391 59.9159C36.5354 58.5073 37.5766 57.1245 39.4671 56.026C41.5772 54.8002 44.4148 54.1245 47.4609 54.1245C50.5015 54.1245 53.3465 54.802 55.4732 56.026C57.3785 57.1282 58.4271 58.5147 58.4308 59.9362C58.4308 61.3448 57.4006 62.7202 55.5249 63.8094C53.4092 65.039 50.5625 65.7165 47.5089 65.7165Z" fill="#1E6373"/>
<path d="M52.717 61.0217C52.8121 60.8771 52.8748 60.7136 52.9006 60.5424C52.9264 60.3713 52.9148 60.1965 52.8665 60.0303C52.7557 59.7128 52.4917 59.4322 52.0985 59.2069C51.6171 58.9147 51.0727 58.7419 50.5108 58.7029C49.9662 58.6845 49.4437 58.7214 48.9194 58.8322C48.4708 58.9448 47.965 59.0943 47.3853 59.3011L45.1773 58.0272C45.6831 57.7669 46.2259 57.5602 46.7871 57.4106L47.0474 57.3183C47.2357 57.2057 47.3096 57.0746 47.2911 56.9435C47.2727 56.8143 47.1988 56.6999 47.0474 56.6076C46.7404 56.4531 46.3866 56.4195 46.056 56.5134C45.3637 56.6999 44.653 56.962 43.981 57.3183L43.4013 56.9805C43.2444 56.9024 43.0706 56.8643 42.8954 56.8697C42.7261 56.8641 42.5583 56.9022 42.408 56.9805C42.2788 57.0543 42.2031 57.1688 42.2031 57.2611C42.2031 57.3737 42.277 57.4679 42.4283 57.5602L43.008 57.898C42.5963 58.1971 42.3157 58.4962 42.1847 58.8137C42.1072 58.9628 42.0622 59.1265 42.0527 59.2942C42.0432 59.4619 42.0693 59.6297 42.1293 59.7866C42.277 60.106 42.5576 60.3663 42.9323 60.5916C43.4013 60.8537 43.8868 61.0032 44.448 61.0402C44.9539 61.0771 45.4948 61.0402 46.0007 60.9109C46.4308 60.8352 46.9551 60.6857 47.496 60.4974L49.6302 61.7343C49.0036 62.0334 48.3444 62.2589 47.6659 62.4063C47.5546 62.4346 47.4478 62.4781 47.3483 62.5355C47.1785 62.6315 47.0677 62.7626 47.0862 62.8919C47.0862 63.0229 47.1785 63.1356 47.3483 63.2297C47.4776 63.3036 47.629 63.3589 47.8154 63.3774L48.3213 63.3405C49.1987 63.1409 50.0517 62.8463 50.8653 62.4617L51.445 62.7996C51.5927 62.8734 51.781 62.9288 51.949 62.9288C52.1186 62.9196 52.2845 62.8756 52.4363 62.7996C52.5656 62.7257 52.6413 62.6112 52.6413 62.5189C52.6413 62.4063 52.5674 62.3122 52.4363 62.2383L51.8382 61.882C52.2499 61.6199 52.549 61.3208 52.717 61.0217ZM44.1674 59.8051C43.9053 59.6389 43.7742 59.4691 43.8314 59.2439C43.8683 59.0389 44.016 58.8322 44.2616 58.6272L46.1687 59.7312C45.7385 59.8605 45.3453 59.9362 45.0462 59.9749C44.7428 60.0097 44.436 59.9504 44.1674 59.8051ZM50.5847 61.1712L48.7311 60.0857C49.2 59.938 49.6302 59.8254 49.9496 59.7866C50.2856 59.7312 50.5274 59.7682 50.7342 59.8992C51.1274 60.1245 51.5188 60.4956 50.5847 61.1712Z" fill="#9B9B9B"/>
<path d="M59.7236 55.1694L59.7144 58.5958C59.7107 60.3995 58.5273 62.1995 56.1679 63.5712C51.3938 66.346 43.6289 66.346 38.8436 63.5841C36.4307 62.1903 35.2289 60.3663 35.2344 58.5441L35.2436 55.1177C35.2381 56.9398 36.4418 58.7638 38.8547 60.1577C43.6362 62.9195 51.403 62.9195 56.1772 60.1448C58.5384 58.7731 59.7199 56.9731 59.7255 55.1694H59.7236Z" fill="#1E6373"/>
<path d="M56.1183 50.1238C60.9035 52.8857 60.9275 57.3829 56.1737 60.1448C51.4014 62.9195 43.6364 62.9195 38.8531 60.1577C34.0475 57.3829 34.042 52.8968 38.8161 50.1238C43.57 47.362 51.3146 47.3491 56.1183 50.1238Z" fill="#9B9B9B"/>
<path d="M47.5089 60.9331C44.4628 60.9331 41.6197 60.2592 39.5003 59.0352C37.5914 57.9349 36.5409 56.5485 36.5391 55.1325C36.5354 53.7238 37.5766 52.3429 39.4671 51.2426C41.5772 50.0168 44.4148 49.3411 47.4609 49.3411C50.5015 49.3411 53.3465 50.0186 55.4732 51.2444C57.3785 52.3448 58.4271 53.7331 58.4308 55.1546C58.4308 56.5614 57.4006 57.9368 55.5249 59.026C53.4092 60.2555 50.5625 60.9331 47.5089 60.9331Z" fill="#1E6373"/>
<path d="M52.7205 56.2383C52.8156 56.0937 52.8783 55.9302 52.9041 55.759C52.9299 55.5879 52.9183 55.4131 52.87 55.2469C52.7592 54.9294 52.4952 54.6488 52.102 54.4235C51.6206 54.1313 51.0762 53.9585 50.5143 53.9195C49.9697 53.9011 49.4472 53.938 48.9229 54.0488C48.4043 54.1803 47.8923 54.3368 47.3888 54.5177L45.1808 53.2438C45.6866 52.9854 46.2294 52.7786 46.7906 52.6291L47.0509 52.5349C47.2392 52.4241 47.3131 52.2912 47.2946 52.1601C47.2762 52.0291 47.2023 51.9165 47.0509 51.8241C46.7437 51.6703 46.3899 51.6374 46.0595 51.7318C45.3672 51.9165 44.6565 52.1786 43.9845 52.5349L43.4048 52.1971C43.2479 52.119 43.0741 52.0809 42.8989 52.0863C42.7296 52.0807 42.5618 52.1188 42.4115 52.1971C42.2823 52.2728 42.2066 52.3854 42.2066 52.4777C42.2066 52.5903 42.2805 52.6845 42.4318 52.7786L43.0115 53.1146C42.5999 53.4137 42.3192 53.7128 42.1882 54.0321C42.111 54.181 42.0662 54.3444 42.0566 54.5118C42.0471 54.6791 42.073 54.8466 42.1328 55.0032C42.2805 55.3226 42.5611 55.5848 42.9359 55.8081C43.4048 56.0703 43.8903 56.2198 44.4515 56.2568C44.9574 56.2937 45.4983 56.2568 46.0042 56.1275C46.4343 56.0518 46.9586 55.9023 47.4995 55.7158L49.6337 56.9491C49.0071 57.2488 48.348 57.4749 47.6694 57.6229C47.558 57.6518 47.4512 57.6959 47.3519 57.754C47.182 57.8463 47.0712 57.9792 47.0897 58.1103C47.0897 58.2395 47.182 58.3521 47.3519 58.4463C47.4811 58.5201 47.6325 58.5755 47.8189 58.5958L48.3248 58.5589C49.2022 58.3594 50.0552 58.0647 50.8688 57.6801L51.4485 58.0161C51.5962 58.09 51.7845 58.1454 51.9525 58.1454C52.1221 58.1362 52.288 58.0922 52.4398 58.0161C52.5691 57.9423 52.6448 57.8297 52.6448 57.7355C52.6448 57.6248 52.5709 57.5288 52.4398 57.4549L51.8417 57.0986C52.2534 56.8383 52.5525 56.5374 52.7205 56.2383ZM44.1709 55.0235C43.9088 54.8537 43.7777 54.6857 43.8349 54.4623C43.8718 54.2555 44.0195 54.0506 44.2651 53.8438L46.1722 54.9478C45.742 55.0789 45.3488 55.1546 45.0497 55.1915C44.7465 55.2269 44.4397 55.1682 44.1709 55.0235ZM50.5882 56.3897L48.7346 55.3041C49.2035 55.1546 49.6337 55.042 49.9531 55.0032C50.2891 54.9478 50.5309 54.9848 50.7377 55.1158C51.1309 55.3411 51.5223 55.7158 50.5882 56.3897Z" fill="#9B9B9B"/>
<path d="M59.7236 50.4488L59.7144 53.8753C59.7107 55.6771 58.5273 57.479 56.1679 58.8506C51.3938 61.6254 43.6289 61.6254 38.8436 58.8617C36.4307 57.4697 35.2289 55.6457 35.2344 53.8217L35.2436 50.3953C35.2381 52.2193 36.4418 54.0433 38.8547 55.4353C43.6362 58.199 51.403 58.199 56.1772 55.4242C58.5384 54.0525 59.7199 52.2506 59.7255 50.4488H59.7236Z" fill="#1E6373"/>
<path d="M56.1183 45.4015C60.9035 48.1633 60.9275 52.6624 56.1737 55.4242C51.4014 58.199 43.6364 58.199 38.8531 55.4353C34.0475 52.6624 34.042 48.1762 38.8161 45.4015C43.57 42.6396 51.3146 42.6285 56.1183 45.4015Z" fill="#9B9B9B"/>
<path d="M47.5089 56.2105C44.4628 56.2105 41.6197 55.5385 39.5003 54.3145C37.5914 53.2124 36.5409 51.8277 36.5391 50.4117C36.5354 49.0013 37.5766 47.6204 39.4671 46.5219C41.5772 45.2961 44.4148 44.6204 47.4609 44.6204C50.5015 44.6204 53.3465 45.2961 55.4732 46.5219C57.3785 47.6222 58.4271 49.0105 58.4308 50.4321C58.4308 51.8388 57.4006 53.2161 55.5249 54.3034C53.4092 55.5348 50.5625 56.2105 47.5089 56.2105Z" fill="#1E6373"/>
<path d="M47.9516 52.6549L45.4187 51.1817L43.4211 50.0223L42.4611 50.5762L41.7227 50.1497L43.3787 49.1952L41.994 48.3885L42.81 47.9177L44.1947 48.7226L44.7836 48.3829L43.399 47.578L44.2242 47.0999L45.6088 47.9066L46.4174 47.4395C47.178 47.0002 48.415 46.9965 49.1608 47.4285C49.9159 47.8679 49.9122 48.5897 49.1516 49.0272C50.1042 48.49 51.6088 48.4955 52.5356 49.0328C53.4827 49.5829 53.4771 50.4599 52.5356 51.0045L51.7362 51.466L52.9491 52.1712L52.122 52.6494L50.9091 51.9442L50.322 52.282L51.535 52.9872L50.719 53.4599L49.5042 52.7546L47.8113 53.7331L47.154 53.1146L47.9516 52.6549ZM49.2882 52.0051L50.8076 51.1263C51.3171 50.8328 51.3208 50.3546 50.8131 50.0611C50.3073 49.7657 49.4728 49.7602 48.9633 50.0555L47.4439 50.9325L49.2882 52.0051ZM45.7879 48.5786L44.6543 49.234L46.3934 50.2439L47.5288 49.5885C48.018 49.306 48.0217 48.85 47.5436 48.5731C47.0654 48.2962 46.2771 48.2962 45.7879 48.5786Z" fill="#9B9B9B"/>
<path opacity="0.4" d="M47.6229 43.3263V57.5048C45.2284 57.5196 42.8487 57.1319 40.7773 56.338V44.4765C42.8487 43.6993 45.245 43.3116 47.6229 43.3263ZM54.1933 44.4931V56.338C52.7122 56.9005 51.1602 57.2546 49.5817 57.3903V43.4408C51.1577 43.5922 52.7077 43.9458 54.1933 44.4931Z" fill="white"/>
<path d="M37.9872 82.1508L37.9779 85.5773C37.9724 87.381 36.7909 89.181 34.4296 90.5545C29.6555 93.3274 21.8906 93.3274 17.1072 90.5656C14.6943 89.1736 13.4924 87.3477 13.4961 85.5256L13.5072 82.0991C13.5016 83.9213 14.7035 85.7471 17.1164 87.1391C21.8998 89.901 29.6666 89.901 34.4389 87.128C36.802 85.7545 37.9835 83.9545 37.9872 82.1508Z" fill="#1E6373"/>
<path d="M34.3851 77.1053C39.1684 79.8671 39.1943 84.3644 34.4404 87.1281C29.6681 89.901 21.9014 89.901 17.118 87.1391C12.3124 84.3644 12.3088 79.8801 17.0811 77.1053C21.8349 74.3434 29.5795 74.3305 34.3851 77.1053Z" fill="#9B9B9B"/>
<path d="M25.7706 87.9146C22.7245 87.9146 19.8814 87.2408 17.762 86.0186C15.8549 84.9165 14.8026 83.53 14.8008 82.1158C14.7989 80.7054 15.8402 79.3245 17.7306 78.2242C19.8389 77.0002 22.6783 76.3245 25.7226 76.3245C28.7651 76.3245 31.61 77.0002 33.7349 78.226C35.6402 79.3263 36.6906 80.7146 36.6925 82.1362C36.6943 83.5429 35.6623 84.9183 33.7885 86.0075C31.6728 87.2371 28.8242 87.9146 25.7706 87.9146Z" fill="#1E6373"/>
<path d="M30.9826 83.2197C31.0778 83.0752 31.1404 82.9116 31.1662 82.7405C31.192 82.5693 31.1804 82.3946 31.1321 82.2284C31.0214 81.9108 30.7592 81.6302 30.366 81.4068C29.8841 81.1136 29.3391 80.9402 28.7764 80.901C28.2337 80.8825 27.7094 80.9194 27.1851 81.0302C26.7364 81.1447 26.2306 81.2942 25.6527 81.4991L23.4447 80.2271C23.9487 79.965 24.4915 79.7601 25.0527 79.6105L25.3149 79.5164C25.5014 79.4056 25.577 79.2727 25.5586 79.1416C25.5401 79.0124 25.4644 78.8997 25.3149 78.8056C25.0077 78.6517 24.6539 78.6188 24.3235 78.7133C23.6312 78.8979 22.9204 79.1601 22.2466 79.5164L21.6669 79.1804C21.5102 79.1016 21.3364 79.0629 21.161 79.0677C20.9924 79.0624 20.8252 79.1006 20.6755 79.1785C20.5444 79.2542 20.4687 79.3668 20.4687 79.461C20.4687 79.5717 20.5426 79.6659 20.694 79.7601L21.2737 80.0961C20.862 80.3951 20.5814 80.6942 20.4503 81.0136C20.3728 81.1627 20.3279 81.3264 20.3183 81.4941C20.3088 81.6618 20.3349 81.8296 20.3949 81.9865C20.5426 82.3041 20.825 82.5662 21.1998 82.7896C21.6669 83.0517 22.1524 83.2013 22.7137 83.2401C23.2195 83.277 23.7623 83.2401 24.2663 83.109C24.6983 83.0351 25.2207 82.8837 25.7635 82.6973L27.8958 83.9305C27.2693 84.2302 26.6101 84.4564 25.9315 84.6044C25.8201 84.6332 25.7133 84.6773 25.614 84.7354C25.446 84.8277 25.3334 84.9607 25.3518 85.0917C25.3518 85.221 25.4441 85.3354 25.614 85.4277C25.745 85.5016 25.8946 85.5588 26.081 85.5773L26.5869 85.5404C27.4643 85.3408 28.3174 85.0461 29.1309 84.6616L29.7106 84.9976C29.8601 85.0714 30.0484 85.1287 30.2164 85.1287C30.3854 85.1193 30.5507 85.0753 30.702 84.9994C30.833 84.9237 30.9087 84.8111 30.9087 84.717C30.9087 84.6062 30.8349 84.5121 30.702 84.4364L30.1038 84.0819C30.5155 83.8197 30.8146 83.5207 30.9826 83.2197ZM22.4349 82.005C22.1727 81.837 22.0417 81.6671 22.097 81.4437C22.134 81.237 22.2835 81.0321 22.5272 80.8253L24.4361 81.9293C24.006 82.0604 23.6127 82.1361 23.3137 82.173C23.0098 82.2087 22.7024 82.1501 22.433 82.005H22.4349ZM28.8503 83.3711L26.9986 82.2856C27.4657 82.1361 27.8958 82.0234 28.2152 81.9865C28.5512 81.9311 28.7949 81.9681 28.9998 82.0973C29.3931 82.3225 29.7863 82.6973 28.8521 83.3711H28.8503Z" fill="#9B9B9B"/>
<path d="M37.9872 82.1508L37.9779 85.5773C37.9724 87.381 36.7909 89.181 34.4296 90.5545C29.6555 93.3274 21.8906 93.3274 17.1072 90.5656C14.6943 89.1736 13.4924 87.3477 13.4961 85.5256L13.5072 82.0991C13.5016 83.9213 14.7035 85.7471 17.1164 87.1391C21.8998 89.901 29.6666 89.901 34.4389 87.128C36.802 85.7545 37.9835 83.9545 37.9872 82.1508Z" fill="#1E6373"/>
<path d="M34.3851 77.1053C39.1684 79.8671 39.1943 84.3644 34.4404 87.1281C29.6681 89.901 21.9014 89.901 17.118 87.1391C12.3124 84.3644 12.3088 79.8801 17.0811 77.1053C21.8349 74.3434 29.5795 74.3305 34.3851 77.1053Z" fill="#9B9B9B"/>
<path d="M25.7706 87.9146C22.7245 87.9146 19.8814 87.2408 17.762 86.0186C15.8549 84.9165 14.8026 83.53 14.8008 82.1158C14.7989 80.7054 15.8402 79.3245 17.7306 78.2242C19.8389 77.0002 22.6783 76.3245 25.7226 76.3245C28.7651 76.3245 31.61 77.0002 33.7349 78.226C35.6402 79.3263 36.6906 80.7146 36.6925 82.1362C36.6943 83.5429 35.6623 84.9183 33.7885 86.0075C31.6728 87.2371 28.8242 87.9146 25.7706 87.9146Z" fill="#1E6373"/>
<path d="M30.9826 83.2197C31.0778 83.0752 31.1404 82.9116 31.1662 82.7405C31.192 82.5693 31.1804 82.3946 31.1321 82.2284C31.0214 81.9108 30.7592 81.6302 30.366 81.4068C29.8841 81.1136 29.3391 80.9402 28.7764 80.901C28.2337 80.8825 27.7094 80.9194 27.1851 81.0302C26.7364 81.1447 26.2306 81.2942 25.6527 81.4991L23.4447 80.2271C23.9487 79.965 24.4915 79.7601 25.0527 79.6105L25.3149 79.5164C25.5014 79.4056 25.577 79.2727 25.5586 79.1416C25.5401 79.0124 25.4644 78.8997 25.3149 78.8056C25.0077 78.6517 24.6539 78.6188 24.3235 78.7133C23.6312 78.8979 22.9204 79.1601 22.2466 79.5164L21.6669 79.1804C21.5102 79.1016 21.3364 79.0629 21.161 79.0677C20.9924 79.0624 20.8252 79.1006 20.6755 79.1785C20.5444 79.2542 20.4687 79.3668 20.4687 79.461C20.4687 79.5717 20.5426 79.6659 20.694 79.7601L21.2737 80.0961C20.862 80.3951 20.5814 80.6942 20.4503 81.0136C20.3728 81.1627 20.3279 81.3264 20.3183 81.4941C20.3088 81.6618 20.3349 81.8296 20.3949 81.9865C20.5426 82.3041 20.825 82.5662 21.1998 82.7896C21.6669 83.0517 22.1524 83.2013 22.7137 83.2401C23.2195 83.277 23.7623 83.2401 24.2663 83.109C24.6983 83.0351 25.2207 82.8837 25.7635 82.6973L27.8958 83.9305C27.2693 84.2302 26.6101 84.4564 25.9315 84.6044C25.8201 84.6332 25.7133 84.6773 25.614 84.7354C25.446 84.8277 25.3334 84.9607 25.3518 85.0917C25.3518 85.221 25.4441 85.3354 25.614 85.4277C25.745 85.5016 25.8946 85.5588 26.081 85.5773L26.5869 85.5404C27.4643 85.3408 28.3174 85.0461 29.1309 84.6616L29.7106 84.9976C29.8601 85.0714 30.0484 85.1287 30.2164 85.1287C30.3854 85.1193 30.5507 85.0753 30.702 84.9994C30.833 84.9237 30.9087 84.8111 30.9087 84.717C30.9087 84.6062 30.8349 84.5121 30.702 84.4364L30.1038 84.0819C30.5155 83.8197 30.8146 83.5207 30.9826 83.2197ZM22.4349 82.005C22.1727 81.837 22.0417 81.6671 22.097 81.4437C22.134 81.237 22.2835 81.0321 22.5272 80.8253L24.4361 81.9293C24.006 82.0604 23.6127 82.1361 23.3137 82.173C23.0098 82.2087 22.7024 82.1501 22.433 82.005H22.4349ZM28.8503 83.3711L26.9986 82.2856C27.4657 82.1361 27.8958 82.0234 28.2152 81.9865C28.5512 81.9311 28.7949 81.9681 28.9998 82.0973C29.3931 82.3225 29.7863 82.6973 28.8521 83.3711H28.8503Z" fill="#9B9B9B"/>
<path d="M37.9872 77.3232L37.9779 80.7496C37.9724 82.5533 36.7909 84.3533 34.4296 85.725C29.6555 88.4998 21.8906 88.4998 17.1072 85.7379C14.6943 84.3441 13.4924 82.5201 13.4961 80.6979L13.5072 77.2715C13.5016 79.0936 14.7035 80.9176 17.1164 82.3115C21.8998 85.0733 29.6666 85.0733 34.4389 82.2986C36.802 80.9269 37.9835 79.1269 37.9872 77.3232Z" fill="#1E6373"/>
<path d="M34.3851 72.2776C39.1684 75.0395 39.1943 79.5367 34.4404 82.2986C29.6681 85.0733 21.9014 85.0733 17.118 82.3115C12.3124 79.5367 12.3088 75.0506 17.0811 72.2776C21.8349 69.5158 29.5795 69.5029 34.3851 72.2776Z" fill="#9B9B9B"/>
<path d="M25.7706 83.0869C22.7245 83.0869 19.8814 82.413 17.762 81.1909C15.8549 80.0887 14.8026 78.7023 14.8008 77.2881C14.7989 75.8776 15.8402 74.4967 17.7306 73.3964C19.8389 72.1706 22.6783 71.4949 25.7226 71.4949C28.7651 71.4949 31.61 72.1724 33.7349 73.3983C35.6402 74.4986 36.6906 75.8869 36.6925 77.3084C36.6943 78.7152 35.6623 80.0906 33.7885 81.1798C31.6728 82.4093 28.8242 83.0869 25.7706 83.0869Z" fill="#1E6373"/>
<path d="M30.9826 78.3921C31.0778 78.2475 31.1404 78.084 31.1662 77.9128C31.192 77.7417 31.1804 77.5669 31.1321 77.4007C31.0214 77.0832 30.7592 76.8026 30.366 76.5773C29.884 76.2848 29.3389 76.112 28.7764 76.0733C28.2337 76.0549 27.7094 76.0918 27.1851 76.2026C26.6671 76.3342 26.1557 76.4907 25.6527 76.6715L23.4447 75.3995C23.9487 75.1373 24.4915 74.9324 25.0527 74.7829L25.3149 74.6887C25.5014 74.5779 25.577 74.445 25.5586 74.314C25.5401 74.1847 25.4644 74.0721 25.3149 73.978C25.0077 73.8241 24.6539 73.7912 24.3235 73.8856C23.6312 74.0703 22.9204 74.3324 22.2466 74.6887L21.6669 74.3527C21.5102 74.274 21.3364 74.2353 21.161 74.2401C20.9924 74.2348 20.8252 74.2729 20.6755 74.3509C20.5444 74.4266 20.4687 74.5392 20.4687 74.6333C20.4687 74.7441 20.5426 74.8383 20.694 74.9324L21.2737 75.2684C20.862 75.5675 20.5814 75.8666 20.4503 76.186C20.3728 76.335 20.3279 76.4988 20.3183 76.6665C20.3088 76.8342 20.3349 77.002 20.3949 77.1589C20.5426 77.4764 20.825 77.7386 21.1998 77.962C21.6669 78.2241 22.1524 78.3736 22.7137 78.4106C23.2195 78.4475 23.7623 78.4106 24.2663 78.2813C24.6983 78.2056 25.2207 78.0561 25.7635 77.8696L27.8958 79.1029C27.2693 79.4026 26.6101 79.6287 25.9315 79.7767C25.8201 79.8056 25.7133 79.8497 25.614 79.9078C25.446 80.0001 25.3334 80.133 25.3518 80.2641C25.3518 80.3933 25.4441 80.5059 25.614 80.6001C25.745 80.6739 25.8946 80.7312 26.081 80.7496L26.5869 80.7127C27.4643 80.5132 28.3174 80.2185 29.1309 79.834L29.7106 80.17C29.8601 80.2438 30.0484 80.2992 30.2164 80.2992C30.3854 80.2898 30.5507 80.2458 30.702 80.17C30.833 80.0961 30.9087 79.9835 30.9087 79.8893C30.9087 79.7786 30.8349 79.6844 30.702 79.6087L30.1038 79.2524C30.5155 78.9921 30.8146 78.6912 30.9826 78.3921ZM22.4349 77.1773C22.1727 77.0075 22.0417 76.8395 22.097 76.6161C22.134 76.4093 22.2835 76.2044 22.5272 75.9976L24.4361 77.1016C24.006 77.2327 23.6127 77.3084 23.3137 77.3453C23.0098 77.3811 22.7024 77.3224 22.433 77.1773H22.4349ZM28.8503 78.5435L26.9986 77.4579C27.4657 77.3084 27.8958 77.1958 28.2152 77.1589C28.5512 77.1035 28.7949 77.1404 28.9998 77.2696C29.3931 77.4949 29.7863 77.8696 28.8521 78.5435H28.8503Z" fill="#9B9B9B"/>
<path d="M37.9872 72.5397L37.9779 75.9662C37.9724 77.7699 36.7909 79.5699 34.4296 80.9434C29.6555 83.7163 21.8906 83.7163 17.1072 80.9545C14.6943 79.5625 13.4924 77.7367 13.4961 75.9145L13.5072 72.488C13.5016 74.3102 14.7035 76.136 17.1164 77.528C21.8998 80.2899 29.6666 80.2899 34.4389 77.517C36.802 76.1434 37.9835 74.3434 37.9872 72.5397Z" fill="#1E6373"/>
<path d="M34.3851 67.4942C39.1684 70.256 39.1943 74.7551 34.4404 77.517C29.6681 80.2899 21.9014 80.2899 17.118 77.5281C12.3124 74.7551 12.3088 70.269 17.0811 67.4942C21.8349 64.7324 29.5795 64.7194 34.3851 67.4942Z" fill="#9B9B9B"/>
<path d="M25.7706 78.3035C22.7245 78.3035 19.8814 77.6297 17.762 76.4075C15.8549 75.3054 14.8026 73.9189 14.8008 72.5048C14.7989 71.0943 15.8402 69.7134 17.7306 68.6131C19.8389 67.3891 22.6783 66.7134 25.7226 66.7134C28.7651 66.7134 31.61 67.3891 33.7349 68.6149C35.6402 69.7152 36.6906 71.1035 36.6925 72.5251C36.6943 73.9318 35.6623 75.3072 33.7885 76.3965C31.6728 77.626 28.8242 78.3035 25.7706 78.3035Z" fill="#1E6373"/>
<path d="M30.9826 73.6105C31.078 73.4657 31.1408 73.3018 31.1666 73.1303C31.1925 72.9588 31.1807 72.7838 31.1321 72.6173C31.0214 72.2997 30.7592 72.0191 30.366 71.7957C29.8841 71.5026 29.3391 71.3291 28.7764 71.2899C28.2337 71.2714 27.7094 71.3083 27.1851 71.4191C26.6671 71.5507 26.1557 71.7072 25.6527 71.888L23.4447 70.616C23.9487 70.3539 24.4915 70.149 25.0527 69.9994L25.3149 69.9071C25.5014 69.7927 25.5771 69.6616 25.5586 69.5305C25.5401 69.3994 25.4644 69.2887 25.3149 69.1945C25.0077 69.0407 24.6539 69.0077 24.3235 69.1022C23.6312 69.2868 22.9204 69.5508 22.2466 69.9053L21.6669 69.5693C21.5102 69.4905 21.3364 69.4518 21.161 69.4567C20.9746 69.4567 20.8066 69.4936 20.6755 69.5674C20.5444 69.6413 20.4687 69.7557 20.4687 69.8499C20.4687 69.9607 20.5426 70.0548 20.694 70.149L21.2737 70.485C20.862 70.784 20.5814 71.085 20.4503 71.4025C20.3728 71.5516 20.3279 71.7153 20.3183 71.883C20.3088 72.0507 20.3349 72.2185 20.3949 72.3754C20.5426 72.693 20.825 72.9551 21.1998 73.1785C21.6669 73.4407 22.1524 73.5902 22.7137 73.629C23.2195 73.6659 23.7623 73.629 24.2663 73.4979C24.6983 73.424 25.2207 73.2727 25.7635 73.0862L27.8958 74.3213C27.2692 74.6204 26.61 74.8459 25.9315 74.9933C25.8201 75.0221 25.7133 75.0662 25.614 75.1243C25.446 75.2185 25.3334 75.3496 25.3518 75.4807C25.3518 75.6099 25.4441 75.7243 25.614 75.8167C25.745 75.8905 25.8946 75.9477 26.081 75.9662L26.5869 75.9293C27.4643 75.7297 28.3174 75.4351 29.1309 75.0505L29.7106 75.3865C29.8601 75.4604 30.0484 75.5176 30.2164 75.5176C30.3854 75.5082 30.5507 75.4642 30.702 75.3884C30.833 75.3127 30.9087 75.2 30.9087 75.1059C30.9087 74.9951 30.8349 74.901 30.702 74.8253L30.1038 74.4708C30.5155 74.2087 30.8146 73.9096 30.9826 73.6105ZM22.4349 72.392C22.1727 72.2259 22.0417 72.056 22.097 71.8327C22.134 71.6259 22.2835 71.421 22.5272 71.2142L24.4361 72.3182C24.006 72.4493 23.6127 72.525 23.3137 72.5619C23.0098 72.5976 22.7024 72.539 22.4331 72.3939L22.4349 72.392ZM28.8503 73.7582L26.9986 72.6745C27.4657 72.525 27.8958 72.4124 28.2152 72.3754C28.5512 72.32 28.7949 72.357 28.9998 72.4862C29.3931 72.7114 29.7863 73.0862 28.8521 73.76L28.8503 73.7582Z" fill="#9B9B9B"/>
<path d="M37.9872 67.8193L37.9779 71.2457C37.9724 73.0494 36.7909 74.8494 34.4296 76.2211C29.6555 78.9959 21.8906 78.9959 17.1072 76.234C14.6943 74.8402 13.4924 73.0162 13.4961 71.194L13.5072 67.7676C13.5016 69.5897 14.7035 71.4137 17.1164 72.8076C21.8998 75.5694 29.6666 75.5694 34.4389 72.7947C36.802 71.423 37.9835 69.623 37.9872 67.8193Z" fill="#1E6373"/>
<path d="M34.3851 62.7737C39.1684 65.5355 39.1943 70.0328 34.4404 72.7946C29.6681 75.5694 21.9014 75.5694 17.118 72.8076C12.3124 70.0328 12.3088 65.5466 17.0811 62.7737C21.8349 60.01 29.5795 59.9989 34.3851 62.7737Z" fill="#9B9B9B"/>
<path d="M25.7706 73.5811C22.7245 73.5811 19.8814 72.9091 17.762 71.6851C15.8549 70.5848 14.8026 69.1984 14.8008 67.7824C14.7989 66.3737 15.8402 64.991 17.7306 63.8925C19.8389 62.6667 22.6783 61.991 25.7226 61.991C28.7651 61.991 31.61 62.6685 33.7349 63.8925C35.6402 64.9947 36.6906 66.3811 36.6925 67.8027C36.6943 69.2113 35.6623 70.5867 33.7885 71.6759C31.6728 72.9054 28.8242 73.5811 25.7706 73.5811Z" fill="#1E6373"/>
<path d="M26.2154 70.0254L23.6843 68.554L21.6867 67.3928L20.7249 67.9466L19.9883 67.522L21.6424 66.5657L20.2578 65.7608L21.0757 65.2882L22.4603 66.0931L23.0474 65.7553L21.6627 64.9485L22.4898 64.4722L23.8744 65.2771L24.6831 64.81C25.4437 64.3725 26.6787 64.3669 27.4246 64.7989C28.1815 65.2383 28.176 65.9602 27.4154 66.3996C28.368 65.8605 29.8744 65.8642 30.8012 66.4051C31.7464 66.9534 31.7427 67.8322 30.7994 68.3768L30 68.8383L31.2147 69.5417L30.3877 70.0199L29.1729 69.3146L28.5858 69.6525L29.8006 70.3577L28.9827 70.8303L27.7698 70.1251L26.0769 71.1036L25.4178 70.4869L26.2172 70.0254H26.2154ZM27.552 69.3756L29.0732 68.4986C29.5827 68.2032 29.5846 67.7269 29.0787 67.4316C28.5729 67.1362 27.7384 67.1325 27.2289 67.426L25.7077 68.3029L27.5538 69.3756M24.0535 65.9491L22.9181 66.6045L24.6572 67.6143L25.7926 66.9589C26.2837 66.6765 26.2855 66.2205 25.8074 65.9436C25.3292 65.6666 24.5446 65.6666 24.0535 65.9491Z" fill="#9B9B9B"/>
<path opacity="0.4" d="M25.8864 60.6985V74.8751C23.4901 74.8899 21.1123 74.5022 19.0391 73.7102V61.8468C21.1123 61.0714 23.5068 60.6819 25.8864 60.6985ZM32.4551 61.8634V73.7102C30.9739 74.2726 29.4219 74.6268 27.8434 74.7625V60.8111C29.42 60.9623 30.9688 61.316 32.4551 61.8634Z" fill="white"/>
<path d="M81.6258 6.32381L77.7858 25.3392L72.5058 21.9238L66.8751 30.7853L63.1089 28.1453L46.1428 52.2746L41.6566 49.2284L26.1304 71.4561L22.0135 68.5761L20.6289 67.5792L36.9489 44.2438L38.7766 41.6223L42.1181 43.93L46.5858 46.9946L43.2628 44.6869L60.2289 20.5392L63.552 22.8469L63.8658 23.0684L66.9489 18.1207L65.0658 16.8284L61.7428 14.5207L78.3028 4.01611L81.6258 6.32381Z" fill="#A6A6A6"/>
<path d="M67.1958 25.3632L63.8672 23.0647L66.954 18.1189L70.2826 20.4174L67.1958 25.3632Z" fill="#A6A6A6"/>
<path d="M46.5903 46.9872L43.2617 44.6887L60.2242 20.5392L63.5528 22.8376L46.5903 46.9872ZM65.0611 16.8247L61.7325 14.5262L78.2906 4.01978L81.6193 6.31824L65.0611 16.8247Z" fill="#B4B4B4"/>
<path d="M40.2739 46.5478L36.9453 44.2512L40.6247 46.7361L44.7527 49.6125L40.2739 46.5478Z" fill="#33848C"/>
<path d="M26.1325 71.4525L22.0045 68.578L20.6328 67.5737L23.9614 69.8722L26.1325 71.4525Z" fill="#B4B4B4"/>
<path d="M81.6221 6.31836L77.7821 25.343L72.4984 21.9313L66.8768 30.7817L63.1051 28.1436L46.1445 52.2821L41.6639 49.2193L26.1359 71.4525L23.9648 69.8722L42.1125 43.9245L46.5931 46.9873L63.5556 22.8377L67.1962 25.3633L70.283 20.4174L65.0639 16.8248L81.6221 6.31836Z" fill="#989898"/>
<path d="M23.9614 69.8721L20.6328 67.5737L38.7824 41.626L42.1091 43.9244L23.9614 69.8721Z" fill="#A6A6A6"/>
</svg>
