<svg width="100" height="101" viewBox="0 0 100 101" fill="none" xmlns="http://www.w3.org/2000/svg">
<path d="M57.4873 49.8439C56.912 49.8439 56.3367 49.7142 55.8872 49.4546L42.7815 41.8881C42.3007 41.6102 42.0357 41.2263 42.0352 40.8071C42.0347 40.3929 42.2937 40.0141 42.7646 39.7401L55.7852 32.1731C56.6783 31.6555 58.0855 31.6555 58.988 32.1771L72.0936 39.7436C72.5725 40.0195 72.8365 40.4014 72.837 40.8181C72.8375 41.2328 72.5769 41.6127 72.1036 41.8876L59.0834 49.4546C58.6369 49.7142 58.0621 49.8439 57.4873 49.8439ZM57.3784 32.2989C56.8896 32.2989 56.4023 32.4033 56.0408 32.6137L43.0202 40.1806C42.7129 40.3591 42.5438 40.5814 42.5443 40.8067C42.5443 41.0334 42.7238 41.2671 43.0361 41.4476L56.1418 49.014C56.8846 49.4427 58.0899 49.4437 58.8278 49.014L71.848 41.4471C72.1578 41.2676 72.3278 41.0443 72.3278 40.8191C72.3273 40.5913 72.1538 40.3661 71.839 40.1841L58.7334 32.6177C58.3649 32.4053 57.8707 32.2989 57.3784 32.2989ZM93.0063 51.7951L79.8909 44.2374C78.9871 43.7183 77.5831 43.699 76.6986 44.2183L63.6601 51.7951C63.1986 52.0644 62.9293 52.449 62.9486 52.8529C62.9486 53.2759 63.1986 53.6606 63.6793 53.9491L76.7947 61.5068C77.237 61.7759 77.8139 61.8913 78.3909 61.8913C78.9678 61.8913 79.5447 61.7759 79.987 61.5068L87.1216 57.3528L87.66 57.0452L93.0063 53.9491C93.487 53.6606 93.737 53.2952 93.737 52.8722C93.737 52.449 93.4678 52.0836 93.0063 51.7951ZM92.7562 53.5067L87.1601 56.7567L86.6216 57.0644L79.737 61.0644C78.9871 61.5068 77.7947 61.5068 77.0447 61.0644L63.9486 53.5067C63.6216 53.3144 63.4486 53.0837 63.4486 52.8529C63.4486 52.6413 63.6216 52.4105 63.9293 52.2375L76.9486 44.6606C77.3139 44.4491 77.7947 44.3528 78.2754 44.3528C78.7754 44.3528 79.2755 44.4682 79.6409 44.6798L92.737 52.2375C93.0639 52.4298 93.237 52.6413 93.237 52.8722C93.237 53.1029 93.0639 53.3144 92.7562 53.5067Z" fill="#1E6373"/>
<path d="M71.0207 36.8203V40.2049C71.0207 40.4741 70.8477 40.7434 70.4823 40.9741L58.79 47.7434C58.0592 48.1664 56.8862 48.1664 56.1554 47.7434L44.4054 40.9741C44.04 40.7434 43.8477 40.4741 43.8477 40.1857V36.8011C43.8477 36.5318 44.0208 36.2626 44.3862 36.0511L56.0784 29.2627C56.8092 28.8395 57.9823 28.8395 58.7131 29.2627L70.4823 36.0511C70.8477 36.2626 71.0207 36.5318 71.0207 36.8203Z" fill="#ECECEC"/>
<path d="M71.025 36.8194V40.2C71.0157 40.4801 70.8382 40.7508 70.4741 40.9656L58.793 47.7446C58.0647 48.1741 56.8881 48.1741 56.1598 47.7446L44.404 40.9656C44.0305 40.7508 43.8438 40.4707 43.8438 40.1906L43.8532 36.8101C43.8532 37.0902 44.0399 37.3703 44.4041 37.5757L56.1599 44.364C56.8975 44.7935 58.074 44.7935 58.8024 44.364L70.4835 37.5757C70.8383 37.3703 71.025 37.0995 71.025 36.8194Z" fill="#ECECEC"/>
<path d="M70.473 36.0518C71.2063 36.4752 71.2102 37.1567 70.4817 37.5801L58.8017 44.3677C58.0732 44.7911 56.8967 44.7911 56.1634 44.3677L44.4071 37.5802C43.6738 37.1568 43.664 36.4719 44.3925 36.0485L56.0724 29.2609C56.8009 28.8375 57.9835 28.841 58.7167 29.2643L70.473 36.0518Z" fill="#F6F6F6"/>
<path d="M71.025 31.1419V34.5225C71.0157 34.8026 70.8382 35.0734 70.4741 35.2881L58.793 42.0671C58.0647 42.4966 56.8881 42.4966 56.1598 42.0671L44.404 35.2881C44.0305 35.0734 43.8438 34.7932 43.8438 34.5131L43.8532 31.1326C43.8532 31.4127 44.0399 31.6928 44.4041 31.8982L56.1599 38.6865C56.8975 39.116 58.074 39.116 58.8024 38.6865L70.4835 31.8982C70.8383 31.6928 71.025 31.422 71.025 31.1419Z" fill="#8F8F8F"/>
<path d="M70.473 30.3743C71.2063 30.7977 71.2102 31.4792 70.4817 31.9026L58.8017 38.6902C58.0732 39.1136 56.8967 39.1136 56.1634 38.6902L44.4071 31.9027C43.6738 31.4793 43.664 30.7944 44.3925 30.371L56.0724 23.5834C56.8009 23.16 57.9835 23.1635 58.7167 23.5868L70.473 30.3743Z" fill="#A2A2A2"/>
<path d="M69.8366 33.3921V36.4767C69.8281 36.7323 69.6662 36.9793 69.3339 37.1753L58.6755 43.3607C58.011 43.7526 56.9375 43.7526 56.2729 43.3607L45.5464 37.1753C45.2056 36.9793 45.0352 36.7237 45.0352 36.4681L45.0437 33.3835C45.0437 33.6391 45.2141 33.8947 45.5464 34.0822L56.273 40.2761C56.946 40.6681 58.0195 40.6681 58.6841 40.2761L69.3425 34.0822C69.6663 33.8947 69.8366 33.6477 69.8366 33.3921Z" fill="#888888"/>
<path d="M71.0207 31.1472V34.5319C71.0207 34.801 70.8477 35.0703 70.4823 35.2818L58.79 42.0703C58.0592 42.4933 56.8862 42.4933 56.1554 42.0703L44.4054 35.2818C44.04 35.0703 43.8477 34.801 43.8477 34.5126V31.128C43.8477 30.8587 44.0208 30.5895 44.3862 30.378L56.0784 23.5896C56.8092 23.1664 57.9823 23.1664 58.7131 23.5896L70.4823 30.378C70.8477 30.5895 71.0207 30.8587 71.0207 31.1472Z" fill="#ECECEC"/>
<path d="M71.025 31.1419V34.5225C71.0157 34.8026 70.8382 35.0734 70.4741 35.2881L58.793 42.0671C58.0647 42.4966 56.8881 42.4966 56.1598 42.0671L44.404 35.2881C44.0305 35.0734 43.8438 34.7932 43.8438 34.5131L43.8532 31.1326C43.8532 31.4127 44.0399 31.6928 44.4041 31.8982L56.1599 38.6865C56.8975 39.116 58.074 39.116 58.8024 38.6865L70.4835 31.8982C70.8383 31.6928 71.025 31.422 71.025 31.1419Z" fill="#ECECEC"/>
<path d="M70.473 30.3743C71.2063 30.7977 71.2102 31.4792 70.4817 31.9026L58.8017 38.6902C58.0732 39.1136 56.8967 39.1136 56.1634 38.6902L44.4071 31.9027C43.6738 31.4793 43.664 30.7944 44.3925 30.371L56.0724 23.5834C56.8009 23.16 57.9835 23.1635 58.7167 23.5868L70.473 30.3743Z" fill="#F6F6F6"/>
<path d="M69.8366 27.7934V30.878C69.8281 31.1336 69.6662 31.3807 69.3339 31.5766L58.6755 37.7621C58.011 38.154 56.9375 38.154 56.2729 37.7621L45.5464 31.5766C45.2056 31.3807 45.0352 31.1251 45.0352 30.8695L45.0437 27.7849C45.0437 28.0405 45.2141 28.2961 45.5464 28.4836L56.273 34.6775C56.946 35.0694 58.0195 35.0694 58.6841 34.6775L69.3425 28.4836C69.6663 28.2961 69.8366 28.049 69.8366 27.7934Z" fill="#888888"/>
<path d="M71.0207 25.4549V28.8395C71.0207 29.128 70.8477 29.3972 70.4823 29.6088L58.79 36.3972C58.0592 36.8203 56.8862 36.8203 56.1554 36.3972L44.4054 29.6088C44.04 29.3972 43.8477 29.1088 43.8477 28.8395V25.4549C43.8477 25.1856 44.0208 24.8972 44.3862 24.6857L56.0784 17.8972C56.8092 17.4742 57.9823 17.4933 58.7131 17.9165L70.4823 24.7049C70.8477 24.9165 71.0207 25.1856 71.0207 25.4549Z" fill="#ECECEC"/>
<path d="M71.025 25.4642V28.8447C71.0157 29.1249 70.8382 29.3956 70.4741 29.6104L58.793 36.3893C58.0647 36.8189 56.8881 36.8189 56.1598 36.3893L44.404 29.6104C44.0305 29.3956 43.8438 29.1155 43.8438 28.8354L43.8532 25.4548C43.8532 25.7349 44.0399 26.0151 44.4041 26.2205L56.1599 33.0088C56.8975 33.4383 58.074 33.4383 58.8024 33.0088L70.4835 26.2205C70.8383 26.0151 71.025 25.7443 71.025 25.4642Z" fill="#ECECEC"/>
<path d="M70.473 24.6966C71.2063 25.12 71.2102 25.8015 70.4817 26.2248L58.8017 33.0125C58.0732 33.4358 56.8967 33.4358 56.1634 33.0125L44.4071 26.225C43.6738 25.8016 43.664 25.1167 44.3925 24.6933L56.0724 17.9057C56.8009 17.4823 57.9835 17.4857 58.7167 17.9091L70.473 24.6966Z" fill="#F6F6F6"/>
<path d="M57.4814 32.2486C57.1799 32.2486 56.8879 32.1842 56.7005 32.0759L46.3648 26.1085C45.8638 25.8192 45.8625 25.0964 46.3626 24.8054L56.6128 18.8408C57.0042 18.6134 57.7729 18.6153 58.1732 18.8461L68.5035 24.8098C69.0045 25.0991 69.0058 25.8219 68.5057 26.1129L58.2556 32.0775C58.0713 32.1847 57.7819 32.2486 57.4814 32.2486Z" fill="#ECECEC"/>
<path d="M63.6722 23.7434V25.4742C63.6722 25.6473 63.6529 26.2435 63.6145 26.4165C63.3203 27.5194 62.2297 28.3408 61.1722 28.7819C60.326 29.1472 59.3645 29.3781 58.3644 29.455C57.7683 29.5126 57.1529 29.5126 56.5376 29.455C55.5376 29.3781 54.576 29.1472 53.7299 28.7819C53.4991 28.6857 53.2684 28.5703 53.0376 28.4357C52.826 28.3012 52.6145 28.1665 52.4415 28.0319C51.5454 27.3531 51.1914 26.5494 51.1914 25.8588V23.7434C51.1914 23.5704 51.2107 23.378 51.2492 23.1857C51.7623 21.2604 54.4968 20.3014 56.4991 20.1472C57.0953 20.0896 57.7299 20.0896 58.3261 20.1472C59.7304 20.2554 61.2968 20.6953 62.4222 21.5704C63.0568 22.0512 63.4606 22.6088 63.5953 23.1857C63.6529 23.378 63.6722 23.5511 63.6722 23.7434Z" fill="#9B9B9B"/>
<path d="M63.6052 23.1924C63.6964 23.5448 63.6984 23.9018 63.6112 24.2542C63.4705 24.8285 63.0863 25.3864 62.4584 25.8739C61.4204 26.7139 59.7722 27.1798 58.3744 27.2975C57.7664 27.3491 57.148 27.3503 56.5414 27.2975C54.5208 27.1256 51.7761 26.1957 51.2663 24.2519C51.173 23.9007 51.173 23.5425 51.2583 23.1913C51.7376 21.259 54.4878 20.3169 56.4991 20.1456C57.1051 20.0951 57.7215 20.0951 58.3301 20.1468C60.4162 20.3264 63.1132 21.2949 63.6052 23.1924Z" fill="#9B9B9B"/>
<path d="M63.6761 23.7403L63.6799 25.4789C63.6799 25.6509 63.6538 26.2405 63.6124 26.4126C63.3431 27.5143 62.2066 28.356 61.1653 28.7832C60.3273 29.1464 59.3682 29.3726 58.3741 29.4555C57.7687 29.5065 57.1506 29.5097 56.542 29.4555C55.5478 29.3695 54.5792 29.1464 53.738 28.7832C53.4958 28.6812 53.2632 28.5633 53.0402 28.4359C52.8203 28.3084 52.6196 28.1746 52.438 28.0312C51.5365 27.3392 51.1953 26.5428 51.1953 25.8613L51.1985 23.7339C51.1985 23.906 51.224 24.0812 51.2686 24.2533C51.7736 26.1981 54.537 27.1291 56.542 27.2962C57.1505 27.3504 57.7687 27.3504 58.3773 27.2962C59.7457 27.1818 61.3786 26.7394 62.459 25.8751C63.0867 25.3876 63.4722 24.8268 63.6124 24.2533C63.6538 24.0844 63.6761 23.9123 63.6761 23.7403Z" fill="#BABABA"/>
<path d="M57.4707 26.8247C57.1781 26.8247 56.8855 26.8151 56.5929 26.7859C55.9825 26.7325 55.4537 26.6404 54.9707 26.5039C53.734 26.2026 52.0962 25.3606 51.759 24.1207C51.6895 23.8593 51.6895 23.5909 51.76 23.3265C52.0456 22.0946 53.7183 21.2332 54.949 20.9423C55.4491 20.7982 55.9639 20.7066 56.5471 20.6547C56.8432 20.6356 57.162 20.6255 57.4707 20.6255C57.7306 20.6255 58.0101 20.6351 58.2705 20.6638L58.4311 20.6859C58.9363 20.7247 59.4293 20.8123 59.8967 20.9463C61.1407 21.2507 62.7778 22.0884 63.1094 23.3275C63.1794 23.5909 63.1794 23.8593 63.1089 24.1237C62.812 25.3821 61.1837 26.1777 59.9083 26.5109C59.4334 26.6373 58.9343 26.726 58.4216 26.7753C58.0554 26.8045 57.7679 26.8247 57.4707 26.8247Z" fill="#BABABA"/>
<path d="M57.6952 24.9685L56.2873 24.1504L55.1772 23.5052L54.6395 23.8157L54.2305 23.578L55.1518 23.046L54.3811 22.5981L54.8376 22.3346L55.6083 22.7825L55.9304 22.5965L55.1597 22.1486L55.6218 21.8818L56.3925 22.3297L56.8434 22.0694C57.2663 21.8252 57.9502 21.8236 58.3675 22.0662C58.7877 22.3103 58.7854 22.7081 58.3625 22.9522C58.889 22.6547 59.7292 22.6564 60.2467 22.9571C60.7698 23.2611 60.7671 23.7526 60.2434 24.055L59.8009 24.3105L60.477 24.7034L60.0149 24.9701L59.3388 24.5772L59.0167 24.7632L59.6928 25.1561L59.2363 25.4196L58.5602 25.0267L57.622 25.5684L57.2499 25.2256L57.6952 24.9685ZM58.4425 24.608L59.2827 24.1229C59.5656 23.9596 59.5698 23.6928 59.2861 23.5279C59.005 23.3646 58.5417 23.3646 58.2588 23.5279L57.4186 24.0129L58.4425 24.608ZM56.6393 22.6191L55.8607 23.0686L56.829 23.6313L57.6076 23.1818C57.8792 23.025 57.8806 22.7728 57.6163 22.6192C57.3464 22.4623 56.911 22.4623 56.6393 22.6191Z" fill="#9B9B9B"/>
<path opacity="0.3" d="M57.4725 20.1099V27.3403C57.163 27.3403 56.8536 27.3299 56.5442 27.299C55.9563 27.2475 55.3787 27.1546 54.832 26.9999V20.4399C55.3683 20.2853 55.9254 20.1924 56.503 20.1408C56.8227 20.1202 57.1528 20.1099 57.4725 20.1099ZM60.0408 20.4503V27.0102C59.5354 27.1443 59.0093 27.2371 58.473 27.2887V20.1717C59.0093 20.213 59.5354 20.3058 60.0408 20.4503Z" fill="white"/>
<path d="M92.0559 48.6665V52.0512C92.0559 52.3204 91.8829 52.5896 91.5175 52.8204L79.8252 59.5896C79.0944 60.0127 77.9213 60.0127 77.1906 59.5896L65.4406 52.8204C65.0752 52.5896 64.8828 52.3204 64.8828 52.0319V48.6473C64.8828 48.378 65.0559 48.1089 65.4213 47.8973L77.1136 41.1089C77.8443 40.6857 79.0175 40.6857 79.7482 41.1089L91.5175 47.8973C91.8829 48.1089 92.0559 48.378 92.0559 48.6665Z" fill="#ECECEC"/>
<path d="M92.0641 48.6658V52.0464C92.0547 52.3265 91.8773 52.5973 91.5131 52.812L79.832 59.591C79.1037 60.0205 77.9272 60.0205 77.1989 59.591L65.4431 52.812C65.0696 52.5973 64.8828 52.3172 64.8828 52.0371L64.8922 48.6565C64.8922 48.9366 65.079 49.2167 65.4431 49.4222L77.1989 56.2104C77.9366 56.64 79.1131 56.64 79.8414 56.2104L91.5225 49.4222C91.8774 49.2167 92.0641 48.9459 92.0641 48.6658Z" fill="#ECECEC"/>
<path d="M91.5121 47.8983C92.2454 48.3216 92.2492 49.0031 91.5207 49.4265L79.8408 56.2141C79.1123 56.6375 77.9357 56.6375 77.2024 56.2141L65.4461 49.4266C64.7128 49.0033 64.703 48.3183 65.4315 47.895L77.1115 41.1073C77.84 40.6839 79.0225 40.6874 79.7558 41.1108L91.5121 47.8983Z" fill="#F6F6F6"/>
<path d="M92.0641 42.9883V46.3689C92.0547 46.649 91.8773 46.9198 91.5131 47.1345L79.832 53.9135C79.1037 54.3431 77.9272 54.3431 77.1989 53.9135L65.4431 47.1345C65.0696 46.9198 64.8828 46.6397 64.8828 46.3596L64.8922 42.979C64.8922 43.2591 65.079 43.5392 65.4431 43.7447L77.1989 50.5329C77.9366 50.9625 79.1131 50.9625 79.8414 50.5329L91.5225 43.7447C91.8774 43.5392 92.0641 43.2685 92.0641 42.9883Z" fill="#8F8F8F"/>
<path d="M91.5121 42.2208C92.2454 42.6441 92.2492 43.3256 91.5207 43.749L79.8408 50.5366C79.1123 50.96 77.9357 50.96 77.2024 50.5366L65.4461 43.7491C64.7128 43.3258 64.703 42.6408 65.4315 42.2175L77.1115 35.4298C77.84 35.0065 79.0225 35.0099 79.7558 35.4333L91.5121 42.2208Z" fill="#A2A2A2"/>
<path d="M90.8757 45.2385V48.3231C90.8672 48.5787 90.7053 48.8257 90.373 49.0217L79.7146 55.2071C79.0501 55.5991 77.9766 55.5991 77.312 55.2071L66.5854 49.0217C66.2446 48.8257 66.0742 48.5702 66.0742 48.3146L66.0828 45.23C66.0828 45.4856 66.2532 45.7412 66.5855 45.9286L77.312 52.1226C77.9851 52.5145 79.0586 52.5145 79.7232 52.1226L90.3816 45.9286C90.7053 45.7412 90.8757 45.4941 90.8757 45.2385Z" fill="#A2A2A2"/>
<path d="M92.0559 42.9934V46.378C92.0559 46.6472 91.8829 46.9165 91.5175 47.128L79.8252 53.9164C79.0944 54.3396 77.9213 54.3396 77.1906 53.9164L65.4406 47.128C65.0752 46.9165 64.8828 46.6472 64.8828 46.3587V42.9741C64.8828 42.705 65.0559 42.4357 65.4213 42.2242L77.1136 35.4357C77.8443 35.0127 79.0175 35.0127 79.7482 35.4357L91.5175 42.2242C91.8829 42.4357 92.0559 42.705 92.0559 42.9934Z" fill="#ECECEC"/>
<path d="M92.0641 42.9883V46.3689C92.0547 46.649 91.8773 46.9198 91.5131 47.1345L79.832 53.9135C79.1037 54.3431 77.9272 54.3431 77.1989 53.9135L65.4431 47.1345C65.0696 46.9198 64.8828 46.6397 64.8828 46.3596L64.8922 42.979C64.8922 43.2591 65.079 43.5392 65.4431 43.7447L77.1989 50.5329C77.9366 50.9625 79.1131 50.9625 79.8414 50.5329L91.5225 43.7447C91.8774 43.5392 92.0641 43.2685 92.0641 42.9883Z" fill="#ECECEC"/>
<path d="M91.5121 42.2208C92.2454 42.6441 92.2492 43.3256 91.5207 43.749L79.8408 50.5366C79.1123 50.96 77.9357 50.96 77.2024 50.5366L65.4461 43.7491C64.7128 43.3258 64.703 42.6408 65.4315 42.2175L77.1115 35.4298C77.84 35.0065 79.0225 35.0099 79.7558 35.4333L91.5121 42.2208Z" fill="#F6F6F6"/>
<path d="M90.8757 39.6399V42.7245C90.8672 42.9801 90.7053 43.2271 90.373 43.4231L79.7146 49.6085C79.0501 50.0004 77.9766 50.0004 77.312 49.6085L66.5854 43.4231C66.2446 43.2271 66.0742 42.9715 66.0742 42.7159L66.0828 39.6313C66.0828 39.8869 66.2532 40.1425 66.5855 40.33L77.312 46.5239C77.9851 46.9159 79.0586 46.9159 79.7232 46.5239L90.3816 40.33C90.7053 40.1425 90.8757 39.8955 90.8757 39.6399Z" fill="#A2A2A2"/>
<path d="M92.0559 37.3011V40.6856C92.0559 40.9742 91.8829 41.2434 91.5175 41.4549L79.8252 48.2434C79.0944 48.6665 77.9213 48.6665 77.1906 48.2434L65.4406 41.4549C65.0752 41.2434 64.8828 40.9549 64.8828 40.6856V37.3011C64.8828 37.0319 65.0559 36.7434 65.4213 36.5319L77.1136 29.7435C77.8443 29.3203 79.0175 29.3396 79.7482 29.7626L91.5175 36.5511C91.8829 36.7626 92.0559 37.0319 92.0559 37.3011Z" fill="#ECECEC"/>
<path d="M92.0641 37.3106V40.6912C92.0547 40.9713 91.8773 41.2421 91.5131 41.4568L79.832 48.2358C79.1037 48.6653 77.9272 48.6653 77.1989 48.2358L65.4431 41.4568C65.0696 41.2421 64.8828 40.9619 64.8828 40.6818L64.8922 37.3013C64.8922 37.5814 65.079 37.8615 65.4431 38.0669L77.1989 44.8552C77.9366 45.2847 79.1131 45.2847 79.8414 44.8552L91.5225 38.0669C91.8774 37.8615 92.0641 37.5907 92.0641 37.3106Z" fill="#ECECEC"/>
<path d="M91.5121 36.543C92.2454 36.9664 92.2492 37.6479 91.5207 38.0713L79.8408 44.8589C79.1123 45.2823 77.9357 45.2823 77.2024 44.8589L65.4461 38.0714C64.7128 37.648 64.703 36.9631 65.4315 36.5397L77.1115 29.7521C77.84 29.3287 79.0225 29.3322 79.7558 29.7555L91.5121 36.543Z" fill="#F6F6F6"/>
<path d="M78.5205 44.0951C78.219 44.0951 77.927 44.0306 77.7395 43.9224L67.4039 37.955C66.9028 37.6657 66.9016 36.9429 67.4017 36.6519L77.6519 30.6873C77.8346 30.5812 78.1224 30.5178 78.4228 30.5178C78.7275 30.5178 79.0227 30.5833 79.2122 30.6926L89.5425 36.6563C90.0436 36.9456 90.0449 37.6684 89.5448 37.9594L79.2946 43.924C79.1103 44.0312 78.821 44.0951 78.5205 44.0951Z" fill="#ECECEC"/>
<path d="M84.7112 35.5897V37.3204C84.7112 37.4935 84.692 38.0896 84.6536 38.2628C84.1346 40.2085 81.4185 41.1462 79.4035 41.3011C78.8074 41.3589 78.192 41.3589 77.5767 41.3011C75.3357 41.1289 72.2305 39.9147 72.2305 37.705V35.5897C72.2305 35.4165 72.2497 35.2243 72.2882 35.032C72.8036 33.0979 75.52 32.1487 77.5382 31.9935C78.1343 31.9358 78.769 31.9358 79.3651 31.9935C80.365 32.0704 81.3266 32.3011 82.1727 32.6665C83.1431 33.0396 84.3828 33.9538 84.6343 35.032C84.692 35.2243 84.7112 35.3973 84.7112 35.5897Z" fill="#9B9B9B"/>
<path d="M84.6443 35.0388C84.7355 35.3912 84.7375 35.7482 84.6503 36.1006C84.5095 36.675 84.1254 37.2329 83.4975 37.7203C83.3219 37.8624 83.1219 37.9975 82.9016 38.1255C82.6833 38.2524 82.4508 38.3687 82.2039 38.472C81.3665 38.8362 80.4046 39.0605 79.4135 39.1439C78.8055 39.1956 78.187 39.1968 77.5804 39.1439C76.5863 39.0593 75.6178 38.835 74.7763 38.4709C73.7147 38.0224 72.5989 37.2174 72.3053 36.0983C72.2121 35.7471 72.2121 35.3889 72.2973 35.0377C72.7796 33.0934 75.5296 32.1631 77.5381 31.9921C78.1441 31.9416 78.7606 31.9416 79.3692 31.9933C81.3702 32.1655 84.1387 33.0889 84.6443 35.0388Z" fill="#9B9B9B"/>
<path d="M84.7152 35.5867L84.7189 37.3253C84.7189 37.4974 84.6929 38.0869 84.6515 38.259C84.176 40.2041 81.4089 41.1356 79.4132 41.3019C78.8078 41.3529 78.1896 41.3561 77.581 41.3019C75.353 41.1091 72.2344 39.953 72.2344 37.7078L72.2375 35.5803C72.2375 35.7524 72.263 35.9276 72.3077 36.0997C72.5966 37.2124 73.7094 38.0208 74.7771 38.4703C75.6182 38.8336 76.5869 39.0598 77.581 39.1426C78.1896 39.1968 78.8077 39.1968 79.4163 39.1426C80.4073 39.0598 81.3696 38.8368 82.2044 38.4703C82.4529 38.3684 82.6855 38.2537 82.9022 38.1262C83.122 37.9987 83.3228 37.8617 83.498 37.7215C84.1257 37.234 84.5113 36.6732 84.6515 36.0997C84.6929 35.9308 84.7152 35.7588 84.7152 35.5867Z" fill="#BABABA"/>
<path d="M78.5098 38.6711C78.2172 38.6711 77.9246 38.6616 77.632 38.6324C77.0216 38.579 76.4927 38.4868 76.0098 38.3503C75.6149 38.2541 75.2649 38.1186 74.9718 37.9983C74.0623 37.6015 73.0577 36.9217 72.7981 35.9671C72.7286 35.7057 72.7286 35.4373 72.7991 35.1729C73.0838 33.9448 74.7567 33.0797 75.9881 32.7887C76.4882 32.6447 77.0029 32.553 77.5861 32.5011C77.8823 32.482 78.2011 32.4719 78.5098 32.4719C78.7697 32.4719 79.0492 32.4815 79.3096 32.5102L79.4702 32.5324C79.9754 32.5711 80.4684 32.6588 80.9358 32.7927C82.1796 33.0971 83.8177 33.938 84.1485 35.1739C84.2185 35.4373 84.2185 35.7057 84.1479 35.9702C84.0361 36.4441 83.6922 36.9165 83.1769 37.3138C83.0102 37.4498 82.838 37.5677 82.6471 37.6765C82.4487 37.7903 82.2306 37.9046 82.0035 37.9993C81.6927 38.1363 81.3503 38.2521 80.9474 38.3574C80.4724 38.4838 79.9733 38.5724 79.4606 38.6218C79.0945 38.651 78.8069 38.6711 78.5098 38.6711Z" fill="#BABABA"/>
<path d="M78.7343 36.815L77.3264 35.9968L76.2163 35.3516L75.6785 35.6621L75.2695 35.4244L76.1909 34.8924L75.4202 34.4446L75.8767 34.181L76.6474 34.6289L76.9695 34.4429L76.1988 33.9951L76.6608 33.7283L77.4316 34.1762L77.8824 33.9158C78.3053 33.6717 78.9892 33.6701 79.4066 33.9126C79.8267 34.1568 79.8245 34.5545 79.4016 34.7987C79.9281 34.5012 80.7683 34.5028 81.2858 34.8035C81.8089 35.1075 81.8061 35.5991 81.2824 35.9014L80.8399 36.1569L81.516 36.5498L81.0539 36.8166L80.3778 36.4237L80.0558 36.6096L80.7319 37.0025L80.2754 37.2661L79.5993 36.8732L78.6611 37.4148L78.289 37.072L78.7343 36.815ZM79.4816 36.4544L80.3218 35.9693C80.6046 35.806 80.6089 35.5392 80.3251 35.3743C80.0441 35.211 79.5807 35.211 79.2979 35.3743L78.4577 35.8594L79.4816 36.4544ZM77.6784 34.4656L76.8998 34.9151L77.8681 35.4778L78.6466 35.0283C78.9183 34.8714 78.9197 34.6192 78.6554 34.4656C78.3855 34.3088 77.95 34.3087 77.6784 34.4656Z" fill="#9B9B9B"/>
<path opacity="0.3" d="M78.5116 31.9563V39.1867C78.2021 39.1867 77.8927 39.1764 77.5833 39.1455C76.9953 39.0939 76.4177 39.001 75.8711 38.8463V32.2864C76.4074 32.1317 76.9644 32.0388 77.542 31.9873C77.8618 31.9666 78.1918 31.9563 78.5116 31.9563ZM81.0798 32.2967V38.8566C80.5745 38.9907 80.0484 39.0836 79.512 39.1351V32.0182C80.0484 32.0595 80.5745 32.1523 81.0798 32.2967Z" fill="white"/>
<path d="M67.7462 40.9883C67.7462 41.3753 67.4712 41.5281 67.1555 41.3447C67.0537 41.2836 66.9519 41.2022 66.8806 41.1003C66.7686 40.9781 66.6769 40.8254 66.626 40.6624C66.5751 40.5402 66.5547 40.418 66.5547 40.306C66.5547 39.9293 66.8195 39.7765 67.1555 39.97C67.2573 40.0311 67.349 40.1023 67.4305 40.2042C67.5425 40.3366 67.6342 40.4893 67.6851 40.6522C67.7258 40.7643 67.7462 40.8865 67.7462 40.9883ZM70.2106 42.363C70.2106 42.75 69.9356 42.9028 69.6199 42.7195C69.5181 42.6584 69.4163 42.5667 69.3348 42.4649C69.2228 42.3325 69.1311 42.1797 69.0802 42.0168C69.0394 41.9048 69.0191 41.7826 69.0191 41.6808C69.0191 41.304 69.2839 41.1411 69.6199 41.3447C69.7218 41.3957 69.8134 41.4771 69.8949 41.579C69.9967 41.7012 70.0884 41.8641 70.1393 42.0168C70.1902 42.139 70.2106 42.251 70.2106 42.363ZM67.7462 46.8414C67.7462 47.2283 67.4712 47.3811 67.1555 47.1978C67.0537 47.1367 66.9519 47.0552 66.8806 46.9534C66.7686 46.8312 66.6769 46.6785 66.626 46.5155C66.5751 46.3933 66.5547 46.2711 66.5547 46.1591C66.5547 45.7823 66.8195 45.6295 67.1555 45.823C67.2573 45.8841 67.349 45.9554 67.4305 46.0572C67.5425 46.1896 67.6342 46.3424 67.6851 46.5053C67.7258 46.6174 67.7462 46.7396 67.7462 46.8414ZM70.2106 48.2161C70.2106 48.6031 69.9356 48.7559 69.6199 48.5726C69.5181 48.5115 69.4163 48.4198 69.3348 48.318C69.2228 48.1856 69.1311 48.0328 69.0802 47.8699C69.0394 47.7579 69.0191 47.6357 69.0191 47.5338C69.0191 47.1571 69.2839 46.9941 69.6199 47.1978C69.7218 47.2487 69.8134 47.3302 69.8949 47.432C69.9967 47.5542 70.0884 47.7171 70.1393 47.8699C70.1902 47.9921 70.2106 48.1041 70.2106 48.2161ZM67.7462 52.6944C67.7462 53.0814 67.4712 53.2342 67.1555 53.0508C67.0537 52.9897 66.9519 52.9083 66.8806 52.8064C66.7686 52.6842 66.6769 52.5315 66.626 52.3686C66.5751 52.2464 66.5547 52.1242 66.5547 52.0122C66.5547 51.6354 66.8195 51.4826 67.1555 51.6761C67.2573 51.7372 67.349 51.8085 67.4305 51.9103C67.5425 52.0427 67.6342 52.1955 67.6851 52.3584C67.7258 52.4704 67.7462 52.5926 67.7462 52.6944ZM70.2106 54.0692C70.2106 54.4562 69.9356 54.6089 69.6199 54.4256C69.5181 54.3645 69.4163 54.2729 69.3348 54.171C69.2228 54.0387 69.1311 53.8859 69.0802 53.723C69.0394 53.611 69.0191 53.4888 69.0191 53.3869C69.0191 53.0101 69.2839 52.8472 69.6199 53.0508C69.7218 53.1018 69.8134 53.1832 69.8949 53.2851C69.9967 53.4073 70.0884 53.5702 70.1393 53.723C70.1902 53.8452 70.2106 53.9572 70.2106 54.0692Z" fill="#3D7D9B"/>
<path d="M14.3489 69.116L14.345 70.3064L12.4258 69.218L12.4296 68.0276L14.3489 69.116Z" fill="#FBFBFB"/>
<path d="M12.5644 68.2546L12.5625 69.1431L12.5663 69.145L13.351 68.7008L12.5644 68.2546Z" fill="#F1F1F1"/>
<path d="M12.5664 69.1449L14.2126 70.0795L14.2164 69.1911L13.351 68.7007L12.5664 69.1449Z" fill="#ECECEC"/>
<path d="M17.4856 70.891L17.4817 72.0813L15.5625 70.9948L15.5644 69.8025L17.4856 70.891Z" fill="#FBFBFB"/>
<path d="M15.6992 70.0315L15.6953 70.918L15.7011 70.9219L16.4857 70.4757L15.6992 70.0315Z" fill="#F1F1F1"/>
<path d="M15.6992 70.9217L17.3454 71.8544L17.3492 70.966L16.4838 70.4756L15.6992 70.9217Z" fill="#ECECEC"/>
<path d="M31.1039 83.062C30.738 83.062 30.3726 82.9799 30.0873 82.8157L9.57219 71.1121C9.25147 70.932 9.07238 70.6749 9.07032 70.388C9.06878 70.1027 9.25095 69.8333 9.57117 69.6485L41.831 51.377C42.4139 51.0506 43.2909 51.0511 43.8718 51.3765L44.6308 51.8121L64.39 63.0816C64.7015 63.2525 64.8831 63.5158 64.8841 63.8016C64.8857 64.0926 64.6999 64.364 64.3746 64.5467L32.1168 82.8167C31.8336 82.9799 31.4687 83.062 31.1039 83.062ZM42.8526 51.6582C42.5761 51.6582 42.2995 51.7172 42.0886 51.8352L9.83185 70.1047C9.68457 70.1899 9.59528 70.2951 9.5958 70.3849C9.59631 70.4716 9.68457 70.5722 9.83082 70.6543L30.349 82.3595C30.7513 82.5915 31.4559 82.592 31.8562 82.36L64.117 64.0885C64.2689 64.0033 64.3592 63.897 64.3587 63.8042C64.3587 63.7159 64.274 63.6174 64.1334 63.5404L43.6126 51.8337C43.4038 51.7167 43.1282 51.6582 42.8526 51.6582Z" fill="#1E6373"/>
<path d="M64.5964 63.2258C64.5333 63.1733 64.4598 63.1207 64.3862 63.0786L64.092 62.9105L61.8534 61.6283L61.3174 61.3236L44.6283 51.8125L43.8717 51.3815C43.2937 51.0558 42.4108 51.0558 41.8328 51.3815L9.56861 69.6471C9.25334 69.8363 9.06417 70.099 9.07463 70.3933C9.07463 70.6771 9.25334 70.9293 9.56861 71.1079L30.0832 82.8155C30.3669 82.9837 30.7348 83.0572 31.1026 83.0572C31.4705 83.0572 31.8383 82.9837 32.1115 82.8155L64.3757 64.55C64.7015 64.3608 64.8802 64.0876 64.8802 63.8038C64.8802 63.5936 64.775 63.394 64.5964 63.2258ZM64.113 64.0876L31.8593 82.3636C31.4599 82.5948 30.7558 82.5948 30.3459 82.3636L9.83135 70.656C9.6842 70.5719 9.60011 70.4669 9.60011 70.3828C9.58965 70.2987 9.6842 70.1936 9.83135 70.1095L42.085 51.8335C42.2952 51.7179 42.579 51.6548 42.8522 51.6548C43.1255 51.6548 43.3987 51.7179 43.6089 51.8335L60.7814 61.6283L61.3174 61.9331L63.556 63.2153L64.0814 63.5096L64.134 63.5411C64.2706 63.6146 64.3547 63.7198 64.3547 63.8038C64.3547 63.8984 64.2706 64.0035 64.113 64.0876Z" fill="#1E6373"/>
<path d="M7.6875 60.3372L7.68942 61.1391L14.2087 64.8545L14.2048 64.0545L7.6875 60.3372Z" fill="#112833"/>
<path d="M14.2031 64.0546L14.207 64.8546L17.1397 63.1931L17.1377 62.3931L14.2031 64.0546Z" fill="#1E6373"/>
<path d="M7.6875 60.3373L14.2048 64.0546L17.1394 62.3931L10.6221 58.6758L7.6875 60.3373Z" fill="#1E6373"/>
<path d="M30.0273 47.6794L30.0293 48.4794L36.5466 52.1967L36.5447 51.3967L30.0273 47.6794Z" fill="#112833"/>
<path d="M36.543 51.3969L36.5449 52.1969L39.4776 50.5353L39.4757 49.7334L36.543 51.3969Z" fill="#1E6373"/>
<path d="M30.0273 47.6796L36.5447 51.3969L39.4773 49.7334L32.96 46.0181L30.0273 47.6796Z" fill="#1E6373"/>
<path d="M39.482 45.782C39.482 46.3012 39.0974 46.9358 38.655 47.205L8.30889 64.3973C8.03963 64.532 7.80887 64.532 7.65499 64.3973L7.71274 64.4551L5.13577 62.9935C4.982 62.8974 4.88576 62.7243 4.88576 62.455L4.82812 40.5512C4.82812 40.032 5.19351 39.3781 5.67428 39.1281L36.0011 21.9358C36.232 21.8012 36.4628 21.8012 36.6165 21.8781L39.1743 23.3397C39.155 23.3397 39.155 23.3204 39.1358 23.3397C39.3089 23.4166 39.4243 23.6089 39.4243 23.8781L39.482 45.782Z" fill="#1E6373"/>
<path d="M39.1671 23.3431C39.0253 23.2619 38.8126 23.2735 38.5762 23.4011L8.24217 40.5857C7.76946 40.8525 7.39131 41.4902 7.40314 42.012L7.46221 63.9276C7.46221 64.1827 7.55677 64.3682 7.71039 64.4494L5.13928 62.9837C4.98566 62.9025 4.8911 62.717 4.8911 62.4619L4.83203 40.5463C4.83203 40.0245 5.19835 39.3867 5.67106 39.12L36.0051 21.9354C36.2415 21.8078 36.4542 21.7962 36.6078 21.8774L39.1671 23.3431Z" fill="#1E6373"/>
<path d="M38.578 23.4017C39.0382 23.141 39.4167 23.3526 39.4182 23.8716L39.4815 45.7857C39.483 46.3046 39.107 46.9437 38.6468 47.2044L8.30949 64.3916C7.84172 64.6566 7.46325 64.4449 7.46175 63.926L7.39844 42.0119C7.39694 41.4929 7.77295 40.8539 8.24072 40.5888L38.578 23.4017Z" fill="#1E6373"/>
<path d="M8.57812 42.0084C8.58274 41.894 8.72815 41.6522 8.8297 41.5933L37.7076 25.2329C37.9435 25.0992 38.2386 25.2658 38.2393 25.5332L38.2982 45.7894C38.2936 45.9009 38.1522 46.1404 38.0541 46.2004L9.16872 62.5648C8.93277 62.6985 8.63774 62.5319 8.63697 62.2645L8.57812 42.0084Z" fill="white"/>
<path d="M62.4414 59.4548V62.4165C62.4414 62.6087 62.326 62.7818 62.0952 62.8972L31.7684 80.0895C31.3069 80.3587 30.5376 80.3587 30.0953 80.0895L10.7875 69.0895C10.5568 68.9548 10.4414 68.7818 10.4414 68.6087V65.6472C10.4414 65.4741 10.5568 65.3011 10.7875 65.1664L41.1338 47.9741C41.5953 47.7241 42.3453 47.7241 42.8068 47.9741L43.5184 48.3971L54.1338 54.4549L62.1145 58.9933C62.326 59.1087 62.4414 59.2818 62.4414 59.4548Z" fill="#F1F1F1"/>
<path d="M62.447 62.4142C62.447 62.5997 62.3288 62.7736 62.0925 62.9012L31.7584 80.0858C31.2976 80.3525 30.5413 80.3525 30.0923 80.0858L10.7834 69.0816C10.5589 68.954 10.4407 68.7801 10.4407 68.6178L10.4375 65.6533C10.4375 65.8157 10.5556 65.9896 10.7802 66.1172L30.0891 77.1213C30.5499 77.388 31.2943 77.388 31.7552 77.1213L62.0893 59.9367C62.3256 59.8092 62.4438 59.6236 62.4438 59.4497L62.447 62.4142Z" fill="#ECECEC"/>
<path d="M62.0986 59.9388L31.7529 77.1256C31.2965 77.389 30.5449 77.389 30.0887 77.1256L22.2371 72.6478L11.6209 66.5897L10.7887 66.1156C10.3189 65.8521 10.3324 65.4307 10.7887 65.1673L41.1344 47.9805C41.6041 47.7171 42.3424 47.7171 42.8121 47.9805L43.5234 48.3888L54.1397 54.4469L62.112 58.9906C62.5683 59.2408 62.5683 59.6754 62.0986 59.9388Z" fill="#FBFBFB"/>
<path d="M33.3489 67.5327C33.2428 67.5928 33.2335 67.688 33.3476 67.7531L39.1728 71.1229C39.2869 71.188 39.4631 71.188 39.5692 71.1279L50.9819 64.6622C51.0968 64.5971 51.0974 64.497 50.9833 64.4319L45.1581 61.062C45.044 60.9969 44.8765 61.0019 44.7616 61.067L33.3489 67.5327Z" fill="#F1F1F1"/>
<path d="M53.4328 54.0448L21.5308 72.2468L11.8789 66.7391L43.7828 48.5391L53.4328 54.0448Z" fill="#F1F1F1"/>
<path d="M39.039 57.0524C38.9329 57.1125 38.9324 57.2126 39.0378 57.2727L40.3199 58.0039C40.4253 58.0639 40.6015 58.064 40.7076 58.0039L42.0865 57.2227C42.2014 57.1576 42.2019 57.0574 42.0966 56.9973L40.8144 56.2662C40.7091 56.2061 40.5329 56.2061 40.4179 56.2712L39.039 57.0524ZM26.1398 58.9614C26.0249 59.0265 26.0331 59.1216 26.1473 59.1867L27.4206 59.9128C27.5348 59.9779 27.6934 59.9779 27.8083 59.9128L29.1872 59.1316C29.3021 59.0665 29.3115 58.9714 29.1973 58.9063L27.924 58.1802C27.8098 58.1151 27.6336 58.1151 27.5187 58.1802L26.1398 58.9614ZM22.9973 69.2072C22.8912 69.2673 22.8819 69.3625 22.996 69.4275L24.2695 70.1537C24.3836 70.2188 24.5598 70.2188 24.6659 70.1587L26.0536 69.3725C26.1597 69.3124 26.1603 69.2122 26.0461 69.1471L24.7727 68.421C24.6586 68.3559 24.4911 68.3609 24.3851 68.421L22.9973 69.2072ZM41.6819 55.7965C41.5759 55.8566 41.5753 55.9568 41.6807 56.0169L42.9628 56.748C43.0682 56.8081 43.2444 56.8081 43.3505 56.748L44.7382 55.9618C44.8443 55.9017 44.8449 55.8015 44.7395 55.7415L43.4573 55.0103C43.352 54.9502 43.1758 54.9502 43.0697 55.0103L41.6819 55.7965ZM46.8101 55.7164C46.704 55.7765 46.6947 55.8717 46.8088 55.9368L48.0822 56.6629C48.1964 56.728 48.3726 56.728 48.4786 56.6679L49.8664 55.8817C49.9725 55.8216 49.9731 55.7215 49.8589 55.6564L48.5855 54.9302C48.4714 54.8651 48.3039 54.8701 48.1978 54.9302L46.8101 55.7164ZM44.1672 57.2137C44.0611 57.2738 44.0518 57.369 44.1659 57.4341L45.4393 58.1602C45.5535 58.2253 45.7297 58.2253 45.8357 58.1652L47.2235 57.379C47.3295 57.3189 47.3301 57.2188 47.216 57.1537L45.9426 56.4275C45.8285 56.3625 45.661 56.3674 45.5549 56.4275L44.1672 57.2137ZM39.3632 51.4698C39.2571 51.5299 39.2565 51.6301 39.3707 51.6952L40.644 52.4213C40.7582 52.4864 40.9256 52.4814 41.0317 52.4213L42.4194 51.6351C42.5255 51.575 42.5349 51.4798 42.4207 51.4147L41.1474 50.6886C41.0332 50.6235 40.857 50.6235 40.751 50.6836L39.3632 51.4698ZM36.7203 52.9671C36.6142 53.0272 36.6136 53.1274 36.7278 53.1925L38.0011 53.9186C38.1153 53.9837 38.2827 53.9787 38.3888 53.9186L39.7765 53.1324C39.8826 53.0723 39.892 52.9772 39.7778 52.9121L38.5045 52.1859C38.3903 52.1208 38.2141 52.1208 38.108 52.1809L36.7203 52.9671Z" fill="#1E6373"/>
<path d="M39.2066 54.3844C39.1005 54.4445 39.0912 54.5397 39.2054 54.6048L40.4874 55.3359C40.5929 55.396 40.769 55.396 40.8751 55.3359L43.3236 53.9488L45.6068 55.2508C45.7122 55.3109 45.8884 55.3109 45.9945 55.2508L47.3822 54.4646C47.4883 54.4045 47.4889 54.3043 47.3835 54.2442L43.6249 52.1009C43.5108 52.0358 43.3433 52.0408 43.2373 52.1009L39.2066 54.3844ZM34.0785 54.4645C33.9724 54.5246 33.9718 54.6248 34.086 54.6899L35.3593 55.416C35.4735 55.4811 35.6409 55.4761 35.747 55.416L37.1259 54.6348C37.2408 54.5697 37.2501 54.4746 37.136 54.4094L35.8626 53.6833C35.7485 53.6182 35.5723 53.6182 35.4574 53.6833L34.0785 54.4645ZM36.5637 55.8817C36.4576 55.9418 36.457 56.042 36.5624 56.1021L37.8445 56.8332C37.9499 56.8933 38.1261 56.8933 38.2322 56.8332L39.6111 56.052C39.726 55.9869 39.7266 55.8868 39.6212 55.8266L38.3391 55.0955C38.2337 55.0354 38.0575 55.0354 37.9426 55.1005L36.5637 55.8817ZM31.4267 55.9669C31.3206 56.0269 31.32 56.1271 31.4342 56.1922L32.7075 56.9183C32.8217 56.9834 32.9891 56.9784 33.0952 56.9183L34.483 56.1321C34.589 56.072 34.5984 55.9769 34.4842 55.9118L33.2109 55.1856C33.0967 55.1205 32.9205 55.1206 32.8145 55.1806L31.4267 55.9669ZM33.9119 57.3841C33.8059 57.4442 33.8053 57.5443 33.9107 57.6044L35.1928 58.3355C35.2982 58.3956 35.4744 58.3956 35.5804 58.3355L36.9682 57.5493C37.0742 57.4892 37.0749 57.3891 36.9695 57.329L35.6874 56.5978C35.5819 56.5377 35.4058 56.5378 35.2997 56.5978L33.9119 57.3841ZM28.7838 57.4642C28.6777 57.5242 28.6771 57.6244 28.7913 57.6895L30.0646 58.4156C30.1788 58.4807 30.3462 58.4757 30.4523 58.4156L31.84 57.6294C31.9461 57.5693 31.9555 57.4742 31.8413 57.4091L30.568 56.6829C30.4538 56.6178 30.2776 56.6179 30.1715 56.678L28.7838 57.4642ZM36.3883 58.7962C36.2823 58.8563 36.2817 58.9565 36.3871 59.0166L37.6692 59.7477C37.7746 59.8078 37.9508 59.8078 38.0569 59.7477L39.4447 58.9615C39.5507 58.9014 39.5513 58.8012 39.4459 58.7412L38.1638 58.01C38.0584 57.9499 37.8822 57.9499 37.7761 58.01L36.3883 58.7962ZM31.269 58.8814C31.1629 58.9415 31.1623 59.0416 31.2678 59.1017L32.5499 59.8328C32.6553 59.8929 32.8314 59.8929 32.9375 59.8328L34.3253 59.0466C34.4313 58.9865 34.4319 58.8864 34.3265 58.8263L33.0444 58.0952C32.939 58.035 32.7628 58.0351 32.6568 58.0952L31.269 58.8814ZM33.7454 60.2935C33.6394 60.3536 33.6388 60.4538 33.7442 60.5139L35.0263 61.245C35.1317 61.3051 35.3079 61.3051 35.414 61.245L36.8017 60.4588C36.9078 60.3987 36.9084 60.2986 36.803 60.2385L35.5208 59.5073C35.4155 59.4473 35.2393 59.4472 35.1332 59.5073L33.7454 60.2935ZM28.6261 60.3787C28.5112 60.4438 28.5194 60.5389 28.6248 60.599L29.9069 61.3301C30.0123 61.3902 30.1797 61.3952 30.2946 61.3301L31.6735 60.5489C31.7884 60.4838 31.789 60.3837 31.6836 60.3236L30.4015 59.5925C30.2961 59.5323 30.1199 59.5324 30.005 59.5975L28.6261 60.3787ZM31.1025 61.7908C30.9876 61.8559 30.9959 61.9511 31.1012 62.0112L32.3834 62.7423C32.4888 62.8024 32.6562 62.8074 32.7711 62.7423L34.15 61.9611C34.2649 61.896 34.2654 61.7959 34.1601 61.7358L32.8779 61.0046C32.7726 60.9446 32.5963 60.9445 32.4814 61.0096L31.1025 61.7908ZM25.9743 61.881C25.8683 61.9411 25.8677 62.0412 25.9731 62.1013L27.2552 62.8324C27.3606 62.8926 27.5368 62.8925 27.6428 62.8324L29.0306 62.0462C29.1367 61.9861 29.1373 61.886 29.0319 61.8259L27.7498 61.0948C27.6443 61.0347 27.4682 61.0347 27.3621 61.0948L25.9743 61.881ZM28.4508 63.2932C28.3447 63.3532 28.3441 63.4534 28.4495 63.5135L29.7317 64.2446C29.837 64.3047 30.0132 64.3047 30.1193 64.2446L31.5071 63.4584C31.6131 63.3984 31.6137 63.2982 31.5083 63.2381L30.2262 62.5069C30.1208 62.4469 29.9446 62.4469 29.8385 62.5069L28.4508 63.2932ZM18.2033 63.4584C18.0884 63.5235 18.0878 63.6236 18.2019 63.6887L19.4753 64.4149C19.5895 64.4799 19.7569 64.4749 19.8718 64.4098L21.2507 63.6286C21.3656 63.5635 21.375 63.4684 21.2608 63.4033L19.9874 62.6772C19.8733 62.6121 19.6971 62.6121 19.5822 62.6772L18.2033 63.4584ZM15.5515 64.9607C15.4454 65.0208 15.4448 65.1209 15.559 65.186L16.8324 65.9122C16.9465 65.9773 17.1139 65.9723 17.22 65.9122L18.6078 65.1259C18.7138 65.0659 18.7232 64.9707 18.609 64.9056L17.3357 64.1795C17.2215 64.1144 17.0454 64.1144 16.9393 64.1745L15.5515 64.9607ZM28.2931 66.2077C28.187 66.2678 28.1777 66.3629 28.2918 66.428L29.5652 67.1542C29.6794 67.2193 29.8556 67.2192 29.9616 67.1592L44.5728 58.8814C44.6877 58.8163 44.6883 58.7162 44.5742 58.6511L43.3008 57.9249C43.1866 57.8598 43.0192 57.8648 42.9043 57.9299L28.2931 66.2077ZM18.0367 66.3779C17.9307 66.438 17.9301 66.5381 18.0355 66.5982L19.3176 67.3294C19.423 67.3895 19.5992 67.3895 19.7052 67.3294L23.7359 65.0458C23.8508 64.9807 23.8514 64.8806 23.746 64.8205L22.4639 64.0894C22.3585 64.0293 22.1823 64.0293 22.0674 64.0944L18.0367 66.3779ZM20.5132 67.7901C20.4071 67.8502 20.4065 67.9503 20.5119 68.0104L21.7941 68.7416C21.8994 68.8016 22.0756 68.8017 22.1817 68.7416L28.8641 64.9557C28.9702 64.8956 28.9708 64.7955 28.8654 64.7354L27.5832 64.0043C27.4779 63.9442 27.3017 63.9442 27.1956 64.0043L20.5132 67.7901ZM23.4891 60.4638C23.383 60.5239 23.3824 60.624 23.4966 60.6891L24.7699 61.4152C24.8841 61.4803 25.0515 61.4753 25.1576 61.4152L26.5454 60.629C26.6514 60.5689 26.6608 60.4738 26.5466 60.4087L25.2733 59.6826C25.1591 59.6175 24.9829 59.6175 24.8769 59.6776L23.4891 60.4638ZM23.3314 63.3783C23.2254 63.4384 23.2248 63.5385 23.3302 63.5986L24.6123 64.3297C24.7177 64.3898 24.8938 64.3898 24.9999 64.3297L26.3877 63.5435C26.4937 63.4834 26.4943 63.3833 26.3889 63.3232L25.1068 62.5921C25.0014 62.532 24.8252 62.532 24.7192 62.5921L23.3314 63.3783ZM20.8462 61.9611C20.7401 62.0212 20.7395 62.1213 20.8537 62.1864L22.127 62.9125C22.2412 62.9776 22.4086 62.9726 22.5147 62.9125L23.9024 62.1263C24.0085 62.0662 24.0179 61.9711 23.9037 61.906L22.6304 61.1799C22.5162 61.1148 22.34 61.1148 22.2339 61.1749L20.8462 61.9611ZM25.6502 67.705C25.5352 67.7701 25.526 67.8652 25.6401 67.9303L26.9135 68.6565C27.0276 68.7216 27.2038 68.7216 27.3187 68.6565L28.6976 67.8753C28.8125 67.8102 28.8131 67.71 28.699 67.6449L27.4256 66.9188C27.3115 66.8537 27.144 66.8587 27.0291 66.9238L25.6502 67.705Z" fill="#1E6373"/>
<path d="M10.5427 43.6507L10.5234 42.7181L14.2927 40.5488V41.4815L10.5427 43.6507Z" fill="#ECECEC"/>
<path d="M16.9067 47.7044L16.8663 47.7236L10.5625 51.3737V50.4602L16.9067 46.7717V47.7044Z" fill="#ECECEC"/>
<path d="M16.6933 52.0603L10.5625 55.6084V56.5218L16.6933 52.9315V52.0603Z" fill="#9B9B9B"/>
<path d="M10.543 45.293L19.1584 40.3257V41.2391L19.0968 41.2795L10.543 46.2238V45.293Z" fill="#ECECEC"/>
<path d="M36.8737 33.5968L28.6641 38.3391V37.4276L28.7256 37.3872L36.8737 32.6853V33.5968Z" fill="#A2A2A2"/>
<path d="M26.5353 39.5757L10.543 48.7988V47.8872L26.5968 38.6238V39.5353L26.5353 39.5757Z" fill="#ECECEC"/>
<path d="M36.8739 36.1718L19.3008 46.3256V45.4141L19.3412 45.3737L36.8739 35.2583V36.1718Z" fill="#ECECEC"/>
<path d="M17.5039 51.5988V52.5277L36.8904 41.3392V40.4065L17.5039 51.5988Z" fill="#ECECEC"/>
<path d="M10.582 58.1833L25.1166 49.791V50.7237L25.0551 50.7449L10.582 59.116V58.1833Z" fill="#989898"/>
<path d="M36.8919 37.8335V38.7662L30.1016 42.6777V41.745L30.1439 41.7239L36.8919 37.8335Z" fill="#ECECEC"/>
<path d="M36.8715 31.0219L21.6484 39.7988V38.8873L21.71 38.8469L36.8715 30.1104V31.0219Z" fill="#ECECEC"/>
<path d="M10.5625 53.0354L28.1567 42.8796V43.7931L28.0952 43.8335L10.5625 53.9469V53.0354Z" fill="#ECECEC"/>
<path d="M90.0406 40.0295L90.0425 41.4911L88.2675 42.518L88.2656 41.0545L90.0406 40.0295Z" fill="#AAAAAA"/>
<path d="M90.0406 45.6238L90.0425 47.0872L88.2675 48.1122L88.2656 46.6507L90.0406 45.6238Z" fill="#AAAAAA"/>
<path d="M90.0406 51.22L90.0425 52.6815L88.2675 53.7065L88.2656 52.245L90.0406 51.22Z" fill="#AAAAAA"/>
<path d="M95.1716 61.4737L95.0562 61.6276L59.287 82.3776L58.9985 82.4545L58.7293 82.3776L45.4023 74.6853L45.9408 74.3776L58.9985 81.9161L94.2293 61.4737L87.1139 57.3584L86.6139 57.0699L87.1523 56.7622L87.6523 57.0507L95.037 61.3199L95.1716 61.4737Z" fill="#1E6373"/>
<path d="M46.2267 29.0003C46.2267 29.3872 45.9517 29.54 45.636 29.3567C45.5342 29.2956 45.4323 29.2141 45.361 29.1123C45.249 28.9901 45.1574 28.8374 45.1064 28.6744C45.0555 28.5522 45.0352 28.43 45.0352 28.318C45.0352 27.9412 45.2999 27.7884 45.636 27.9819C45.7378 28.043 45.8295 28.1143 45.911 28.2161C46.023 28.3485 46.1147 28.5013 46.1656 28.6642C46.2063 28.7763 46.2267 28.8985 46.2267 29.0003ZM48.691 30.375C48.691 30.762 48.4161 30.9148 48.1004 30.7315C47.9986 30.6704 47.8968 30.5787 47.8153 30.4769C47.7033 30.3445 47.6116 30.1917 47.5607 30.0288C47.5199 29.9168 47.4996 29.7946 47.4996 29.6927C47.4996 29.3159 47.7644 29.153 48.1004 29.3567C48.2022 29.4076 48.2939 29.489 48.3753 29.5909C48.4772 29.7131 48.5688 29.876 48.6197 30.0288C48.6706 30.151 48.691 30.263 48.691 30.375Z" fill="#3D7D9B"/>
<path d="M46.2267 34.6533C46.2267 35.0403 45.9517 35.1931 45.636 35.0097C45.5342 34.9486 45.4323 34.8672 45.361 34.7653C45.249 34.6431 45.1574 34.4904 45.1064 34.3275C45.0555 34.2053 45.0352 34.0831 45.0352 33.9711C45.0352 33.5943 45.2999 33.4415 45.636 33.635C45.7378 33.6961 45.8295 33.7674 45.911 33.8692C46.023 34.0016 46.1147 34.1544 46.1656 34.3173C46.2063 34.4293 46.2267 34.5515 46.2267 34.6533ZM48.691 36.0281C48.691 36.4151 48.4161 36.5678 48.1004 36.3845C47.9986 36.3234 47.8968 36.2318 47.8153 36.1299C47.7033 35.9976 47.6116 35.8448 47.5607 35.6819C47.5199 35.5699 47.4996 35.4477 47.4996 35.3458C47.4996 34.969 47.7644 34.8061 48.1004 35.0097C48.2022 35.0607 48.2939 35.1421 48.3753 35.244C48.4772 35.3662 48.5688 35.5291 48.6197 35.6819C48.6706 35.8041 48.691 35.9161 48.691 36.0281Z" fill="#3D7D9B"/>
<path d="M46.2267 40.4644C46.2267 40.8513 45.9517 41.0041 45.636 40.8208C45.5342 40.7597 45.4323 40.6782 45.361 40.5764C45.249 40.4542 45.1574 40.3015 45.1064 40.1385C45.0555 40.0163 45.0352 39.8941 45.0352 39.7821C45.0352 39.4053 45.2999 39.2525 45.636 39.446C45.7378 39.5071 45.8295 39.5784 45.911 39.6802C46.023 39.8126 46.1147 39.9654 46.1656 40.1283C46.2063 40.2404 46.2267 40.3626 46.2267 40.4644ZM48.691 41.8391C48.691 42.2261 48.4161 42.3789 48.1004 42.1956C47.9986 42.1345 47.8968 42.0428 47.8153 41.941C47.7033 41.8086 47.6116 41.6558 47.5607 41.4929C47.5199 41.3809 47.4996 41.2587 47.4996 41.1568C47.4996 40.7801 47.7644 40.6172 48.1004 40.8208C48.2022 40.8717 48.2939 40.9532 48.3753 41.055C48.4772 41.1772 48.5688 41.3401 48.6197 41.4929C48.6706 41.6151 48.691 41.7271 48.691 41.8391Z" fill="#3D7D9B"/>
<path d="M69.1636 27.9104L69.1656 29.3719L67.3886 30.3969L67.3867 28.9354L69.1636 27.9104Z" fill="#AAAAAA"/>
<path d="M69.1636 34.0085V34.3759L67.3886 35.4009L67.3867 35.0335L69.1636 34.0085Z" fill="#AAAAAA"/>
<path d="M14.3849 68.9756L14.3791 70.5987L11.7656 69.1179L11.7695 67.4949L14.3849 68.9756Z" fill="#FBFBFB"/>
<path d="M11.9531 67.8044L11.9492 69.0141L11.955 69.0179L13.0223 68.4121L11.9531 67.8044Z" fill="#1E6373"/>
<path d="M11.9531 69.0179L14.1954 70.289L14.2012 69.0794L13.0204 68.4121L11.9531 69.0179Z" fill="#1E6373"/>
<path d="M17.6739 70.8045L17.6701 72.4276L15.0547 70.9468L15.0585 69.3237L17.6739 70.8045Z" fill="#FBFBFB"/>
<path d="M15.2421 69.6333L15.2383 70.8429L15.2441 70.8468L16.3133 70.241L15.2421 69.6333Z" fill="#1E6373"/>
<path d="M15.2422 70.8467L17.4864 72.1179L17.4903 70.9083L16.3114 70.241L15.2422 70.8467Z" fill="#1E6373"/>
</svg>
