<svg xmlns="http://www.w3.org/2000/svg" viewBox="0 0 52 52"><path fill="#bababa" d="M41.365 43.41c-1.24-.115-2.373-.497-3.19-1.076-.735-.522-1.11-1.126-1.058-1.703.053-.574.53-1.097 1.342-1.473.905-.419 2.087-.586 3.327-.47 1.24.116 2.373.5 3.192 1.08.734.52 1.11 1.125 1.056 1.704-.053.574-.526 1.095-1.33 1.467-.91.42-2.095.588-3.339.472z" class="colorffd475 svgShape"/><path fill="#9b9b9b" d="M43.666 41.697a.49.49 0 0 0 .099-.398c-.034-.134-.13-.258-.281-.365a1.444 1.444 0 0 0-.629-.266 2.64 2.64 0 0 0-.653-.007c-.187.029-.398.07-.642.132l-.851-.602c.216-.087.444-.15.679-.19l.11-.028c.08-.039.116-.09.113-.144-.002-.054-.029-.102-.086-.146a.561.561 0 0 0-.4-.076c-.29.05-.589.13-.877.249l-.223-.16a.434.434 0 0 0-.202-.064c-.076-.007-.146.002-.202.027s-.091.068-.095.107c-.004.045.023.086.08.13l.224.16c-.18.105-.305.217-.37.341a.486.486 0 0 0-.06.394.8.8 0 0 0 .297.359c.18.124.373.204.6.24.204.035.427.04.638.006.178-.014.397-.055.625-.11l.822.583c-.255.092-.53.166-.826.2a.511.511 0 0 0-.135.041c-.072.032-.123.081-.12.135-.005.053.029.103.094.147a.47.47 0 0 0 .185.079l.207.004c.374-.05.735-.139 1.07-.262l.223.16a.487.487 0 0 0 .201.072c.077 0 .147-.01.203-.035.056-.025.091-.068.095-.106.004-.046-.023-.087-.074-.122l-.23-.168c.178-.09.311-.201.391-.317zm-3.436-.82c-.1-.079-.148-.153-.116-.242.023-.082.092-.16.199-.235l.735.522c-.18.037-.343.053-.467.057a.61.61 0 0 1-.351-.102zm2.562.8-.714-.512a2.9 2.9 0 0 1 .507-.076c.14-.01.237.014.316.075.151.107.297.274-.11.513z" class="colorf9a83d svgShape"/><path fill="#bababa" d="M46.74 39.605 46.606 41c-.07.735-.62 1.423-1.635 1.892-2.05.949-5.213.653-7.057-.654-.93-.659-1.35-1.448-1.278-2.19l.134-1.396c-.072.743.349 1.532 1.279 2.19 1.843 1.308 5.006 1.603 7.056.655 1.014-.47 1.564-1.158 1.635-1.892z" class="colorffd475 svgShape"/><path fill="#9b9b9b" d="M45.464 37.412c1.843 1.307 1.683 3.14-.359 4.085-2.05.948-5.213.653-7.056-.654-1.852-1.313-1.683-3.14.367-4.089 2.04-.944 5.196-.655 7.048.658z" class="colorf9a83d svgShape"/><path fill="#bababa" d="M41.545 41.488c-1.24-.116-2.374-.499-3.19-1.077-.736-.522-1.111-1.126-1.058-1.703.053-.574.529-1.097 1.341-1.473.906-.42 2.087-.586 3.328-.47 1.239.115 2.372.499 3.192 1.08.734.52 1.109 1.125 1.055 1.704-.052.574-.525 1.095-1.33 1.467-.909.42-2.094.588-3.338.472z" class="colorffd475 svgShape"/><path fill="#9b9b9b" d="m41.86 40.056-.975-.696-.77-.549-.412.19-.284-.202.71-.327-.533-.38.35-.162.535.381.252-.115-.534-.381.355-.163.534.38.347-.159c.326-.15.83-.105 1.117.1.29.207.262.501-.065.651.409-.183 1.022-.124 1.379.131.364.26.329.617-.076.803l-.342.158.467.333-.355.163-.468-.333-.252.115.468.334-.351.161-.468-.333-.726.333-.245-.276.343-.157zm.57-.214.652-.3c.22-.1.238-.295.043-.434a.838.838 0 0 0-.753-.073l-.653.3.71.507m-1.294-1.53-.488.225.67.478.488-.224c.21-.097.229-.282.045-.414a.792.792 0 0 0-.715-.064" class="colorf9a83d svgShape"/><path fill="#fff" d="m42.081 36.244-.54 5.775c-.976-.085-1.93-.334-2.743-.736l.45-4.832c.874-.237 1.865-.304 2.833-.207zm2.632.724-.45 4.826a7.006 7.006 0 0 1-1.92.253l.531-5.683a7.545 7.545 0 0 1 1.84.604z" class="colorffffff svgShape" opacity=".4"/><path fill="#bababa" d="M9.99 43.41c-1.241-.115-2.374-.497-3.19-1.076-.736-.522-1.112-1.126-1.058-1.703.052-.574.529-1.097 1.34-1.473.906-.419 2.088-.586 3.328-.47 1.24.116 2.373.5 3.192 1.08.734.52 1.11 1.125 1.056 1.704-.053.574-.525 1.095-1.33 1.467-.909.42-2.095.588-3.339.472z" class="colorffd475 svgShape"/><path fill="#9b9b9b" d="M12.29 41.697a.49.49 0 0 0 .099-.398c-.034-.134-.13-.258-.281-.365a1.444 1.444 0 0 0-.629-.266 2.64 2.64 0 0 0-.652-.007c-.188.029-.4.07-.643.132l-.851-.602c.216-.087.445-.15.679-.19l.11-.028c.08-.039.116-.09.113-.144s-.028-.102-.086-.146a.561.561 0 0 0-.4-.076c-.29.05-.589.13-.877.249l-.223-.16a.434.434 0 0 0-.202-.064.403.403 0 0 0-.202.027c-.056.025-.09.068-.094.107-.005.045.022.086.08.13l.223.16c-.179.105-.305.217-.37.341a.486.486 0 0 0-.06.394.8.8 0 0 0 .297.359c.18.124.373.204.6.24.205.035.427.04.638.006.178-.014.397-.055.625-.11l.822.583a3.68 3.68 0 0 1-.826.2.511.511 0 0 0-.134.041c-.073.032-.123.081-.12.135-.006.053.028.103.093.147a.47.47 0 0 0 .185.079l.207.004c.374-.05.736-.139 1.07-.262l.223.16a.487.487 0 0 0 .201.072c.077 0 .147-.01.203-.035.057-.025.091-.068.095-.106.004-.046-.023-.087-.073-.122l-.23-.168c.177-.09.31-.201.39-.317zm-3.436-.82c-.1-.079-.147-.153-.116-.242.023-.082.092-.16.199-.235l.735.522c-.18.037-.343.053-.466.057a.61.61 0 0 1-.352-.102zm2.562.8-.713-.512a2.9 2.9 0 0 1 .506-.076c.14-.01.237.014.316.075.152.107.297.274-.11.513z" class="colorf9a83d svgShape"/><path fill="#bababa" d="M15.364 39.605 15.23 41c-.07.735-.62 1.423-1.635 1.892-2.05.949-5.213.653-7.056-.654-.93-.659-1.35-1.448-1.28-2.19l.135-1.396c-.071.743.35 1.532 1.279 2.19 1.844 1.308 5.007 1.603 7.057.655 1.014-.47 1.564-1.158 1.634-1.892z" class="colorffd475 svgShape"/><path fill="#9b9b9b" d="M14.088 37.412c1.844 1.307 1.683 3.14-.358 4.085-2.05.948-5.213.653-7.057-.654-1.852-1.313-1.683-3.14.367-4.089 2.041-.944 5.196-.655 7.048.658z" class="colorf9a83d svgShape"/><path fill="#bababa" d="M10.169 41.488c-1.24-.116-2.373-.499-3.19-1.077-.735-.522-1.111-1.126-1.058-1.703.053-.574.53-1.097 1.341-1.473.906-.42 2.088-.586 3.328-.47 1.24.115 2.373.499 3.192 1.08.734.52 1.109 1.125 1.056 1.704-.053.574-.526 1.095-1.33 1.467-.91.42-2.095.588-3.339.472z" class="colorffd475 svgShape"/><path fill="#9b9b9b" d="m10.485 40.056-.976-.696-.769-.549-.413.19-.283-.202.71-.327-.534-.38.351-.162.534.381.252-.115-.534-.381.355-.163.534.38.347-.159c.326-.15.83-.105 1.117.1.291.207.262.501-.064.651.408-.183 1.021-.124 1.378.131.365.26.33.617-.075.803l-.343.158.467.333-.355.163-.467-.333-.252.115.467.334-.35.161-.468-.333-.727.333-.245-.276.343-.157zm.57-.214.652-.3c.218-.1.238-.295.043-.434a.838.838 0 0 0-.754-.073l-.652.3.71.507m-1.295-1.53-.487.225.67.478.487-.224c.21-.097.229-.282.045-.414a.792.792 0 0 0-.715-.064" class="colorf9a83d svgShape"/><path fill="#fff" d="m10.705 36.244-.539 5.775c-.976-.085-1.93-.334-2.744-.736l.451-4.832c.873-.237 1.864-.304 2.832-.207zm2.632.724-.45 4.826a7.006 7.006 0 0 1-1.92.253l.532-5.683a7.545 7.545 0 0 1 1.838.604z" class="colorffffff svgShape" opacity=".4"/><path fill="#bababa" d="M27.92 39.765c-1.243-.093-2.383-.453-3.21-1.017-.746-.507-1.133-1.104-1.09-1.682.041-.575.508-1.107 1.312-1.498.898-.436 2.076-.626 3.318-.534 1.242.092 2.382.454 3.212 1.019.744.506 1.13 1.104 1.088 1.684-.041.575-.504 1.105-1.302 1.492-.9.438-2.082.628-3.329.536z" class="colorffd475 svgShape"/><path fill="#9b9b9b" d="M30.187 38.007a.49.49 0 0 0 .091-.4c-.036-.133-.134-.255-.288-.359a1.444 1.444 0 0 0-.633-.254 2.64 2.64 0 0 0-.653.005 6.812 6.812 0 0 0-.64.145l-.862-.586c.214-.092.442-.16.675-.203l.11-.03c.08-.04.114-.092.11-.146s-.03-.102-.089-.145a.561.561 0 0 0-.401-.068 4.14 4.14 0 0 0-.872.265l-.226-.154a.434.434 0 0 0-.203-.062.403.403 0 0 0-.202.031c-.056.027-.09.07-.092.109-.004.046.024.086.082.129l.227.155c-.177.11-.301.223-.364.349a.486.486 0 0 0-.052.395.8.8 0 0 0 .303.352c.183.121.377.197.605.23.205.03.428.031.638-.007.177-.017.396-.063.623-.123l.832.569a3.679 3.679 0 0 1-.821.215.511.511 0 0 0-.134.044c-.072.033-.121.083-.118.137-.004.053.031.102.097.145a.47.47 0 0 0 .186.076h.207a5.063 5.063 0 0 0 1.065-.282l.227.155a.487.487 0 0 0 .202.068.506.506 0 0 0 .202-.038c.056-.027.09-.07.092-.108.004-.046-.024-.087-.075-.121l-.233-.163c.175-.095.307-.208.384-.325zm-3.451-.755c-.102-.076-.15-.149-.12-.239.021-.083.088-.162.194-.239l.745.508c-.18.04-.342.06-.465.066a.61.61 0 0 1-.354-.096zm2.577.752-.723-.5a2.9 2.9 0 0 1 .505-.084c.14-.013.237.01.317.07.154.103.303.267-.1.514z" class="colorf9a83d svgShape"/><path fill="#bababa" d="m33.221 35.857-.108 1.397c-.056.736-.593 1.435-1.598 1.923-2.031.987-5.2.752-7.068-.52-.942-.64-1.378-1.422-1.32-2.165l.107-1.398c-.057.744.378 1.525 1.32 2.166 1.869 1.272 5.037 1.507 7.069.52 1.005-.489 1.541-1.188 1.598-1.923z" class="colorffd475 svgShape"/><path fill="#9b9b9b" d="M31.903 33.689c1.868 1.271 1.743 3.107-.28 4.09-2.032.988-5.2.753-7.068-.519-1.877-1.277-1.743-3.108.289-4.095 2.022-.983 5.183-.754 7.06.524z" class="colorf9a83d svgShape"/><path fill="#bababa" d="M28.062 37.838c-1.242-.092-2.382-.453-3.21-1.016-.745-.507-1.132-1.105-1.09-1.682.042-.575.508-1.107 1.313-1.498.898-.437 2.076-.626 3.318-.534 1.242.092 2.382.454 3.212 1.019.744.506 1.13 1.104 1.088 1.684-.041.574-.504 1.104-1.302 1.492-.9.438-2.082.628-3.329.535z" class="colorffd475 svgShape"/><path fill="#9b9b9b" d="m28.351 36.4-.989-.677-.78-.534-.409.198-.287-.197.704-.34-.54-.37.347-.168.54.37.25-.12-.54-.37.352-.17.54.37.344-.166c.324-.156.828-.12 1.12.079.294.202.27.496-.053.652.405-.19 1.02-.143 1.381.105.37.253.34.61-.06.804l-.34.164.474.325-.352.17-.474-.325-.25.12.474.325-.348.168-.473-.325-.72.348-.25-.272.34-.164zm.565-.224.647-.312c.217-.105.232-.3.034-.435a.838.838 0 0 0-.754-.058l-.647.312.72.493m-1.324-1.504-.483.233.68.465.482-.233c.209-.1.224-.287.037-.414a.792.792 0 0 0-.716-.051" class="colorf9a83d svgShape"/><path fill="#fff" d="m28.499 32.585-.43 5.784c-.977-.066-1.936-.296-2.757-.683l.359-4.84c.869-.254 1.858-.34 2.828-.261zm2.645.674-.358 4.833a7.006 7.006 0 0 1-1.914.29l.422-5.692a7.546 7.546 0 0 1 1.85.57z" class="colorffffff svgShape" opacity=".4"/><path fill="#bababa" d="M36.581 47.458c-1.245 0-2.409-.275-3.276-.776-.78-.45-1.21-1.018-1.211-1.597-.001-.576.424-1.141 1.198-1.591.863-.502 2.024-.778 3.27-.778 1.244 0 2.408.277 3.278.778.78.45 1.209 1.018 1.21 1.6 0 .576-.422 1.138-1.188 1.584-.866.503-2.031.78-3.28.78z" class="colorffd475 svgShape"/><path fill="#9b9b9b" d="M38.713 45.538a.49.49 0 0 0 .061-.406c-.046-.13-.153-.245-.314-.337a1.444 1.444 0 0 0-.65-.206 2.639 2.639 0 0 0-.65.053c-.184.046-.391.107-.628.192l-.903-.52c.206-.108.428-.192.658-.253l.107-.039c.077-.046.107-.1.1-.153-.008-.053-.039-.1-.1-.138a.561.561 0 0 0-.406-.038 4.14 4.14 0 0 0-.85.33l-.236-.138a.434.434 0 0 0-.207-.046c-.077 0-.146.015-.2.046s-.083.076-.083.114c0 .046.03.085.092.123l.237.138c-.169.122-.283.244-.337.375a.486.486 0 0 0-.023.398.8.8 0 0 0 .33.329c.19.107.39.168.62.183.206.016.428 0 .634-.053.176-.03.39-.092.613-.169l.872.506a3.679 3.679 0 0 1-.803.275.511.511 0 0 0-.13.054c-.07.038-.115.092-.108.145 0 .054.039.1.107.138a.47.47 0 0 0 .192.061l.206-.015c.368-.084.72-.207 1.041-.36l.238.138c.06.03.137.053.206.053a.506.506 0 0 0 .2-.053c.053-.03.083-.077.083-.115 0-.046-.03-.084-.084-.115l-.245-.145c.169-.107.291-.23.36-.352zm-3.498-.498c-.107-.069-.16-.138-.137-.23.015-.084.076-.168.176-.252l.78.452a2.799 2.799 0 0 1-.459.1.61.61 0 0 1-.36-.07zm2.626.559-.758-.444a2.9 2.9 0 0 1 .497-.122c.138-.023.238-.008.322.045.16.092.321.245-.061.52z" class="colorf9a83d svgShape"/><path fill="#bababa" d="m41.58 43.169-.005 1.401c-.002.738-.485 1.475-1.451 2.036-1.953 1.135-5.13 1.135-7.087.005-.987-.57-1.48-1.316-1.477-2.062l.004-1.402c-.002.746.49 1.492 1.477 2.062 1.957 1.13 5.134 1.13 7.087-.005.966-.561 1.45-1.298 1.451-2.035z" class="colorffd475 svgShape"/><path fill="#9b9b9b" d="M40.105 41.104c1.957 1.13 1.967 2.97.023 4.1-1.953 1.135-5.13 1.135-7.087.005-1.966-1.135-1.968-2.97-.015-4.105 1.944-1.13 5.113-1.135 7.079 0z" class="colorf9a83d svgShape"/><path fill="#bababa" d="M36.581 45.526c-1.245 0-2.409-.275-3.276-.775-.78-.451-1.21-1.018-1.211-1.597-.001-.577.424-1.142 1.198-1.592.863-.501 2.024-.777 3.27-.777 1.244 0 2.408.276 3.278.778.78.45 1.209 1.018 1.21 1.6 0 .575-.422 1.138-1.188 1.583-.866.503-2.031.78-3.28.78z" class="colorffd475 svgShape"/><path fill="#9b9b9b" d="m36.763 44.071-1.036-.602-.817-.475-.394.227-.3-.175.676-.39-.567-.33.335-.193.567.33.24-.139-.567-.33.338-.195.567.33.33-.191c.312-.18.818-.182 1.123-.005.308.18.307.475-.004.655.39-.22 1.005-.219 1.385.002.387.225.385.584-.001.806l-.327.189.497.289-.339.195-.496-.289-.24.139.496.289-.334.193-.497-.289-.692.4-.27-.252.327-.189zm.547-.266.622-.359c.208-.12.21-.315.002-.436a.838.838 0 0 0-.757-.002l-.622.359.755.438m-1.432-1.401-.464.268.711.413.465-.268c.2-.116.201-.302.006-.416a.792.792 0 0 0-.718.003" class="colorf9a83d svgShape"/><path fill="#fff" d="M36.628 40.255v5.8c-.98.007-1.953-.152-2.8-.476v-4.854c.847-.317 1.827-.476 2.8-.47zm2.688.477v4.847a7.006 7.006 0 0 1-1.887.43v-5.707a7.545 7.545 0 0 1 1.887.43z" class="colorffffff svgShape" opacity=".4"/><path fill="#bababa" d="M34.406 43.14c-1.24-.115-2.373-.498-3.19-1.077-.735-.521-1.11-1.126-1.058-1.702.053-.575.53-1.098 1.342-1.473.905-.42 2.087-.586 3.327-.47 1.24.115 2.373.499 3.192 1.079.734.52 1.11 1.126 1.056 1.705-.053.573-.525 1.094-1.33 1.467-.91.42-2.095.588-3.339.471z" class="colorffd475 svgShape"/><path fill="#9b9b9b" d="M36.707 41.427a.49.49 0 0 0 .099-.399c-.034-.133-.13-.258-.281-.364a1.444 1.444 0 0 0-.629-.266 2.64 2.64 0 0 0-.653-.007c-.187.028-.398.07-.642.132l-.851-.602c.216-.088.444-.151.679-.19l.11-.029c.08-.038.116-.089.113-.143-.002-.054-.029-.103-.086-.146a.561.561 0 0 0-.4-.076c-.29.05-.589.13-.877.248l-.223-.159a.434.434 0 0 0-.202-.065c-.076-.007-.146.002-.202.027s-.091.069-.095.107c-.004.046.023.087.08.13l.224.16c-.18.106-.305.217-.37.342a.486.486 0 0 0-.06.394.8.8 0 0 0 .297.358c.18.125.373.204.6.24.204.035.427.04.638.006.178-.014.397-.055.625-.11l.822.584a3.68 3.68 0 0 1-.826.2.511.511 0 0 0-.135.04c-.072.032-.123.081-.12.135-.005.054.029.103.094.148a.47.47 0 0 0 .185.078l.207.004c.374-.05.736-.139 1.07-.261l.223.16a.487.487 0 0 0 .201.072c.077 0 .147-.01.203-.035.056-.026.091-.069.095-.107.004-.045-.023-.086-.073-.122l-.23-.167c.177-.091.31-.202.39-.317zm-3.436-.82c-.1-.08-.147-.153-.116-.242.023-.083.092-.16.199-.235l.735.522c-.18.037-.343.052-.466.056a.61.61 0 0 1-.352-.102zm2.562.8-.713-.513a2.9 2.9 0 0 1 .506-.076c.14-.01.237.015.316.076.151.106.297.274-.11.512z" class="colorf9a83d svgShape"/><path fill="#bababa" d="m39.781 39.334-.134 1.396c-.07.734-.62 1.423-1.635 1.892-2.05.948-5.213.653-7.057-.654-.93-.66-1.35-1.449-1.278-2.19l.134-1.396c-.071.742.349 1.531 1.279 2.19 1.843 1.307 5.007 1.603 7.057.654 1.014-.469 1.563-1.157 1.634-1.892z" class="colorffd475 svgShape"/><path fill="#9b9b9b" d="M38.505 37.142c1.843 1.307 1.683 3.14-.358 4.084-2.05.949-5.214.653-7.057-.654-1.852-1.313-1.683-3.14.367-4.089 2.04-.944 5.196-.654 7.048.659z" class="colorf9a83d svgShape"/><path fill="#bababa" d="M34.586 41.217c-1.24-.116-2.374-.498-3.19-1.077-.736-.521-1.111-1.126-1.058-1.702.053-.575.53-1.098 1.341-1.474.906-.419 2.088-.586 3.328-.47 1.239.116 2.372.5 3.192 1.08.734.52 1.109 1.126 1.055 1.705-.052.573-.525 1.094-1.33 1.466-.909.42-2.094.588-3.338.472z" class="colorffd475 svgShape"/><path fill="#9b9b9b" d="m34.902 39.785-.976-.696-.77-.548-.412.19-.284-.203.71-.326-.533-.38.35-.162.535.38.252-.115-.534-.38.355-.164.534.38.347-.158c.326-.15.83-.105 1.117.1.29.207.262.5-.064.65.408-.183 1.02-.123 1.378.132.364.26.33.617-.076.803l-.342.157.467.333-.355.164-.468-.334-.251.116.467.333-.35.161-.468-.333-.727.334-.245-.276.343-.158zm.569-.214.652-.3c.22-.1.239-.294.043-.433a.838.838 0 0 0-.753-.073l-.653.3.711.506m-1.295-1.529-.487.224.67.478.487-.224c.21-.096.229-.282.045-.413a.792.792 0 0 0-.715-.065" class="colorf9a83d svgShape"/><path fill="#fff" d="m35.122 35.973-.54 5.775c-.975-.085-1.93-.333-2.743-.735l.45-4.832c.874-.238 1.865-.305 2.833-.208zm2.632.725-.45 4.825a7.006 7.006 0 0 1-1.92.253l.531-5.682a7.545 7.545 0 0 1 1.84.604z" class="colorffffff svgShape" opacity=".4"/><path fill="#bababa" d="M15.92 47.17c-1.247 0-2.41-.276-3.277-.776-.78-.45-1.21-1.018-1.212-1.597 0-.577.425-1.142 1.199-1.592.863-.5 2.024-.777 3.27-.777 1.244 0 2.408.276 3.278.778.78.45 1.209 1.018 1.21 1.6 0 .575-.422 1.138-1.189 1.584-.865.503-2.03.78-3.28.78z" class="colorffd475 svgShape"/><path fill="#9b9b9b" d="M18.05 45.25a.49.49 0 0 0 .062-.406c-.046-.13-.153-.245-.314-.337a1.444 1.444 0 0 0-.65-.207 2.64 2.64 0 0 0-.65.054c-.184.046-.391.107-.628.191l-.904-.52c.207-.107.43-.192.659-.253l.107-.038c.076-.046.107-.1.1-.153-.008-.054-.039-.1-.1-.138a.561.561 0 0 0-.406-.038 4.14 4.14 0 0 0-.85.329l-.237-.138a.434.434 0 0 0-.206-.046c-.077 0-.146.016-.2.046s-.083.077-.083.115c0 .046.03.084.091.122l.238.138c-.169.123-.284.245-.337.375a.486.486 0 0 0-.023.398.8.8 0 0 0 .33.33c.19.106.39.168.619.183.207.015.429 0 .635-.054.176-.03.39-.091.613-.168l.872.505a3.679 3.679 0 0 1-.804.276.511.511 0 0 0-.13.053c-.069.039-.114.092-.107.146 0 .053.038.1.107.138a.47.47 0 0 0 .192.06l.206-.015c.368-.084.72-.206 1.041-.36l.237.138c.062.031.138.054.207.054a.506.506 0 0 0 .2-.054c.053-.03.083-.076.083-.114 0-.046-.03-.085-.084-.115l-.245-.146c.169-.107.291-.23.36-.352zm-3.497-.498c-.107-.069-.16-.138-.138-.23.016-.084.077-.168.176-.252l.781.451a2.799 2.799 0 0 1-.46.1.61.61 0 0 1-.359-.07zm2.625.559-.757-.444a2.9 2.9 0 0 1 .497-.123c.138-.023.237-.007.322.046.16.092.321.245-.062.52z" class="colorf9a83d svgShape"/><path fill="#bababa" d="m20.917 42.88-.004 1.402c-.002.738-.485 1.475-1.451 2.036-1.953 1.135-5.13 1.135-7.088.005-.987-.57-1.479-1.317-1.476-2.062l.004-1.402c-.003.746.49 1.492 1.476 2.062 1.958 1.13 5.135 1.13 7.087-.005.966-.561 1.45-1.298 1.452-2.036z" class="colorffd475 svgShape"/><path fill="#9b9b9b" d="M19.442 40.816c1.958 1.13 1.968 2.97.023 4.1-1.952 1.135-5.13 1.135-7.087.005-1.965-1.135-1.967-2.97-.014-4.105 1.944-1.13 5.113-1.135 7.078 0z" class="colorf9a83d svgShape"/><path fill="#bababa" d="M15.92 45.238c-1.247 0-2.41-.275-3.277-.776-.78-.45-1.21-1.018-1.212-1.597 0-.576.425-1.141 1.199-1.591.863-.502 2.024-.778 3.27-.778 1.244 0 2.408.277 3.278.779.78.45 1.209 1.017 1.21 1.599 0 .576-.422 1.138-1.189 1.584-.865.503-2.03.78-3.28.78z" class="colorffd475 svgShape"/><path fill="#9b9b9b" d="m16.1 43.783-1.035-.602-.817-.475-.394.227-.3-.175.676-.39-.567-.33.335-.193.566.33.24-.14-.566-.329.338-.195.567.33.33-.192c.311-.18.817-.181 1.122-.004.31.18.308.475-.003.654.39-.22 1.005-.218 1.384.002.387.225.385.584 0 .807l-.327.189.497.288-.339.196-.496-.289-.24.139.496.288-.334.193-.497-.288-.692.4-.27-.253.327-.188zm.548-.266.621-.359c.209-.12.21-.316.003-.436a.838.838 0 0 0-.757-.002l-.622.359.755.438m-1.432-1.402-.464.268.711.414.465-.268c.2-.116.201-.302.006-.416a.792.792 0 0 0-.718.002" class="colorf9a83d svgShape"/><path fill="#fff" d="M15.966 39.967v5.8c-.98.006-1.953-.152-2.801-.477v-4.853c.848-.318 1.827-.477 2.8-.47zm2.688.477v4.846a7.006 7.006 0 0 1-1.887.43v-5.707a7.546 7.546 0 0 1 1.887.43z" class="colorffffff svgShape" opacity=".4"/><path fill="#bababa" d="M18.278 41.226c-1.246 0-2.41-.276-3.276-.776-.781-.45-1.211-1.018-1.212-1.597-.001-.577.425-1.142 1.198-1.591.863-.502 2.024-.778 3.27-.778 1.244 0 2.409.276 3.278.778.78.45 1.21 1.018 1.21 1.6.001.575-.421 1.138-1.188 1.584-.866.503-2.03.78-3.28.78z" class="colorffd475 svgShape"/><path fill="#9b9b9b" d="M20.41 39.305a.49.49 0 0 0 .06-.405c-.045-.13-.152-.245-.313-.337a1.444 1.444 0 0 0-.65-.207 2.639 2.639 0 0 0-.651.054c-.184.046-.39.107-.628.191l-.903-.52c.207-.107.429-.192.658-.253l.107-.038c.077-.046.107-.1.1-.153-.008-.054-.038-.1-.1-.138a.561.561 0 0 0-.405-.038 4.14 4.14 0 0 0-.85.329l-.237-.138a.434.434 0 0 0-.207-.046c-.076 0-.145.016-.199.046s-.084.077-.084.115c0 .046.03.084.092.122l.237.138c-.168.123-.283.245-.337.375a.486.486 0 0 0-.023.398.8.8 0 0 0 .33.33c.19.107.39.168.62.183.206.015.428 0 .635-.054.176-.03.39-.091.612-.168l.873.505a3.679 3.679 0 0 1-.804.276.511.511 0 0 0-.13.053c-.07.039-.115.092-.107.146 0 .053.038.1.107.138a.47.47 0 0 0 .191.06l.207-.015c.367-.084.72-.206 1.04-.36l.238.139c.061.03.138.053.207.053a.506.506 0 0 0 .199-.053c.053-.031.084-.077.084-.115 0-.046-.03-.084-.084-.115l-.245-.146c.168-.107.29-.23.36-.352zm-3.498-.497c-.107-.069-.161-.138-.138-.23.015-.084.076-.168.176-.252l.78.451a2.799 2.799 0 0 1-.459.1.61.61 0 0 1-.36-.07zm2.625.559-.758-.444a2.9 2.9 0 0 1 .498-.123c.137-.023.237-.007.321.046.16.092.322.245-.061.52z" class="colorf9a83d svgShape"/><path fill="#bababa" d="m23.276 36.936-.004 1.402c-.002.738-.486 1.475-1.452 2.036-1.953 1.135-5.13 1.135-7.087.005-.987-.57-1.479-1.316-1.477-2.062l.004-1.402c-.002.746.49 1.492 1.477 2.062 1.957 1.13 5.134 1.13 7.087-.005.966-.561 1.45-1.298 1.452-2.036z" class="colorffd475 svgShape"/><path fill="#9b9b9b" d="M21.8 34.872c1.958 1.13 1.968 2.97.024 4.1-1.953 1.135-5.13 1.135-7.087.005-1.966-1.135-1.968-2.97-.015-4.105 1.945-1.13 5.113-1.135 7.079 0z" class="colorf9a83d svgShape"/><path fill="#bababa" d="M18.278 39.294c-1.246 0-2.41-.275-3.276-.776-.781-.45-1.211-1.017-1.212-1.596-.001-.577.425-1.142 1.198-1.592.863-.501 2.024-.778 3.27-.778 1.244 0 2.409.277 3.278.779.78.45 1.21 1.017 1.21 1.599.001.576-.421 1.139-1.188 1.584-.866.503-2.03.78-3.28.78z" class="colorffd475 svgShape"/><path fill="#9b9b9b" d="m18.46 37.839-1.037-.602-.817-.475-.393.227-.301-.175.676-.39-.566-.33.334-.193.567.33.24-.14-.567-.329.339-.195.566.33.331-.192c.31-.179.817-.181 1.122-.004.309.18.307.475-.004.654.39-.22 1.006-.218 1.385.003.387.224.385.583 0 .806l-.327.189.496.288-.338.196-.497-.289-.24.139.497.288-.335.193-.496-.288-.693.4-.27-.252.327-.19zm.546-.266.622-.359c.208-.12.21-.316.002-.436a.838.838 0 0 0-.757-.002l-.621.359.754.438m-1.432-1.402-.464.268.712.414.464-.268c.2-.116.202-.302.006-.416a.792.792 0 0 0-.718.002" class="colorf9a83d svgShape"/><path fill="#fff" d="M18.324 34.023v5.8c-.98.007-1.953-.152-2.8-.477v-4.853c.847-.318 1.827-.477 2.8-.47zm2.688.477v4.846a7.006 7.006 0 0 1-1.887.43V34.07a7.545 7.545 0 0 1 1.887.43z" class="colorffffff svgShape" opacity=".4"/><path fill="#bababa" d="M21.642 42.66c-1.246 0-2.409-.275-3.276-.775-.78-.451-1.21-1.018-1.211-1.597-.001-.577.424-1.142 1.198-1.592.863-.501 2.024-.777 3.27-.777 1.244 0 2.408.276 3.278.778.78.45 1.209 1.018 1.21 1.6 0 .575-.422 1.138-1.188 1.583-.866.503-2.031.78-3.28.78z" class="colorffd475 svgShape"/><path fill="#9b9b9b" d="M23.774 40.74a.49.49 0 0 0 .061-.405c-.046-.13-.153-.245-.314-.337a1.444 1.444 0 0 0-.65-.207 2.64 2.64 0 0 0-.65.054c-.184.046-.391.107-.628.191l-.903-.52c.206-.108.428-.192.658-.253l.107-.038c.077-.046.107-.1.1-.153-.008-.054-.039-.1-.1-.138a.561.561 0 0 0-.406-.038 4.14 4.14 0 0 0-.85.329l-.236-.138a.434.434 0 0 0-.207-.046.403.403 0 0 0-.2.046c-.053.03-.083.077-.083.115 0 .046.03.084.092.122l.237.138c-.169.123-.283.245-.337.375a.486.486 0 0 0-.023.398.8.8 0 0 0 .33.33c.19.106.39.168.62.183.206.015.428 0 .634-.054.176-.03.39-.092.613-.168l.872.505a3.679 3.679 0 0 1-.803.276.511.511 0 0 0-.13.053c-.07.038-.115.092-.108.146 0 .053.039.1.107.137a.47.47 0 0 0 .192.062l.206-.016c.368-.084.72-.206 1.041-.36l.238.138c.06.031.137.054.206.054a.506.506 0 0 0 .2-.054c.053-.03.083-.076.083-.114 0-.046-.03-.085-.084-.115l-.245-.146c.169-.107.291-.23.36-.352zm-3.498-.497c-.107-.07-.16-.138-.137-.23.015-.084.076-.168.176-.252l.78.451a2.798 2.798 0 0 1-.459.1.61.61 0 0 1-.36-.07zm2.626.558-.758-.443c.191-.062.367-.108.497-.123.138-.023.238-.008.322.046.16.092.321.245-.061.52z" class="colorf9a83d svgShape"/><path fill="#bababa" d="m26.64 38.371-.004 1.402c-.002.738-.485 1.474-1.451 2.036-1.953 1.135-5.13 1.135-7.087.005-.987-.57-1.48-1.317-1.477-2.062l.004-1.402c-.002.745.49 1.492 1.477 2.062 1.957 1.13 5.134 1.13 7.087-.005.966-.561 1.45-1.298 1.451-2.036z" class="colorffd475 svgShape"/><path fill="#9b9b9b" d="M25.166 36.307c1.957 1.13 1.967 2.97.023 4.1-1.953 1.135-5.13 1.135-7.087.005-1.966-1.135-1.968-2.97-.015-4.105 1.944-1.13 5.113-1.135 7.079 0z" class="colorf9a83d svgShape"/><path fill="#bababa" d="M21.642 40.729c-1.246 0-2.409-.276-3.276-.776-.78-.45-1.21-1.018-1.211-1.597-.001-.576.424-1.142 1.198-1.591.863-.502 2.024-.778 3.27-.778 1.244 0 2.408.277 3.278.778.78.45 1.209 1.018 1.21 1.6 0 .575-.422 1.138-1.188 1.584-.866.503-2.031.78-3.28.78z" class="colorffd475 svgShape"/><path fill="#9b9b9b" d="m21.824 39.274-1.036-.602-.817-.475-.394.227-.3-.175.676-.39-.567-.33.335-.193.567.33.24-.14-.567-.329.338-.195.567.33.33-.192c.312-.18.818-.182 1.123-.004.308.18.307.475-.004.654.39-.22 1.005-.218 1.384.002.388.225.386.584 0 .807l-.327.189.497.288-.339.195-.496-.288-.24.139.496.288-.334.193-.497-.288-.692.4-.27-.253.327-.188zm.547-.266.622-.36c.208-.12.21-.315.002-.435a.838.838 0 0 0-.757-.003l-.622.36.755.438m-1.432-1.402-.464.268.711.414.465-.268c.2-.116.201-.303.006-.416a.792.792 0 0 0-.718.002" class="colorf9a83d svgShape"/><path fill="#fff" d="M21.689 35.458v5.8c-.98.006-1.953-.153-2.8-.477v-4.853c.847-.318 1.827-.477 2.8-.47zm2.688.476v4.847a7.006 7.006 0 0 1-1.887.43v-5.707a7.546 7.546 0 0 1 1.887.43z" class="colorffffff svgShape" opacity=".4"/><path fill="#bababa" d="M24.952 50c-1.245 0-2.409-.275-3.276-.776-.78-.45-1.21-1.018-1.211-1.597-.001-.576.424-1.141 1.198-1.591.863-.502 2.024-.778 3.27-.778 1.244 0 2.408.277 3.278.778.78.45 1.209 1.018 1.21 1.6 0 .576-.422 1.138-1.188 1.584-.866.503-2.031.78-3.28.78z" class="colorffd475 svgShape"/><path fill="#9b9b9b" d="M27.084 48.08a.49.49 0 0 0 .061-.406c-.046-.13-.153-.245-.313-.337a1.444 1.444 0 0 0-.651-.206 2.64 2.64 0 0 0-.65.053c-.184.046-.391.107-.628.192l-.903-.52c.206-.108.428-.192.658-.253l.107-.039c.077-.046.107-.1.1-.153s-.039-.1-.1-.138a.561.561 0 0 0-.406-.038 4.14 4.14 0 0 0-.85.33l-.236-.139a.434.434 0 0 0-.207-.045c-.077 0-.146.015-.2.045s-.083.077-.083.115c0 .046.03.084.092.123l.237.138c-.169.122-.283.244-.337.375a.486.486 0 0 0-.023.398.8.8 0 0 0 .33.329c.19.107.39.168.62.183.206.016.428 0 .634-.053.176-.03.39-.092.613-.169l.872.506a3.679 3.679 0 0 1-.803.275.511.511 0 0 0-.13.054c-.07.038-.115.091-.108.145 0 .054.039.1.107.138a.47.47 0 0 0 .192.061l.206-.015c.368-.084.72-.207 1.041-.36l.238.138c.06.03.137.053.206.053a.506.506 0 0 0 .2-.053c.053-.03.083-.077.083-.115 0-.046-.03-.084-.084-.115l-.245-.145c.169-.107.291-.23.36-.352zm-3.498-.498c-.107-.069-.16-.138-.137-.23.015-.084.076-.168.176-.252l.78.452a2.799 2.799 0 0 1-.459.1.61.61 0 0 1-.36-.07zm2.626.559-.758-.444a2.9 2.9 0 0 1 .497-.122c.138-.023.238-.008.322.045.16.092.321.245-.061.52z" class="colorf9a83d svgShape"/><path fill="#bababa" d="m29.95 45.71-.004 1.402c-.002.738-.485 1.475-1.451 2.036-1.953 1.135-5.13 1.135-7.087.005-.987-.57-1.48-1.316-1.477-2.062l.004-1.402c-.002.746.49 1.492 1.477 2.062 1.957 1.13 5.134 1.13 7.087-.005.966-.561 1.45-1.298 1.451-2.035z" class="colorffd475 svgShape"/><path fill="#9b9b9b" d="M28.476 43.646c1.957 1.13 1.967 2.97.023 4.1-1.953 1.135-5.13 1.135-7.087.005-1.966-1.135-1.968-2.97-.015-4.105 1.944-1.13 5.113-1.135 7.079 0z" class="colorf9a83d svgShape"/><path fill="#bababa" d="M24.952 48.068c-1.245 0-2.409-.275-3.276-.775-.78-.451-1.21-1.018-1.211-1.597-.001-.577.424-1.142 1.198-1.592.863-.501 2.024-.777 3.27-.777 1.244 0 2.408.276 3.278.778.78.45 1.209 1.018 1.21 1.6 0 .575-.422 1.138-1.188 1.583-.866.503-2.031.78-3.28.78z" class="colorffd475 svgShape"/><path fill="#9b9b9b" d="m25.134 46.613-1.036-.602-.817-.475-.394.227-.3-.175.676-.39-.567-.33.335-.193.567.33.24-.139-.567-.33.338-.195.567.33.33-.191c.312-.18.818-.182 1.123-.005.308.18.307.475-.004.655.39-.22 1.005-.219 1.385.002.387.225.385.584-.001.806l-.327.189.497.289-.339.195-.496-.289-.24.139.496.289-.334.193-.497-.289-.692.4-.27-.252.327-.189zm.547-.266.622-.359c.208-.12.21-.315.002-.436a.838.838 0 0 0-.757-.002l-.622.359.755.438m-1.432-1.402-.464.269.711.413.465-.268c.2-.116.201-.302.006-.416a.792.792 0 0 0-.718.002" class="colorf9a83d svgShape"/><path fill="#fff" d="M24.999 42.797v5.8c-.98.007-1.953-.152-2.8-.477v-4.853c.847-.317 1.827-.476 2.8-.47zm2.688.477v4.846a7.006 7.006 0 0 1-1.887.43v-5.706a7.546 7.546 0 0 1 1.887.43z" class="colorffffff svgShape" opacity=".4"/><path fill="#bababa" d="M29.235 46.71c-1.246 0-2.41-.275-3.277-.775-.78-.451-1.21-1.018-1.211-1.597-.001-.577.424-1.142 1.198-1.592.863-.501 2.024-.777 3.27-.777 1.244 0 2.408.276 3.278.778.78.45 1.209 1.018 1.21 1.6 0 .575-.422 1.138-1.188 1.583-.866.503-2.031.78-3.28.78z" class="colorffd475 svgShape"/><path fill="#9b9b9b" d="M31.366 44.79a.49.49 0 0 0 .061-.405c-.046-.13-.153-.245-.313-.337a1.444 1.444 0 0 0-.651-.207 2.64 2.64 0 0 0-.65.054c-.184.046-.391.107-.628.191l-.903-.52c.206-.108.428-.192.658-.253l.107-.038c.077-.046.107-.1.1-.153-.008-.054-.039-.1-.1-.138a.561.561 0 0 0-.406-.038 4.14 4.14 0 0 0-.85.329l-.236-.138a.434.434 0 0 0-.207-.046c-.077 0-.145.015-.2.046s-.083.076-.083.115c0 .046.03.084.092.122l.237.138c-.169.122-.283.245-.337.375a.486.486 0 0 0-.023.398.8.8 0 0 0 .33.33c.19.106.39.168.62.183.206.015.428 0 .634-.054.176-.03.39-.092.613-.168l.872.505a3.679 3.679 0 0 1-.803.276.511.511 0 0 0-.13.053c-.07.038-.115.092-.108.146 0 .053.039.099.108.137a.47.47 0 0 0 .19.062l.207-.016c.368-.084.72-.206 1.041-.36l.238.138c.06.03.137.054.206.054a.506.506 0 0 0 .2-.054c.053-.03.083-.076.083-.115 0-.045-.03-.084-.084-.114l-.245-.146c.169-.107.291-.23.36-.352zm-3.498-.497c-.107-.07-.16-.138-.137-.23.015-.084.076-.168.176-.253l.78.452a2.798 2.798 0 0 1-.459.1.61.61 0 0 1-.36-.07zm2.626.558-.758-.444a2.9 2.9 0 0 1 .497-.122c.138-.023.238-.008.322.046.16.092.321.245-.061.52z" class="colorf9a83d svgShape"/><path fill="#bababa" d="m34.232 42.421-.004 1.402c-.002.738-.485 1.474-1.451 2.036-1.953 1.135-5.13 1.135-7.087.005-.987-.57-1.48-1.317-1.477-2.062l.004-1.402c-.002.745.49 1.492 1.477 2.062 1.957 1.13 5.134 1.13 7.087-.005.966-.562 1.45-1.298 1.451-2.036z" class="colorffd475 svgShape"/><path fill="#9b9b9b" d="M32.758 40.357c1.957 1.13 1.967 2.97.023 4.1-1.953 1.135-5.13 1.135-7.087.005-1.966-1.135-1.968-2.97-.015-4.105 1.944-1.13 5.113-1.135 7.079 0z" class="colorf9a83d svgShape"/><path fill="#bababa" d="M29.235 44.779c-1.246 0-2.41-.276-3.277-.776-.78-.45-1.21-1.018-1.211-1.597-.001-.576.424-1.142 1.198-1.591.863-.502 2.024-.778 3.27-.778 1.244 0 2.408.277 3.278.778.78.45 1.209 1.018 1.21 1.6 0 .575-.422 1.138-1.188 1.584-.866.503-2.031.78-3.28.78z" class="colorffd475 svgShape"/><path fill="#9b9b9b" d="m29.416 43.324-1.036-.602-.817-.475-.394.227-.3-.175.676-.39-.567-.33.335-.193.567.329.24-.139-.567-.329.338-.195.567.329.33-.19c.312-.18.818-.183 1.123-.005.308.18.307.475-.004.654.39-.22 1.005-.218 1.385.002.387.225.385.584-.001.807l-.327.188.497.289-.339.195-.496-.288-.24.138.496.289-.334.193-.497-.288-.692.4-.27-.253.327-.188zm.547-.266.622-.36c.208-.12.21-.315.002-.435a.838.838 0 0 0-.757-.003l-.622.36.755.438m-1.432-1.402-.464.268.711.414.465-.269c.2-.115.201-.302.006-.415a.792.792 0 0 0-.718.002" class="colorf9a83d svgShape"/><path fill="#fff" d="M29.28 39.508v5.8c-.979.006-1.952-.153-2.8-.477v-4.853c.848-.318 1.828-.477 2.8-.47zm2.689.476v4.847a7.006 7.006 0 0 1-1.887.43v-5.707a7.546 7.546 0 0 1 1.887.43z" class="colorffffff svgShape" opacity=".4"/><path fill="#bababa" d="M23.15 46.004c-1.246 0-2.41-.276-3.277-.776-.78-.45-1.21-1.018-1.211-1.597-.001-.577.424-1.142 1.198-1.591.863-.502 2.024-.778 3.27-.778 1.244 0 2.408.277 3.278.778.78.45 1.21 1.018 1.21 1.6 0 .575-.422 1.138-1.188 1.584-.866.503-2.031.78-3.28.78z" class="colorffd475 svgShape"/><path fill="#9b9b9b" d="M25.281 44.084a.49.49 0 0 0 .061-.406c-.046-.13-.153-.245-.313-.337a1.444 1.444 0 0 0-.651-.207 2.64 2.64 0 0 0-.65.054c-.184.046-.39.107-.628.191l-.903-.52c.206-.107.428-.191.658-.253l.107-.038c.077-.046.107-.1.1-.153s-.039-.1-.1-.138a.561.561 0 0 0-.406-.038 4.14 4.14 0 0 0-.85.33l-.236-.139a.434.434 0 0 0-.207-.046c-.077 0-.145.016-.199.046s-.084.077-.084.115c0 .046.03.084.092.123l.237.137c-.169.123-.283.245-.337.375a.486.486 0 0 0-.023.398.8.8 0 0 0 .33.33c.19.107.39.168.62.183.206.016.428 0 .634-.053.177-.031.39-.092.613-.169l.872.505a3.679 3.679 0 0 1-.803.276.511.511 0 0 0-.13.053c-.07.039-.115.092-.108.146 0 .053.039.1.108.138a.47.47 0 0 0 .19.06l.207-.014c.368-.085.72-.207 1.041-.36l.238.138c.06.03.137.053.206.053a.506.506 0 0 0 .2-.053c.053-.031.083-.077.083-.115 0-.046-.03-.084-.084-.115l-.245-.145c.169-.108.291-.23.36-.352zm-3.498-.498c-.107-.069-.16-.138-.137-.23.015-.084.076-.168.176-.252l.78.451a2.798 2.798 0 0 1-.459.1.61.61 0 0 1-.36-.069zm2.626.559-.758-.444c.191-.061.367-.107.497-.123.138-.023.238-.007.322.046.16.092.321.245-.061.52z" class="colorf9a83d svgShape"/><path fill="#bababa" d="m28.147 41.714-.004 1.402c-.002.738-.485 1.475-1.451 2.036-1.953 1.135-5.13 1.135-7.087.005-.987-.57-1.48-1.316-1.477-2.062l.004-1.402c-.002.746.49 1.492 1.477 2.062 1.957 1.13 5.134 1.13 7.087-.005.966-.561 1.45-1.298 1.451-2.036z" class="colorffd475 svgShape"/><path fill="#9b9b9b" d="M26.673 39.65c1.957 1.13 1.967 2.97.023 4.1-1.953 1.135-5.13 1.135-7.087.005-1.966-1.135-1.968-2.97-.015-4.105 1.944-1.13 5.113-1.135 7.079 0z" class="colorf9a83d svgShape"/><path fill="#bababa" d="M23.15 44.072c-1.246 0-2.41-.275-3.277-.776-.78-.45-1.21-1.017-1.211-1.596-.001-.577.424-1.142 1.198-1.592.863-.501 2.024-.777 3.27-.777 1.244 0 2.408.276 3.278.778.78.45 1.21 1.017 1.21 1.599 0 .576-.422 1.139-1.188 1.584-.866.503-2.031.78-3.28.78z" class="colorffd475 svgShape"/><path fill="#9b9b9b" d="m23.331 42.617-1.036-.602-.817-.475-.394.227-.3-.175.676-.39-.567-.33.335-.193.567.33.24-.14-.567-.329.338-.195.567.33.33-.191c.312-.18.818-.182 1.123-.005.308.18.307.475-.004.654.39-.22 1.005-.218 1.385.003.387.225.385.584-.001.806l-.327.189.497.288-.339.196-.496-.289-.24.139.496.288-.334.194-.497-.289-.692.4-.27-.252.327-.189zm.547-.266.622-.359c.208-.12.21-.316.002-.436a.838.838 0 0 0-.757-.002l-.622.359.755.438m-1.432-1.402-.464.268.711.414.465-.268c.2-.116.201-.302.006-.416a.792.792 0 0 0-.718.002" class="colorf9a83d svgShape"/><path fill="#fff" d="M23.196 38.801v5.8c-.98.007-1.953-.152-2.8-.477v-4.853c.847-.318 1.827-.477 2.8-.47zm2.688.477v4.846a7.006 7.006 0 0 1-1.887.43v-5.707a7.546 7.546 0 0 1 1.887.43z" class="colorffffff svgShape" opacity=".4"/><path fill="#bababa" d="M26.738 44.098c-1.245 0-2.409-.275-3.276-.776-.78-.45-1.21-1.018-1.211-1.597-.001-.576.424-1.141 1.198-1.591.863-.502 2.024-.778 3.27-.778 1.244 0 2.408.277 3.278.778.78.45 1.209 1.018 1.21 1.6 0 .576-.422 1.138-1.188 1.584-.866.503-2.031.78-3.28.78z" class="colorffd475 svgShape"/><path fill="#9b9b9b" d="M28.87 42.178a.49.49 0 0 0 .061-.406c-.046-.13-.153-.245-.314-.337a1.444 1.444 0 0 0-.65-.206 2.64 2.64 0 0 0-.65.053c-.184.046-.391.107-.628.192l-.903-.52c.206-.108.428-.192.658-.253l.107-.039c.077-.046.107-.1.1-.153-.008-.053-.039-.1-.1-.138a.561.561 0 0 0-.406-.038 4.14 4.14 0 0 0-.85.33l-.236-.139a.434.434 0 0 0-.207-.045c-.077 0-.146.015-.2.045s-.083.077-.083.115c0 .046.03.084.092.123l.237.138c-.169.122-.283.244-.337.375a.486.486 0 0 0-.023.398.8.8 0 0 0 .33.329c.19.107.39.168.62.183.206.016.428 0 .634-.053.176-.03.39-.092.613-.169l.872.505a3.679 3.679 0 0 1-.803.276.511.511 0 0 0-.13.054c-.07.038-.115.091-.108.145 0 .054.039.1.107.138a.47.47 0 0 0 .192.061l.206-.015c.368-.084.72-.207 1.041-.36l.238.138c.06.03.137.053.206.053a.506.506 0 0 0 .2-.053c.053-.03.083-.077.083-.115 0-.046-.03-.084-.084-.115l-.245-.145c.169-.107.291-.23.36-.352zm-3.498-.498c-.107-.069-.16-.138-.137-.23.015-.084.076-.168.176-.252l.78.452a2.799 2.799 0 0 1-.459.1.61.61 0 0 1-.36-.07zm2.626.559-.758-.444a2.9 2.9 0 0 1 .497-.122c.138-.023.238-.008.322.045.16.092.321.245-.061.52z" class="colorf9a83d svgShape"/><path fill="#bababa" d="m31.736 39.809-.004 1.401c-.002.738-.485 1.475-1.451 2.036-1.953 1.135-5.13 1.135-7.087.005-.987-.57-1.48-1.316-1.477-2.062l.004-1.402c-.002.746.49 1.492 1.477 2.062 1.957 1.13 5.134 1.13 7.087-.005.966-.561 1.45-1.298 1.451-2.035z" class="colorffd475 svgShape"/><path fill="#9b9b9b" d="M30.262 37.744c1.957 1.13 1.967 2.97.023 4.1-1.953 1.135-5.13 1.135-7.087.005-1.966-1.135-1.968-2.97-.015-4.105 1.944-1.13 5.113-1.135 7.079 0z" class="colorf9a83d svgShape"/><path fill="#bababa" d="M26.738 42.166c-1.245 0-2.409-.275-3.276-.776-.78-.45-1.21-1.017-1.211-1.596-.001-.577.424-1.142 1.198-1.592.863-.501 2.024-.777 3.27-.777 1.244 0 2.408.276 3.278.778.78.45 1.209 1.018 1.21 1.6 0 .575-.422 1.138-1.188 1.583-.866.503-2.031.78-3.28.78z" class="colorffd475 svgShape"/><path fill="#9b9b9b" d="m26.92 40.711-1.036-.602-.817-.475-.394.227-.3-.175.676-.39-.567-.33.335-.193.567.33.24-.139-.567-.33.338-.195.567.33.33-.191c.312-.18.818-.182 1.123-.005.308.18.307.475-.004.655.39-.22 1.005-.219 1.385.002.387.225.385.584-.001.806l-.327.189.497.289-.339.195-.496-.289-.24.139.496.289-.334.193-.497-.289-.692.4-.27-.252.327-.189zm.547-.266.622-.359c.208-.12.21-.315.002-.436a.838.838 0 0 0-.757-.002l-.622.359.755.438m-1.432-1.402-.464.269.711.413.465-.268c.2-.116.201-.302.006-.416a.792.792 0 0 0-.718.002" class="colorf9a83d svgShape"/><path fill="#fff" d="M26.785 36.895v5.8c-.98.007-1.953-.152-2.8-.477v-4.853c.847-.317 1.827-.476 2.8-.47zm2.688.477v4.846a7.006 7.006 0 0 1-1.887.43v-5.706a7.546 7.546 0 0 1 1.887.43z" class="colorffffff svgShape" opacity=".4"/><path fill="#b4b4b4" d="m34.183 24.91-4.26 2.46-.73-.42-.02-7.51 4.27 1.3.73.42z" class="color986ff9 svgShape"/><path fill="#c6c6c6" d="m29.9 19.865-.73-.424 4.268 1.295.73.424z" class="colorb28afd svgShape"/><path fill="#798080" d="m29.921 27.371-.73-.424-.021-7.506.73.424z" class="color797b80 svgShape"/><path fill="#b4b4b4" d="m29.9 19.865 4.268 1.295.011 3.753-4.258 2.458zM23.303 19.44l-.02 7.51-.73.42-4.25-2.46.01-3.75.73-.42z" class="color986ff9 svgShape"/><path fill="#c6c6c6" d="m22.577 19.865.73-.424-4.268 1.295-.73.424z" class="colorb28afd svgShape"/><path fill="#a6a6a6" d="m22.556 27.371.73-.424.021-7.506-.73.424z" class="color7e5af2 svgShape"/><path fill="#b4b4b4" d="m22.577 19.865-4.268 1.295-.011 3.753 4.258 2.458z" class="color986ff9 svgShape"/><path fill="#a2a2a2" d="M23.361 31.911a7.74 7.74 0 0 0-.14 1.475c0 2.819 3.297 5.104 3.297 5.104s3.298-2.285 3.298-5.104c0-.513-.05-1.008-.141-1.475H23.36z" class="colorf45170 svgShape"/><path fill="#b5b5b5" d="M24.52 31.911a4.9 4.9 0 0 0-.09.934c0 1.784 2.088 3.231 2.088 3.231s2.088-1.447 2.088-3.231c0-.325-.032-.638-.09-.934H24.52z" class="colorffd06c svgShape"/><path fill="#007377" d="M32.64 19.323c0 2.72-.532 8-1.421 11.078l-.08.266v.005c-.187.49-.607.958-1.262 1.336-1.836 1.07-4.833 1.07-6.686 0-.66-.383-1.091-.846-1.283-1.336h-.005a.668.668 0 0 1-.016-.053l-.048-.16c0-.01-.005-.026-.005-.037-.9-3.077-1.438-8.373-1.438-11.099 0-6.154 6.122-8.972 6.122-8.972s6.122 2.818 6.122 8.972z" class="color4c5c75 svgShape"/><path fill="#f1fcfc" d="M33.95 14.1c0 3.303-.646 10.803-1.725 14.538l-.097.324v.006c-.226.595-.737 1.163-1.532 1.622-2.23 1.3-5.868 1.3-8.117 0-.802-.465-1.325-1.027-1.558-1.622h-.006a.812.812 0 0 1-.02-.065l-.058-.193c0-.013-.006-.033-.006-.046-1.093-3.735-1.745-11.255-1.745-14.564 0-7.47 7.432-12.1 7.432-12.1s7.433 4.63 7.433 12.1z" class="colorf3f1fc svgShape"/><path fill="#a2a2a2" d="M32.525 8.525C30.366 4.397 26.518 2 26.518 2s-3.848 2.397-6.006 6.525c1.831 2.902 9.296 3.647 12.013 0z" class="colorf45170 svgShape"/><path fill="#a6a6a6" d="m23.293 31.2-4.25 2.45-.73-.42-.01-3.75 4.24-6.21.73.42z" class="color7e5af2 svgShape"/><path fill="#a6a6a6" d="m19.039 33.654-.73-.424-.011-3.753.73.424z" class="color7e5af2 svgShape"/><path fill="#c6c6c6" d="m19.028 29.901-.73-.424 4.247-6.211.73.424z" class="colorb28afd svgShape"/><path fill="#b4b4b4" d="m23.275 23.69.021 7.506-4.257 2.458-.011-3.753z" class="color986ff9 svgShape"/><path fill="#a6a6a6" d="m34.183 29.48-.01 3.75-.73.42-4.26-2.45.02-7.51.73-.42z" class="color7e5af2 svgShape"/><path fill="#a6a6a6" d="m33.438 33.654.73-.424.011-3.753-.73.424z" class="color7e5af2 svgShape"/><path fill="#c6c6c6" d="m33.449 29.901.73-.424-4.247-6.211-.73.424z" class="colorb28afd svgShape"/><path fill="#b4b4b4" d="m29.202 23.69-.021 7.506 4.257 2.458.011-3.753z" class="color986ff9 svgShape"/><path fill="#1d4243" d="M33.383 14.32c0 1.55-1.1 3.45-2.44 4.22-.75.43-1.43.43-1.88.07.05.04.09.07.14.1l-.7-.4c-.44-.26-.71-.8-.71-1.57-.01-1.55 1.08-3.44 2.43-4.22.68-.39 1.3-.43 1.75-.17l.69.4c-.03-.02-.06-.03-.09-.04.49.22.8.78.81 1.61z" class="color1d2943 svgShape" opacity=".3"/><path fill="#1d4243" d="M32.663 12.75c-.444-.255-1.06-.217-1.737.174-1.354.774-2.444 2.67-2.437 4.218 0 .774.271 1.316.715 1.571l-.698-.404c-.443-.255-.714-.797-.714-1.571-.008-1.55 1.083-3.436 2.436-4.218.677-.391 1.293-.429 1.744-.173l.69.404z" class="color1d2943 svgShape"/><path fill="#007377" d="M30.923 12.923c1.349-.779 2.452-.156 2.456 1.394s-1.091 3.448-2.44 4.227c-1.349.779-2.447.148-2.452-1.402-.004-1.55 1.087-3.44 2.436-4.219z" class="color4c5c75 svgShape"/><path fill="#aaa" d="M29.846 18.44c-.574 0-.918-.486-.92-1.3-.004-1.384 1.011-3.141 2.216-3.837.313-.181.617-.277.88-.277.572 0 .917.483.92 1.292.003 1.388-1.014 3.149-2.222 3.846-.312.18-.614.276-.874.276z" class="color57b3fe svgShape"/><path fill="#fff" d="m32.447 13.145-3.048 5.161c-.258-.163-.421-.483-.46-.935l2.479-4.202c.21-.094.42-.14.6-.14.164 0 .304.038.429.116zm.483.951L30.451 18.3c-.21.093-.421.14-.608.14h-.016l2.924-4.958c.101.163.156.374.18.615z" class="colorffffff svgShape" opacity=".3"/></svg>