<svg xmlns="http://www.w3.org/2000/svg" enable-background="new 0 0 130 130" viewBox="0 0 130 130"><path fill="#dedede" d="M63.24898,105.55618v1.79999c0,0.23999-0.14996,0.48999-0.47998,0.67999l-20.20996,11.66003
			c-0.65002,0.38-1.71002,0.38-2.36005,0L13.87899,104.3962c-0.31995-0.19-0.47998-0.42999-0.47998-0.67004l-0.01001-1.79999
			c0-0.25,0.16003-0.5,0.48999-0.69l20.21002-11.65997c0.65002-0.38,1.70001-0.38,2.34998,0L62.769,104.87618
			C63.08901,105.05618,63.24898,105.30618,63.24898,105.55618z" class="colord4dae8 svgShape"/><path fill="#e4f3f4" d="M125.03902 80.53616c.01001-.04999.01001-.08997.01001-.13995l-.01001 3.46997c-.01001 1.47998-.97998 2.96002-2.91998 4.08002l-2.55005-1.47003-.00995 1.47003c-3.91003 2.27002-10.26001 2.27002-14.20001 0-1.33002-.77002-2.22003-1.70001-2.64001-2.71002v-1.25l-.31.03003v-.20001l.01001-3.47003c0-1.47998.96997-2.95996 2.91998-4.08997 3.90997-2.27002 10.26001-2.27002 14.19 0l-.01001 1.5 2.57001-1.5C124.12898 77.43618 125.09901 78.99618 125.03902 80.53616zM13.86904 96.32619c-.26001.03998-.51001.07001-.77002.09998-.07001 0-.15002.01001-.22003.02002-.09998.01001-.20996.02997-.29999.02997-.32001.04004-.64996.05005-.96997.05005h-.33002c-.32001 0-.65002-.03003-.95001-.05005-.10999 0-.22998-.01996-.33997-.02997-.32001-.03003-.64001-.08002-.96002-.13-.10999-.02002-.22998-.03998-.34003-.07001-.31995-.07001-.63995-.15002-.94995-.23999-.12-.03003-.23004-.06-.34003-.10004-.33002-.09998-.65002-.21997-.96002-.37-.12-.03998-.22998-.09998-.33997-.14996-.16998-.09003-.33002-.16998-.48999-.27002-.16003-.08997-.32001-.19-.46002-.27997-.12-.08002-.22998-.16003-.33002-.25-.38995-.29004-.70996-.61005-.95996-.94-.13-.16003-.25-.34003-.33002-.52002-.26001-.46002-.38-.92999-.38-1.40997l.02002-2.55005c0-.01001 0-.01996 0-.01996v-.07001c-.02002-1.14001.66998-2.29004 2.06-3.20001C5.209 85.85616 5.17903 85.8362 5.149 85.82619c-.12-.08002-.22998-.16003-.33002-.26001-.38995-.28003-.70996-.59998-.95996-.94-.13-.15997-.25-.33002-.33002-.52002-.26001-.45001-.38-.91998-.38-1.40997l.02002-2.54999c0 0 0-.01001 0-.02002v-.06C3.149 78.82619 3.94899 77.5862 5.579 76.63619c.45001-.26001.95001-.48004 1.47003-.66998v-.41003C7.02901 74.31618 7.829 73.07619 9.459 72.12618c3.22998-1.87 8.47003-1.87 11.71002 0 1.64001.95001 2.45996 2.19 2.45001 3.42999l-.01001 2.67999c0 .47003-.12.92999-.35004 1.38-.08997.16998-.19995.35004-.32996.51001-.24005.33002-.57001.65002-.95001.95001-.10999.08997-.22003.16998-.34003.23999-.02997.02002-.07001.03998-.09998.06 1.39001.90997 2.08002 2.04999 2.08002 3.19l-.01001 2.67999c0 .47003-.12.94-.35004 1.38-.08997.17999-.19995.34998-.32996.51001-.24005.33997-.57001.65997-.95001.95001-.10999.09998-.22003.17999-.34003.23999-.13.10999-.27997.19-.42999.28998-.16998.09003-.34998.17999-.52997.28003-.11005.04999-.22003.09998-.34003.15997-.20001.08002-.40997.16003-.60999.22998l-.01001.47003c0 .46997-.12.94-.34003 1.38-.09998.16998-.20996.34998-.33997.51001-.23999.32996-.56.64996-.95001.94995-.10999.09003-.21997.17004-.34003.24005-.12994.10999-.27997.19-.42999.27997-.16998.10004-.33997.19-.52997.28003-.10999.06-.22003.10999-.34003.15997-.31.14001-.60999.26001-.95001.37-.10999.02002-.20996.06-.32996.09003-.31.08997-.63.17999-.97003.23999C14.08901 96.28616 13.96901 96.29617 13.86904 96.32619z" class="colore4e8f4 svgShape"/><polygon fill="#e4f3f4" points="128.999 60.896 128.929 65.966 123.279 69.246 117.599 65.966 117.649 62.866 114.949 64.436 109.269 61.156 109.269 60.946 106.619 59.626 100.939 56.346 100.959 53.266 98.289 54.816 92.609 51.536 92.619 48.456 89.959 50.006 84.279 46.726 84.359 20.216 89.999 16.936 95.669 20.216 95.649 29.406 98.329 27.846 104.009 31.126 103.969 40.326 106.659 38.766 112.339 42.046 112.309 51.236 114.989 49.676 120.669 52.956 120.609 59.186 123.319 57.616" class="colore4e8f4 svgShape"/><path fill="#e4f3f4" d="M2.31899,71.02621c0.03003,0.09998,0.09003,0.16998,0.17004,0.21997l-1.19-0.66998
			C1.11904,70.46621,1.019,70.24618,1.019,69.93618v-21.31l-0.02002-1.94c0-0.71997,0.5-1.57001,1.13-1.94l28.67004-16.54999
			c0.31-0.17999,0.58997-0.19,0.79999-0.08002l1.06,0.62l0.02997,0.02002c0.22003,0.10999,0.36005,0.35999,0.36005,0.73999
			l0.01001,1.94l0.00995,3.59002l42.84002-24.75c0.57001-0.30005,1.04999-0.33002,1.40997-0.13l1.88,1.09998
			c0.41003,0.19,0.67004,0.64001,0.67004,1.32001l0.10999,36.48999L111.519,67.3962c0.56,0.32001,0.83002,0.73999,0.83002,1.15997
			l0.02002,1.72003c0,0.41998-0.28003,0.83997-0.84003,1.16998l-49.83001,28.77002c-1.10999,0.62994-2.88,0.62994-3.97998,0
			l-30.94-17.81006c-0.37-0.19995-0.60999-0.58997-0.60999-1.02997l-0.01001-1.23999v-0.01001h-0.01001v-0.01001l-1.38-0.78998
			c-0.35999-0.20001-0.58997-0.59003-0.58997-1.02002L24.12899,59.0862l-20.94,12.08997
			C2.79903,71.3962,2.46901,71.31618,2.31899,71.02621z" class="colore4e8f4 svgShape"/><path fill="#dedede" d="M13.3842,101.92829l0.01104,1.7971c0,0.24259,0.16534,0.48512,0.48511,0.67259l26.31712,15.3029
					c0.65045,0.37489,1.70889,0.37489,2.35941,0l20.20913-11.6646c0.33075-0.18748,0.48511-0.44103,0.48511-0.68356v-1.79711
					c0,0.24252-0.16534,0.49615-0.49615,0.68356l-20.19809,11.66467c-0.66155,0.37482-1.70896,0.37482-2.35941,0l-26.32816-15.30297
					C13.54954,102.4134,13.3842,102.17088,13.3842,101.92829z" class="colord4dae8 svgShape"/><path fill="#e4f3f4" d="M13.8817,101.24003c-0.65465,0.37797-0.65808,0.98757-0.00769,1.36554l26.32338,15.29748
					c0.6504,0.37797,1.70283,0.37798,2.35748,0.00001l20.20251-11.66393c0.65465-0.37796,0.6581-0.98759,0.00771-1.36555
					L36.44172,89.5761c-0.6504-0.37798-1.70285-0.37796-2.3575,0L13.8817,101.24003z" class="colore4e8f4 svgShape"/><polygon fill="#d3d3d3" points="15.048 101.812 15.752 102.218 35.172 91.009 35.172 90.196" class="colorcad0dd svgShape"/><polygon fill="#c6c6c6" points="35.172 90.196 35.172 91.009 40.52 94.125 41.224 93.719" class="colorbac1ce svgShape"/><polygon fill="#a9a9a9" points="15.752 102.218 21.109 105.335 40.52 94.125 35.172 91.009" class="color576cfb svgShape"/><path fill="#bcbcbc" d="M39.28954,96.48078c-0.11264,0.06503-0.10617,0.16662,0.00574,0.23165l3.12606,1.81667
				c0.1119,0.06503,0.28727,0.06911,0.39991,0.00408l3.15357-1.82072c0.10557-0.06095,0.10617-0.16662-0.00574-0.23165
				l-3.12606-1.81667c-0.1119-0.06503-0.29433-0.06503-0.39991-0.00407L39.28954,96.48078z" class="colorfed57a svgShape"/><path fill="#5b7071" d="M33.99605 99.53698c-.11261.06501-.10617.16662.00574.23165l3.12606 1.81667c.1119.06503.2873.0691.39991.00408l3.15358-1.82072c.10559-.06097.10617-.16663-.00574-.23165l-3.12606-1.81667c-.1119-.06503-.29431-.06504-.39991-.00408L33.99605 99.53698zM28.70256 102.59317c-.11261.06502-.10617.16663.00574.23166l3.12606 1.81667c.11191.06503.28729.0691.39991.00408l3.15358-1.82072c.10559-.06097.10619-.16664-.00571-.23167l-3.12606-1.81667c-.1119-.06503-.29434-.06503-.39993-.00407L28.70256 102.59317z" class="color5b5e71 svgShape"/><path fill="#b8b8b8" d="M23.40909,105.64935c-0.11264,0.06503-0.11323,0.17071-0.00133,0.23574l3.12606,1.81667
				c0.11191,0.06503,0.29434,0.06503,0.40697,0l3.15355-1.8207c0.10559-0.06097,0.10619-0.16664-0.00571-0.23167l-3.12606-1.81667
				c-0.1119-0.06503-0.29434-0.06503-0.39993-0.00407L23.40909,105.64935z" class="color9ad898 svgShape"/><path fill="#5b7071" d="M44.24091 99.3582c-.11264.06503-.10617.16663.00571.23164l3.12608 1.81668c.1119.06503.28725.0691.39989.00407l3.15357-1.82072c.10557-.06095.10619-.16661-.00571-.23164l-3.12608-1.81668c-.11188-.06502-.29431-.06502-.39988-.00407L44.24091 99.3582zM38.94742 102.4144c-.11261.06502-.10617.16663.00571.23164l3.12608 1.81668c.1119.06503.28727.06908.39988.00407l3.15358-1.82072c.10559-.06097.10619-.16661-.00571-.23164l-3.12608-1.81668c-.11188-.06502-.29429-.06503-.39988-.00407L38.94742 102.4144zM33.65393 105.4706c-.11261.06502-.10617.16663.00571.23164l3.12608 1.81668c.1119.06503.28727.06908.39988.00407l3.15358-1.82072c.10559-.06097.10621-.16663-.00569-.23166l-3.12608-1.81668c-.11188-.06502-.29431-.06502-.39991-.00405L33.65393 105.4706z" class="color5b5e71 svgShape"/><path fill="#b8b8b8" d="M28.36047,108.52678c-0.11264,0.06503-0.11323,0.1707-0.00135,0.23573l3.12608,1.81668
				c0.1119,0.06503,0.29431,0.06502,0.40695-0.00002l3.15355-1.8207c0.10559-0.06097,0.10621-0.16663-0.00569-0.23166
				l-3.12608-1.81668c-0.11188-0.06502-0.29431-0.06502-0.39991-0.00405L28.36047,108.52678z" class="color9ad898 svgShape"/><path fill="#5b7071" d="M49.19228 102.23563c-.11264.06503-.10619.16661.00571.23164l3.12608 1.81668c.11188.06502.28725.0691.39989.00407l3.15358-1.82072c.10557-.06095.10616-.16663-.00572-.23164l-3.12608-1.81668c-.1119-.06503-.29431-.06502-.39988-.00407L49.19228 102.23563zM43.8988 105.29182c-.11261.06502-.10619.16661.00571.23164l3.12608 1.81668c.11188.06502.28727.06908.39989.00407l3.15357-1.82072c.1056-.06097.10617-.16663-.00571-.23164l-3.12608-1.81668c-.1119-.06503-.29429-.06503-.39988-.00407L43.8988 105.29182zM38.60531 108.34802c-.11261.06502-.10619.16661.00571.23164l3.12608 1.81668c.11188.06502.28727.06908.39988.00407l3.15358-1.82072c.10559-.06097.10619-.16664-.00569-.23166l-3.12608-1.81668c-.1119-.06503-.29431-.06502-.39991-.00405L38.60531 108.34802zM54.14363 105.11304c-.11264.06503-.10617.16663-.00126.22759l3.13305 1.82073c.11191.06503.28727.06911.39991.00408l3.15358-1.82072c.10557-.06095.10617-.16663-.00574-.23166l-3.13305-1.82073c-.10491-.06097-.28734-.06097-.39291-.00002L54.14363 105.11304zM48.85015 108.16924c-.11261.06502-.10617.16663-.00126.22759l3.13305 1.82073c.1119.06503.2873.0691.39991.00408l3.15358-1.82072c.10559-.06097.10616-.16663-.00574-.23166l-3.13305-1.82073c-.10491-.06097-.28732-.06098-.39291-.00002L48.85015 108.16924zM43.55666 111.22543c-.11261.06502-.10617.16663-.00126.22759l3.13306 1.82073c.1119.06503.2873.0691.39991.00408l3.15357-1.82072c.1056-.06096.10619-.16663-.00571-.23167l-3.13305-1.82073c-.10491-.06097-.28734-.06097-.39294 0L43.55666 111.22543z" class="color5b5e71 svgShape"/><path fill="#475859" d="M47.03311 107.34169l-3.13118-1.81918c-.05511-.03304-.08822-.07718-.08822-.12125l.01104.55476c0 .04408.02207.08822.07719.12126l3.13118 1.80814c.11023.06615.2866.07719.39689.01104l3.15319-1.81918c.05511-.03304.07718-.07719.07718-.12126v-.54372c0 .04408-.02207.07719-.07718.11022L47.43 107.34169C47.31971 107.40784 47.14333 107.40784 47.03311 107.34169zM54.1443 105.88986l3.13118 1.81911c.11023.06615.28666.06615.39689.01103l3.16423-1.83015c.04414-.02207.07718-.06615.07718-.11029l-.01104-.54372c0 .0331-.022.07718-.07718.11029l-3.15319 1.81911c-.11023.06615-.28666.06615-.39689 0l-3.13118-1.81911c-.05511-.03311-.08815-.07719-.08815-.12126l.01097.5547C54.06712 105.81268 54.08919 105.85675 54.1443 105.88986zM55.87526 103.0123c.05511-.02207.08822-.06615.08822-.11029l-.01104-.54372c0 .03311-.02207.07719-.07719.1103l-3.15319 1.81911c-.11023.06615-.28667.06615-.39689 0l-3.13118-1.81911c-.05511-.03311-.08822-.07719-.08822-.12133l.01104.55476c0 .03311.02207.07719.08822.11029l3.12015 1.81912c.11023.06615.28667.06615.39689.01103L55.87526 103.0123zM48.85222 108.94379l3.13118 1.81918c.11023.06615.28667.07718.39689.01103l3.15319-1.81918c.05511-.03304.08822-.07718.08822-.12126l-.01104-.54372c0 .04408-.02207.07719-.07719.11023l-3.15319 1.81918c-.11023.06615-.28667.06615-.39689 0l-3.13118-1.81918c-.05511-.03304-.08822-.07712-.08822-.12126l.01104.55476C48.77504 108.87765 48.79711 108.91075 48.85222 108.94379zM50.92496 100.13467c.05511-.022.07718-.06615.07718-.11022v-.54372c0 .03304-.02207.07719-.07718.11022l-3.15319 1.81918c-.11029.06615-.28666.06615-.39689 0l-3.13118-1.81918c-.05511-.03304-.08822-.07718-.08822-.12126l.01104.55476c0 .03304.02208.07719.07719.11022l3.13118 1.81918c.11023.06615.2866.06615.39689.01104L50.92496 100.13467z" class="color474b59 svgShape"/><path fill="#a5a5a5" d="M33.30673,111.64148c-0.05511-0.03304-0.07719-0.07712-0.07719-0.12126v0.55476
				c0,0.04408,0.03304,0.07719,0.08822,0.11023l8.07038,4.69674c0.11029,0.06615,0.2977,0.06615,0.40799,0l3.15319-1.81911
				c0.05511-0.03311,0.07719-0.06615,0.07719-0.11029v-0.55476c0,0.04414-0.02207,0.08822-0.07719,0.11029l-3.15319,1.83015
				c-0.11029,0.06615-0.2977,0.06615-0.40799,0L33.30673,111.64148z" class="colorfa5168 svgShape"/><path fill="#949494" d="M28.35643 108.76392c-.05518-.03304-.07718-.07718-.07718-.12126v.55476c0 .04408.02201.07719.07718.11022l3.13112 1.81918c.11029.06615.2977.06615.40793 0l3.15319-1.81918c.05518-.03304.07718-.06615.07718-.11022v-.55476c0 .04408-.03304.08823-.07718.12126l-3.15319 1.81918c-.12126.06615-.29763.06615-.40793 0L28.35643 108.76392zM23.32895 105.7651v.55476c0 .04408.02201.07711.07712.11022l3.13118 1.81918c.11023.06615.2977.06615.40793 0l3.15319-1.81918c.05518-.03311.07718-.06615.07718-.11022v-.55476c0 .04408-.03304.08816-.07718.12126l-3.15319 1.81918c-.12126.06615-.2977.06615-.40793 0l-3.13118-1.81918C23.35095 105.85326 23.32895 105.80917 23.32895 105.7651z" class="color6eba6e svgShape"/><path fill="#989898" d="M45.97466,97.25712c0.05511-0.02207,0.07719-0.06615,0.07719-0.11023v-0.54372
				c0,0.03304-0.02207,0.07718-0.07719,0.11022l-3.15319,1.81918c-0.11029,0.06615-0.28667,0.06615-0.39696,0l-3.13111-1.81918
				c-0.05511-0.03304-0.08822-0.07719-0.08822-0.12126v0.55476c0.01104,0.04408,0.03311,0.07719,0.08822,0.11023l3.13111,1.81918
				c0.11029,0.06615,0.28667,0.06615,0.39696,0.01103L45.97466,97.25712z" class="colorefac41 svgShape"/><path fill="#475859" d="M45.29111 109.13127c.05511-.03311.07719-.07719.07719-.1103v-.55476c0 .04414-.02207.08822-.07719.11029l-3.15319 1.81911c-.11029.06622-.28667.06622-.39696 0l-3.13112-1.81911c-.05511-.0331-.08822-.07718-.08822-.12126v.55476c0 .04408.03311.08815.08822.12126l3.13112 1.81911c.11029.05518.28666.06615.39696 0L45.29111 109.13127zM42.4797 105.01883l3.15319-1.81911c.05511-.03311.07719-.07719.07719-.12126v-.54372c0 .04408-.02207.07712-.07719.11022l-3.15319 1.81918c-.11029.06615-.28667.06615-.39696 0l-3.13112-1.81918c-.05511-.0331-.08822-.07719-.08822-.12126v.55476c0 .04408.03311.08815.08822.12126l3.13112 1.80814C42.19303 105.07401 42.36941 105.08498 42.4797 105.01883zM43.56015 111.9978l3.13118 1.83022c.11023.05511.2866.06615.39689 0l3.15319-1.81918c.05511-.0331.07718-.07719.07718-.11022v-.55476c0 .04408-.02207.08816-.07718.11023l-3.15319 1.81918c-.11029.06615-.28666.06615-.39689 0l-3.13118-1.81918c-.05511-.03304-.08822-.07719-.08822-.11023v.54372C43.47192 111.93164 43.50503 111.97572 43.56015 111.9978zM40.68259 99.7674l-3.15326 1.81911c-.11023.06615-.2866.06615-.39689 0l-3.13111-1.81911c-.05518-.03311-.08822-.07719-.08822-.12133v.55476c0 .04414.03304.08823.08822.12133l3.13111 1.80808c.11029.06615.28667.07719.39689.01103l3.15326-1.81911c.05511-.0331.07718-.07719.07718-.12133V99.6571C40.75977 99.70125 40.7377 99.73428 40.68259 99.7674zM35.39051 102.82133l-3.15326 1.81918c-.11022.06615-.28666.06615-.40792 0l-3.12015-1.81918c-.05511-.03304-.08815-.07712-.08815-.11023v.54372c0 .04408.03304.08822.08815.12126l3.13118 1.81918c.11023.06615.28667.06615.39689 0l3.15326-1.81918c.05511-.03304.07711-.07719.07711-.11022v-.55476C35.46762 102.75518 35.44562 102.79932 35.39051 102.82133zM37.18755 108.07283l3.15326-1.81912c.05511-.0331.07718-.07718.07718-.11029v-.55476c0 .04414-.02207.08822-.07718.11029l-3.15326 1.81911c-.11023.06615-.2866.06615-.39689 0l-3.13111-1.81911c-.05518-.03311-.08822-.07719-.08822-.11029v.54372c0 .04414.03304.08822.08822.12132l3.13111 1.81912C36.90096 108.12794 37.07733 108.13898 37.18755 108.07283z" class="color474b59 svgShape"/><path fill="#acacac" d="M33.31184,111.40421c-0.11264,0.06503-0.11325,0.17068-0.00135,0.23572l8.07743,4.69409
				c0.1119,0.06503,0.29434,0.06503,0.40697,0.00001l3.15355-1.82071c0.10559-0.06097,0.10619-0.16663-0.00571-0.23167
				l-8.07743-4.69409c-0.1119-0.06503-0.29431-0.06502-0.39991-0.00405L33.31184,111.40421z" class="colorf9607f svgShape"/><path fill="#c6c6c6" d="M79.2849,11.29972c-0.35768-0.23013-0.86862-0.20456-1.40498,0.12754L28.04052,40.19158
					c-1.09844,0.63864-1.99263,2.17131-1.99263,3.44859l0.10228,36.47913l-1.37956-0.79206
					c-0.35752-0.20425-0.5875-0.58749-0.5875-1.02157l-0.10213-35.81493c0-1.25171,0.89403-2.78469,1.99247-3.42333
					l49.83941-28.7899c0.56193-0.30622,1.04729-0.33179,1.40497-0.12754L79.2849,11.29972z" class="colorbac1ce svgShape"/><path fill="#5b7071" d="M77.87425,11.42495c1.1008-0.63555,1.9958-0.12551,1.99939,1.13936l0.10345,36.48953L26.15388,80.1287
					l-0.10345-36.48954c-0.00359-1.26487,0.88561-2.80502,1.98637-3.44054L77.87425,11.42495z" class="color5b5e71 svgShape"/><path fill="#fff" d="M28.50205,43.63253c-0.0016-0.391,0.41813-1.11354,0.76045-1.31104l48.16537-27.80834l0.09416,33.12791
					L28.59302,75.88987L28.50205,43.63253z" class="colorffffff svgShape"/><path fill="#acacac" d="M28.50205,43.63253c-0.0016-0.391,0.41813-1.11354,0.76045-1.31104l48.16537-27.80834l0.00319,3.77045
					L28.50205,46.53241L28.50205,43.63253z" class="colorf9607f svgShape"/><path fill="#5b7071" d="M112.36709,70.27883c0,0.41547-0.28001,0.84003-0.84003,1.16518l-49.83269,28.76869
					c-1.10195,0.63229-2.87235,0.63229-3.9743,0L26.78354,82.40956c-0.37037-0.19875-0.61421-0.59618-0.61421-1.02972
					l-0.00904-1.2465c0,0,86.18871-11.16424,86.18871-11.57976L112.36709,70.27883z" class="color5b5e71 svgShape"/><path fill="#e4f3f4" d="M111.52338,69.69652L61.68398,98.48641c-1.09844,0.61307-2.88666,0.61307-3.9851,0L26.15017,80.1193
					l53.82452-31.06348l31.5487,18.34185C112.62183,68.03631,112.62183,69.05788,111.52338,69.69652z" class="colore4e8f4 svgShape"/><polygon fill="#c6c6c6" points="33.602 85.085 33.598 85.784 36.176 87.273 36.181 86.574" class="colorbac1ce svgShape"/><path fill="#c6c6c6" d="M39.93678 85.11388c-.12425.07174-.1249.18651-.00969.25346l2.3864 1.38683c.13168.07652.32982.07652.45407.00478l5.12707-2.96011c.11597-.06696.1249-.18651-.00678-.26303l-2.3864-1.38683c-.11522-.06696-.32164-.06217-.43761.00478L39.93678 85.11388zM50.09666 87.14156c-.13251.07651-.13316.19128-.01794.25823l2.89661 1.68333c.13168.07652.3298.07651.4623 0l2.60083-1.50159c.12423-.07172.1249-.18648-.00677-.263l-2.89661-1.68333c-.11521-.06696-.31336-.06696-.43758.00477L50.09666 87.14156zM88.36076 66.985c-.12423.07172-.12487.18649-.00966.25345l1.22613.71255c.13168.07652.32979.07651.45402.00478l2.60083-1.50159c.13251-.07651.13318-.19126.0015-.26778l-1.22612-.71255c-.11521-.06696-.31336-.06696-.44587.00955L88.36076 66.985zM52.94085 77.60597c-.12425.07173-.1249.18651-.00969.25346l2.3864 1.38683c.13168.07652.32982.07652.45407.00478l2.60909-1.50636c.11597-.06695.1249-.18651-.00678-.26303l-2.3864-1.38683c-.11521-.06695-.32164-.06217-.43761.00478L52.94085 77.60597zM58.07049 78.59113c-.13251.0765-.13316.19128-.01797.25822l2.38643 1.38684c.13165.0765.3298.07651.4623 0l2.60083-1.50159c.12422-.07172.12487-.18649-.00678-.26299l-2.38643-1.38684c-.11518-.06694-.31333-.06694-.43755.00478L58.07049 78.59113zM61.54929 76.58265c-.13251.07651-.13315.19128-.01797.25822l2.38643 1.38684c.13165.07651.32979.07651.4623 0l2.60083-1.50159c.12422-.07172.12487-.1865-.00678-.263l-2.38643-1.38684c-.11518-.06694-.31332-.06694-.43755.00478L61.54929 76.58265zM70.31826 67.57312c-.13254.07652-.13319.19129-.01797.25825l2.3864 1.38683c.13168.07652.32982.07652.46236 0l2.60081-1.50157c.12425-.07174.12489-.18652-.00678-.26303l-2.3864-1.38683c-.11521-.06696-.31336-.06696-.43761.00478L70.31826 67.57312zM48.81768 69.42371c-.12425.07173-.1249.18651-.00972.25345l1.28375.74603c.13165.07651.32979.07651.45404.00478l2.60909-1.50636c.11597-.06696.12487-.18649-.00678-.263l-1.28374-.74603c-.11518-.06693-.32159-.06217-.43755.00478L48.81768 69.42371zM52.4207 67.34351c-.12422.07172-.13315.19128-.01797.25822l1.28374.74603c.13165.0765.33808.07172.4623 0l2.60912-1.50637c.11594-.06694.11658-.18172-.01506-.25822l-1.28375-.74603c-.11518-.06694-.31333-.06694-.42927 0L52.4207 67.34351zM56.02375 65.26328c-.13254.07652-.13319.1913-.018.25823l1.28375.74603c.13165.07651.32979.07651.46233-.00002l2.6008-1.50157c.12425-.07174.1249-.18651-.00675-.26302l-1.28375-.74603c-.11518-.06694-.31333-.06694-.43758.0048L56.02375 65.26328zM57.42509 67.11397c-.12425.07174-.12495.19608-.00974.26303l2.3864 1.38683c.13168.07652.33811.07174.46236 0l2.60909-1.50636c.11597-.06696.11658-.18171-.01509-.25823l-2.3864-1.38683c-.11521-.06696-.32156-.07175-.43753-.00481L57.42509 67.11397zM60.8956 65.11027c-.12425.07174-.11666.19129-.00145.25825l2.3864 1.38683c.13168.07652.32982.07652.45407.00478l2.60909-1.50636c.11597-.06696.1249-.18652-.00677-.26303l-2.3864-1.38683c-.11521-.06695-.32988-.06695-.44584 0L60.8956 65.11027zM41.61987 73.57937c-.12425.07173-.13315.19128-.01797.25822l1.28374.74603c.13165.0765.33805.07173.4623 0l2.60909-1.50636c.11597-.06695.11661-.18172-.01504-.25823L44.65826 72.073c-.11518-.06694-.31333-.06694-.4293.00001L41.61987 73.57937zM45.22292 71.49915c-.13253.07652-.13318.19129-.018.25823l1.28375.74603c.13165.07651.32979.07651.46233-.00002l2.6008-1.50157c.12425-.07174.1249-.18651-.00675-.26302l-1.28375-.74603c-.11518-.06694-.31333-.06694-.43758.0048L45.22292 71.49915zM78.37241 55.02003c-.12425.07174-.11667.19129-.00146.25825l2.38641 1.38683c.13168.07652.32982.07652.45407.00478l4.14971-2.39584c.11597-.06695.12487-.18649-.00681-.26302l-2.38641-1.38682c-.11521-.06696-.32985-.06697-.44581-.00002L78.37241 55.02003zM83.32811 56.10562c-.13251.0765-.12495.19604-.00974.263l2.38643 1.38684c.13165.07651.3298.07651.4623 0l2.60083-1.50159c.11597-.06696.12487-.1865-.00677-.263l-2.38643-1.38684c-.11521-.06696-.32982-.06696-.44579 0L83.32811 56.10562zM70.41933 56.95199c-.12425.07174-.13316.19128-.01797.25822l1.28375.74603c.13165.0765.33805.07174.4623 0l2.60909-1.50636c.11597-.06695.11662-.18172-.01504-.25823l-1.28374-.74603c-.11518-.06694-.31333-.06694-.4293.00001L70.41933 56.95199zM74.78593 57.09068c-.12425.07174-.11666.1913-.00145.25825l2.3864 1.38683c.13168.07652.32982.07652.45407.00479l2.60909-1.50636c.11597-.06696.12489-.18651-.00678-.26303l-2.3864-1.38683c-.11521-.06696-.32987-.06696-.44584 0L74.78593 57.09068zM79.8576 58.10931c-.13251.07651-.12495.19604-.00974.263l2.38643 1.38684c.13165.07651.3298.07651.4623 0l2.60084-1.50159c.12422-.07172.12486-.1865-.00678-.263l-2.38643-1.38684c-.11521-.06696-.32156-.07172-.44579 0L79.8576 58.10931zM66.82457 59.02742c-.13251.0765-.13316.19128-.01797.25822l1.28374.74603c.13165.0765.3298.0765.4623 0l2.60083-1.50159c.12423-.07172.12487-.18649-.00677-.263l-1.28374-.74603c-.11519-.06694-.31333-.06694-.43755.00478L66.82457 59.02742zM74.01814 54.8742c-.13251.0765-.13316.19128-.01797.25821l1.28374.74603c.13165.07651.3298.07651.4623 0l2.60083-1.50159c.12423-.07172.12487-.1865-.00677-.263l-1.28374-.74603c-.11519-.06694-.31333-.06694-.43755.00478L74.01814 54.8742zM77.61492 52.79758c-.13251.0765-.13316.19128-.01797.25822l1.28375.74603c.13165.07651.32979.07651.4623 0l2.60084-1.50159c.12422-.07172.12487-.18649-.00678-.263l-1.28374-.74603c-.11518-.06694-.31333-.06694-.43755.00478L77.61492 52.79758zM71.31542 59.09438c-.12425.07174-.12495.19608-.00974.26303l2.3864 1.38683c.13168.07652.33811.07174.46236 0l2.60909-1.50636c.11597-.06696.11662-.18173-.01506-.25825l-2.38641-1.38683c-.11521-.06696-.32159-.07174-.43755-.00479L71.31542 59.09438zM84.21687 59.54875c-.12423.07172-.12487.18649-.00966.25345l2.3864 1.38683c.13168.07652.32982.07652.45405.0048l5.12709-2.96013c.11597-.06695.12487-.18649-.00681-.26302l-2.3864-1.38682c-.11521-.06696-.32162-.06219-.43758.00476L84.21687 59.54875zM76.38708 60.11301c-.13251.0765-.12495.19604-.00974.263l2.38643 1.38684c.13165.0765.32979.07651.4623 0l2.60083-1.50159c.12422-.07172.12487-.18649-.00678-.263l-2.38643-1.38684c-.11521-.06696-.32156-.07172-.44579 0L76.38708 60.11301zM63.22155 61.10763c-.13254.07652-.13318.1913-.018.25823l1.28375.74603c.13165.0765.32979.07651.46233-.00002l2.60081-1.50157c.12425-.07174.12489-.18651-.00675-.26302l-1.28374-.74603c-.11519-.06694-.31333-.06694-.43758.0048L63.22155 61.10763zM67.84491 61.09808c-.13254.07652-.12495.19608-.00974.26303l2.38641 1.38683c.13168.07652.32982.07652.46236 0l2.60081-1.50157c.12424-.07174.12489-.18651-.00678-.26303l-2.3864-1.38682c-.11521-.06696-.32159-.07174-.44585 0L67.84491 61.09808zM80.73808 61.55724c-.12422.07172-.12487.18649-.00966.25345l2.38641 1.38683c.13168.07652.32982.07652.45404.0048l2.60912-1.50638c.11594-.06694.11658-.18171-.01509-.25823l-2.3864-1.38683c-.11521-.06696-.31336-.06696-.4293-.00002L80.73808 61.55724zM72.91658 62.11671c-.13251.0765-.12495.19604-.00974.263l2.38643 1.38684c.13165.0765.3298.07651.4623 0l2.60909-1.50636c.11596-.06696.11661-.18173-.01504-.25823l-2.38643-1.38684c-.11521-.06696-.32156-.07172-.43753-.00477L72.91658 62.11671zM95.2107 63.03019c-.11597.06695-.11662.18172-.0014.24868l1.22613.71255c.13168.07652.3298.07651.44576.00955l2.60909-1.50636c.12425-.07174.13319-.19126.00151-.26778l-1.22613-.71255c-.11521-.06696-.32162-.06219-.44587.00955L95.2107 63.03019zM85.89259 62.52803c-.13254.07652-.13318.19129-.018.25823l2.38643 1.38684c.13165.07651.3298.07651.46233-.00002l6.85819-3.95958c.11597-.06695.12487-.18649-.00677-.263l-2.38643-1.38684c-.11519-.06694-.32159-.06217-.43755.00478L85.89259 62.52803zM64.3744 63.10178c-.13254.07652-.12495.19608-.00974.26303l2.3864 1.38683c.13168.07652.32982.07652.46236 0l2.60081-1.50158c.12425-.07174.12489-.18651-.00678-.26303l-2.3864-1.38682c-.11521-.06696-.32159-.07174-.44584 0L64.3744 63.10178zM77.26756 63.56094c-.13251.0765-.13316.19128-.01794.25823l2.3864 1.38683c.13168.07652.32982.07652.46233.00002l2.60084-1.50159c.12422-.07172.12487-.18649-.00681-.26302l-2.38641-1.38682c-.11521-.06696-.31335-.06696-.43758.00476L77.26756 63.56094zM69.44607 64.12041c-.12425.07174-.12498.19606-.00977.26302l2.38643 1.38684c.13165.07651.33807.07172.46233-.00002l2.60909-1.50636c.11597-.06696.11661-.18172-.01504-.25823l-2.38643-1.38684c-.11521-.06696-.32156-.07172-.43753-.00477L69.44607 64.12041zM90.19392 63.99139c-.12422.07172-.12487.18649-.00965.25345l2.89661 1.68333c.13168.07652.3298.07651.45402.00478l2.60084-1.50159c.13251-.07651.13318-.19126.0015-.26778l-2.89661-1.68333c-.11521-.06696-.31335-.06696-.44586.00955L90.19392 63.99139zM82.4138 64.53651c-.12425.07174-.1249.18651-.00971.25345l2.38643 1.38684c.13165.07651.32979.07651.45404.00477l2.60909-1.50636c.11597-.06696.11661-.18172-.01504-.25823l-2.38643-1.38684c-.11518-.06694-.31333-.06694-.4293.00002L82.4138 64.53651zM73.78877 65.56942c-.12425.07174-.1249.18651-.00969.25346l2.38641 1.38683c.13168.07652.32982.07652.45407.00478l2.60909-1.50636c.11597-.06696.1249-.18652-.00677-.26303l-2.3864-1.38683c-.11522-.06696-.32165-.06217-.43761.00478L73.78877 65.56942zM65.97556 66.12411c-.12425.07174-.11669.19128-.00148.25823l2.38643 1.38684c.13165.07651.3298.07651.45405.00477l2.60909-1.50636c.11597-.06696.1249-.18652-.00675-.26302l-2.38643-1.38684c-.11521-.06696-.32984-.06694-.44581.00002L65.97556 66.12411zM78.93501 66.545c-.12425.07174-.1249.18651-.00971.25345l2.38643 1.38684c.13165.07651.3298.07651.45405.00477l2.60909-1.50636c.11597-.06696.1249-.18651-.00675-.26302l-2.38643-1.38684c-.11518-.06694-.32161-.06216-.43758.0048L78.93501 66.545zM62.51333 68.12303c-.13254.07652-.12498.19606-.00977.26302l2.38643 1.38684c.13165.07651.3298.07651.46233-.00002l2.60081-1.50157c.11596-.06696.12489-.18652-.00675-.26302l-2.38643-1.38684c-.11521-.06696-.32985-.06694-.44582.00002L62.51333 68.12303zM75.45621 68.55348c-.12425.07174-.12489.18651-.00971.25345l2.38643 1.38684c.13165.07651.3298.07651.45405.00477l2.60909-1.50636c.11597-.06696.1249-.18651-.00674-.26302l-2.38643-1.38684c-.11519-.06694-.32162-.06216-.43758.0048L75.45621 68.55348zM53.95456 69.11768c-.13251.0765-.12492.19606-.00971.26302l2.3864 1.38683c.13168.07652.32982.07652.46233.00002l2.60083-1.50159c.12422-.07172.12487-.1865-.00681-.26302l-2.3864-1.38683c-.11521-.06696-.32159-.07174-.44581-.00002L53.95456 69.11768zM66.83946 69.5816c-.12425.07173-.12489.18651-.00968.25346l2.3864 1.38683c.13168.07652.32983.07652.45407.00478l2.60909-1.50636c.11597-.06696.1249-.18652-.00677-.26303l-2.38641-1.38683c-.11521-.06696-.32164-.06217-.43761.00478L66.83946 69.5816zM59.04282 70.12673c-.13254.07652-.12498.19606-.00977.26302l2.38643 1.38684c.13165.07651.3298.07651.46233-.00002l2.60081-1.50157c.12425-.07174.12489-.18652-.00675-.26302l-2.38643-1.38684c-.11521-.06696-.32156-.07172-.44581.00002L59.04282 70.12673zM78.78873 70.52853c-.11597.06696-.11661.18173-.00143.24866l2.89661 1.68333c.12344.07174.32982.07652.44579.00957l3.71073-2.1424c.13251-.0765.12492-.19606.00148-.2678l-2.89661-1.68333c-.11519-.06693-.31333-.06694-.44584.00957L78.78873 70.52853zM50.48405 71.12138c-.13251.0765-.12492.19606-.00971.26302l2.3864 1.38683c.13168.07652.32982.07652.46233.00002l2.60083-1.50159c.12423-.07172.12487-.1865-.00681-.26302l-2.3864-1.38683c-.11522-.06696-.32159-.07174-.44582-.00002L50.48405 71.12138zM63.36895 71.5853c-.13254.07652-.13318.19129-.01797.25825l2.38641 1.38683c.13168.07652.32982.07652.46236 0l2.6008-1.50157c.12425-.07174.1249-.18652-.00677-.26304l-2.3864-1.38682c-.11522-.06696-.31336-.06696-.43761.00478L63.36895 71.5853zM55.57228 72.13045c-.13251.07651-.12495.19604-.00974.263l2.38643 1.38684c.13165.07651.32979.07651.4623 0l2.60083-1.50159c.12423-.07172.12487-.1865-.00678-.263l-2.38643-1.38684c-.11521-.06696-.32156-.07172-.44578-.00001L55.57228 72.13045zM68.50687 72.56568c-.13251.07651-.13315.19128-.01797.25822l2.38643 1.38684c.13165.07651.3298.07651.4623 0l2.60083-1.50159c.12422-.07172.12487-.18649-.00677-.263l-2.38643-1.38684c-.11519-.06694-.31333-.06694-.43755.00478L68.50687 72.56568zM47.00525 73.12987c-.12422.07172-.11664.19128-.00142.25823l2.3864 1.38683c.13168.07652.32982.07652.45405.0048l2.60909-1.50636c.11597-.06696.11661-.18173-.01506-.25825l-2.3864-1.38683c-.11521-.06696-.32159-.07174-.43755-.00479L47.00525 73.12987zM59.89016 73.59379c-.12425.07173-.1249.18651-.00969.25346l2.3864 1.38683c.13168.07652.32982.07652.45407.00478l2.60909-1.50636c.11597-.06696.12489-.18652-.00678-.26304l-2.3864-1.38682c-.11521-.06696-.32164-.06217-.43761.00478L59.89016 73.59379zM52.10178 74.13415c-.12423.07172-.12495.19604-.00974.263l2.38643 1.38684c.13165.0765.33808.07172.4623 0l2.60083-1.50159c.12422-.07172.12487-.1865-.00678-.263l-2.38643-1.38684c-.11521-.06696-.32156-.07172-.44579-.00001L52.10178 74.13415zM65.02808 74.57417c-.13251.07651-.13316.19128-.01797.25822l2.38643 1.38684c.13165.07651.3298.07651.4623 0l2.60084-1.50159c.12422-.07172.12486-.1865-.00678-.263l-2.38643-1.38684c-.11518-.06694-.31333-.06694-.43755.00478L65.02808 74.57417zM71.98567 70.5572c-.13251.07651-.13316.19128-.01797.25822l2.38643 1.38684c.13165.07651.32979.07651.4623 0l2.60083-1.50159c.12422-.07172.12487-.18649-.00678-.263l-2.38643-1.38684c-.11518-.06694-.31332-.06694-.43755.00478L71.98567 70.5572zM43.53474 75.13357c-.12425.07173-.12492.19606-.00971.26302l2.3864 1.38683c.13168.07652.33808.07175.46233.00002l2.60909-1.50636c.11597-.06696.11662-.18173-.01506-.25826l-2.3864-1.38682c-.11521-.06696-.32159-.07174-.43756-.00479L43.53474 75.13357zM56.41965 75.59749c-.13254.07652-.13318.19129-.01797.25825l2.3864 1.38683c.13168.07652.32982.07652.46236 0l2.6008-1.50158c.12425-.07173.1249-.18651-.00678-.26303l-2.3864-1.38683c-.11522-.06695-.31336-.06695-.43761.00478L56.41965 75.59749zM45.16076 78.14155c-.12425.07174-.1167.19128-.00148.25823l2.38643 1.38684c.13165.07651.32979.07651.45404.00477l2.60909-1.50636c.11597-.06696.1249-.18652-.00675-.26302l-2.38643-1.38684c-.11521-.06696-.32985-.06694-.44581.00001L45.16076 78.14155zM36.59372 79.14097c-.13253.07652-.12495.19608-.00974.26303l2.3864 1.38683c.13168.07652.32982.07652.46236 0l2.6008-1.50158c.11597-.06695.1249-.18651-.00678-.26303l-2.3864-1.38683c-.11521-.06695-.32987-.06695-.44584 0L36.59372 79.14097zM49.47034 79.60967c-.13254.07652-.13318.19129-.01797.25825l2.3864 1.38682c.13168.07652.32982.07652.46236.00001l2.60081-1.50158c.12425-.07173.1249-.18651-.00678-.26303l-2.3864-1.38683c-.11521-.06695-.31336-.06696-.43761.00478L49.47034 79.60967zM41.69853 80.14046c-.13254.07652-.12498.19606-.00977.26302l2.38643 1.38684c.13165.0765.3298.07651.46233-.00002l2.60081-1.50157c.11596-.06696.1249-.18652-.00675-.26302l-2.38643-1.38684c-.11521-.06696-.32985-.06694-.44581.00001L41.69853 80.14046zM54.5917 80.59962c-.13251.0765-.13316.19128-.01797.25822l2.38643 1.38684c.13165.0765.32979.07651.4623 0l2.60083-1.50159c.12423-.07172.12487-.18649-.00678-.26299l-2.38643-1.38684c-.11518-.06694-.31333-.06694-.43755.00478L54.5917 80.59962zM61.58497 80.50877c-.12422.07172-.13316.19128-.01794.25823l2.89661 1.68333c.13168.07652.33808.07172.4623.00001l16.40833-9.47336c.12425-.07174.12489-.18648-.00678-.263l-2.89661-1.68333c-.11521-.06696-.31333-.06697-.43758.00477L61.58497 80.50877zM33.11493 81.14945c-.12425.07173-.11666.19129-.00145.25825l2.3864 1.38683c.13168.07652.32982.07652.45407.00478l2.60909-1.50636c.11597-.06695.11662-.18172-.01506-.25825l-2.3864-1.38683c-.11521-.06695-.32159-.07174-.43756-.00478L33.11493 81.14945zM45.99981 81.61339c-.13251.0765-.13315.19128-.01794.25823l2.3864 1.38682c.13168.07652.32982.07652.46233.00002l2.60083-1.50159c.11597-.06695.12487-.18649-.00681-.26302l-2.3864-1.38683c-.11521-.06695-.32161-.06219-.43758.00477L45.99981 81.61339zM51.1129 82.6081c-.13251.0765-.13315.19128-.01797.25822l2.38643 1.38684c.13165.0765.32979.0765.4623 0l2.60083-1.50159c.12422-.07172.12487-.18649-.00678-.26299l-2.38643-1.38684c-.11518-.06694-.31333-.06694-.43755.00478L51.1129 82.6081zM36.52175 83.12928c-.12425.07174-.1167.19128-.00148.25823l2.38643 1.38684c.13165.07651.3298.07651.45405.00477l4.20768-2.42931c.12425-.07174.1249-.18651-.00675-.26302l-2.38643-1.38684c-.11522-.06696-.32156-.07172-.44582.00002L36.52175 83.12928zM56.95485 83.18198c-.12423.07172-.12487.18649-.00966.25345l2.89661 1.68333c.13168.07652.32979.07651.45402.00478l3.71073-2.14239c.12425-.07174.12492-.18649-.00675-.26302l-2.89661-1.68333c-.11522-.06696-.31336-.06696-.43761.00478L56.95485 83.18198zM53.43466 85.21436c-.12425.07173-.13318.19129-.01797.25825l2.89661 1.68333c.13168.07652.33808.07172.46233-.00002l2.60909-1.50636c.11597-.06696.11664-.18172-.01503-.25823l-2.89661-1.68333c-.11521-.06696-.31336-.06696-.42933-.00001L53.43466 85.21436zM43.3436 87.0937c-.12425.07174-.1249.18652-.00971.25345l2.38643 1.38684c.13165.07651.32979.07651.45404.00477l6.86648-3.96436c.11597-.06695.11661-.18172-.01504-.25823l-2.38643-1.38684c-.11518-.06693-.31333-.06694-.42929.00002L43.3436 87.0937zM34.42209 77.73501c-.13253.07652-.13318.19129-.018.25823l1.28375.74603c.13165.0765.32979.07651.46233-.00002l2.6008-1.50158c.12425-.07173.1249-.18651-.00675-.26301l-1.28375-.74603c-.11518-.06694-.31333-.06694-.43758.00479L34.42209 77.73501zM30.81904 79.81523c-.12425.07173-.1249.18651-.00971.25344l1.28375.74603c.13165.07651.32979.07651.45404.00478l2.60909-1.50636c.11597-.06696.11661-.18172-.01504-.25823l-1.28374-.74603c-.11518-.06693-.31333-.06694-.4293.00002L30.81904 79.81523zM38.02511 75.6548c-.13251.07651-.13316.19128-.01797.25822l1.28375.74603c.13165.07651.32979.07651.4623 0l2.60083-1.50159c.11594-.06694.12487-.18649-.00678-.263l-1.28374-.74603c-.11518-.06694-.32162-.06216-.43755.00478L38.02511 75.6548zM40.06423 77.13727c-.13254.07652-.12495.19608-.00974.26303l2.3864 1.38683c.13168.07652.32982.07652.46236 0l2.6008-1.50157c.12425-.07174.1249-.18652-.00678-.26304l-2.3864-1.38682c-.11522-.06696-.32159-.07174-.44584-.00001L40.06423 77.13727zM46.7504 89.07352c-.12425.07174-.1249.18652-.00969.25347l2.89661 1.68333c.13168.07652.3298.0765.45404.00477l2.60909-1.50636c.11596-.06695.11664-.18171-.01504-.25823l-2.89661-1.68333c-.11522-.06696-.31336-.06696-.42933 0L46.7504 89.07352zM48.63126 76.13785c-.12425.07174-.12495.19604-.00974.263l2.38643 1.38684c.13165.0765.33805.07174.4623 0l2.60909-1.50636c.11597-.06696.11661-.18173-.01503-.25823l-2.38643-1.38684c-.11522-.06696-.32156-.07172-.43753-.00478L48.63126 76.13785zM59.61851 63.18785c-.12425.07174-.1249.18651-.00971.25345l1.28374.74603c.13165.0765.32979.0765.45404.00477l2.60909-1.50636c.11597-.06696.11662-.18173-.01503-.25823l-1.28375-.74603c-.11518-.06694-.31333-.06694-.42929.00002L59.61851 63.18785z" class="colorbac1ce svgShape"/><polygon fill="#c6c6c6" points="31.133 83.659 31.128 84.358 32.579 85.196 32.583 84.497" class="colorbac1ce svgShape"/><polygon fill="#c6c6c6" points="28.636 82.214 28.631 82.913 30.082 83.751 30.087 83.052" class="colorbac1ce svgShape"/><path fill="#fff" d="M31.28169 42.12418c.4629-.26726.84258-.05447.8441.48105.00151.53194-.37572 1.18532-.83862 1.45258-.46604.26907-.84573.05269-.84724-.47924C30.43841 43.04305 30.81565 42.39325 31.28169 42.12418zM34.02789 40.53866c.46292-.26727.84261-.05448.84412.48104.00151.53193-.37572 1.18531-.83864 1.45258-.46604.26907-.84259.05088-.8441-.48105C33.18774 41.45572 33.56184 40.80773 34.02789 40.53866zM36.7741 38.95313c.46604-.26907.84258-.05447.8441.48105.00151.53194-.37258 1.18351-.83862 1.45258s-.84262.05089-.84412-.48104C35.93394 39.8702 36.30806 39.2222 36.7741 38.95313z" class="colorffffff svgShape"/><path fill="#e4f3f4" d="M77.53429,47.63419L28.59587,75.88802c-0.10839-1.98717-0.04515-6.06986,0.37935-7.71379
					c0.1897-0.73164,0.46971-1.54459,0.98457-2.12269c0.16258-0.1806,0.3342-0.31612,0.50582-0.41546
					c0.61421-0.35229,1.2465-0.21677,1.61681,0.18066c0.47869,0.51481,0.69553,1.34585,1.12907,1.90586
					c0.28001,0.37031,0.83098,0.53289,1.32776,0.24384c0.18066-0.10839,0.36132-0.27097,0.50582-0.52385
					c0.20779-0.32516,0.29809-0.71361,0.37037-1.06583c0.21677-1.04781,0.44258-2.09557,0.65936-3.14337
					c0.16258-0.74966,0.31617-1.51746,0.65037-2.27617c0.54193-1.21039,1.49938-2.24916,2.44779-2.80013
					c0.3342-0.19869,0.66846-0.3342,0.98458-0.38839c1.21937-0.22581,2.13167,0.54199,2.42072,1.8246
					c0.10839,0.43354,0.1445,0.9123,0.3342,1.25554c0.18066,0.31612,0.53294,0.46965,0.92134,0.25288
					c0.03611-0.02707,0.07228-0.04515,0.10839-0.08126c0.13546-0.10844,0.27097-0.26198,0.39743-0.41552
					c0.96649-1.25554,1.13811-2.85432,1.34584-4.27238c0.19869-1.40908,0.75876-3.24271,1.89682-4.05567
					c0.06323-0.04515,0.11743-0.08126,0.18066-0.11743c0.59618-0.35223,1.17422-0.26192,1.60782,0
					c0.77679,0.48779,1.19231,1.51752,1.87873,2.16784c0.55103,0.5239,1.42716,0.74972,2.30335,0.2439
					c0.19869-0.11743,0.39743-0.27097,0.59613-0.46067c1.23745-1.2465,1.50842-3.21559,2.1046-4.91372
					c0.55097-1.5807,1.5807-3.18852,2.80007-4.11885c0.14455-0.11743,0.30713-0.21677,0.46067-0.30713
					c1.07487-0.62325,2.16784-0.59613,2.62845,0.25294c0.15359,0.28905,0.2439,0.63229,0.39744,0.92134
					c0.42456,0.79482,1.4362,0.83098,2.42976,0.26192c0.46971-0.27097,0.93037-0.67744,1.32781-1.20135
					c1.0026-1.32776,1.42716-3.02589,2.21299-4.50724c0.80386-1.50842,2.01424-2.75492,3.22463-3.45045
					c0.97548-0.56001,1.94197-0.76775,2.69169-0.4787c0.36127,0.12642,0.65936,0.35223,0.9484,0.58709
					C76.4775,38.02353,77.80526,44.86119,77.53429,47.63419z" class="colore4e8f4 svgShape"/><path fill="#acacac" d="M42.32732,46.34022l0.00029,0.10124c0.0057,2.00816-0.89007,4.28321-2.2481,6.08144l-2.69154-3.33095
				L42.32732,46.34022z" class="colorf9607f svgShape"/><path fill="#a1a1a1" d="M36.83054,44.55559l0.0158,5.57445l2.69157,3.33092c-0.77181,1.02594-1.6912,1.88918-2.67516,2.45727
				c-2.73156,1.57707-4.95146,0.30642-4.96034-2.82675C31.89351,49.95267,34.09898,46.13266,36.83054,44.55559z" class="colorf9bb4a svgShape"/><path fill="#b8b8b8" d="M37.37037,42.9875c2.69242-1.55447,4.89745-0.33156,4.95516,2.72268l-4.93935,2.85174L37.37037,42.9875z" class="color748bfd svgShape"/><polygon fill="#dedede" points="60.478 37.056 60.492 42.152 44.969 51.114 44.955 46.018" class="colord4dae8 svgShape"/><polygon fill="#dedede" points="60.457 29.782 60.474 35.638 44.951 44.6 44.934 38.745" class="colord4dae8 svgShape"/><polygon fill="#62a3a5" points="64.459 31.833 64.482 39.848 63.282 40.541 63.26 32.525" class="color62a562 svgShape"/><polygon fill="#c6c6c6" points="67.325 27.412 67.355 38.189 66.151 38.885 66.12 28.107" class="colorbac1ce svgShape"/><polygon fill="#4c8f91" points="70.204 29.614 70.224 36.533 69.025 37.226 69.005 30.307" class="color4c7891 svgShape"/><polygon fill="#3ed8dd" points="73.067 24.097 73.097 34.874 71.893 35.569 71.863 24.792" class="color3e60dd svgShape"/><g class="color000000 svgShape"><polygon fill="#007377" points="95.674 20.215 95.598 46.722 89.955 50.002 90.03 23.495" class="color37617b svgShape"/><polygon fill="#418284" points="90.03 23.495 89.955 50.002 84.28 46.726 84.355 20.219" class="color416e84 svgShape"/><polygon fill="#4c8f91" points="95.674 20.215 90.03 23.495 84.355 20.219 89.999 16.939" class="color4c7891 svgShape"/><polygon fill="#9d9d9d" points="104.007 31.13 103.932 51.533 98.288 54.813 98.363 34.41" class="colorf34858 svgShape"/><polygon fill="#a5a5a5" points="98.363 34.41 98.288 54.813 92.608 51.533 92.683 31.13" class="colorfa5168 svgShape"/><polygon fill="#acacac" points="104.007 31.13 98.363 34.41 92.683 31.13 98.326 27.851" class="colorf9607f svgShape"/><g class="color000000 svgShape"><polygon fill="#949494" points="112.34 42.045 112.265 62.448 106.622 59.624 106.697 45.325" class="color6eba6e svgShape"/><polygon fill="#9f9f9f" points="106.697 45.325 106.622 59.624 100.941 56.345 101.016 42.045" class="color75ca75 svgShape"/><polygon fill="#b8b8b8" points="112.34 42.045 106.697 45.325 101.016 42.045 106.66 38.766" class="color9ad898 svgShape"/></g><g class="color000000 svgShape"><polygon fill="#989898" points="120.668 52.957 120.593 61.153 114.949 64.432 115.024 56.237" class="colorefac41 svgShape"/><polygon fill="#a1a1a1" points="115.024 56.237 114.949 64.432 109.269 61.153 109.344 52.957" class="colorf9bb4a svgShape"/><polygon fill="#bcbcbc" points="120.668 52.957 115.024 56.237 109.344 52.957 114.987 49.677" class="colorfed57a svgShape"/></g><g class="color000000 svgShape"><polygon fill="#d3d3d3" points="129.001 60.893 128.926 65.964 123.282 69.243 123.357 64.172" class="colorcad0dd svgShape"/><polygon fill="#dedede" points="123.357 64.172 123.282 69.243 117.602 65.964 117.677 60.893" class="colord4dae8 svgShape"/><polygon fill="#e4f3f4" points="129.001 60.893 123.357 64.172 117.677 60.893 123.321 57.613" class="colore4e8f4 svgShape"/></g></g><g class="color000000 svgShape"><polygon fill="#9d9d9d" points="119.526 76.252 119.514 79.723 113.696 83.104 113.708 79.633" class="colorf34858 svgShape"/><polygon fill="#a5a5a5" points="113.708 79.633 113.696 83.104 102.413 84.015 102.425 80.544" class="colorfa5168 svgShape"/><path fill="#949494" d="M102.40772,83.81794l0.0125-3.47099c-0.00018,0.06552,0.00153,0.13106,0.0051,0.19657l-0.01252,3.471
						C102.40924,83.94901,102.40754,83.88348,102.40772,83.81794z" class="color6eba6e svgShape"/><path fill="#acacac" d="M119.52645,76.25228l-5.81804,3.38107l-11.28308,0.91017
						c-0.08449-1.54483,0.87841-3.10561,2.91163-4.28719C109.24541,73.98499,115.59933,73.98495,119.52645,76.25228z" class="colorf9607f svgShape"/><polygon fill="#a9a9a9" points="122.129 84.479 122.117 87.95 115.003 83.843 115.015 80.372" class="color576cfb svgShape"/><path fill="#45e9ef" d="M125.04814,80.39501l-0.01252,3.471c-0.00419,1.47852-0.97614,2.95545-2.91866,4.08432l0.01252-3.47099
						C124.07199,83.35046,125.04395,81.87354,125.04814,80.39501z" class="color4562ef svgShape"/><path fill="#b8b8b8" d="M122.09008,76.26025c3.92711,2.26731,3.94785,5.94774,0.0394,8.21908l-7.11443-4.10751
						L122.09008,76.26025z" class="color748bfd svgShape"/><path fill="#bcbcbc" d="M119.57271,84.47535c-3.90845,2.27135-10.26236,2.27136-14.19636,0.00007
						c-1.3344-0.77042-2.22176-1.70448-2.64774-2.69844l10.68379-0.85828L119.57271,84.47535z" class="colorfed57a svgShape"/><path fill="#a1a1a1" d="M119.57271,84.47535l-0.01251,3.47102c-3.90845,2.27133-10.26236,2.27135-14.19636,0.00005
						c-1.3344-0.77042-2.22176-1.70448-2.64939-2.71069l0.01251-3.47099c0.42763,1.00619,1.31499,1.94025,2.64939,2.71067
						C109.31035,86.74671,115.66426,86.7467,119.57271,84.47535z" class="colorf9bb4a svgShape"/></g><g class="color000000 svgShape"><path fill="#949494" d="M1.01457,48.62256l1.12714,0.65554l0.06776,21.33667c0,0.31143,0.10824,0.528,0.28424,0.63632
					L1.2989,70.57366c-0.176-0.10832-0.28433-0.3249-0.28433-0.63632" class="color6eba6e svgShape"/><line x1="1.015" x2="1.015" y1="69.937" y2="48.623" fill="#E4E8F4"/><path fill="#b8b8b8" d="M2.13816,49.27206L33.05592,31.4316l0.07082,21.33837c0.00174,0.61576-0.43764,1.37679-0.98218,1.69118
					L3.18891,71.1787C2.653,71.48811,2.21075,71.2361,2.209,70.62033L2.13816,49.27206z" class="color9ad898 svgShape"/><path fill="#fff" d="M4.25481,50.01083l26.69621-15.40485l0.06086,18.0808c0.00097,0.21881-0.22123,0.59606-0.41637,0.70861
					L4.31664,68.56742L4.25481,50.01083z" class="colorffffff svgShape"/><path fill="#b8b8b8" d="M31.92311,28.85245c0.62233-0.3593,1.12528-0.07271,1.12731,0.6424l0.00549,1.93675L2.13818,49.28196
					l-0.00549-1.93675c-0.00203-0.71512,0.49766-1.58059,1.12-1.93989L31.92311,28.85245z" class="color748bfd svgShape"/><path fill="#a9a9a9" d="M32.72384,28.76817c-0.2031-0.10833-0.48735-0.09477-0.79877,0.08122L3.25183,45.4062
					c-0.62269,0.352-1.12367,1.21844-1.12367,1.93591l0.01355,1.93599l-1.12714-0.65554l-0.01355-1.93591
					c0-0.71755,0.5009-1.57044,1.12367-1.93599l28.67324-16.55681c0.31134-0.176,0.59567-0.18955,0.79869-0.08122L32.72384,28.76817
					z" class="color576cfb svgShape"/><path fill="#fff" d="M3.41076 46.29409c.38287-.22105.68699-.03865.68823.40129.00125.43994-.30087.96326-.68374 1.18431-.38284.22104-.68693.04771-.68818-.39223S3.02792 46.51513 3.41076 46.29409zM5.80365 44.91256c.38287-.22105.68696-.03863.68821.40131.00125.43994-.30084.96325-.68371 1.1843-.38287.22105-.69491.05231-.69616-.38763C5.11074 45.6706 5.42078 45.13361 5.80365 44.91256zM8.18856 43.53563c.38284-.22103.69494-.04324.69619.3967.00125.43995-.30885.96787-.69169 1.1889-.37489.21644-.68696.04773-.68821-.39222C7.5036 44.28908 7.81367 43.75208 8.18856 43.53563z" class="colorffffff svgShape"/><polygon fill="#d3d3d3" points="29.755 51.14 29.757 51.722 5.431 65.767 5.43 65.184" class="colorcad0dd svgShape"/><polygon fill="#d3d3d3" points="29.755 48.952 29.757 49.534 5.431 63.578 5.43 62.996" class="colorcad0dd svgShape"/><polygon fill="#d3d3d3" points="29.755 46.764 29.757 47.346 5.431 61.39 5.43 60.808" class="colorcad0dd svgShape"/><polygon fill="#d3d3d3" points="29.755 44.575 29.757 45.158 5.431 59.202 5.43 58.62" class="colorcad0dd svgShape"/><polygon fill="#d3d3d3" points="29.755 42.387 29.757 42.969 5.431 57.014 5.43 56.432" class="colorcad0dd svgShape"/><polygon fill="#d3d3d3" points="29.755 40.199 29.757 40.781 5.431 54.826 5.43 54.243" class="colorcad0dd svgShape"/><polygon fill="#d3d3d3" points="23.283 41.748 23.284 42.33 5.431 52.637 5.43 52.055" class="colorcad0dd svgShape"/></g><g class="color000000 svgShape"><path fill="#dedede" d="M17.05167,95.18465c-3.08038,1.79293-8.07915,1.78513-11.17514,0
							c-3.10375-1.78507-3.11937-4.6771-0.03118-6.46998c3.08038-1.78508,8.07134-1.78508,11.17514,0
							C20.10863,90.49979,20.13205,93.39958,17.05167,95.18465z" class="colord4dae8 svgShape"/><path fill="#a1a1a1" d="M19.73606,89.07283l-0.01342,2.68115c0,0.46917-0.12061,0.93834-0.34856,1.38075
						c-0.09377,0.17428-0.20104,0.34856-0.33514,0.50942c-0.24129,0.33514-0.56302,0.65687-0.95176,0.95184
						c-0.10727,0.09385-0.21454,0.17429-0.33514,0.24129c-0.13411,0.10719-0.28155,0.1877-0.42899,0.28147
						c-0.17428,0.09385-0.34856,0.1877-0.53626,0.28155c-0.10719,0.0536-0.21446,0.10727-0.33514,0.16087
						c-0.30831,0.1341-0.61661,0.25471-0.95176,0.36198c-0.10727,0.02676-0.21454,0.06702-0.33514,0.09386
						c-0.30839,0.09385-0.63011,0.17428-0.96526,0.24129c-0.10719,0.02676-0.22787,0.04018-0.33514,0.06702
						c-0.32172,0.05359-0.63003,0.09385-0.95176,0.12069c-0.10727,0.01334-0.22796,0.02676-0.33514,0.02676
						c-0.32181,0.04025-0.64353,0.05367-0.96526,0.05367h-0.33514c-0.32172,0-0.64345-0.02684-0.95184-0.05367
						c-0.10719,0-0.22787-0.01342-0.33514-0.02676c-0.32172-0.02684-0.64345-0.08044-0.96517-0.13411
						c-0.10727-0.01342-0.22788-0.04018-0.33514-0.06701c-0.32173-0.06702-0.64345-0.14745-0.95184-0.24129
						c-0.12061-0.02684-0.22788-0.05368-0.33514-0.09385c-0.33514-0.10727-0.65687-0.22787-0.96518-0.3754
						c-0.12069-0.04018-0.22788-0.09377-0.33514-0.14745c-0.17428-0.09385-0.33514-0.17428-0.49601-0.26813
						c-0.16086-0.09377-0.32173-0.18762-0.45583-0.28147c-0.12061-0.08043-0.22787-0.16086-0.33514-0.25471
						c-0.38874-0.28155-0.71046-0.60327-0.95176-0.93842c-0.13411-0.16087-0.25471-0.33514-0.33514-0.52284
						c-0.25471-0.45575-0.3754-0.925-0.3754-1.40759l0.01342-2.69456c0,0.48258,0.12061-0.01563,0.36198,0.44012
						c0.09377,0.17428,0.20104,0.34856,0.33514,0.52284c0.24129,0.33514,0.56302,0.65687,0.95176,0.95184
						c0.10727,0.09385,0.21454,0.17429,0.33514,0.25471c0.14744,0.09385,0.29497,0.1877,0.45583,0.28147
						c0.16086,0.09385,0.32172,0.17428,0.49601,0.26813c0.10727,0.05367,0.21446,0.10727,0.33514,0.14745
						c0.30831,0.14752,0.63003,0.26813,0.96518,0.3754c0.10727,0.04018,0.22796,0.06702,0.33514,0.09385
						c0.30839,0.09386,0.63011,0.17429,0.95184,0.24129c0.10727,0.02684,0.21446,0.0536,0.33514,0.06702
						c0.32172,0.05367,0.64345,0.10727,0.96517,0.1341c0.10727,0.01334,0.21454,0.02676,0.33514,0.02676
						c0.30839,0.02684,0.63011,0.05368,0.95184,0.04026c0.10727,0.01342,0.22787,0.01342,0.33514,0.01342
						c0.32172,0,0.64345-0.01342,0.96526-0.05368c0.10719,0,0.22787-0.01341,0.33514-0.02676
						c0.32172-0.02683,0.64345-0.06709,0.95176-0.12068c0.10727-0.02684,0.22796-0.04026,0.33514-0.06702
						c0.33514-0.06701,0.65687-0.14745,0.96526-0.24129c0.12061-0.02683,0.22788-0.05367,0.33514-0.09385
						c0.33514-0.10727,0.64345-0.22787,0.95176-0.36198c0.12069-0.0536,0.22796-0.09386,0.33514-0.14745
						c0.1877-0.09385,0.3754-0.1877,0.54968-0.29497c0.14744-0.08044,0.28147-0.17429,0.41558-0.26805
						c0.12061-0.06709,0.22787-0.14753,0.33514-0.24138c0.38874-0.29488,0.71046-0.6032,0.95176-0.93834
						c0.13411-0.17428,0.24137-0.34856,0.33514-0.52284C19.61546,89.04369,19.73606,89.542,19.73606,89.07283z" class="colorf9bb4a svgShape"/><path fill="#bcbcbc" d="M17.28606,85.65197c3.24427,1.87308,3.26785,4.91403,0.04471,6.78712
					c-3.22967,1.87688-8.47962,1.87315-11.72389,0.00008s-3.2614-4.91031-0.03174-6.78719
					C8.79828,83.77889,14.04179,83.77889,17.28606,85.65197z" class="colorfed57a svgShape"/><path fill="#888" d="M17.02816,86.08584c-1.47748-0.866-3.48979-1.32449-5.60409-1.32449
						c-2.11415,0-4.10111,0.45849-5.60393,1.32449c-1.37564,0.81516-2.1398,1.85963-2.1398,2.95496
						c0,0.07634,0,0.12733,0.0255,0.20367c0.17833-0.94249,0.91699-1.83398,2.1143-2.5473
						c1.50282-0.866,3.48979-1.32449,5.60393-1.32449c2.1143,0,4.12661,0.4585,5.60409,1.32449
						c1.24815,0.71332,1.98697,1.63031,2.1653,2.5728c0.02534-0.07634,0.02534-0.12733,0.02534-0.20367
						C19.2188,87.97082,18.45464,86.90099,17.02816,86.08584z" class="colord89b39 svgShape"/><path fill="#a1a1a1" d="M17.02816,86.69717c-1.47748-0.866-3.48979-1.32449-5.60409-1.32449
						c-2.11415,0-4.10111,0.4585-5.60393,1.32449c-1.19731,0.71332-1.93597,1.60481-2.1143,2.5473v0.20383
						c0.17833,0.94249,0.91699,1.83414,2.16514,2.54729c1.47748,0.86615,3.48979,1.35014,5.60409,1.35014
						c2.1398,0,4.12661-0.48399,5.60409-1.35014c1.19716-0.71316,1.93597-1.57931,2.1143-2.5218v-0.20383
						C19.01513,88.32748,18.27631,87.41048,17.02816,86.69717z" class="colorf9bb4a svgShape"/><path fill="#888" d="M19.37408 90.467v2.66773c-.09377.17428-.20104.34856-.33514.50942v-2.65431C19.17304 90.81556 19.28031 90.64128 19.37408 90.467zM18.08718 91.92818v2.66781c-.10727.09385-.21454.17429-.33514.24129v-2.66773C17.87264 92.10246 17.97991 92.02203 18.08718 91.92818zM16.78678 92.73257v2.66773c-.10719.0536-.21446.10727-.33514.16087v-2.68115C16.57232 92.82642 16.67959 92.78617 16.78678 92.73257zM15.49988 93.242v2.68114c-.10727.02676-.21454.06702-.33514.09386v-2.68115C15.28534 93.30901 15.39261 93.28217 15.49988 93.242zM14.19948 93.57715v2.68114c-.10719.02676-.22787.04018-.33514.06702v-2.68115C13.9716 93.61732 14.09229 93.6039 14.19948 93.57715zM12.91258 93.76485V96.446c-.10727.01334-.22796.02676-.33514.02676V93.7916C12.68462 93.7916 12.80531 93.77818 12.91258 93.76485zM11.61218 93.84528v2.68115h-.33514v-2.69457C11.3843 93.84528 11.50491 93.84528 11.61218 93.84528zM10.3252 93.7916v2.68115c-.10719 0-.22787-.01342-.33514-.02676v-2.68115C10.09732 93.77818 10.20459 93.7916 10.3252 93.7916zM9.02488 93.63074v2.68115c-.10727-.01342-.22788-.04018-.33514-.06701v-2.68115C8.797 93.59056 8.90419 93.61732 9.02488 93.63074zM7.73789 93.32243v2.68115c-.12061-.02684-.22788-.05368-.33514-.09385v-2.68115C7.51002 93.26875 7.63071 93.29559 7.73789 93.32243zM6.43757 92.85318v2.68115c-.12069-.04018-.22788-.09377-.33514-.14745v-2.68115C6.2097 92.75941 6.31689 92.813 6.43757 92.85318zM5.15059 92.15614v2.68115c-.12061-.08043-.22787-.16086-.33514-.25471v-2.68114C4.92272 91.99528 5.02999 92.07571 5.15059 92.15614zM3.86369 90.94958v2.69457c-.13411-.16087-.25471-.33514-.33514-.52284v-2.69457C3.62232 90.60102 3.72959 90.77531 3.86369 90.94958z" class="colord89b39 svgShape"/><path fill="#bcbcbc" d="M14.78623,90.92998l-0.40224-0.23223l-0.39419,0.22908l0.40224,0.23223l-0.78842,0.45818
						L13.20138,91.385l-1.18802,0.69041l-0.79357-0.45818l1.18802-0.6904l-1.5926-0.91949l-0.79902-0.46132l-1.58716-0.91634
						l-1.18802,0.6904l-0.79902-0.46131l1.18802-0.69041l-0.39679-0.22909l0.78841-0.45818l0.39679,0.22909l0.39419-0.22908
						l-0.39679-0.22909l0.79383-0.46132l0.39679,0.22908c0.87482-0.50838,2.29434-0.50842,3.1749-0.00003
						c0.44026,0.25419,0.65885,0.58683,0.66069,0.91951l-0.01035,0.08787c0.61755-0.02513,1.25751,0.09412,1.73583,0.37028
						c0.44028,0.2542,0.65887,0.58684,0.66615,0.92265c-0.00352,0.32948-0.22377,0.66528-0.65584,0.91636l0.40224,0.23223
						L14.78623,90.92998z M13.19623,90.46866l1.18802-0.69041c0.43207-0.25109,0.42973-0.66533-0.01055-0.91953
						c-0.43483-0.25105-1.14998-0.25105-1.58205,0.00004l-1.18802,0.69041L13.19623,90.46866 M10.80461,89.08785l1.18802-0.6904
						c0.43207-0.25109,0.43517-0.6622-0.0051-0.91638c-0.44028-0.2542-1.15-0.25106-1.58207,0.00003l-1.18802,0.69041
						L10.80461,89.08785" class="colorfed57a svgShape"/></g><g class="color000000 svgShape"><path fill="#dedede" d="M20.93937,90.67751c-3.08038,1.79292-8.07915,1.78513-11.17514,0
							c-3.10375-1.78508-3.11937-4.67711-0.03118-6.46999c3.08038-1.78508,8.07134-1.78508,11.17514,0
							C23.99634,85.99265,24.01975,88.89243,20.93937,90.67751z" class="colord4dae8 svgShape"/><path fill="#a1a1a1" d="M23.62377,84.56568l-0.01342,2.68115c0,0.46917-0.12061,0.93834-0.34856,1.38075
						c-0.09377,0.17428-0.20104,0.34856-0.33514,0.50942c-0.24129,0.33514-0.56302,0.65687-0.95176,0.95184
						c-0.10727,0.09385-0.21454,0.17428-0.33514,0.24129c-0.13411,0.10719-0.28155,0.1877-0.42899,0.28146
						c-0.17428,0.09385-0.34856,0.1877-0.53626,0.28156c-0.10719,0.05359-0.21445,0.10726-0.33514,0.16086
						c-0.30831,0.13411-0.61661,0.25471-0.95176,0.36198c-0.10727,0.02676-0.21454,0.06701-0.33514,0.09385
						c-0.30839,0.09385-0.63011,0.17428-0.96526,0.24129c-0.10719,0.02676-0.22787,0.04018-0.33514,0.06701
						c-0.32172,0.0536-0.63003,0.09385-0.95176,0.12069c-0.10727,0.01334-0.22796,0.02676-0.33514,0.02676
						c-0.32181,0.04025-0.64353,0.05367-0.96526,0.05367h-0.33514c-0.32172,0-0.64345-0.02683-0.95184-0.05367
						c-0.10719,0-0.22788-0.01342-0.33514-0.02676c-0.32173-0.02684-0.64345-0.08043-0.96518-0.13411
						c-0.10727-0.01341-0.22787-0.04017-0.33514-0.06701c-0.32172-0.06702-0.64345-0.14745-0.95184-0.24129
						c-0.12061-0.02684-0.22787-0.05367-0.33514-0.09385c-0.33514-0.10727-0.65687-0.22787-0.96517-0.3754
						c-0.12069-0.04017-0.22787-0.09377-0.33514-0.14744c-0.17428-0.09385-0.33514-0.17429-0.49601-0.26814
						C9.33326,90.51785,9.1724,90.424,9.03829,90.33015c-0.12061-0.08044-0.22787-0.16087-0.33514-0.25471
						c-0.38874-0.28156-0.71046-0.60328-0.95176-0.93842c-0.13411-0.16086-0.25471-0.33514-0.33514-0.52284
						c-0.25471-0.45575-0.3754-0.925-0.3754-1.40759l0.01342-2.69457c0,0.48259,0.12061-0.01563,0.36198,0.44012
						c0.09377,0.17428,0.20104,0.34856,0.33514,0.52284c0.24129,0.33514,0.56302,0.65687,0.95176,0.95184
						c0.10727,0.09385,0.21454,0.17428,0.33514,0.25471c0.14744,0.09385,0.29497,0.18771,0.45583,0.28147
						c0.16086,0.09385,0.32173,0.17428,0.49601,0.26813c0.10727,0.05368,0.21446,0.10727,0.33514,0.14745
						c0.30831,0.14753,0.63003,0.26814,0.96517,0.3754c0.10727,0.04017,0.22796,0.06701,0.33514,0.09385
						c0.30839,0.09385,0.63011,0.17428,0.95184,0.24129c0.10727,0.02683,0.21446,0.05359,0.33514,0.06701
						c0.32172,0.05367,0.64345,0.10727,0.96518,0.13411c0.10727,0.01334,0.21454,0.02676,0.33514,0.02676
						c0.30839,0.02683,0.63011,0.05367,0.95184,0.04025c0.10727,0.01342,0.22788,0.01342,0.33514,0.01342
						c0.32172,0,0.64345-0.01342,0.96526-0.05367c0.10719,0,0.22787-0.01342,0.33514-0.02676
						c0.32172-0.02684,0.64345-0.06709,0.95176-0.12069c0.10727-0.02684,0.22796-0.04026,0.33514-0.06702
						c0.33514-0.06701,0.65687-0.14744,0.96526-0.24129c0.12061-0.02684,0.22787-0.05368,0.33514-0.09385
						c0.33514-0.10727,0.64345-0.22788,0.95176-0.36198c0.12069-0.0536,0.22796-0.09385,0.33514-0.14745
						c0.1877-0.09385,0.3754-0.1877,0.54968-0.29497c0.14744-0.08043,0.28147-0.17429,0.41558-0.26805
						c0.12061-0.06709,0.22787-0.14752,0.33514-0.24137c0.38874-0.29489,0.71046-0.6032,0.95176-0.93834
						c0.13411-0.17429,0.24138-0.34856,0.33514-0.52285C23.50316,84.53655,23.62377,85.03485,23.62377,84.56568z" class="colorf9bb4a svgShape"/><path fill="#bcbcbc" d="M21.17376,81.14482c3.24427,1.87308,3.26785,4.91404,0.04471,6.78712
					c-3.22967,1.87688-8.47962,1.87316-11.72389,0.00008s-3.2614-4.91032-0.03174-6.78719
					C12.68598,79.27174,17.92949,79.27174,21.17376,81.14482z" class="colorfed57a svgShape"/><path fill="#888" d="M20.91586,81.57869c-1.47748-0.86599-3.48979-1.32449-5.60409-1.32449
						c-2.11415,0-4.10112,0.4585-5.60394,1.32449c-1.37564,0.81516-2.1398,1.85963-2.1398,2.95496
						c0,0.07634,0,0.12733,0.0255,0.20367c0.17833-0.94249,0.91699-1.83398,2.1143-2.5473
						c1.50282-0.86599,3.48979-1.32449,5.60394-1.32449c2.1143,0,4.12661,0.4585,5.60409,1.32449
						c1.24815,0.71332,1.98697,1.63031,2.1653,2.5728c0.02534-0.07634,0.02534-0.12733,0.02534-0.20367
						C23.1065,83.46367,22.34234,82.39384,20.91586,81.57869z" class="colord89b39 svgShape"/><path fill="#a1a1a1" d="M20.91586,82.19002c-1.47748-0.86599-3.48979-1.32449-5.60409-1.32449
						c-2.11415,0-4.10112,0.4585-5.60394,1.32449c-1.19731,0.71332-1.93597,1.60481-2.1143,2.5473v0.20383
						c0.17833,0.94249,0.91699,1.83414,2.16514,2.5473c1.47748,0.86615,3.48979,1.35014,5.60409,1.35014
						c2.1398,0,4.12661-0.48399,5.60409-1.35014c1.19716-0.71317,1.93597-1.57932,2.1143-2.5218v-0.20383
						C22.90283,83.82033,22.16401,82.90334,20.91586,82.19002z" class="colorf9bb4a svgShape"/><path fill="#888" d="M23.26178 85.95985v2.66773c-.09377.17428-.20104.34856-.33514.50942V86.4827C23.06075 86.30842 23.16802 86.13413 23.26178 85.95985zM21.97488 87.42104v2.66782c-.10727.09385-.21454.17428-.33514.24129v-2.66774C21.76035 87.59531 21.86761 87.51488 21.97488 87.42104zM20.67448 88.22543v2.66774c-.10719.05359-.21445.10726-.33514.16086v-2.68115C20.46003 88.31928 20.5673 88.27902 20.67448 88.22543zM19.38758 88.73486v2.68115c-.10727.02676-.21454.06701-.33514.09385V88.8287C19.17304 88.80186 19.28031 88.77503 19.38758 88.73486zM18.08718 89.07v2.68115c-.10719.02676-.22787.04018-.33514.06701v-2.68115C17.85931 89.11018 17.97999 89.09676 18.08718 89.07zM16.80028 89.2577v2.68115c-.10727.01334-.22796.02676-.33514.02676v-2.68115C16.57232 89.28445 16.69301 89.27103 16.80028 89.2577zM15.49988 89.33813v2.68115h-.33514v-2.69456C15.27201 89.33813 15.39261 89.33813 15.49988 89.33813zM14.2129 89.28445v2.68115c-.10719 0-.22788-.01342-.33514-.02676V89.2577C13.98502 89.27103 14.09229 89.28445 14.2129 89.28445zM12.91258 89.12359v2.68115c-.10727-.01341-.22787-.04017-.33514-.06701v-2.68115C12.6847 89.08342 12.79189 89.11018 12.91258 89.12359zM11.6256 88.81528v2.68115c-.12061-.02684-.22787-.05367-.33514-.09385v-2.68115C11.39772 88.76161 11.51841 88.78844 11.6256 88.81528zM10.32528 88.34604v2.68114c-.12069-.04017-.22787-.09377-.33514-.14744v-2.68115C10.0974 88.25227 10.20459 88.30586 10.32528 88.34604zM9.03829 87.64899v2.68115c-.12061-.08044-.22787-.16087-.33514-.25471v-2.68115C8.81042 87.48813 8.91769 87.56856 9.03829 87.64899zM7.75139 86.44244v2.69456c-.13411-.16086-.25471-.33514-.33514-.52284v-2.69457C7.51002 86.09388 7.61729 86.26816 7.75139 86.44244z" class="colord89b39 svgShape"/><path fill="#bcbcbc" d="M18.67393,86.42283l-0.40224-0.23223l-0.39419,0.22908l0.40224,0.23223l-0.78842,0.45818
						l-0.40224-0.23223l-1.18802,0.69041l-0.79357-0.45817l1.18802-0.69041l-1.5926-0.91949l-0.79902-0.46131l-1.58716-0.91635
						l-1.18802,0.69041l-0.79902-0.46132l1.18802-0.69041l-0.39679-0.22908l0.78841-0.45818l0.39679,0.22908l0.39419-0.22908
						l-0.39679-0.22908l0.79383-0.46133l0.39679,0.22909c0.87482-0.50839,2.29434-0.50842,3.1749-0.00004
						c0.44027,0.25419,0.65885,0.58683,0.66069,0.91951l-0.01035,0.08787c0.61755-0.02513,1.25751,0.09412,1.73583,0.37029
						c0.44028,0.2542,0.65887,0.58684,0.66615,0.92265c-0.00352,0.32948-0.22378,0.66527-0.65584,0.91636l0.40224,0.23223
						L18.67393,86.42283z M17.08393,85.96151l1.18802-0.69041c0.43206-0.25108,0.42973-0.66533-0.01055-0.91953
						c-0.43483-0.25105-1.14998-0.25105-1.58205,0.00005l-1.18802,0.6904L17.08393,85.96151 M14.69231,84.5807l1.18802-0.6904
						c0.43207-0.25109,0.43517-0.66219-0.0051-0.91638c-0.44028-0.2542-1.15-0.25105-1.58206,0.00003l-1.18802,0.69041
						L14.69231,84.5807" class="colorfed57a svgShape"/></g><g class="color000000 svgShape"><path fill="#dedede" d="M17.05167,86.17036c-3.08038,1.79293-8.07915,1.78513-11.17514,0
							c-3.10375-1.78508-3.11937-4.6771-0.03118-6.46999c3.08038-1.78507,8.07134-1.78507,11.17514,0
							C20.10863,81.4855,20.13205,84.38528,17.05167,86.17036z" class="colord4dae8 svgShape"/><path fill="#a1a1a1" d="M19.73606,80.05854l-0.01342,2.68115c0,0.46916-0.12061,0.93833-0.34856,1.38074
						c-0.09377,0.17429-0.20104,0.34856-0.33514,0.50943c-0.24129,0.33514-0.56302,0.65687-0.95176,0.95184
						c-0.10727,0.09385-0.21454,0.17428-0.33514,0.24129c-0.13411,0.10719-0.28155,0.1877-0.42899,0.28146
						c-0.17428,0.09386-0.34856,0.18771-0.53626,0.28156c-0.10719,0.05359-0.21446,0.10727-0.33514,0.16086
						c-0.30831,0.13411-0.61661,0.25471-0.95176,0.36198c-0.10727,0.02676-0.21454,0.06702-0.33514,0.09385
						c-0.30839,0.09385-0.63011,0.17429-0.96526,0.24129c-0.10719,0.02676-0.22787,0.04018-0.33514,0.06702
						c-0.32172,0.05359-0.63003,0.09385-0.95176,0.12068c-0.10727,0.01334-0.22796,0.02676-0.33514,0.02676
						c-0.32181,0.04026-0.64353,0.05368-0.96526,0.05368h-0.33514c-0.32172,0-0.64345-0.02684-0.95184-0.05368
						c-0.10719,0-0.22787-0.01342-0.33514-0.02676c-0.32172-0.02683-0.64345-0.08043-0.96517-0.1341
						c-0.10727-0.01342-0.22788-0.04018-0.33514-0.06702c-0.32173-0.06701-0.64345-0.14744-0.95184-0.24129
						c-0.12061-0.02683-0.22788-0.05367-0.33514-0.09385c-0.33514-0.10727-0.65687-0.22787-0.96518-0.3754
						c-0.12069-0.04018-0.22788-0.09377-0.33514-0.14745c-0.17428-0.09385-0.33514-0.17428-0.49601-0.26814
						C5.44556,86.0107,5.2847,85.91685,5.15059,85.823c-0.12061-0.08043-0.22787-0.16087-0.33514-0.25471
						c-0.38874-0.28155-0.71046-0.60327-0.95176-0.93842c-0.13411-0.16087-0.25471-0.33514-0.33514-0.52285
						c-0.25471-0.45575-0.3754-0.925-0.3754-1.40759l0.01342-2.69457c0,0.48259,0.12061-0.01563,0.36198,0.44012
						c0.09377,0.17429,0.20104,0.34856,0.33514,0.52285c0.24129,0.33514,0.56302,0.65687,0.95176,0.95184
						c0.10727,0.09385,0.21454,0.17428,0.33514,0.25471c0.14744,0.09385,0.29497,0.1877,0.45583,0.28146
						c0.16086,0.09385,0.32172,0.17429,0.49601,0.26814c0.10727,0.05367,0.21446,0.10727,0.33514,0.14745
						c0.30831,0.14752,0.63003,0.26813,0.96518,0.3754c0.10727,0.04018,0.22796,0.06701,0.33514,0.09385
						c0.30839,0.09385,0.63011,0.17429,0.95184,0.24129c0.10727,0.02684,0.21446,0.0536,0.33514,0.06701
						c0.32172,0.05368,0.64345,0.10727,0.96517,0.13411c0.10727,0.01334,0.21454,0.02676,0.33514,0.02676
						c0.30839,0.02684,0.63011,0.05367,0.95184,0.04026c0.10727,0.01341,0.22787,0.01341,0.33514,0.01341
						c0.32172,0,0.64345-0.01341,0.96526-0.05367c0.10719,0,0.22787-0.01342,0.33514-0.02676
						c0.32172-0.02684,0.64345-0.06709,0.95176-0.12069c0.10727-0.02683,0.22796-0.04025,0.33514-0.06701
						c0.33514-0.06702,0.65687-0.14745,0.96526-0.24129c0.12061-0.02684,0.22788-0.05367,0.33514-0.09385
						c0.33514-0.10727,0.64345-0.22787,0.95176-0.36198c0.12069-0.05359,0.22796-0.09385,0.33514-0.14745
						c0.1877-0.09385,0.3754-0.1877,0.54968-0.29497c0.14744-0.08043,0.28147-0.17428,0.41558-0.26805
						c0.12061-0.06709,0.22787-0.14752,0.33514-0.24137c0.38874-0.29489,0.71046-0.6032,0.95176-0.93834
						c0.13411-0.17428,0.24137-0.34856,0.33514-0.52284C19.61546,80.0294,19.73606,80.52771,19.73606,80.05854z" class="colorf9bb4a svgShape"/><path fill="#bcbcbc" d="M17.28606,76.63768c3.24427,1.87308,3.26785,4.91403,0.04471,6.78712
					c-3.22967,1.87688-8.47962,1.87315-11.72389,0.00008s-3.2614-4.91032-0.03174-6.78719
					C8.79828,74.7646,14.04179,74.7646,17.28606,76.63768z" class="colorfed57a svgShape"/><path fill="#888" d="M17.02816,77.07155c-1.47748-0.866-3.48979-1.32449-5.60409-1.32449
						c-2.11415,0-4.10111,0.4585-5.60393,1.32449c-1.37564,0.81516-2.1398,1.85963-2.1398,2.95496
						c0,0.07633,0,0.12733,0.0255,0.20367c0.17833-0.94249,0.91699-1.83398,2.1143-2.54729
						c1.50282-0.866,3.48979-1.32449,5.60393-1.32449c2.1143,0,4.12661,0.4585,5.60409,1.32449
						c1.24815,0.71332,1.98697,1.63031,2.1653,2.57279c0.02534-0.07633,0.02534-0.12733,0.02534-0.20367
						C19.2188,78.95652,18.45464,77.8867,17.02816,77.07155z" class="colord89b39 svgShape"/><path fill="#a1a1a1" d="M17.02816,77.68288c-1.47748-0.866-3.48979-1.32449-5.60409-1.32449
						c-2.11415,0-4.10111,0.4585-5.60393,1.32449c-1.19731,0.71332-1.93597,1.6048-2.1143,2.54729V80.434
						c0.17833,0.94249,0.91699,1.83414,2.16514,2.5473c1.47748,0.86615,3.48979,1.35014,5.60409,1.35014
						c2.1398,0,4.12661-0.48399,5.60409-1.35014c1.19716-0.71317,1.93597-1.57932,2.1143-2.5218v-0.20383
						C19.01513,79.31319,18.27631,78.39619,17.02816,77.68288z" class="colorf9bb4a svgShape"/><path fill="#888" d="M19.37408 81.45271v2.66773c-.09377.17429-.20104.34856-.33514.50943v-2.65432C19.17304 81.80127 19.28031 81.62699 19.37408 81.45271zM18.08718 82.91389v2.66782c-.10727.09385-.21454.17428-.33514.24129v-2.66773C17.87264 83.08817 17.97991 83.00774 18.08718 82.91389zM16.78678 83.71828v2.66773c-.10719.05359-.21446.10727-.33514.16086v-2.68114C16.57232 83.81213 16.67959 83.77187 16.78678 83.71828zM15.49988 84.22771v2.68115c-.10727.02676-.21454.06702-.33514.09385v-2.68115C15.28534 84.29472 15.39261 84.26788 15.49988 84.22771zM14.19948 84.56285V87.244c-.10719.02676-.22787.04018-.33514.06702v-2.68115C13.9716 84.60303 14.09229 84.58961 14.19948 84.56285zM12.91258 84.75055v2.68115c-.10727.01334-.22796.02676-.33514.02676v-2.68115C12.68462 84.77731 12.80531 84.76389 12.91258 84.75055zM11.61218 84.83099v2.68115h-.33514v-2.69457C11.3843 84.83099 11.50491 84.83099 11.61218 84.83099zM10.3252 84.77731v2.68115c-.10719 0-.22787-.01342-.33514-.02676v-2.68115C10.09732 84.76389 10.20459 84.77731 10.3252 84.77731zM9.02488 84.61645v2.68115c-.10727-.01342-.22788-.04018-.33514-.06702v-2.68115C8.797 84.57627 8.90419 84.60303 9.02488 84.61645zM7.73789 84.30814v2.68115c-.12061-.02683-.22788-.05367-.33514-.09385v-2.68115C7.51002 84.25446 7.63071 84.2813 7.73789 84.30814zM6.43757 83.83889v2.68115c-.12069-.04018-.22788-.09377-.33514-.14745v-2.68115C6.2097 83.74512 6.31689 83.79871 6.43757 83.83889zM5.15059 83.14185V85.823c-.12061-.08043-.22787-.16087-.33514-.25471v-2.68115C4.92272 82.98098 5.02999 83.06142 5.15059 83.14185zM3.86369 81.9353v2.69457c-.13411-.16087-.25471-.33514-.33514-.52285v-2.69456C3.62232 81.58673 3.72959 81.76102 3.86369 81.9353z" class="colord89b39 svgShape"/><path fill="#bcbcbc" d="M14.78623,81.91569l-0.40224-0.23223l-0.39419,0.22907l0.40224,0.23224l-0.78842,0.45818
						l-0.40224-0.23223l-1.18802,0.6904l-0.79357-0.45817l1.18802-0.69041l-1.5926-0.91948l-0.79902-0.46132l-1.58716-0.91635
						l-1.18802,0.69041l-0.79902-0.46132l1.18802-0.6904l-0.39679-0.22909l0.78841-0.45818l0.39679,0.22909l0.39419-0.22908
						l-0.39679-0.22909l0.79383-0.46133l0.39679,0.22909c0.87482-0.50839,2.29434-0.50842,3.1749-0.00003
						c0.44026,0.25419,0.65885,0.58683,0.66069,0.91951l-0.01035,0.08787c0.61755-0.02514,1.25751,0.09412,1.73583,0.37028
						c0.44028,0.2542,0.65887,0.58684,0.66615,0.92265c-0.00352,0.32948-0.22377,0.66527-0.65584,0.91636l0.40224,0.23223
						L14.78623,81.91569z M13.19623,81.45436l1.18802-0.6904c0.43207-0.25109,0.42973-0.66534-0.01055-0.91953
						c-0.43483-0.25105-1.14998-0.25105-1.58205,0.00005l-1.18802,0.6904L13.19623,81.45436 M10.80461,80.07356l1.18802-0.69041
						c0.43207-0.25108,0.43517-0.66219-0.0051-0.91638c-0.44028-0.2542-1.15-0.25105-1.58207,0.00004l-1.18802,0.6904
						L10.80461,80.07356" class="colorfed57a svgShape"/></g><g class="color000000 svgShape"><path fill="#dedede" d="M20.93937,81.66322c-3.08038,1.79293-8.07915,1.78513-11.17514,0
							c-3.10375-1.78507-3.11937-4.6771-0.03118-6.46998c3.08038-1.78508,8.07134-1.78508,11.17514,0
							C23.99634,76.97836,24.01975,79.87814,20.93937,81.66322z" class="colord4dae8 svgShape"/><path fill="#a1a1a1" d="M23.62377,75.55139l-0.01342,2.68115c0,0.46917-0.12061,0.93834-0.34856,1.38075
						c-0.09377,0.17428-0.20104,0.34856-0.33514,0.50942c-0.24129,0.33514-0.56302,0.65687-0.95176,0.95184
						c-0.10727,0.09385-0.21454,0.17429-0.33514,0.24129c-0.13411,0.10719-0.28155,0.1877-0.42899,0.28147
						c-0.17428,0.09385-0.34856,0.1877-0.53626,0.28155c-0.10719,0.0536-0.21445,0.10727-0.33514,0.16087
						c-0.30831,0.1341-0.61661,0.25471-0.95176,0.36198c-0.10727,0.02676-0.21454,0.06702-0.33514,0.09386
						c-0.30839,0.09385-0.63011,0.17428-0.96526,0.24129c-0.10719,0.02676-0.22787,0.04018-0.33514,0.06702
						c-0.32172,0.05359-0.63003,0.09385-0.95176,0.12069c-0.10727,0.01334-0.22796,0.02676-0.33514,0.02676
						c-0.32181,0.04025-0.64353,0.05367-0.96526,0.05367h-0.33514c-0.32172,0-0.64345-0.02684-0.95184-0.05367
						c-0.10719,0-0.22788-0.01342-0.33514-0.02676c-0.32173-0.02684-0.64345-0.08044-0.96518-0.13411
						c-0.10727-0.01342-0.22787-0.04018-0.33514-0.06701c-0.32172-0.06702-0.64345-0.14745-0.95184-0.24129
						c-0.12061-0.02684-0.22787-0.05368-0.33514-0.09385c-0.33514-0.10727-0.65687-0.22787-0.96517-0.3754
						c-0.12069-0.04018-0.22787-0.09377-0.33514-0.14745c-0.17428-0.09385-0.33514-0.17428-0.49601-0.26813
						c-0.16086-0.09377-0.32172-0.18762-0.45583-0.28147c-0.12061-0.08043-0.22787-0.16086-0.33514-0.25471
						c-0.38874-0.28155-0.71046-0.60327-0.95176-0.93842c-0.13411-0.16087-0.25471-0.33514-0.33514-0.52284
						c-0.25471-0.45575-0.3754-0.925-0.3754-1.40759l0.01342-2.69456c0,0.48258,0.12061-0.01563,0.36198,0.44012
						c0.09377,0.17428,0.20104,0.34856,0.33514,0.52284c0.24129,0.33514,0.56302,0.65687,0.95176,0.95184
						c0.10727,0.09385,0.21454,0.17429,0.33514,0.25471c0.14744,0.09385,0.29497,0.1877,0.45583,0.28147
						c0.16086,0.09385,0.32173,0.17428,0.49601,0.26813c0.10727,0.05367,0.21446,0.10727,0.33514,0.14745
						c0.30831,0.14752,0.63003,0.26813,0.96517,0.3754c0.10727,0.04018,0.22796,0.06702,0.33514,0.09385
						c0.30839,0.09386,0.63011,0.17429,0.95184,0.24129c0.10727,0.02684,0.21446,0.0536,0.33514,0.06702
						c0.32172,0.05367,0.64345,0.10727,0.96518,0.1341c0.10727,0.01334,0.21454,0.02676,0.33514,0.02676
						c0.30839,0.02684,0.63011,0.05368,0.95184,0.04026c0.10727,0.01342,0.22788,0.01342,0.33514,0.01342
						c0.32172,0,0.64345-0.01342,0.96526-0.05368c0.10719,0,0.22787-0.01341,0.33514-0.02676
						c0.32172-0.02683,0.64345-0.06709,0.95176-0.12068c0.10727-0.02684,0.22796-0.04026,0.33514-0.06702
						c0.33514-0.06701,0.65687-0.14745,0.96526-0.24129c0.12061-0.02683,0.22787-0.05367,0.33514-0.09385
						c0.33514-0.10727,0.64345-0.22787,0.95176-0.36198c0.12069-0.0536,0.22796-0.09386,0.33514-0.14745
						c0.1877-0.09385,0.3754-0.1877,0.54968-0.29497c0.14744-0.08044,0.28147-0.17429,0.41558-0.26805
						c0.12061-0.06709,0.22787-0.14753,0.33514-0.24138c0.38874-0.29488,0.71046-0.6032,0.95176-0.93834
						c0.13411-0.17428,0.24138-0.34856,0.33514-0.52284C23.50316,75.52225,23.62377,76.02056,23.62377,75.55139z" class="colorf9bb4a svgShape"/><path fill="#bcbcbc" d="M21.17376,72.13053c3.24427,1.87308,3.26785,4.91403,0.04471,6.78712
					c-3.22967,1.87688-8.47962,1.87315-11.72389,0.00008s-3.2614-4.91031-0.03174-6.78719
					C12.68598,70.25745,17.92949,70.25745,21.17376,72.13053z" class="colorfed57a svgShape"/><path fill="#888" d="M20.91586,72.5644c-1.47748-0.866-3.48979-1.32449-5.60409-1.32449
						c-2.11415,0-4.10112,0.45849-5.60394,1.32449c-1.37564,0.81516-2.1398,1.85963-2.1398,2.95496
						c0,0.07634,0,0.12733,0.0255,0.20367c0.17833-0.94249,0.91699-1.83398,2.1143-2.5473
						c1.50282-0.866,3.48979-1.32449,5.60394-1.32449c2.1143,0,4.12661,0.4585,5.60409,1.32449
						c1.24815,0.71332,1.98697,1.63031,2.1653,2.5728c0.02534-0.07634,0.02534-0.12733,0.02534-0.20367
						C23.1065,74.44938,22.34234,73.37955,20.91586,72.5644z" class="colord89b39 svgShape"/><path fill="#a1a1a1" d="M20.91586,73.17573c-1.47748-0.866-3.48979-1.32449-5.60409-1.32449
						c-2.11415,0-4.10112,0.4585-5.60394,1.32449c-1.19731,0.71332-1.93597,1.60481-2.1143,2.5473v0.20383
						c0.17833,0.94249,0.91699,1.83414,2.16514,2.54729c1.47748,0.86615,3.48979,1.35014,5.60409,1.35014
						c2.1398,0,4.12661-0.48399,5.60409-1.35014c1.19716-0.71316,1.93597-1.57931,2.1143-2.5218v-0.20383
						C22.90283,74.80604,22.16401,73.88905,20.91586,73.17573z" class="colorf9bb4a svgShape"/><path fill="#888" d="M23.26178 76.94556v2.66773c-.09377.17428-.20104.34856-.33514.50942v-2.65431C23.06075 77.29412 23.16802 77.11984 23.26178 76.94556zM21.97488 78.40675v2.66781c-.10727.09385-.21454.17429-.33514.24129v-2.66773C21.76035 78.58102 21.86761 78.5006 21.97488 78.40675zM20.67448 79.21114v2.66773c-.10719.0536-.21445.10727-.33514.16087v-2.68115C20.46003 79.30499 20.5673 79.26473 20.67448 79.21114zM19.38758 79.72057v2.68114c-.10727.02676-.21454.06702-.33514.09386v-2.68115C19.17304 79.78757 19.28031 79.76073 19.38758 79.72057zM18.08718 80.05571v2.68114c-.10719.02676-.22787.04018-.33514.06702v-2.68115C17.85931 80.09588 17.97999 80.08246 18.08718 80.05571zM16.80028 80.24341v2.68115c-.10727.01334-.22796.02676-.33514.02676v-2.68115C16.57232 80.27016 16.69301 80.25674 16.80028 80.24341zM15.49988 80.32384v2.68115h-.33514v-2.69457C15.27201 80.32384 15.39261 80.32384 15.49988 80.32384zM14.2129 80.27016v2.68115c-.10719 0-.22788-.01342-.33514-.02676v-2.68115C13.98502 80.25674 14.09229 80.27016 14.2129 80.27016zM12.91258 80.1093v2.68115c-.10727-.01342-.22787-.04018-.33514-.06701v-2.68115C12.6847 80.06912 12.79189 80.09588 12.91258 80.1093zM11.6256 79.80099v2.68115c-.12061-.02684-.22787-.05368-.33514-.09385v-2.68115C11.39772 79.74731 11.51841 79.77415 11.6256 79.80099zM10.32528 79.33174v2.68115c-.12069-.04018-.22787-.09377-.33514-.14745V79.1843C10.0974 79.23798 10.20459 79.29156 10.32528 79.33174zM9.03829 78.6347v2.68115c-.12061-.08043-.22787-.16086-.33514-.25471v-2.68114C8.81042 78.47384 8.91769 78.55427 9.03829 78.6347zM7.75139 77.42815v2.69457c-.13411-.16087-.25471-.33514-.33514-.52284V76.9053C7.51002 77.07958 7.61729 77.25387 7.75139 77.42815z" class="colord89b39 svgShape"/><path fill="#bcbcbc" d="M18.67393,77.40854l-0.40224-0.23223l-0.39419,0.22908l0.40224,0.23223l-0.78842,0.45818
						l-0.40224-0.23223l-1.18802,0.6904l-0.79357-0.45817l1.18802-0.6904l-1.5926-0.91949l-0.79902-0.46132l-1.58716-0.91634
						l-1.18802,0.6904l-0.79902-0.46131l1.18802-0.69041l-0.39679-0.22909l0.78841-0.45818l0.39679,0.22909l0.39419-0.22908
						l-0.39679-0.22909l0.79383-0.46132l0.39679,0.22908c0.87482-0.50838,2.29434-0.50842,3.1749-0.00003
						c0.44027,0.25419,0.65885,0.58683,0.66069,0.91951l-0.01035,0.08787c0.61755-0.02513,1.25751,0.09412,1.73583,0.37028
						c0.44028,0.2542,0.65887,0.58684,0.66615,0.92265c-0.00352,0.32948-0.22378,0.66528-0.65584,0.91636l0.40224,0.23223
						L18.67393,77.40854z M17.08393,76.94722l1.18802-0.69041c0.43206-0.25109,0.42973-0.66533-0.01055-0.91953
						c-0.43483-0.25105-1.14998-0.25105-1.58205,0.00004l-1.18802,0.69041L17.08393,76.94722 M14.69231,75.56641l1.18802-0.6904
						c0.43207-0.25109,0.43517-0.6622-0.0051-0.91638c-0.44028-0.2542-1.15-0.25106-1.58206,0.00003l-1.18802,0.69041
						L14.69231,75.56641" class="colorfed57a svgShape"/></g></svg>