<svg xmlns="http://www.w3.org/2000/svg" viewBox="0 0 52 52"><path fill="#1d4243" d="M49.995 26.435v.13l-.01 4.31c0 .35-.22.69-.68.96l-26.85 15.68c-.91.53-2.4.53-3.32 0l-16.44-9.49c-.47-.27-.69-.63-.69-.97v-4.45c0-.34.23-.69.69-.95l26.84-15.69c.92-.53 2.4-.53 3.33 0l16.44 9.5c.47.271.69.624.686.985 0-.005.004-.01.004-.015z" class="color1d2943 svgShape"/><path fill="#007377" d="M2 37.055c0 .344.227.697.697.971l16.436 9.49c.924.532 2.413.532 3.322 0l26.852-15.68c.455-.267.682-.611.682-.956l.008-4.446c0 .344-.227.689-.682.955L22.47 43.07c-.916.533-2.405.533-3.321 0l-16.444-9.49c-.462-.273-.697-.626-.697-.97L2 37.054z" class="color4c5c75 svgShape"/><path fill="#1d4243" d="M49.305 25.462c.92.532.93 1.39.01 1.924L22.469 43.069c-.915.532-2.4.532-3.32 0L2.705 33.577c-.925-.534-.93-1.395-.016-1.926l26.848-15.684c.92-.534 2.4-.531 3.326.003l16.44 9.492z" class="color1d2943 svgShape"/><path fill="#fff" d="M47.515 26.306c.305.176.307.464.003.64l-24.914 14.56c-.303.177-.802.177-1.107 0L5.056 32.016c-.31-.18-.312-.468-.009-.644l24.915-14.56c.303-.177.802-.177 1.112.002l16.44 9.493z" class="colorffffff svgShape"/><path fill="#007377" d="M12.944 37.227c.4.23.407.603.004.837-.392.228-1.045.231-1.446 0-.395-.228-.392-.606 0-.835.403-.233 1.046-.23 1.442-.002zm28.92-15.345c.125.072.126.194.002.266a.513.513 0 0 1-.459 0l-2.89-1.67c-.126-.072-.122-.19.003-.262s.328-.075.453-.003l2.891 1.67z" class="color4c5c75 svgShape"/><path fill="#e3f0f0" d="M44.6 31.534c.465-.27.847-.056.848.483.002.535-.377 1.187-.843 1.455-.465.27-.846.056-.848-.479-.001-.539.378-1.19.843-1.46zm2.782-1.615c.466-.269.847-.056.849.483.001.535-.378 1.187-.843 1.456s-.847.055-.848-.48c-.002-.539.377-1.19.842-1.46z" class="colore3e7f0 svgShape"/><path fill="#1d4243" d="M18.408 44.218c-.36-.208-.651-.048-.652.357-.001.413.289.916.648 1.123.36.207.645.037.646-.375.001-.406-.283-.898-.642-1.105zm-2.322-1.341c-.36-.207-.651-.048-.652.358-.002.412.288.915.648 1.122.359.207.645.038.646-.375.001-.406-.283-.898-.642-1.105zm-2.322-1.34c-.36-.208-.652-.049-.653.357 0 .412.29.915.648 1.122.36.208.645.038.647-.375 0-.406-.283-.897-.642-1.105zM8.213 38.324c-.359-.207-.65-.048-.652.358-.001.413.289.915.648 1.123.36.207.645.037.646-.376.001-.405-.283-.897-.642-1.105zm-2.322-1.34c-.36-.208-.651-.048-.652.357-.001.413.289.915.648 1.123.359.207.645.037.646-.376.001-.405-.283-.897-.642-1.104zm-2.322-1.341c-.36-.207-.651-.048-.653.357 0 .413.29.916.649 1.123.359.207.645.037.646-.375 0-.406-.283-.898-.642-1.105z" class="color1d2943 svgShape"/><path fill="#113233" d="m11.667 40.18.691.399-.434 1.647-1.891-1.092z" class="color111d33 svgShape"/><path fill="#1d4243" d="m10.032 41.133-.424-2.142 2.059 1.189-1.634.954z" class="color1d2943 svgShape"/><path fill="#9b9b9b" d="m32.565 20.005-22.42 12.94-1.66-.97-.02-8.46 4.17 1.32 3.93-6 4.88.95 2.5-8.13 3.33-.3 3.59-7.27 1.65.96z" class="colorf9a83d svgShape"/><path fill="#8e8e8e" d="m28.936 12.317-1.657-.963 3.582-7.268 1.657.963zM23.102 20.75l-1.657-.963 2.496-8.13 1.657.963z" class="colorfebc1f svgShape"/><path fill="#9b9b9b" d="m25.598 12.62-1.657-.963 3.338-.303 1.657.963zM18.222 19.798l-1.657-.963 4.88.952 1.657.963z" class="colorf9a83d svgShape"/><path fill="#8e8e8e" d="m14.293 25.794-1.657-.963 3.929-5.996 1.657.963z" class="colorfebc1f svgShape"/><path fill="#9b9b9b" d="m10.122 24.474-1.657-.963 4.171 1.32 1.657.963z" class="colorf9a83d svgShape"/><path fill="#8e8e8e" d="m10.146 32.942-1.657-.963-.024-8.468 1.657.963z" class="colorfebc1f svgShape"/><path fill="#c6c6c6" d="m32.518 5.049.042 14.952-22.414 12.941-.024-8.468 4.171 1.32 3.929-5.996 4.88.952 2.496-8.13 3.338-.303z" class="colorffd06c svgShape"/><path fill="#e7fbfc" d="m36.875 22.505-22.41 12.94-1.66-.96-.02-8.47 4.17 1.32 3.93-5.99 4.88.95 2.49-8.13 3.34-.3 3.58-7.27 1.66.96z" class="colore9e7fc svgShape"/><path fill="#e7fbfc" d="m33.252 14.825-1.657-.963 3.582-7.268 1.657.963zM27.418 23.258l-1.657-.963 2.496-8.13 1.656.963z" class="colore9e7fc svgShape"/><path fill="#defafb" d="m29.913 15.128-1.656-.963 3.338-.303 1.657.963zM22.538 22.306l-1.657-.963 4.88.952 1.657.963z" class="colordedffb svgShape"/><path fill="#e7fbfc" d="m18.609 28.302-1.657-.963 3.929-5.996 1.657.963z" class="colore9e7fc svgShape"/><path fill="#defafb" d="m14.438 26.982-1.657-.962 4.171 1.319 1.657.963z" class="colordedffb svgShape"/><path fill="#e7fbfc" d="m14.462 35.45-1.657-.963-.024-8.467 1.657.962z" class="colore9e7fc svgShape"/><path fill="#f1fcfc" d="m36.834 7.557.042 14.952L14.462 35.45l-.024-8.468 4.171 1.32 3.929-5.996 4.88.952 2.495-8.13 3.339-.303z" class="colorf3f1fc svgShape"/><path fill="#888" d="m44.105 9.865-.04 17.94-3.36 1.95-3.36-1.94.04-17.94 3.35-1.95z" class="colordf3260 svgShape"/><path fill="#8f8f8f" d="m44.101 9.867-.037 17.941-3.357 1.951.037-17.941z" class="colore93565 svgShape"/><path fill="#888" d="m40.744 11.818-.037 17.941-3.363-1.942.037-17.941z" class="colordf3260 svgShape"/><path fill="#a2a2a2" d="m44.101 9.867-3.357 1.951-3.363-1.942 3.357-1.951z" class="colorf45170 svgShape"/><path fill="#5ec0c3" d="m38.075 16.795-.04 14.51-3.36 1.95-3.36-1.94.04-14.51 3.36-1.95z" class="color5ec363 svgShape"/><path fill="#9b9b9b" d="m38.073 16.798-.037 14.507-3.356 1.95.036-14.506z" class="color72d561 svgShape"/><path fill="#5ec0c3" d="m31.353 16.807 3.363 1.942-.036 14.506-3.363-1.941z" class="color5ec363 svgShape"/><path fill="#a0a0a0" d="m31.353 16.807 3.357-1.95 3.363 1.941-3.357 1.951-3.363-1.942z" class="color78e75a svgShape"/><path fill="#49f8fe" d="m32.085 24.675-.03 10.11-3.36 1.95-3.36-1.94.03-10.12 3.36-1.95z" class="color497bfe svgShape"/><path fill="#49f8fe" d="m32.089 24.671-.037 10.111-3.357 1.951.037-10.111z" class="color497bfe svgShape"/><path fill="#a7a7a7" d="m28.732 26.622-.037 10.111-3.363-1.942.037-10.111z" class="color5094ff svgShape"/><path fill="#aaa" d="m32.089 24.671-3.357 1.951-3.363-1.942 3.357-1.951z" class="color57b3fe svgShape"/><path fill="gray" d="m26.105 31.515-.04 6.74-3.35 1.96-3.37-1.95.04-6.74 3.36-1.95z" class="coloraa6256 svgShape"/><path fill="#8c8c8c" d="m26.104 31.518-.036 6.742-3.357 1.951.037-6.742z" class="colorbf7d5a svgShape"/><path fill="gray" d="m22.748 33.469-.037 6.742-3.363-1.942.036-6.742z" class="coloraa6256 svgShape"/><path fill="#9d9d9d" d="m26.104 31.518-3.356 1.951-3.364-1.942 3.357-1.95z" class="colordba660 svgShape"/></svg>