<svg xmlns="http://www.w3.org/2000/svg" viewBox="0 0 52 52"><path fill="#888" d="m25.975 48.227-3.08 1.77-9.73-5.66-.01-1.92.6-.35 1.95-1.13.52-.3 9.74 5.66z" class="colordf3260 svgShape"/><path fill="#a2a2a2" d="M25.967 46.299 16.23 40.64l-.521.301 9.737 5.659z" class="colorf45170 svgShape"/><path fill="#a2a2a2" d="m25.446 46.6-9.737-5.659-1.958 1.13 9.738 5.659z" class="colorf45170 svgShape"/><path fill="#8f8f8f" d="m22.892 48.074-9.737-5.659.005 1.926L22.898 50z" class="colore93565 svgShape"/><path fill="#a2a2a2" d="m23.489 47.73-9.738-5.659-.596.344 9.737 5.659z" class="colorf45170 svgShape"/><path fill="#888" d="M22.892 48.074 22.898 50l3.075-1.775-.006-1.926-.521.301-1.957 1.13zM41.145 39.467l-3.08 1.78-9.74-5.66v-1.93l.54-.31 1.96-1.13.57-.33 9.74 5.65z" class="colordf3260 svgShape"/><path fill="#a2a2a2" d="m41.135 37.542-9.737-5.659-.576.332 9.738 5.659z" class="colorf45170 svgShape"/><path fill="#a2a2a2" d="m40.56 37.874-9.738-5.659-1.957 1.13 9.737 5.659z" class="colorf45170 svgShape"/><path fill="#8f8f8f" d="m38.06 39.317-9.737-5.659.005 1.926 9.738 5.659z" class="colore93565 svgShape"/><path fill="#a2a2a2" d="m38.602 39.004-9.737-5.659-.542.313 9.737 5.659z" class="colorf45170 svgShape"/><path fill="#888" d="m38.06 39.317.006 1.926 3.075-1.776-.006-1.925-.575.332-1.958 1.13z" class="colordf3260 svgShape"/><path fill="#1d4243" d="M40.555 36.457v1.42l-1.95 1.13-2.57-1.5-9.24 5.34c-.75.43-1.36 1.48-1.35 2.34v1.41l-1.96 1.13v.01l-9.73-5.67-.01-1.41c-.01-2.1 1.48-4.67 3.31-5.72l10.44-6.03c.92-.53 1.75-.58 2.35-.23l9.75 5.66c.59.35.95 1.08.96 2.12z" class="color1d2943 svgShape"/><path fill="#007377" d="M28.463 31.065c.247.145.4.442.4.863v1.414l9.74 5.665-.006-1.414c0-.428-.153-.726-.392-.87l-9.742-5.658z" class="color4c5c75 svgShape"/><path fill="#007377" d="m13.746 40.654.007 1.414 9.734 5.665V46.32c-.007-2.104 1.473-4.671 3.3-5.723l10.446-6.028c.914-.537 1.748-.58 2.357-.232l-9.741-5.658c-.602-.348-1.436-.305-2.358.225l-10.438 6.035c-1.827 1.052-3.314 3.62-3.307 5.716z" class="color4c5c75 svgShape"/><path fill="#1d4243" d="M26.788 40.594c-1.827 1.055-3.31 3.622-3.303 5.722l.004 1.414 1.957-1.13-.004-1.415c-.002-.854.605-1.905 1.353-2.337l10.442-6.03c.748-.43 1.359-.083 1.361.772l.004 1.414 1.958-1.13-.004-1.414c-.006-2.1-1.498-2.95-3.325-1.895l-10.443 6.029z" class="color1d2943 svgShape"/><path fill="#d5d5d5" d="M19.565 37.357c0-.13.01-.26.02-.4-.02.14-.03.27-.03.4l-.85-.49c-.02-2.123 1.911-3.423 2.1-3.66.84-.79 1.42-2.03 1.42-3.04l-.02-7.55c0-1.341.967-2.82 1.94-3.36.53-.31 1.03-.34 1.38-.13l.77.45.05.03c.01 0 .03.01.04.02.35.21.56.64.56 1.24l.02 7.55c0 .38.08.69.23.93.11 0 .23-.01.35-.04.428-.06.992-.348 1.52-.05l.78.46c.01.01.03.01.04.02.38.21.62.67.62 1.31l-10.94 6.31z" class="colorc9cee2 svgShape"/><path fill="#d5d5d5" d="m26.7 29.208.858.505c.222.132.515.172.848.091l.667-.151c.323-.07.616-.03.848.1l-.858-.494c-.537-.304-1.09-.01-1.515.05-.334.081-.616.04-.849-.1z" class="colorc9cee2 svgShape"/><path fill="#e3f0f0" d="M24.993 19.757c-1.1.635-1.938 2.17-1.935 3.351l.018 7.555c.002 1.015-.575 2.254-1.426 3.042-.178.225-2.095 1.536-2.089 3.656l10.944-6.319c-.003-1.015-.586-1.577-1.431-1.385l-.672.15c-.852.195-1.435-.374-1.438-1.39l-.017-7.554c-.003-1.23-.877-1.728-1.954-1.106z" class="colore3e7f0 svgShape"/><path fill="#d5d5d5" d="m18.71 36.865.848.495c0-2.121 1.9-3.416 2.09-3.657.85-.788 1.435-2.02 1.425-3.04l-.01-7.556c-.018-1.109.776-2.666 1.93-3.353.545-.313 1.03-.344 1.393-.131l-.858-.495c-.354-.213-.849-.182-1.384.13-.987.56-1.94 2.036-1.94 3.354l.02 7.556c0 1.01-.575 2.252-1.424 3.04-.158.2-2.112 1.545-2.09 3.657z" class="colorc9cee2 svgShape"/><path fill="#49f8fe" d="M9.835 34.267v1.49l-3.31-1.92v-1.5z" class="color497bfe svgShape"/><path fill="#49f8fe" d="M9.835 35.757v-1.49l-3.31-1.93 35.62-20.57 3.31 1.93.01 1.5z" class="color497bfe svgShape"/><path fill="#a7a7a7" d="m6.523 32.338.004 1.499 3.312 1.925-.004-1.5z" class="color5094ff svgShape"/><path fill="#49f8fe" d="m9.835 34.262.004 1.5 35.624-20.568-.004-1.499z" class="color497bfe svgShape"/><path fill="#aaa" d="m6.523 32.338 3.312 1.924 35.624-20.567-3.312-1.925z" class="color57b3fe svgShape"/><path fill="#d5d5d5" d="M23.685 39.757c0-.14.01-.27.03-.42-.03.14-.04.28-.04.42l-.84-.5c-.021-2.153 1.913-3.428 2.09-3.65.85-.79 1.42-2.03 1.42-3.04l-.02-7.56c0-1.346.984-2.809 1.94-3.35.54-.32 1.03-.35 1.38-.13l.76.43.09.05c0 .01.01.01.01.01.35.21.56.64.56 1.24l.02 7.56c0 .38.08.7.23.93.11 0 .23-.01.35-.04l.67-.15c.744-.158.967.235 1.71.59-.02-.01-.03-.02-.05-.02.4.2.63.67.63 1.31l-10.94 6.32z" class="colorc9cee2 svgShape"/><path fill="#d5d5d5" d="m30.821 31.604.859.505c.222.131.515.171.848.09.404-.057.976-.355 1.515-.05-.73-.354-.964-.753-1.707-.596l-.667.152c-.333.08-.616.04-.848-.101z" class="colorc9cee2 svgShape"/><path fill="#e3f0f0" d="M29.115 22.152c-1.1.635-1.938 2.17-1.935 3.351l.017 7.555c.003 1.015-.575 2.255-1.425 3.043-.178.224-2.095 1.535-2.09 3.655l10.945-6.318c-.006-2.102-1.963-1.221-2.103-1.236-.852.195-1.435-.374-1.438-1.389l-.017-7.555c-.004-1.23-.877-1.728-1.954-1.106z" class="colore3e7f0 svgShape"/><path fill="#d5d5d5" d="m22.831 39.26.849.495c0-2.12 1.9-3.416 2.09-3.656.849-.788 1.435-2.02 1.425-3.04l-.01-7.556c-.019-1.11.776-2.666 1.929-3.354.545-.313 1.03-.343 1.394-.131l-.859-.495c-.353-.212-.848-.182-1.384.131-.986.559-1.939 2.035-1.939 3.354l.02 7.555c0 1.01-.576 2.253-1.424 3.04-.159.2-2.112 1.546-2.09 3.657z" class="colorc9cee2 svgShape"/><path fill="#1d4243" d="M30.665 24.087c0 .56-.4 1.24-.88 1.52-.27.16-.52.16-.68.03.01.02.03.03.05.04l-.49-.29c-.16-.09-.26-.28-.26-.56 0-.56.4-1.24.88-1.52.25-.14.47-.16.64-.06l.44.26c.18.08.3.28.3.58z" class="color1d2943 svgShape"/><path fill="#1d4243" d="M28.409 24.829c0 .276.1.468.26.56l.483.283c-.16-.092-.251-.284-.251-.56-.009-.56.393-1.238.878-1.522.242-.142.468-.16.627-.059l-.483-.283c-.168-.1-.385-.084-.636.059-.485.284-.878.961-.878 1.522z" class="color1d2943 svgShape"/><path fill="#007377" d="M29.776 23.59c-.486.28-.88.962-.878 1.52s.398.779.884.498c.486-.28.885-.96.883-1.518s-.403-.781-.889-.5z" class="color4c5c75 svgShape"/><path fill="#1d4243" d="M29.778 23.855c-.358.207-.649.71-.647 1.121 0 .411.293.573.65.367.359-.207.653-.707.652-1.119-.001-.411-.297-.575-.655-.369z" class="color1d2943 svgShape"/><path fill="#007377" d="m43.015 7.087.026 7.043c0 .209-.137.417-.41.574-.54.312-1.423.316-1.967 0-.262-.152-.392-.352-.392-.552l-.026-7.065h2.769z" class="color4c5c75 svgShape"/><path fill="#c6c6c6" d="M49.125 8.697c0 1.11-.74 2.23-2.22 3.09-2.93 1.69-7.67 1.69-10.58 0-1.45-.84-2.18-1.95-2.18-3.05l-.01-1.92c-.039-2.757 3.962-4.23 6.73-4.37.39-.024.782-.022 1.174-.01 2.567.078 6.187 1.127 6.936 3.49.09.27.14.55.14.83l.01 1.94z" class="colorb0b8cf svgShape"/><path fill="#d5d5d5" d="m34.139 6.783.005 1.954c.003 1.103.73 2.205 2.18 3.048 2.914 1.694 7.652 1.694 10.585 0 1.479-.853 2.217-1.973 2.214-3.09l-.005-1.954c.003 1.117-.736 2.237-2.215 3.09-2.932 1.694-7.67 1.694-10.585 0-1.45-.842-2.176-1.944-2.18-3.048z" class="colorc9cee2 svgShape"/><path fill="#f1fcfc" d="M36.348 3.698c-2.933 1.693-2.949 4.438-.03 6.134 2.914 1.693 7.653 1.693 10.585 0 2.938-1.696 2.954-4.441.04-6.134C44.024 2 39.286 2 36.348 3.698z" class="colorf3f1fc svgShape"/><path fill="#e3f0f0" d="m36.322 9.83.073.037c2.913 1.658 7.582 1.646 10.495-.036h.012c3.041-1.79 2.852-4.496.037-6.132a8.235 8.235 0 0 0-1.865-.78 8.385 8.385 0 0 0-.792-.207 12.299 12.299 0 0 0-5.73.11 8.274 8.274 0 0 0-.78.243c-.512.171-.987.378-1.426.634-2.994 1.738-2.88 4.524-.024 6.132z" class="colore3e7f0 svgShape"/><path fill="#d5d5d5" d="M34.536 6.774c0 .224.031.455.103.67.24.76.887 1.47 1.878 2.046 1.35.783 3.155 1.214 5.089 1.214 1.925 0 3.739-.431 5.097-1.222C47.725 8.9 48.38 8.18 48.62 7.405a2.28 2.28 0 0 0 .096-.655c0-1.007-.695-1.965-1.973-2.708-1.35-.783-3.164-1.215-5.09-1.215-1.933 0-3.746.432-5.104 1.215-1.295.75-2.005 1.717-2.013 2.732z" class="colorc9cee2 svgShape"/><path fill="#c6c6c6" d="M34.64 7.445c.239.759.886 1.47 1.877 2.045 1.35.783 3.155 1.214 5.089 1.214 1.925 0 3.739-.431 5.097-1.222C47.725 8.9 48.38 8.18 48.62 7.405c-.232-.767-.879-1.486-1.877-2.061-1.35-.791-3.164-1.223-5.09-1.223-1.933 0-3.746.432-5.104 1.223-1.023.591-1.686 1.318-1.91 2.1z" class="colorb0b8cf svgShape"/><path fill="#bababa" d="m36.077 5.301.005 1.589c.002.836.55 1.67 1.645 2.306 2.212 1.286 5.812 1.286 8.03.006 1.118-.646 1.675-1.491 1.673-2.336l-.004-1.589c.002.845-.555 1.691-1.674 2.337-2.217 1.28-5.817 1.28-8.03-.006-1.094-.636-1.642-1.47-1.645-2.307z" class="colorffd475 svgShape"/><path fill="#9b9b9b" d="M37.748 2.962c-2.217 1.28-2.229 3.366-.026 4.646 2.213 1.286 5.813 1.286 8.03.006 2.227-1.286 2.23-3.366.017-4.652-2.203-1.28-5.793-1.286-8.02 0z" class="colorf9a83d svgShape"/><path fill="#bababa" d="M41.74 7.973c1.412 0 2.73-.312 3.712-.88.885-.51 1.372-1.152 1.373-1.808.001-.654-.481-1.294-1.358-1.804-.977-.568-2.293-.88-3.704-.88-1.41 0-2.73.313-3.715.881-.883.51-1.37 1.153-1.37 1.812-.002.653.477 1.29 1.346 1.795.98.57 2.3.884 3.716.884z" class="colorffd475 svgShape"/><path fill="#9b9b9b" d="m41.968 6.324-1.174-.682-.926-.538-.445.257-.342-.198.767-.443-.642-.373.38-.219.641.374.272-.158-.642-.373.384-.221.642.373.374-.216c.353-.204.926-.206 1.272-.005.35.203.348.538-.005.741.442-.25 1.14-.247 1.57.003.438.255.436.661-.001.914l-.37.213.562.327-.383.222-.563-.327-.272.157.563.327-.38.218-.562-.326-.785.453-.305-.286.37-.214zm.62-.301.704-.407c.237-.136.238-.358.003-.494a.95.95 0 0 0-.858-.003l-.704.407.855.497m-1.622-1.588-.527.303.807.469.526-.304c.227-.131.228-.342.007-.471a.897.897 0 0 0-.813.003" class="colorf9a83d svgShape"/><path fill="#fff" d="M41.688 2v6.572c1.11.008 2.213-.172 3.173-.54V2.533c-.96-.36-2.07-.54-3.173-.533zm-3.046.54v5.492c.66.255 1.388.42 2.138.488V2.053a8.55 8.55 0 0 0-2.138.488z" class="colorffffff svgShape" opacity=".4"/><path fill="#007377" d="m11.754 25.026.026 7.043c0 .208-.137.417-.41.574-.54.312-1.423.316-1.967 0-.262-.153-.392-.352-.392-.552l-.026-7.065h2.769z" class="color4c5c75 svgShape"/><path fill="#c6c6c6" d="M17.865 26.637c0 1.11-.74 2.23-2.22 3.09-2.93 1.69-7.67 1.69-10.58 0-1.45-.85-2.18-1.95-2.18-3.05l-.01-1.96c0-2.659 3.812-4.182 6.73-4.33.39-.024.781-.022 1.172-.01 3.004.09 7.078 1.507 7.078 4.37l.01 1.89z" class="colorb0b8cf svgShape"/><path fill="#d5d5d5" d="m2.877 24.722.006 1.954c.003 1.103.729 2.205 2.18 3.048 2.914 1.694 7.652 1.694 10.585 0 1.479-.854 2.217-1.973 2.214-3.09l-.005-1.954c.003 1.117-.736 2.237-2.215 3.09-2.933 1.694-7.671 1.694-10.585 0-1.45-.843-2.176-1.945-2.18-3.048z" class="colorc9cee2 svgShape"/><path fill="#f1fcfc" d="M5.087 21.636c-2.933 1.694-2.949 4.438-.03 6.135 2.914 1.693 7.652 1.693 10.585 0 2.938-1.697 2.954-4.441.04-6.135-2.919-1.696-7.657-1.696-10.595 0z" class="colorf3f1fc svgShape"/><path fill="#e3f0f0" d="m5.06 27.77.074.036c2.913 1.658 7.582 1.645 10.495-.037h.012c3.04-1.79 2.851-4.495.037-6.131a8.235 8.235 0 0 0-1.865-.78 8.385 8.385 0 0 0-.793-.207 12.299 12.299 0 0 0-5.729.11 8.273 8.273 0 0 0-.78.243c-.512.17-.987.378-1.426.634-2.994 1.738-2.88 4.524-.024 6.131z" class="colore3e7f0 svgShape"/><path fill="#d5d5d5" d="M3.274 24.713c0 .223.032.455.104.67.24.76.887 1.47 1.878 2.046 1.35.783 3.155 1.214 5.089 1.214 1.925 0 3.738-.431 5.097-1.222 1.022-.583 1.677-1.302 1.917-2.077a2.28 2.28 0 0 0 .096-.655c0-1.007-.695-1.966-1.974-2.709-1.35-.783-3.163-1.214-5.088-1.214-1.934 0-3.747.431-5.105 1.214-1.295.751-2.006 1.718-2.014 2.733z" class="colorc9cee2 svgShape"/><path fill="#c6c6c6" d="M3.378 25.384c.24.759.887 1.47 1.878 2.045 1.35.783 3.155 1.214 5.089 1.214 1.925 0 3.738-.431 5.097-1.222 1.022-.583 1.677-1.302 1.917-2.077-.232-.767-.879-1.486-1.878-2.061-1.35-.791-3.163-1.223-5.088-1.223-1.934 0-3.747.432-5.105 1.223-1.023.59-1.686 1.318-1.91 2.1z" class="colorb0b8cf svgShape"/><path fill="#bababa" d="m4.816 23.24.005 1.589c.002.836.55 1.67 1.645 2.306 2.212 1.286 5.812 1.286 8.03.006 1.118-.646 1.675-1.492 1.673-2.337l-.005-1.588c.003.845-.555 1.69-1.673 2.336-2.217 1.28-5.817 1.28-8.03-.005-1.094-.636-1.642-1.47-1.645-2.307z" class="colorffd475 svgShape"/><path fill="#9b9b9b" d="M6.487 20.901c-2.217 1.28-2.23 3.365-.026 4.646 2.213 1.286 5.813 1.286 8.03.005 2.227-1.285 2.23-3.365.017-4.65-2.203-1.281-5.794-1.287-8.02 0z" class="colorf9a83d svgShape"/><path fill="#bababa" d="M10.48 25.912c1.41 0 2.73-.312 3.711-.88.885-.51 1.372-1.153 1.373-1.809.001-.653-.481-1.293-1.358-1.803-.977-.568-2.293-.88-3.704-.88-1.41 0-2.73.312-3.715.88-.883.51-1.37 1.154-1.37 1.813-.002.652.477 1.29 1.346 1.795.98.57 2.3.884 3.716.884z" class="colorffd475 svgShape"/><path fill="#9b9b9b" d="M12.915 23.736a.554.554 0 0 0 .07-.46c-.052-.147-.174-.277-.356-.381a1.635 1.635 0 0 0-.736-.234 2.989 2.989 0 0 0-.737.06 7.714 7.714 0 0 0-.71.217l-1.024-.59c.234-.12.486-.216.746-.285l.121-.043c.087-.052.121-.113.113-.174-.009-.06-.044-.112-.113-.156a.635.635 0 0 0-.46-.043c-.32.087-.65.208-.961.373l-.269-.156a.491.491 0 0 0-.234-.052.456.456 0 0 0-.225.052c-.061.034-.096.086-.096.13 0 .052.035.095.104.138l.27.156c-.192.139-.322.278-.382.425a.55.55 0 0 0-.026.45c.069.148.2.27.372.373.217.122.442.191.702.208.234.018.486 0 .72-.06.2-.035.442-.104.693-.191l.988.572c-.277.13-.58.243-.91.312a.58.58 0 0 0-.147.06c-.078.044-.13.105-.122.165 0 .061.044.113.122.156.06.035.13.061.216.07l.234-.018a5.733 5.733 0 0 0 1.18-.407l.268.156c.07.035.156.06.234.06a.573.573 0 0 0 .225-.06c.06-.035.096-.087.096-.13 0-.052-.035-.095-.096-.13l-.277-.165c.19-.121.33-.26.407-.398zm-3.96-.564c-.122-.078-.183-.156-.157-.26.018-.095.087-.19.2-.286l.884.512c-.2.06-.382.095-.52.112a.69.69 0 0 1-.408-.078zm2.972.633-.858-.503c.217-.069.416-.121.564-.138.156-.026.268-.01.364.052.182.104.364.277-.07.589z" class="colorf9a83d svgShape"/><path fill="#fff" d="M10.427 19.94v6.57c1.11.008 2.213-.172 3.173-.54v-5.498c-.96-.36-2.07-.54-3.173-.533zM7.38 20.48v5.49c.66.256 1.389.42 2.139.488v-6.466a8.55 8.55 0 0 0-2.138.487z" class="colorffffff svgShape" opacity=".4"/></svg>