<svg xmlns="http://www.w3.org/2000/svg" viewBox="0 0 52 52"><path fill="#1d4243" d="M20.335 15.41c.01 3.64-2.56 8.08-5.72 9.9-1.62.94-3.09 1.01-4.13.38l-.01-.01-6.79-3.86c-1.04-.6-1.67-1.87-1.68-3.68 0-3.63 2.55-8.07 5.71-9.9 1.6-.92 3.04-1 4.09-.4l6.63 3.78c.08.04.15.08.22.12 1.03.6 1.67 1.87 1.68 3.67z" class="color1d2943 svgShape"/><path fill="#1d4243" d="M18.655 11.738c-1.045-.604-2.488-.528-4.072.398-3.177 1.83-5.73 6.257-5.719 9.898 0 1.81.636 3.08 1.67 3.683L3.68 21.82c-1.034-.603-1.67-1.874-1.68-3.683 0-3.63 2.553-8.067 5.719-9.898 1.594-.916 3.037-1.002 4.082-.399l6.854 3.899z" class="color1d2943 svgShape"/><ellipse cx="14.597" cy="18.722" fill="#007377" class="color4c5c75 svgShape" rx="8.084" ry="4.683" transform="rotate(-59.837 14.597 18.722)"/><path fill="#1d4243" d="M12.04 25.6c-1.645 0-2.672-1.368-2.677-3.568-.011-3.474 2.44-7.72 5.465-9.466.813-.47 1.616-.718 2.32-.718 1.65 0 2.677 1.366 2.683 3.565.01 3.473-2.442 7.72-5.466 9.465-.817.472-1.621.722-2.326.722z" class="color1d2943 svgShape"/><path fill="#1d4243" d="M19.835 15.41c.01 3.472-2.441 7.725-5.474 9.467-.31.18-.63.33-.94.44-.07.04-.15.06-.23.09-.4.12-.791.19-1.151.19-1.311 0-2.222-.86-2.552-2.322a5.98 5.98 0 0 1-.13-1.24c-.01-3.473 2.442-7.726 5.474-9.467.36-.21.71-.37 1.06-.49.44-.15.861-.23 1.251-.23 1.351 0 2.282.91 2.582 2.44.02.061.03.131.04.201.05.29.07.59.07.92z" class="color1d2943 svgShape"/><path fill="#defafb" d="M13.015 24.6c.106.26.243.491.396.696a2.772 2.772 0 0 1-.396-.696zm.41.72c-.006-.007-.008-.017-.014-.024.07.09.134.187.214.264-.08-.07-.14-.15-.2-.24z" class="colordedffb svgShape"/><path fill="#defafb" d="M20.545 14.76a.65.65 0 0 0-.16-.09l-.66-.38-3.83-2.21c-.35.12-.7.28-1.06.49-3.04 1.74-5.49 5.99-5.48 9.46 0 .46.05.87.13 1.25l3.71 2.13.82.47c.01.01.02.01.02.01.84.51 2 .44 3.29-.3 2.53-1.45 4.57-4.99 4.56-7.9 0-1.44-.51-2.46-1.34-2.93zm-7.53 9.84c.106.26.243.491.396.696a2.772 2.772 0 0 1-.396-.696z" class="colordedffb svgShape"/><path fill="#defafb" d="M13.015 24.6c.106.26.243.491.396.696a2.772 2.772 0 0 1-.396-.696zm.41.72c-.006-.007-.008-.017-.014-.024.07.09.134.187.214.264-.08-.07-.14-.15-.2-.24z" class="colordedffb svgShape"/><path fill="#defafb" d="M20.546 14.76c-.24-.13-.5-.23-.78-.271-.711-.12-1.562.06-2.462.59-2.532 1.462-4.574 4.994-4.564 7.896 0 1 .24 1.791.68 2.342.17.25.391.45.651.6l-.88-.51-3.703-2.132a5.98 5.98 0 0 1-.13-1.24c-.01-3.473 2.442-7.726 5.474-9.467.36-.21.71-.37 1.06-.49l3.833 2.21.82.471z" class="colordedffb svgShape"/><ellipse cx="17.313" cy="20.336" fill="#f1fcfc" class="colorf3f1fc svgShape" rx="6.45" ry="3.736" transform="rotate(-59.837 17.313 20.336)"/><path fill="#defafb" d="M15.272 25.721c-1.268 0-2.03-1.026-2.035-2.745-.007-2.74 1.927-6.088 4.311-7.464.633-.366 1.256-.56 1.8-.56 1.273 0 2.035 1.026 2.04 2.744.008 2.74-1.926 6.088-4.31 7.464-.637.367-1.262.561-1.806.561z" class="colordedffb svgShape"/><path fill="#e4e4e4" d="M49.937 39.527c-.29.85-1.671.99-2.121.22.61.68.45 1.832-.2 2.462-.661.63-1.672.79-2.562.6-.891-.18-1.682-.66-2.432-1.17l-.01-.01c.42 1.29-.63 2.832-1.982 2.912-.61.04-1.21-.18-1.79-.4a2543.07 2543.07 0 0 1-9.288-3.493c-.34.49-.99.56-1.61.48-.627-.044-2.589-.543-4.364-1.43-3.192-1.552-5.914-4.124-7.575-7.276-.36-.69-.69-1.431-.77-2.202-.131-1.23.34-2.511-.021-3.692-.1-.31-.24-.59-.4-.86-.31-.521-.7-.992-1.021-1.492-.15-.23-.29-.47-.39-.73-.06-.14-.1-.29-.13-.45-.01-.08-.02-.16-.02-.251.09-2.702 1.981-5.884 4.293-7.235.63-.35 1.24-.55 1.771-.56h.03c.09 0 .18.01.27.02.01 0 .03 0 .04.01.78.06 1.531.36 2.262.65 2.252.9 4.513 1.811 6.555 3.122 3.402 2.192 6.024 5.434 9.376 7.716 2.792 1.911 6.055 3.132 8.577 5.374.66.59 1.31 1.35 1.28 2.241-.03.72-.8 1.381-1.44 1.271 1.09.54 2.081 1.271 2.912 2.152.51.55 1 1.3.76 2.021z" class="colorf4d6d4 svgShape"/><path fill="#c6c6c6" d="M47.843 39.713s-2.026-2.655-12.346-6.453l12.346 6.453zm-5.225 1.922s-1.945-3.132-10.714-6.36l10.714 6.36zm3.543-6.311s-1.428-1.87-8.699-4.547l8.699 4.547zm-16.627 5.328-.051-.01c.072-.81-.123-1.578-.42-2.274-.805-1.74-2.53-2.91-4.188-3.789-.348-.164-.717-.317-1.065-.512l-.113-.061-.03-.03c-.01-.011-.01-.021-.02-.032-.103.072-.206.113-.298.164-.28.14-.885.267-1.126.267-.195.01-.4.03-.676 0l-.03-.041c.562-.42 1.269-.605 1.965-.635a5.607 5.607 0 0 1-.676-1.3c-.174-.554-.235-1.27.154-1.752l.041.03c-.276.492-.164 1.107.061 1.609.226.522.543.983.902 1.402l1.105.482c1.833.865 3.628 2.186 4.312 4.085.256.768.358 1.608.153 2.397z" class="colorf5c9c6 svgShape"/><path fill="#f1fcfc" d="M27.937 41.133c-.602-.046-2.538-.529-4.363-1.434.052-.164.134-.307.205-.46.195-.415.396-.584.707-.728.665-.286 1.444-.163 2.13.072 1.158.401 1.28.86 1.32 1.505.021.349.042.697 0 1.045z" class="colorf3f1fc svgShape"/><path fill="#9b9b9b" d="m43.813 24.097-.007 2.47-1.264.39.007-2.469zM29.505 26.954c-1.78 1.034-2.67 2.389-2.674 3.747l.007-2.47c0-.101.005-.203.015-.304-.015.198 0 .396-.001.594l-.006 1.875.007-2.469c.127-1.254 1.013-2.486 2.659-3.442 3.574-2.077 9.427-2.081 13.031 0l-.007 2.469c-3.604-2.08-9.457-2.077-13.031 0z" class="colorf9a83d svgShape"/><path fill="#b5b5b5" d="m35.814 24.213-.007 2.469-.839.488.007-2.47zM40.206 24.924l-.007 2.469-.941-.543.007-2.47zM39.265 24.38l-.007 2.47-1.575.915.007-2.469z" class="colorffd06c svgShape"/><path fill="#b5b5b5" d="m37.69 25.296-.007 2.469-1.876-1.083.007-2.469z" class="colorffd06c svgShape"/><path fill="#9b9b9b" d="m36.077 25.337-.007 2.469-1.102-.636.007-2.47z" class="colorf9a83d svgShape"/><path fill="#b5b5b5" d="m39.47 25.434-.007 2.469-.051.015.007-2.469zM38.831 25.955l-.007 2.469-.2-.116.007-2.469zM30.038 27.793l-.007 2.47-1.205.439.007-2.469zM30.947 28.318l-.007 2.469-.909-.524.007-2.47z" class="colorffd06c svgShape"/><path fill="#9b9b9b" d="m30.741 29.334-.007 2.469-1.908-1.101.007-2.469z" class="colorf9a83d svgShape"/><path fill="#b5b5b5" d="m30.741 29.334-.007 2.469-1.377.801.007-2.47z" class="colorffd06c svgShape"/><path fill="#9b9b9b" d="m30.053 30.533-.007 2.469-.689-.398.007-2.47z" class="colorf9a83d svgShape"/><path fill="#b5b5b5" d="m26.83 30.7.008-2.469c-.004 1.155.635 2.312 1.917 3.273l-.007 2.47c-1.282-.962-1.92-2.118-1.917-3.273z" class="colorffd06c svgShape"/><path fill="#b5b5b5" d="m25.439 30.706.007-2.47c-.004 1.391.803 2.784 2.419 3.92l-.007 2.469c-1.616-1.136-2.423-2.528-2.419-3.92z" class="colorffd06c svgShape"/><path fill="#9b9b9b" d="M43.516 23.919c.104.06.2.115.297.178l-1.264.391-3.079.946-.05.015.05-.015 3.073-.95c-3.604-2.08-9.457-2.076-13.031 0-3.292 1.914-3.545 4.928-.757 7.02l-.89.652c-3.432-2.412-3.214-5.982.667-8.237 4.125-2.397 10.833-2.397 14.984 0z" class="colorf9a83d svgShape"/><path fill="#b5b5b5" d="m39.47 25.434 3.073-.949-3.073.949-.007 2.469 3.073-.949.007-2.464z" class="colorffd06c svgShape"/><path fill="#8e8e8e" d="m42.549 24.488-.007 2.469-3.079.946.007-2.469z" class="colorfebc1f svgShape"/><path fill="#fff" d="m40.89 25.318-.007 2.469-.154.06.007-2.469z" class="colorffffff svgShape"/><path fill="#b5b5b5" d="m41.805 25.847-.007 2.469-.915-.529.007-2.469z" class="colorffd06c svgShape"/><path fill="#8e8e8e" d="M39.466 25.439v2.463l-.05.02-.051.041-.545.464.01-2.473.535-.465.051-.04z" class="colorfebc1f svgShape"/><path fill="#b5b5b5" d="m39.883 25.716.853-.338-1.159.673z" class="colorffd06c svgShape"/><path fill="#b5b5b5" d="m40.736 25.378-.007 2.469-1.159.674.007-2.47z" class="colorffd06c svgShape"/><path fill="#a1a1a1" d="m38.831 25.955-.007 2.469-.621.525.007-2.47z" class="colorf3a250 svgShape"/><path fill="#9b9b9b" d="m38.21 26.479-.007 2.47-.586-.339.007-2.469zM41.805 25.847l-.007 2.469-1.575.916.007-2.47zM39.21 27.056l-.007 2.47-.361-.209.007-2.469z" class="colorf9a83d svgShape"/><path fill="#b5b5b5" d="m41.145 27.291-.007 2.469-.915-.528.007-2.47zM36.077 25.337l-.007 2.469-5.13 2.981.007-2.469z" class="colorffd06c svgShape"/><path fill="#9b9b9b" d="m37.624 26.141-.007 2.469-1.973 1.146.007-2.469zM39.625 27.634l-.007 2.47c0-.21-.139-.419-.415-.578l.007-2.47c.276.16.416.369.415.578z" class="colorf9a83d svgShape"/><path fill="#b5b5b5" d="m35.651 27.287 1.973-1.146.586.338-1.585 1.37z" class="colorffd06c svgShape"/><path fill="#8e8e8e" d="m38.21 26.479-.007 2.47-1.585 1.369.007-2.469z" class="colorfebc1f svgShape"/><path fill="#b5b5b5" d="m36.625 27.849-.007 2.469-.974-.562.007-2.469z" class="colorffd06c svgShape"/><path fill="#a1a1a1" d="m36.625 27.849-.007 2.469-.378.324.007-2.469z" class="colorf3a250 svgShape"/><path fill="#b5b5b5" d="m41.798 28.204-.007 2.47c0-.33-.217-.662-.653-.914l.007-2.47c.436.253.654.584.653.914z" class="colorffd06c svgShape"/><path fill="#9b9b9b" d="M45.248 30.755c.004-1.327-.84-2.658-2.532-3.69l.007-2.469c1.693 1.032 2.536 2.362 2.532 3.69l-.007 2.47zM35.202 28.497l-.007 2.469-.89-.514.007-2.469z" class="colorf9a83d svgShape"/><path fill="#a1a1a1" d="m36.247 28.173-.007 2.469-1.045.324.007-2.469z" class="colorf3a250 svgShape"/><path fill="#b5b5b5" d="m39.625 27.634-.007 2.47c0 .204-.136.41-.409.568-.461.268-1.168.313-1.702.123l.007-2.47c.534.19 1.241.146 1.702-.122.273-.159.408-.364.409-.569z" class="colorffd06c svgShape"/><path fill="#b5b5b5" d="M39.21 27.056c.548.317.557.827.006 1.147-.461.268-1.168.312-1.702.123l1.335-1.478.36.208zM32.456 29.338l-.007 2.469-.238-.138.007-2.469z" class="colorffd06c svgShape"/><path fill="#9b9b9b" d="m34.312 27.983-.007 2.469-2.094 1.217.007-2.469z" class="colorf9a83d svgShape"/><path fill="#8e8e8e" d="m35.202 28.497-.007 2.469-2.746.841.007-2.469z" class="colorfebc1f svgShape"/><path fill="#b5b5b5" d="m32.218 29.2 2.094-1.217.89.514-2.746.841z" class="colorffd06c svgShape"/><path fill="#9b9b9b" d="m41.798 28.204-.007 2.47c-.001.323-.212.644-.63.887-.858.5-2.253.496-3.116-.003l.007-2.47c.863.5 2.258.503 3.116.004.418-.243.629-.564.63-.888zm-5.346 1.38-.007 2.469c0-.174-.09-.348-.277-.495l.007-2.47c.186.147.278.321.277.495z" class="colorf9a83d svgShape"/><path fill="#a1a1a1" d="m32.456 29.338-.007 2.469-1.193.365.007-2.469zM31.263 29.703l-.007 2.469-.134.041.007-2.469z" class="colorf3a250 svgShape"/><path fill="#a1a1a1" d="m31.129 29.744-.007 2.469-.154.112.007-2.47z" class="colorf3a250 svgShape"/><path fill="#b5b5b5" d="m33.933 30.19-.007 2.469-.226-.13.007-2.469z" class="colorffd06c svgShape"/><path fill="#b5b5b5" d="m38.841 30.206-.007 2.47c.001-.403-.261-.806-.79-1.118l.008-2.47c.528.313.79.716.79 1.118zm-5.134-.146 2.468-.971c.42.33.358.8-.154 1.098-.577.335-1.508.338-2.088.003l-.226-.13z" class="colorffd06c svgShape"/><path fill="#b5b5b5" d="m36.452 29.583-.007 2.47c0 .218-.146.437-.431.603-.577.335-1.508.338-2.088.003l.007-2.469c.58.335 1.511.332 2.088-.003.285-.166.43-.385.431-.604z" class="colorffd06c svgShape"/><path fill="#9b9b9b" d="m35.651 27.287.974.562-.378.324-1.045.324-.89-.514-2.094 1.217.238.138-1.193.365-.134.041-.154.111-.922.678-.689-.399 1.377-.8-1.908-1.101 1.205-.44.909.525 5.13-2.981-1.102-.637.839-.487 1.876 1.083 1.575-.916.941.544-1.575.915.2.116-.621.524-.586-.338z" class="colorf9a83d svgShape"/><path fill="#a1a1a1" d="m30.975 29.855-.007 2.47-.922.677.007-2.469z" class="colorf3a250 svgShape"/><path fill="#9b9b9b" d="m34.183 31.322-.007 2.469-.902-.521.007-2.469z" class="colorf9a83d svgShape"/><path fill="#9b9b9b" d="m38.841 30.206-.007 2.47c-.001.402-.267.804-.796 1.111-1.07.622-2.798.618-3.862.004l.007-2.47c1.064.615 2.792.619 3.862-.003.529-.307.795-.709.796-1.112z" class="colorf9a83d svgShape"/><path fill="#9b9b9b" d="M38.052 29.089c1.057.625 1.05 1.615-.007 2.229-1.07.622-2.798.618-3.862.004l-.902-.521-1.377.8-.368-.212.92-.834 1.251-.495.226.13c.58.335 1.511.332 2.088-.003.512-.298.574-.767.154-1.098l.834-.32.154-.068.07-.063.281-.312c.534.19 1.241.145 1.702-.123.551-.32.542-.83-.006-1.147l-.361-.208.728-.797 1.159-.673.154-.06.915.529-1.575.915.915.529c.864.499.869 1.31.023 1.801-.858.499-2.253.495-3.116-.003z" class="colorf9a83d svgShape"/><path fill="#9b9b9b" d="m32.457 30.555-.007 2.469-.921.834.007-2.469z" class="colorf9a83d svgShape"/><path fill="#8e8e8e" d="m30.053 30.533-.007 2.469-1.298.971.007-2.469z" class="colorfebc1f svgShape"/><path fill="#9b9b9b" d="m31.904 31.601-.007 2.469-.368-.212.007-2.469zM33.281 30.801l-.007 2.469-1.377.8.007-2.469z" class="colorf9a83d svgShape"/><path fill="#a1a1a1" d="m28.755 31.504-.007 2.469-.89.652.007-2.469z" class="colorf3a250 svgShape"/><path fill="#9b9b9b" d="m31.536 31.389-.007 2.469-1.163 1.064.007-2.469z" class="colorf9a83d svgShape"/><path fill="#b5b5b5" d="m45.255 28.286-.007 2.47c-.004 1.358-.894 2.714-2.67 3.746-3.317 1.928-8.592 2.073-12.212.42l.007-2.469c3.62 1.653 8.895 1.508 12.212-.42 1.776-1.032 2.666-2.388 2.67-3.747z" class="colorffd06c svgShape"/><path fill="#b5b5b5" d="M42.724 24.596c3.423 2.088 3.371 5.397-.139 7.437-3.317 1.928-8.592 2.073-12.212.42l1.163-1.064.368.212 1.377-.8.902.52c1.064.615 2.792.619 3.862-.003 1.057-.614 1.064-1.604.007-2.23.863.5 2.258.503 3.116.004.846-.491.84-1.302-.023-1.801l-.915-.529 1.575-.915-.915-.529 1.834-.722z" class="colorffd06c svgShape"/><path fill="#b5b5b5" d="m46.653 28.291-.007 2.47c-.004 1.56-1.031 3.119-3.081 4.31-3.798 2.207-9.773 2.386-13.94.536l.006-2.469c4.168 1.85 10.143 1.671 13.94-.536 2.05-1.191 3.078-2.75 3.082-4.31z" class="colorffd06c svgShape"/><path fill="#9b9b9b" d="M43.884 24.138c3.792 2.412 3.69 6.138-.312 8.464-3.798 2.207-9.773 2.386-13.94.536l.74-.685 1.164-1.064.92-.834-.92.834-1.163 1.064c3.62 1.653 8.895 1.508 12.212-.42 3.51-2.04 3.562-5.349.138-7.437l1.161-.458z" class="colorf9a83d svgShape"/><path fill="#b5b5b5" d="m42.546 24.49-3.08.949-.05.01-.05.04-.536.465-.202-.112 1.576-.918-.94-.546-1.575.92-1.878-1.081-.838.485 1.1.636-5.128 2.978-.91-.525-1.2.444 1.908 1.101-1.384.798.697.404-1.302.969c-2.787-2.09-2.535-5.11.757-7.018 3.574-2.08 9.43-2.09 13.035 0z" class="colorffd06c svgShape"/><path fill="#9b9b9b" d="m43.813 20.796-.007 2.469-1.264.391.007-2.469zM29.505 23.653c-1.78 1.033-2.67 2.389-2.674 3.746l.007-2.469c0-.101.005-.203.015-.304-.015.198 0 .396-.001.594l-.006 1.875.007-2.469c.127-1.254 1.013-2.486 2.659-3.443 3.574-2.077 9.427-2.08 13.031 0l-.007 2.47c-3.604-2.081-9.457-2.077-13.031 0z" class="colorf9a83d svgShape"/><path fill="#b5b5b5" d="m35.814 20.912-.007 2.469-.839.487.007-2.469zM40.206 21.622l-.007 2.47-.941-.544.007-2.469z" class="colorffd06c svgShape"/><path fill="#b5b5b5" d="m39.265 21.079-.007 2.469-1.575.916.007-2.469z" class="colorffd06c svgShape"/><path fill="#b5b5b5" d="m37.69 21.995-.007 2.469-1.876-1.083.007-2.469z" class="colorffd06c svgShape"/><path fill="#9b9b9b" d="m36.077 22.036-.007 2.469-1.102-.637.007-2.469z" class="colorf9a83d svgShape"/><path fill="#b5b5b5" d="m39.47 22.132-.007 2.47-.051.014.007-2.469zM38.831 22.653l-.007 2.47-.2-.116.007-2.469zM30.038 24.492l-.007 2.469-1.205.44.007-2.47z" class="colorffd06c svgShape"/><path fill="#b5b5b5" d="m30.947 25.017-.007 2.469-.909-.525.007-2.469z" class="colorffd06c svgShape"/><path fill="#9b9b9b" d="m30.741 26.033-.007 2.469-1.908-1.101.007-2.47z" class="colorf9a83d svgShape"/><path fill="#b5b5b5" d="m30.741 26.033-.007 2.469-1.377.8.007-2.469z" class="colorffd06c svgShape"/><path fill="#9b9b9b" d="m30.053 27.231-.007 2.47-.689-.399.007-2.469z" class="colorf9a83d svgShape"/><path fill="#b5b5b5" d="m26.83 27.4.008-2.47c-.004 1.155.635 2.311 1.917 3.273l-.007 2.47c-1.282-.962-1.92-2.119-1.917-3.274z" class="colorffd06c svgShape"/><path fill="#b5b5b5" d="m25.439 27.404.007-2.469c-.004 1.391.803 2.784 2.419 3.92l-.007 2.468c-1.616-1.135-2.423-2.528-2.419-3.919z" class="colorffd06c svgShape"/><path fill="#9b9b9b" d="M43.516 20.618c.104.06.2.115.297.178l-1.264.391-3.079.945-.05.015.05-.015 3.073-.949c-3.604-2.08-9.457-2.077-13.031 0-3.292 1.913-3.545 4.928-.757 7.02l-.89.651c-3.432-2.412-3.214-5.98.667-8.236 4.125-2.397 10.833-2.397 14.984 0z" class="colorf9a83d svgShape"/><path fill="#b5b5b5" d="m39.47 22.132 3.073-.949-3.073.949-.007 2.47 3.073-.95.007-2.463z" class="colorffd06c svgShape"/><path fill="#8e8e8e" d="m42.549 21.187-.007 2.469-3.079.946.007-2.47z" class="colorfebc1f svgShape"/><path fill="#fff" d="m40.89 22.017-.007 2.469-.154.06.007-2.469z" class="colorffffff svgShape"/><path fill="#b5b5b5" d="m41.805 22.545-.007 2.47-.915-.529.007-2.469z" class="colorffd06c svgShape"/><path fill="#8e8e8e" d="M39.466 22.137v2.464l-.05.02-.051.041-.545.464.01-2.474.535-.464.051-.041z" class="colorfebc1f svgShape"/><path fill="#b5b5b5" d="m39.883 22.415.853-.338-1.159.673z" class="colorffd06c svgShape"/><path fill="#b5b5b5" d="m40.736 22.077-.007 2.469-1.159.673.007-2.469z" class="colorffd06c svgShape"/><path fill="#a1a1a1" d="m38.831 22.653-.007 2.47-.621.524.007-2.469z" class="colorf3a250 svgShape"/><path fill="#9b9b9b" d="m38.21 23.178-.007 2.469-.586-.338.007-2.469zM41.805 22.545l-.007 2.47-1.575.915.007-2.469zM39.21 23.755l-.007 2.469-.361-.208.007-2.469z" class="colorf9a83d svgShape"/><path fill="#b5b5b5" d="m41.145 23.99-.007 2.469-.915-.529.007-2.469zM36.077 22.036l-.007 2.469-5.13 2.981.007-2.469z" class="colorffd06c svgShape"/><path fill="#9b9b9b" d="m37.624 22.84-.007 2.469-1.973 1.146.007-2.469zM39.625 24.333l-.007 2.469c0-.21-.139-.418-.415-.578l.007-2.469c.276.16.416.369.415.578z" class="colorf9a83d svgShape"/><path fill="#b5b5b5" d="m35.651 23.986 1.973-1.146.586.338-1.585 1.37z" class="colorffd06c svgShape"/><path fill="#8e8e8e" d="m38.21 23.178-.007 2.469-1.585 1.37.007-2.469z" class="colorfebc1f svgShape"/><path fill="#b5b5b5" d="m36.625 24.548-.007 2.469-.974-.562.007-2.469z" class="colorffd06c svgShape"/><path fill="#a1a1a1" d="m36.625 24.548-.007 2.469-.378.324.007-2.469z" class="colorf3a250 svgShape"/><path fill="#b5b5b5" d="m41.798 24.903-.007 2.47c0-.33-.217-.662-.653-.914l.007-2.47c.436.253.654.584.653.914z" class="colorffd06c svgShape"/><path fill="#9b9b9b" d="M45.248 27.454c.004-1.328-.84-2.658-2.532-3.69l.007-2.47c1.693 1.033 2.536 2.363 2.532 3.69l-.007 2.47zM35.202 25.196l-.007 2.469-.89-.514.007-2.469z" class="colorf9a83d svgShape"/><path fill="#a1a1a1" d="m36.247 24.872-.007 2.469-1.045.324.007-2.469z" class="colorf3a250 svgShape"/><path fill="#b5b5b5" d="m39.625 24.333-.007 2.469c0 .205-.136.41-.409.569-.461.268-1.168.312-1.702.123l.007-2.47c.534.19 1.241.145 1.702-.122.273-.159.408-.364.409-.57z" class="colorffd06c svgShape"/><path fill="#b5b5b5" d="M39.21 23.755c.548.316.557.826.006 1.147-.461.267-1.168.312-1.702.122l1.335-1.477.36.208zM32.456 26.037l-.007 2.469-.238-.138.007-2.469z" class="colorffd06c svgShape"/><path fill="#9b9b9b" d="m34.312 24.682-.007 2.469-2.094 1.217.007-2.469z" class="colorf9a83d svgShape"/><path fill="#8e8e8e" d="m35.202 25.196-.007 2.469-2.746.841.007-2.469z" class="colorfebc1f svgShape"/><path fill="#b5b5b5" d="m32.218 25.899 2.094-1.217.89.514-2.746.841z" class="colorffd06c svgShape"/><path fill="#9b9b9b" d="m41.798 24.903-.007 2.47c-.001.323-.212.644-.63.887-.858.499-2.253.495-3.116-.003l.007-2.47c.863.499 2.258.503 3.116.004.418-.243.629-.565.63-.888zm-5.346 1.38-.007 2.468c0-.174-.09-.348-.277-.494l.007-2.47c.186.147.278.321.277.495z" class="colorf9a83d svgShape"/><path fill="#a1a1a1" d="m32.456 26.037-.007 2.469-1.193.365.007-2.47zM31.263 26.401l-.007 2.47-.134.041.007-2.47z" class="colorf3a250 svgShape"/><path fill="#a1a1a1" d="m31.129 26.442-.007 2.47-.154.111.007-2.469z" class="colorf3a250 svgShape"/><path fill="#b5b5b5" d="m33.933 26.889-.007 2.469-.226-.13.007-2.469z" class="colorffd06c svgShape"/><path fill="#b5b5b5" d="m38.841 26.905-.007 2.469c.001-.402-.261-.805-.79-1.117l.008-2.47c.528.313.79.716.79 1.118zm-5.134-.146 2.468-.972c.42.332.358.8-.154 1.098-.577.335-1.508.339-2.088.004l-.226-.13z" class="colorffd06c svgShape"/><path fill="#b5b5b5" d="m36.452 26.282-.007 2.47c0 .218-.146.437-.431.602-.577.335-1.508.34-2.088.004l.007-2.469c.58.335 1.511.331 2.088-.004.285-.165.43-.384.431-.603z" class="colorffd06c svgShape"/><path fill="#9b9b9b" d="m35.651 23.986.974.562-.378.324-1.045.324-.89-.514-2.094 1.217.238.138-1.193.364-.134.041-.154.112-.922.677-.689-.398 1.377-.8-1.908-1.102 1.205-.439.909.525 5.13-2.981-1.102-.637.839-.487 1.876 1.083 1.575-.916.941.543-1.575.916.2.115-.621.525-.586-.338z" class="colorf9a83d svgShape"/><path fill="#a1a1a1" d="m30.975 26.554-.007 2.469-.922.678.007-2.47z" class="colorf3a250 svgShape"/><path fill="#9b9b9b" d="m34.183 28.021-.007 2.469-.902-.521.007-2.47z" class="colorf9a83d svgShape"/><path fill="#9b9b9b" d="m38.841 26.905-.007 2.469c-.001.403-.267.805-.796 1.112-1.07.622-2.798.618-3.862.004l.007-2.47c1.064.615 2.792.618 3.862-.003.529-.308.795-.71.796-1.112z" class="colorf9a83d svgShape"/><path fill="#9b9b9b" d="M38.052 25.787c1.057.626 1.05 1.616-.007 2.23-1.07.621-2.798.618-3.862.004l-.902-.522-1.377.8-.368-.211.92-.834 1.251-.495.226.13c.58.335 1.511.331 2.088-.004.512-.297.574-.766.154-1.098l.834-.32.154-.067.07-.063.281-.313c.534.19 1.241.145 1.702-.122.551-.32.542-.83-.006-1.147l-.361-.208.728-.797 1.159-.673.154-.06.915.528-1.575.916.915.529c.864.498.869 1.31.023 1.801-.858.499-2.253.495-3.116-.004z" class="colorf9a83d svgShape"/><path fill="#9b9b9b" d="m32.457 27.254-.007 2.469-.921.834.007-2.469z" class="colorf9a83d svgShape"/><path fill="#8e8e8e" d="m30.053 27.231-.007 2.47-1.298.971.007-2.469z" class="colorfebc1f svgShape"/><path fill="#9b9b9b" d="m31.904 28.3-.007 2.469-.368-.212.007-2.469zM33.281 27.499l-.007 2.47-1.377.8.007-2.469z" class="colorf9a83d svgShape"/><path fill="#a1a1a1" d="m28.755 28.203-.007 2.469-.89.651.007-2.469z" class="colorf3a250 svgShape"/><path fill="#9b9b9b" d="m31.536 28.088-.007 2.469-1.163 1.064.007-2.469z" class="colorf9a83d svgShape"/><path fill="#b5b5b5" d="m45.255 24.985-.007 2.47c-.004 1.358-.894 2.714-2.67 3.746-3.317 1.928-8.592 2.073-12.212.42l.007-2.469c3.62 1.653 8.895 1.507 12.212-.42 1.776-1.032 2.666-2.388 2.67-3.747z" class="colorffd06c svgShape"/><path fill="#b5b5b5" d="M42.724 21.295c3.423 2.088 3.371 5.397-.139 7.436-3.317 1.928-8.592 2.074-12.212.421l1.163-1.064.368.212 1.377-.8.902.52c1.064.615 2.792.618 3.862-.003 1.057-.614 1.064-1.604.007-2.23.863.499 2.258.503 3.116.004.846-.491.84-1.303-.023-1.801l-.915-.529 1.575-.916-.915-.528 1.834-.722z" class="colorffd06c svgShape"/><path fill="#b5b5b5" d="m46.653 24.99-.007 2.47c-.004 1.56-1.031 3.119-3.081 4.31-3.798 2.207-9.773 2.386-13.94.536l.006-2.47c4.168 1.85 10.143 1.672 13.94-.535 2.05-1.192 3.078-2.75 3.082-4.311z" class="colorffd06c svgShape"/><path fill="#9b9b9b" d="M43.884 20.837c3.792 2.412 3.69 6.138-.312 8.464-3.798 2.207-9.773 2.386-13.94.536l.74-.685 1.164-1.064.92-.834-.92.834-1.163 1.064c3.62 1.653 8.895 1.507 12.212-.42 3.51-2.04 3.562-5.35.138-7.437l1.161-.458z" class="colorf9a83d svgShape"/><path fill="#b5b5b5" d="m42.546 21.188-3.08.95-.05.01-.05.04-.536.464-.202-.11 1.576-.92-.94-.545-1.575.919-1.878-1.08-.838.484 1.1.636-5.128 2.979-.91-.525-1.2.444 1.908 1.1-1.384.798.697.404-1.302.97c-2.787-2.09-2.535-5.11.757-7.018 3.574-2.08 9.43-2.09 13.035 0z" class="colorffd06c svgShape"/><path fill="#9b9b9b" d="m43.813 17.495-.007 2.469-1.264.391.007-2.469zM29.505 20.351c-1.78 1.034-2.67 2.39-2.674 3.747l.007-2.47c0-.1.005-.202.015-.303-.015.198 0 .396-.001.594l-.006 1.875.007-2.47c.127-1.254 1.013-2.485 2.659-3.442 3.574-2.077 9.427-2.08 13.031 0l-.007 2.47c-3.604-2.081-9.457-2.078-13.031 0z" class="colorf9a83d svgShape"/><path fill="#b5b5b5" d="m35.814 17.61-.007 2.469-.839.488.007-2.469zM40.206 18.321l-.007 2.469-.941-.543.007-2.469zM39.265 17.778l-.007 2.469-1.575.916.007-2.47z" class="colorffd06c svgShape"/><path fill="#b5b5b5" d="m37.69 18.693-.007 2.47-1.876-1.084.007-2.469z" class="colorffd06c svgShape"/><path fill="#9b9b9b" d="m36.077 18.734-.007 2.47-1.102-.637.007-2.469z" class="colorf9a83d svgShape"/><path fill="#b5b5b5" d="m39.47 18.831-.007 2.469-.051.015.007-2.469zM38.831 19.352l-.007 2.469-.2-.115.007-2.469zM30.038 21.191l-.007 2.469-1.205.439.007-2.469zM30.947 21.716l-.007 2.469-.909-.525.007-2.469z" class="colorffd06c svgShape"/><path fill="#9b9b9b" d="m30.741 22.732-.007 2.469-1.908-1.102.007-2.469z" class="colorf9a83d svgShape"/><path fill="#b5b5b5" d="m30.741 22.732-.007 2.469-1.377.8.007-2.469z" class="colorffd06c svgShape"/><path fill="#9b9b9b" d="m30.053 23.93-.007 2.469-.689-.398.007-2.469z" class="colorf9a83d svgShape"/><path fill="#b5b5b5" d="m26.83 24.098.008-2.47c-.004 1.156.635 2.312 1.917 3.274l-.007 2.469c-1.282-.962-1.92-2.118-1.917-3.273z" class="colorffd06c svgShape"/><path fill="#b5b5b5" d="m25.439 24.103.007-2.47c-.004 1.392.803 2.784 2.419 3.92l-.007 2.47c-1.616-1.137-2.423-2.529-2.419-3.92z" class="colorffd06c svgShape"/><path fill="#9b9b9b" d="M43.516 17.316c.104.06.2.116.297.179l-1.264.39-3.079.946-.05.015.05-.015 3.073-.949c-3.604-2.08-9.457-2.077-13.031 0-3.292 1.913-3.545 4.928-.757 7.02l-.89.651c-3.432-2.412-3.214-5.981.667-8.237 4.125-2.397 10.833-2.397 14.984 0z" class="colorf9a83d svgShape"/><path fill="#b5b5b5" d="m39.47 18.831 3.073-.949-3.073.949-.007 2.469 3.073-.949.007-2.463z" class="colorffd06c svgShape"/><path fill="#8e8e8e" d="m42.549 17.886-.007 2.469-3.079.945.007-2.469z" class="colorfebc1f svgShape"/><path fill="#fff" d="m40.89 18.716-.007 2.469-.154.059.007-2.469z" class="colorffffff svgShape"/><path fill="#b5b5b5" d="m41.805 19.244-.007 2.469-.915-.528.007-2.469z" class="colorffd06c svgShape"/><path fill="#8e8e8e" d="M39.466 18.836V21.3l-.05.02-.051.04-.545.465.01-2.474.535-.464.051-.041z" class="colorfebc1f svgShape"/><path fill="#b5b5b5" d="m39.883 19.114.853-.339-1.159.674z" class="colorffd06c svgShape"/><path fill="#b5b5b5" d="m40.736 18.775-.007 2.469-1.159.674.007-2.469z" class="colorffd06c svgShape"/><path fill="#a1a1a1" d="m38.831 19.352-.007 2.469-.621.525.007-2.469z" class="colorf3a250 svgShape"/><path fill="#9b9b9b" d="m38.21 19.877-.007 2.469-.586-.339.007-2.469zM41.805 19.244l-.007 2.469-1.575.916.007-2.469zM39.21 20.454l-.007 2.469-.361-.208.007-2.47z" class="colorf9a83d svgShape"/><path fill="#b5b5b5" d="m41.145 20.688-.007 2.47-.915-.529.007-2.469zM36.077 18.734l-.007 2.47-5.13 2.981.007-2.469z" class="colorffd06c svgShape"/><path fill="#9b9b9b" d="m37.624 19.538-.007 2.469-1.973 1.147.007-2.469zM39.625 21.031l-.007 2.47c0-.21-.139-.418-.415-.578l.007-2.47c.276.16.416.37.415.578z" class="colorf9a83d svgShape"/><path fill="#b5b5b5" d="m35.651 20.685 1.973-1.147.586.339-1.585 1.37z" class="colorffd06c svgShape"/><path fill="#8e8e8e" d="m38.21 19.877-.007 2.469-1.585 1.37.007-2.469z" class="colorfebc1f svgShape"/><path fill="#b5b5b5" d="m36.625 21.247-.007 2.469-.974-.562.007-2.469z" class="colorffd06c svgShape"/><path fill="#a1a1a1" d="m36.625 21.247-.007 2.469-.378.324.007-2.47z" class="colorf3a250 svgShape"/><path fill="#b5b5b5" d="m41.798 21.602-.007 2.469c0-.33-.217-.662-.653-.913l.007-2.47c.436.252.654.584.653.914z" class="colorffd06c svgShape"/><path fill="#9b9b9b" d="M45.248 24.153c.004-1.328-.84-2.658-2.532-3.69l.007-2.47c1.693 1.033 2.536 2.363 2.532 3.69l-.007 2.47zM35.202 21.894l-.007 2.469-.89-.513.007-2.469z" class="colorf9a83d svgShape"/><path fill="#a1a1a1" d="m36.247 21.57-.007 2.47-1.045.323.007-2.469z" class="colorf3a250 svgShape"/><path fill="#b5b5b5" d="m39.625 21.031-.007 2.47c0 .205-.136.41-.409.568-.461.268-1.168.313-1.702.123l.007-2.469c.534.19 1.241.145 1.702-.123.273-.158.408-.363.409-.569z" class="colorffd06c svgShape"/><path fill="#b5b5b5" d="M39.21 20.454c.548.316.557.826.006 1.146-.461.268-1.168.313-1.702.123l1.335-1.478.36.209zM32.456 22.735l-.007 2.47-.238-.138.007-2.469z" class="colorffd06c svgShape"/><path fill="#9b9b9b" d="m34.312 21.381-.007 2.469-2.094 1.217.007-2.469z" class="colorf9a83d svgShape"/><path fill="#8e8e8e" d="m35.202 21.894-.007 2.469-2.746.842.007-2.47z" class="colorfebc1f svgShape"/><path fill="#b5b5b5" d="m32.218 22.598 2.094-1.217.89.513-2.746.841z" class="colorffd06c svgShape"/><path fill="#9b9b9b" d="m41.798 21.602-.007 2.469c-.001.323-.212.645-.63.888-.858.499-2.253.495-3.116-.004l.007-2.469c.863.499 2.258.502 3.116.004.418-.243.629-.565.63-.888zm-5.346 1.379-.007 2.47c0-.175-.09-.349-.277-.496l.007-2.469c.186.147.278.32.277.495z" class="colorf9a83d svgShape"/><path fill="#a1a1a1" d="m32.456 22.735-.007 2.47-1.193.364.007-2.469zM31.263 23.1l-.007 2.469-.134.041.007-2.469zM31.129 23.141l-.007 2.469-.154.112.007-2.469z" class="colorf3a250 svgShape"/><path fill="#b5b5b5" d="m33.933 23.588-.007 2.469-.226-.13.007-2.47z" class="colorffd06c svgShape"/><path fill="#b5b5b5" d="m38.841 23.604-.007 2.469c.001-.402-.261-.805-.79-1.118l.008-2.469c.528.312.79.716.79 1.118zm-5.134-.147 2.468-.97c.42.33.358.8-.154 1.097-.577.335-1.508.339-2.088.004l-.226-.13z" class="colorffd06c svgShape"/><path fill="#b5b5b5" d="m36.452 22.98-.007 2.47c0 .219-.146.437-.431.603-.577.335-1.508.339-2.088.004l.007-2.47c.58.336 1.511.332 2.088-.003.285-.166.43-.385.431-.603z" class="colorffd06c svgShape"/><path fill="#9b9b9b" d="m35.651 20.685.974.562-.378.323-1.045.324-.89-.513-2.094 1.217.238.137-1.193.365-.134.041-.154.112-.922.677-.689-.398 1.377-.8-1.908-1.102 1.205-.439.909.525 5.13-2.982-1.102-.636.839-.488 1.876 1.083 1.575-.915.941.543-1.575.916.2.115-.621.525-.586-.339z" class="colorf9a83d svgShape"/><path fill="#a1a1a1" d="m30.975 23.253-.007 2.469-.922.677.007-2.469z" class="colorf3a250 svgShape"/><path fill="#9b9b9b" d="m34.183 24.719-.007 2.469-.902-.521.007-2.469z" class="colorf9a83d svgShape"/><path fill="#9b9b9b" d="m38.841 23.604-.007 2.469c-.001.403-.267.804-.796 1.112-1.07.621-2.798.618-3.862.003l.007-2.469c1.064.614 2.792.618 3.862-.003.529-.308.795-.71.796-1.112z" class="colorf9a83d svgShape"/><path fill="#9b9b9b" d="M38.052 22.486c1.057.625 1.05 1.615-.007 2.23-1.07.621-2.798.617-3.862.003l-.902-.52-1.377.8-.368-.213.92-.833 1.251-.496.226.13c.58.336 1.511.332 2.088-.003.512-.298.574-.767.154-1.098l.834-.32.154-.067.07-.063.281-.313c.534.19 1.241.145 1.702-.123.551-.32.542-.83-.006-1.146l-.361-.209.728-.796 1.159-.674.154-.06.915.53-1.575.915.915.528c.864.5.869 1.31.023 1.802-.858.498-2.253.495-3.116-.004z" class="colorf9a83d svgShape"/><path fill="#9b9b9b" d="m32.457 23.953-.007 2.469-.921.833.007-2.469z" class="colorf9a83d svgShape"/><path fill="#8e8e8e" d="m30.053 23.93-.007 2.469-1.298.972.007-2.469z" class="colorfebc1f svgShape"/><path fill="#9b9b9b" d="m31.904 24.998-.007 2.47-.368-.213.007-2.469zM33.281 24.198l-.007 2.469-1.377.801.007-2.47z" class="colorf9a83d svgShape"/><path fill="#a1a1a1" d="m28.755 24.902-.007 2.469-.89.651.007-2.469z" class="colorf3a250 svgShape"/><path fill="#9b9b9b" d="m31.536 24.786-.007 2.469-1.163 1.065.007-2.469z" class="colorf9a83d svgShape"/><path fill="#b5b5b5" d="m45.255 21.684-.007 2.469c-.004 1.359-.894 2.715-2.67 3.746-3.317 1.928-8.592 2.073-12.212.42l.007-2.468c3.62 1.652 8.895 1.507 12.212-.42 1.776-1.032 2.666-2.389 2.67-3.747z" class="colorffd06c svgShape"/><path fill="#b5b5b5" d="M42.724 17.994c3.423 2.088 3.371 5.396-.139 7.436-3.317 1.928-8.592 2.073-12.212.42l1.163-1.064.368.212 1.377-.8.902.521c1.064.614 2.792.618 3.862-.003 1.057-.615 1.064-1.605.007-2.23.863.499 2.258.502 3.116.004.846-.492.84-1.303-.023-1.802l-.915-.528 1.575-.916-.915-.528 1.834-.722z" class="colorffd06c svgShape"/><path fill="#b5b5b5" d="m46.653 21.689-.007 2.469c-.004 1.561-1.031 3.12-3.081 4.31-3.798 2.208-9.773 2.387-13.94.537l.006-2.47c4.168 1.85 10.143 1.672 13.94-.535 2.05-1.192 3.078-2.75 3.082-4.311z" class="colorffd06c svgShape"/><path fill="#9b9b9b" d="M43.884 17.536c3.792 2.412 3.69 6.137-.312 8.464-3.798 2.207-9.773 2.385-13.94.536l.74-.685 1.164-1.065.92-.833-.92.833-1.163 1.065c3.62 1.652 8.895 1.507 12.212-.42 3.51-2.04 3.562-5.35.138-7.437l1.161-.458z" class="colorf9a83d svgShape"/><path fill="#b5b5b5" d="m42.546 17.887-3.08.95-.05.01-.05.04-.536.464-.202-.111 1.576-.919-.94-.545-1.575.919-1.878-1.08-.838.484 1.1.636-5.128 2.979-.91-.525-1.2.444 1.908 1.1-1.384.798.697.404-1.302.97c-2.787-2.09-2.535-5.11.757-7.018 3.574-2.08 9.43-2.09 13.035 0z" class="colorffd06c svgShape"/></svg>