<svg width="96" height="97" viewBox="0 0 96 97" fill="none" xmlns="http://www.w3.org/2000/svg">
<g clip-path="url(#clip0_101_749)">
<path d="M56.7913 76.4906V81.0875C56.7913 81.5491 56.4959 82.0106 55.9052 82.3614L39.1421 92.1091C37.9236 92.8106 35.9113 92.8106 34.6744 92.1091L23.7267 85.7768C23.099 85.4075 22.7852 84.9276 22.7852 84.466V79.8691C22.7852 79.4075 23.099 78.946 23.7082 78.5768L40.4344 68.8476C41.6713 68.146 43.6652 68.1276 44.9021 68.8476L55.8682 75.1799C56.4959 75.5491 56.7913 76.0106 56.7913 76.4906Z" fill="#1E6373"/>
<path d="M56.7934 76.4868V81.0837C56.7934 81.5564 56.4943 82.0142 55.8943 82.3613L39.146 92.1016C37.9294 92.8124 35.9097 92.8124 34.6783 92.1016L23.7214 85.7711C23.09 85.4093 22.7909 84.9348 22.7909 84.4604L22.7891 79.8653C22.7891 80.3397 23.0881 80.7976 23.7214 81.1594L34.6764 87.4917C35.9078 88.2007 37.9128 88.2007 39.1441 87.4917L55.8777 77.7662C56.4943 77.4191 56.7934 76.9447 56.7934 76.4868Z" fill="#1E6373"/>
<path d="M55.8676 75.1817C57.0971 75.8906 57.1045 77.0556 55.8823 77.7663L39.1377 87.4956C37.9174 88.2045 35.9069 88.2045 34.6774 87.4956L23.7113 81.1632C22.4725 80.4469 22.4743 79.2894 23.6983 78.5786L40.4411 68.8494C41.6614 68.1405 43.6608 68.1331 44.9014 68.8494L55.8676 75.1817Z" fill="#125473"/>
<path d="M36.9105 87.0396C36.2458 87.0396 35.6126 86.8919 35.1732 86.639L24.2071 80.3067C23.8858 80.122 23.7695 79.943 23.7695 79.8654C23.7695 79.7916 23.8821 79.6143 24.1941 79.4353L40.9369 69.706C41.3745 69.4513 42.0077 69.3054 42.6686 69.3054C43.3295 69.3054 43.9628 69.4513 44.404 69.706L55.3701 76.0383C55.6877 76.2193 55.804 76.402 55.804 76.4796C55.804 76.5534 55.6932 76.7307 55.3849 76.9097L38.6403 86.639C38.2046 86.8937 37.5751 87.0396 36.9105 87.0396Z" fill="#1E6373"/>
<path d="M45.3238 51.8814L45.2499 78.3552C45.2499 79.2599 44.6407 80.1645 43.4591 80.866C41.0407 82.2691 37.1084 82.2691 34.6714 80.866C33.453 80.1645 32.8438 79.2414 32.8438 78.3183L32.9176 51.8629C32.9176 50.9399 33.5268 50.0168 34.7453 49.3152C37.1453 47.9122 41.0591 47.9122 43.4961 49.3152C44.7145 50.0168 45.3238 50.9583 45.3238 51.8814Z" fill="#E7F5FC"/>
<path d="M45.3242 51.874L45.2503 78.3515C45.2485 79.2635 44.6485 80.1718 43.454 80.866C41.0356 82.2709 37.1088 82.2765 34.6756 80.8715C33.4571 80.1681 32.8479 79.2469 32.8516 78.3275L32.9254 51.8481C32.9254 52.7694 33.531 53.6906 34.7494 54.394C37.1845 55.7989 41.1113 55.7934 43.5297 54.3866C44.7242 53.6925 45.3224 52.7841 45.326 51.8758L45.3242 51.874Z" fill="#F1F8FC"/>
<path d="M43.4895 49.3152C45.9227 50.7183 45.9356 52.9891 43.5282 54.3866C41.1098 55.7934 37.183 55.7989 34.7479 54.394C32.3147 52.9891 32.3239 50.7202 34.7424 49.3152C37.1498 47.9159 41.0562 47.9085 43.4895 49.3152Z" fill="#E7F5FC"/>
<path d="M12.6856 84.706L12.5195 84.5953C12.4434 84.5437 12.375 84.4815 12.3164 84.4106C12.4272 84.5214 12.5564 84.6137 12.6856 84.706Z" fill="#1E6373"/>
<path d="M67.2038 50.349C67.2038 52.5829 65.6346 55.3152 63.6776 56.4413L15.2346 84.4844C14.2376 85.0567 13.333 85.1121 12.6869 84.7059C12.5576 84.6136 12.4284 84.5213 12.3176 84.4106C12.373 84.4844 12.4469 84.5398 12.5207 84.5952L7.44379 81.6598C6.8161 81.309 6.4284 80.5152 6.4284 79.4075L6.3361 38.6444C6.31764 36.4106 7.90533 33.6782 9.84379 32.5521L58.3053 4.50902C59.2838 3.93671 60.1699 3.88132 60.8161 4.25055L65.9484 7.25978C65.9669 7.27825 65.9853 7.27825 66.0038 7.29671C66.6869 7.64748 67.1115 8.44132 67.1115 9.6044L67.2038 50.349Z" fill="#1E6373"/>
<path d="M12.6856 84.706L12.5195 84.5953C12.4434 84.5437 12.375 84.4815 12.3164 84.4106C12.4272 84.5214 12.5564 84.6137 12.6856 84.706Z" fill="#1E6373"/>
<path d="M6.33209 38.6519C6.32101 36.407 7.90317 33.6765 9.84901 32.543L58.2976 4.50912C59.2816 3.93497 60.1678 3.88512 60.8158 4.25989L66.0884 7.32451C65.4422 6.95158 64.5561 7.00143 63.5702 7.56451L15.1216 35.6076C13.1776 36.73 11.5936 39.4716 11.6066 41.7165L11.6804 82.4593C11.6933 83.5799 12.0792 84.3534 12.7142 84.7282L7.44163 81.6617C6.80655 81.2999 6.4207 80.5134 6.4207 79.4039L6.33209 38.6519Z" fill="#125473"/>
<path d="M63.5708 7.5682C65.5204 6.44205 67.1099 7.34851 67.1154 9.59897L67.2004 50.3417C67.2059 52.583 65.6274 55.3171 63.6779 56.4433L15.2293 84.4845C13.2797 85.6107 11.6902 84.7061 11.6847 82.4648L11.6016 41.7202C11.5942 39.4716 13.1727 36.7356 15.1241 35.6094L63.5708 7.5682Z" fill="#1E6373"/>
<path d="M65.4602 44.986L13.3821 75.1263L13.3322 41.7165C13.3138 40.0845 14.5692 37.9171 15.9796 37.0919L64.4282 9.0525C64.8233 8.82912 65.0652 8.8125 65.1501 8.8125C65.2535 8.84573 65.3901 9.07096 65.3901 9.60265L65.4602 44.986Z" fill="white"/>
<path d="M67.2001 45.8259V50.3305C67.2001 52.5644 65.6309 55.2967 63.6739 56.4229L15.2309 84.4659C14.1786 85.0752 13.237 85.0936 12.5909 84.6136C12.6278 84.6505 12.6647 84.6875 12.7016 84.7059L7.45856 81.6598C6.83087 81.309 6.38779 80.4782 6.42471 79.3521L6.40625 74.8659L11.6678 77.9305L67.2001 45.8259Z" fill="#C6C6C6"/>
<path d="M67.1989 45.8462V50.3416C67.2062 52.5828 65.6278 55.317 63.6782 56.4431L15.2296 84.4843C13.2801 85.6105 11.6906 84.7059 11.685 82.4647L11.6758 77.9527L67.1989 45.848V45.8462Z" fill="#C6C6C6"/>
<path d="M39.4347 63.3313C40.4353 62.7535 41.2439 63.215 41.2457 64.3652C41.2494 65.5153 40.4464 66.9055 39.4457 67.4833C38.4451 68.0612 37.6365 67.5996 37.6328 66.4495C37.631 65.3012 38.434 63.9092 39.4347 63.3313Z" fill="#1E6373"/>
<path d="M11.6735 82.4168L11.6791 77.9565L6.41016 74.8918L6.42123 79.378C6.39169 80.4949 6.83846 81.3183 7.46985 81.6783L12.7018 84.7208C12.0705 84.3497 11.6865 83.5318 11.6735 82.4168Z" fill="#B3B3B3"/>
<path d="M38.0871 59.2585C37.9578 59.5761 37.9024 59.9102 37.8083 60.2075L37.5665 60.7835C37.3847 60.9432 37.2388 61.1395 37.1381 61.3595L27.9535 66.6764C27.564 66.4733 27.3406 66.0081 27.3221 65.3582C27.3221 65.0056 27.2852 64.6327 27.1172 64.4831C26.2809 63.6468 26.484 63.1262 27.2095 61.2856C27.4883 60.5785 27.804 59.9287 27.6009 59.4265C26.5781 59.445 25.3689 59.3896 25.1086 59.037L24.8114 58.9059C24.6281 58.9564 24.4356 58.9644 24.2488 58.9292C24.0619 58.894 23.8856 58.8166 23.7332 58.7028C23.4932 58.8007 23.388 58.7951 23.1388 58.9613C21.9849 59.6315 20.6464 59.3158 20.3861 58.1988C20.22 57.5675 19.884 57.1391 19.5129 56.7681C19.2895 56.5835 19.1954 56.2844 19.0108 56.061C18.9369 55.9318 18.7504 55.9318 18.5455 56.0056C18.9351 56.6739 19.2895 57.381 19.6606 58.0696L19.4944 58.3096L19.1031 58.1804C18.9369 57.9219 17.9326 57.2518 17.0391 56.6942C18.5972 48.7853 22.2692 40.8911 26.9123 34.4185L26.9677 34.7711C26.8938 35.8881 26.3363 36.8167 25.5 37.653C24.6618 38.5281 24.1043 39.9422 24.2723 40.7213L24.4015 40.9447C24.6249 40.8893 24.6249 41.0555 24.6434 41.2788C24.6803 41.6148 24.9037 41.5964 25.164 41.4265C25.4852 41.2142 25.74 41.085 25.8526 41.445C25.8895 41.5391 26.1868 41.4838 26.3732 41.3711C26.8754 41.1311 26.9308 41.1496 26.8938 41.7256C26.8569 42.357 27.3037 42.2278 27.7117 42.2831C27.7671 41.7071 27.7855 41.2235 27.8594 40.7213L28.0458 40.0715C28.2508 39.6616 28.4003 39.2905 28.2877 38.9545L28.2692 38.4155C28.2692 38.0444 28.3061 37.653 28.2692 37.3373C28.2138 37.0788 28.3061 36.8905 28.548 36.7244C28.8748 36.4641 29.3344 36.2407 29.6834 36.4641C29.9234 36.6118 30.2963 36.5933 30.612 36.6487C30.5751 36.9847 30.5381 37.3742 30.5197 37.7287L30.7412 37.7656C30.948 37.3004 31.1326 36.8351 31.3191 36.3699L31.4852 36.333C31.8028 37.5053 32.4526 38.1736 33.6618 38.3416L33.252 38.7884C32.7517 39.4198 32.268 40.053 31.7658 40.6659C31.1511 41.4099 30.7984 42.2278 30.8723 43.0087C30.8723 43.5588 30.4809 43.605 30.1855 43.845C29.7757 44.1238 29.5708 44.4598 29.628 44.9416C29.8071 45.7835 28.5203 45.549 28.2508 47.397C28.1584 48.3071 27.804 49.2191 27.1911 50.1478C26.5874 51.0524 26.8495 52.0087 26.9141 52.8247L26.8754 53.2345C26.5412 52.9761 26.0391 53.013 26.0021 52.3613L25.6477 52.1379C25.2544 52.2948 24.9018 52.0825 24.756 52.7139C24.7191 52.9373 24.6452 53.0296 24.5714 53.0868C24.4772 53.1238 24.3831 53.1238 24.2723 53.1053C23.8384 53.0075 23.0003 53.5964 22.8028 54.6856C22.6181 55.8062 22.4815 58.2819 23.4544 57.6967C23.8901 57.4788 24.2889 56.5761 24.6434 55.9687C25.2397 55.7084 25.2397 55.8025 25.0348 56.5447C24.924 56.9342 24.924 57.3071 24.9424 57.6598H25.332C25.3874 57.5859 25.4612 57.5305 25.5166 57.5121C25.7031 57.4013 25.7972 57.5121 25.8526 57.7151C25.9449 57.9958 25.9818 58.293 26.0003 58.6087C26.0372 59.1108 26.9492 58.8671 27.7855 58.5348C28.0458 58.0696 28.3449 57.6598 28.6052 57.2333C28.72 57.0432 28.879 56.8836 29.0686 56.7681C29.6594 56.445 29.7794 56.8973 30.3517 56.5447C31.4501 55.8875 32.0908 56.2271 32.3049 56.9342C32.4711 57.5176 32.7591 57.1152 33.1966 56.7865C33.6618 56.5262 34.1455 56.6942 34.2194 57.1945C34.2932 57.8831 34.5923 58.0511 35.1129 57.7539C35.2052 57.6985 35.2975 57.6247 35.4083 57.549L35.8938 57.3459C36.7117 57.1945 37.3246 57.549 37.9578 57.8462C38.2901 57.9939 38.3289 58.6087 38.0871 59.2585ZM63.5418 35.1625C63.4495 35.3711 62.7812 36.7225 62.7425 36.7982C61.9154 37.6235 62.3585 38.5613 62.1092 39.6044C62.0538 39.9219 61.8323 40.3318 61.6255 40.5164C60.3683 41.9342 61.3486 38.9342 60.1209 37.4499L59.9548 37.3004C59.2458 37.3742 59.0981 36.6302 58.8194 36.0542L58.4465 35.925C58.0385 36.1096 57.6101 36.3902 57.2003 36.5748C56.9603 36.6856 56.6612 36.9478 56.5504 36.5195L56.1794 36.5933C55.5831 36.8721 55.1178 36.8905 54.8021 36.3533C54.7283 36.1853 54.3941 36.3348 54.1708 36.3533L54.0415 36.5933C54.7578 37.9336 54.8852 39.2924 55.9191 37.2265C56.1037 37.3188 56.2698 37.4665 56.4194 37.5791C56.6243 37.8025 56.7 38.0998 56.4009 38.6204L56.2901 39.0856C56.4378 40.5385 55.1049 41.1348 53.4083 43.3982C53.1665 43.4905 52.9431 43.3613 52.9061 42.9164C52.8877 42.7484 52.7954 42.6173 52.74 42.4881C52.5426 41.9807 52.319 41.4841 52.0698 41.0001C51.9827 40.8611 51.8684 40.7412 51.7338 40.6475L51.66 40.5367C51.5677 40.4241 51.4384 40.3133 51.4015 40.1453C51.2908 39.6413 51.5031 39.2813 51.0471 38.8253L50.6557 38.9361L50.6003 39.4382C51.0065 40.8856 50.9012 40.0382 51.2889 41.7828C51.7154 43.1342 51.8372 43.0604 52.572 44.2548C52.884 44.7644 53.6612 44.2548 54.1523 43.8635L54.6544 43.5865C54.4883 44.6573 54.3775 44.6628 54.0397 45.7982C53.1092 49.1711 51.4218 49.101 51.7726 51.4124C51.828 51.8776 51.9203 52.3244 52.0126 52.7508L45.0969 56.7681C45.0784 56.6573 45.0969 56.5262 45.0969 56.4155C45.1523 55.485 44.6686 55.1324 44.3898 54.573C44.2052 54.2019 44.0741 53.9231 44.316 53.253C44.4452 52.8635 44.4083 52.4167 44.3898 52.0271L44.0188 51.9718C43.7769 52.0825 43.6089 52.2118 43.4243 51.9902C43.3135 51.8591 43.164 51.8795 43.0144 51.9718C42.8483 52.0641 42.6434 52.2671 42.4938 52.4351C41.9917 52.9188 41.508 53.421 41.0058 53.6998C40.7707 53.8631 40.4927 53.9536 40.2064 53.9601C39.5381 53.9601 38.868 53.9601 38.6446 53.1053L38.3474 52.7508C37.8821 52.4924 37.7529 51.8961 37.8268 51.0967C37.9006 50.2788 38.1425 49.3853 37.8821 48.7539C37.8452 48.6431 38.0668 48.2702 38.1794 48.0099C38.3086 47.7127 38.5154 47.3601 38.6261 47.0241C38.7554 46.653 38.8108 46.2819 39.1468 45.9828L39.2944 45.669C39.2206 45.165 39.5178 44.7201 39.7597 44.2364L39.8335 43.9945C39.8335 43.3908 40.068 42.9607 40.6901 42.7115C40.8341 41.5595 41.2975 41.4524 41.9178 40.8339C42.3037 40.5108 42.6212 40.125 42.7911 39.9404C43.4797 39.4567 44.2052 38.973 45.0046 38.4155C44.9123 38.8622 44.8551 39.2333 44.7628 39.5508C44.6151 40.0899 44.6889 40.1268 45.0397 40.0715C45.4864 39.9976 45.9148 40.053 46.3246 40.0899L46.6957 40.2745C46.9726 40.3299 47.0631 40.1508 47.0871 39.8665C47.1978 39.0302 47.2495 38.8622 47.868 38.8622C48.8132 38.8327 49.5258 38.3804 50.2292 37.9318C50.5793 37.6818 50.824 37.3107 50.916 36.8905C51.0766 36.1262 51.4957 34.8099 50.8052 35.1995C50.4288 35.475 50.0374 35.7296 49.6329 35.9619C48.8741 36.3958 49.1215 35.3379 48.7781 34.9945L48.4071 34.9576L48.2594 35.5336C48.2963 36.0542 48.1098 36.4087 47.7184 36.909C47.5708 36.4271 47.4028 36.0542 47.3086 35.589C47.2163 35.181 47.0501 35.0499 46.6772 35.2179C46.2877 35.4395 45.9332 35.5151 45.8963 34.8653L45.5437 34.8099C45.5437 35.4413 45.8391 35.6093 46.212 35.6647C46.5277 35.6647 46.5277 35.9988 46.5277 36.3902C46.4723 36.7613 46.4354 37.1324 46.1769 37.3188C45.78 35.9342 45.8298 36.2499 45.3572 36.0727L45.06 36.1281C44.5948 36.0911 44.0926 36.2388 43.5904 36.5195L43.2009 36.8905C42.9018 37.5053 42.6231 38.1182 42.3628 38.7127C42.1228 39.2536 41.8606 39.8111 41.8809 40.3502L41.7886 40.6271C41.4138 40.4056 41.1258 40.6124 40.8397 40.9816C40.5978 40.9816 40.3929 40.9631 40.1511 40.9262C40.1695 40.5921 40.2064 40.1822 40.2618 39.7742V39.2536C40.0329 38.6296 40.5628 38.5502 41.0243 38.1736C41.7129 37.6918 41.8052 37.5053 41.8052 36.6118C41.8421 36.2591 41.8052 35.9988 41.6021 35.8124C41.3972 35.6647 41.5652 35.2733 41.8791 35.0315C42.0471 34.9207 42.252 34.6973 42.3831 34.4739C43.6071 32.2198 43.4723 31.9853 44.2052 31.7416C44.4637 31.5736 44.5948 31.2948 44.5948 30.9238C44.5763 30.5324 44.5948 30.1428 44.6501 29.6591L44.9474 29.9915C45.2834 30.309 45.8225 30.2721 46.3615 29.9545C46.8083 29.6961 47.2717 29.2493 47.6077 28.6733C47.9031 28.1342 48.3314 27.6136 48.4625 26.9435L48.7597 26.6481C49.0081 26.4605 49.2015 26.2094 49.3194 25.9212C49.4373 25.6331 49.4755 25.3185 49.4298 25.0105C48.9277 25.3816 48.4071 25.773 47.8292 26.1995C47.5338 26.1071 47.5523 25.4185 47.9215 24.5638C48.4292 23.4875 48.3351 23.5004 48.1652 23.0758L47.8108 23.5595C46.0071 26.9102 46.8231 26.6776 46.3431 28.8395L45.9332 29.3988C45.3314 28.8118 45.1191 28.6419 44.892 28.5422C44.7443 28.5976 44.5209 28.8967 44.3898 29.0444L43.9634 29.5096L43.7215 29.1385C43.8009 26.8364 44.1406 27.1299 45.4311 24.8056C45.5566 24.5896 45.4551 24.6395 45.9701 23.2991C46.0809 23.0407 46.2489 22.8155 46.2877 22.5736C46.4538 21.5711 47.0298 21.1613 47.6077 20.7145C47.9972 20.4376 48.4071 20.1016 48.7966 19.8228L49.2249 19.6751C49.7455 20.0813 50.5449 19.7305 51.1209 19.9705C51.3055 20.0259 51.6046 19.8782 51.5308 20.325C51.4366 20.9582 51.132 21.1465 50.5265 21.477C50.6003 21.8499 50.6557 22.221 50.8218 22.3705L51.3997 21.9976C51.4181 21.7207 51.3997 21.5711 51.4735 21.4401C51.828 20.7699 52.1621 20.0831 52.5535 19.3945C52.7197 19.4499 52.8858 19.4868 53.0557 19.5422C53.1111 19.7102 53.2034 19.7675 53.3326 19.6918C59.8569 21.0801 63.2206 28.4148 63.5418 35.1625ZM40.5111 27.3902C40.5332 27.6875 40.5332 28.0548 40.3043 28.3521C40.1437 28.605 39.9166 28.7195 39.7098 28.9244C39.7098 28.9244 39.6858 28.9244 39.6637 28.9484C38.7129 29.4911 38.5061 32.1551 37.7621 33.6431C37.5 34.1361 37.4188 34.1896 36.9148 34.8339C36.6563 35.6222 36.4606 36.0948 36.5935 36.5748L36.6397 36.6191C36.7098 37.2155 37.0071 37.6271 37.3505 37.9484L37.4428 38.133L37.1658 38.5428L36.8243 38.5668C35.4397 38.2585 35.0704 37.0844 34.8988 35.6351C34.7621 34.3761 34.6255 33.093 34.6034 31.7416C34.6034 30.6764 34.0052 31.0696 33.5252 31.0087L33.4108 30.9865L33.2741 30.7576C33.2501 30.4142 32.9529 30.3219 32.7701 30.1613C32.4094 29.8171 32.148 29.3822 32.0132 28.9022C31.8157 28.437 32.0224 28.197 32.0594 27.9404C32.0834 27.8721 32.1055 27.8019 32.1517 27.7336L38.5634 24.0228C38.7018 24.0468 38.8846 23.9785 39.0674 23.9102C40.0809 23.6388 40.5886 23.3545 40.9449 23.4967C41.1978 23.6111 41.3123 24.0007 41.2661 24.4364C41.22 24.8721 41.0372 25.3521 40.8083 25.8099C40.3781 26.5299 40.3837 26.6998 40.5111 27.3902Z" fill="#E3ECF0"/>
<path d="M87.1588 56.2937C84.3434 63.4881 78.3379 70.3817 76.1188 71.7275C75.5465 72.0598 74.9927 72.1891 74.4573 72.2998C68.9724 73.426 60.2308 68.8752 58.525 62.2568C57.2696 57.346 58.1927 50.866 57.8973 45.2168C57.8788 44.8291 58.1373 44.3675 58.4881 44.1275C63.2973 40.978 67.3681 36.7761 70.8019 32.1091C71.0235 31.8137 71.245 31.4814 71.5034 31.3521C71.7434 31.2598 71.8911 31.2783 72.0204 31.3152C75.6942 32.1091 80.0696 31.3337 84.5188 29.0814C84.685 29.0075 84.8327 29.0075 84.925 29.0629L89.3373 31.6106C89.4665 31.6845 89.5588 31.8321 89.5404 32.0537C89.4314 40.2561 90.6536 47.3417 87.1588 56.2937Z" fill="#A6A6A6"/>
<path d="M84.9289 29.0629L89.3708 31.6328C89.2674 31.5737 89.1252 31.5774 88.9646 31.6549C84.5154 33.8961 80.14 34.6734 76.4698 33.8832C76.3277 33.8518 76.1837 33.8223 75.9418 33.9146L71.5 31.3448C71.7418 31.2524 71.8858 31.282 72.028 31.3134C75.7 32.1035 80.0735 31.3263 84.5228 29.0869C84.6834 29.0075 84.8255 29.0038 84.9289 29.0629Z" fill="#B4B4B4"/>
<path d="M67.5602 71.3546L63.1184 68.7847C60.9307 67.5127 59.3061 65.2697 58.5325 62.2586C57.2734 57.3404 58.1947 50.866 57.9011 45.2149C57.8827 44.8364 58.1319 44.362 58.4808 44.1312C60.681 42.6801 62.7405 41.0261 64.6322 39.1909C66.8911 37.0159 68.9533 34.6454 70.7947 32.1072C71.0144 31.8118 71.2488 31.4887 71.4981 31.3447L75.9399 33.9146C75.6888 34.0586 75.4544 34.3798 75.2365 34.677C73.3946 37.2153 71.3318 39.5858 69.0722 41.7607C67.1805 43.5959 65.121 45.2499 62.9208 46.701C62.5738 46.9318 62.3245 47.4044 62.343 47.7847C62.7935 56.4598 60.3491 67.1638 67.5602 71.3546Z" fill="#A6A6A6"/>
<path d="M75.9428 33.9145C76.1828 33.8222 76.3286 33.8518 76.4708 33.8832C80.1428 34.6733 84.5145 33.8961 88.9656 31.6548C89.3052 31.4887 89.5563 31.6548 89.5471 32.0499C89.4197 39.7853 90.6899 47.277 87.1563 56.2862C86.4899 57.9976 85.6702 59.6721 84.6732 61.2561C84.2357 61.9576 82.192 65.9601 77.9348 70.2062C77.344 70.7933 76.7292 71.3638 76.1126 71.7201C75.5403 72.0505 74.9957 72.1908 74.4585 72.3053C68.9052 73.4444 64.4339 70.4961 62.9754 64.8284C61.72 59.9102 62.6394 53.4358 62.3477 47.7847C62.3274 47.4044 62.5766 46.9318 62.9237 46.701C65.1239 45.2499 67.1833 43.5959 69.0751 41.7607C71.3346 39.5858 73.3974 37.2153 75.2394 34.677C75.4573 34.3816 75.6936 34.0585 75.9428 33.9145Z" fill="#C3C3C3"/>
<path d="M75.9518 36.4679C75.9831 36.4505 76.0176 36.4398 76.0533 36.4366C76.0889 36.4335 76.1248 36.4378 76.1586 36.4494C78.8983 37.0771 81.9297 36.7448 85.238 35.4433C85.9525 35.1645 86.6854 34.8026 87.4091 34.4463C87.5974 34.3688 87.6675 34.3688 87.6675 34.6051C87.6712 38.2753 87.6989 41.938 87.6915 45.6026C87.6602 53.9362 82.6737 63.4716 76.2952 68.9731C76.2155 69.0393 76.1302 69.0986 76.0405 69.1503C75.9598 69.1979 75.8744 69.2368 75.7857 69.2666C70.0903 70.93 65.6798 68.1091 64.5795 62.1331C64.1346 59.6999 64.334 57.7983 64.2657 48.1282C64.2638 47.9122 64.2989 47.8199 64.5057 47.6703C68.6226 45.0266 72.3703 41.3602 75.7377 36.7005C75.7918 36.6086 75.8648 36.5293 75.9518 36.4679Z" fill="white"/>
<path d="M72.6815 68.8087C68.9153 68.8087 66.2956 66.3145 65.4962 61.965C65.0901 59.7533 65.2618 58.5496 65.1953 48.3311C69.2439 45.6967 73.0064 42.0265 76.3572 37.4314C78.6722 37.9299 81.8402 37.7803 85.5787 36.3071C85.9627 36.1594 86.3541 35.9859 86.7418 35.8013C86.7418 35.9877 86.7676 43.6696 86.7621 45.6025C86.7307 53.8197 81.7479 63.0487 75.6889 68.2677L75.5042 68.3803C74.5877 68.6558 73.6385 68.8 72.6815 68.8087Z" fill="#B4B4B4"/>
<path d="M77.8157 52.2948C78.5357 51.2536 79.0046 49.9871 79.0046 48.8758C78.9936 47.4838 78.292 46.7158 77.2803 46.7342C77.212 46.7342 77.1437 46.7434 77.0754 46.7527C77.4077 47.1127 77.5923 47.6684 77.6016 48.3902C77.6016 49.4997 77.1437 50.7662 76.4219 51.8093L77.212 55.6751L77.2102 55.677L78.6133 56.157L77.8157 52.2948Z" fill="#125473"/>
<path d="M77.2099 55.677L73.6062 57.7502L73.4991 58.4333L73.3828 59.1736L78.6148 56.1625L78.613 56.1588L77.2099 55.677Z" fill="#1E6373"/>
<path d="M76.4204 51.8093C77.1404 50.7662 77.6001 49.5016 77.6001 48.3902C77.5909 47.6702 77.4044 47.1127 77.074 46.7527C76.7324 46.7915 76.354 46.9281 75.9737 47.1422C73.1029 48.8038 71.8457 53.7275 74.1423 54.4198L73.6069 57.7502L77.2106 55.6751L76.4204 51.8093Z" fill="#112833"/>
<path d="M76.4171 51.8057L76.5758 52.5958L77.2072 55.6789L73.6146 57.754L74.0762 54.8777L74.1481 54.4161C72.8078 54.0285 72.7525 52.1417 73.262 50.6777C73.7143 49.282 74.7481 47.8586 75.9814 47.146C76.358 46.9263 76.7328 46.7934 77.0743 46.7583C77.4011 47.1091 77.5949 47.6666 77.6078 48.3958C77.6078 49.3651 77.2146 50.6758 76.4171 51.8057Z" fill="#112833"/>
</g>
<defs>
<clipPath id="clip0_101_749">
<rect width="96" height="96" fill="white" transform="translate(0 0.325684)"/>
</clipPath>
</defs>
</svg>
