<svg width="96" height="97" viewBox="0 0 96 97" fill="none" xmlns="http://www.w3.org/2000/svg">
<path d="M52.7886 50.445L66.8988 42.2444C68.3092 42.9164 70.0058 42.7484 71.0544 42.1373C72.4557 41.3232 72.4557 39.8573 71.0563 39.0506C69.8101 38.3324 67.8661 38.3324 66.6292 39.0506C65.5566 39.6746 65.2114 40.7638 66.0514 41.6684L52.3252 49.6438C52.219 49.705 52.1414 49.8059 52.1095 49.9243C52.0777 50.0427 52.0942 50.1689 52.1554 50.2752C52.2166 50.3814 52.3175 50.459 52.4359 50.4909C52.5543 50.5227 52.6824 50.5062 52.7886 50.445ZM67.0926 39.85C68.0452 39.2961 69.6458 39.3035 70.5948 39.85C71.3757 40.3004 71.3701 40.8875 70.5911 41.338C69.6458 41.89 68.0489 41.8918 67.1055 41.3472C66.3154 40.8893 66.3098 40.3023 67.0926 39.85ZM24.2138 42.538C25.2791 43.1583 26.9683 43.3133 28.3714 42.645L42.4797 50.8438C42.5851 50.8997 42.708 50.9126 42.8228 50.8798C42.9375 50.847 43.035 50.7711 43.095 50.6679C43.1549 50.5648 43.1726 50.4424 43.1443 50.3265C43.1159 50.2106 43.0438 50.1102 42.9431 50.0463L29.2169 42.069C30.0532 41.1681 29.7209 40.0789 28.6391 39.4512C27.4021 38.7312 25.4581 38.7312 24.212 39.4512C22.8144 40.258 22.8144 41.722 24.2138 42.538ZM24.6735 40.2506C25.6261 39.7023 27.2323 39.7004 28.1757 40.2506C28.9566 40.7029 28.9566 41.29 28.1646 41.7478C27.2194 42.2924 25.6243 42.2906 24.6772 41.7386C23.9018 41.2881 23.8926 40.7029 24.6735 40.2506Z" fill="#989898"/>
<path d="M91.7259 76.3078C90.6163 75.6635 88.9603 75.6302 87.7252 76.1416L75.3025 68.9066C75.3874 68.3859 75.4354 67.8616 75.4354 67.3318C75.4391 65.2955 74.7856 63.3275 73.5745 61.4942L86.8594 53.7644C88.2699 54.4235 89.9406 54.2592 90.9929 53.6481C92.3923 52.8358 92.3942 51.3681 90.9948 50.5613C89.7505 49.8413 87.8065 49.8413 86.5677 50.5613C85.4711 51.2001 85.1572 52.3004 86.0028 53.1939L73.0354 60.7392C71.6803 58.9669 69.7917 57.333 67.3751 55.9281C66.6883 55.5293 65.972 55.1582 65.2335 54.8112L71.8114 50.9878C73.2237 51.6524 74.9056 51.4862 75.9579 50.877C77.3572 50.061 77.3591 48.5952 75.9615 47.7902C74.7172 47.0702 72.7714 47.0702 71.5326 47.7902C70.4434 48.4235 70.1222 49.5182 70.9603 50.4118L64.172 54.3589C54.3375 50.1792 40.7185 50.301 31.0742 54.7447L24.1843 50.7386C25.0335 49.8339 24.6865 48.741 23.612 48.117C22.3751 47.397 20.4292 47.397 19.1849 48.117C17.7892 48.9219 17.7874 50.3878 19.1886 51.2019C20.2557 51.8241 21.9302 51.9773 23.3351 51.3127L30.0865 55.2376C29.6415 55.4629 29.1892 55.6826 28.7628 55.9281C26.0545 57.4918 23.9812 59.3306 22.5911 61.3373L9.27108 53.5946C10.124 52.6918 9.78985 51.5933 8.70616 50.9619C7.46924 50.2438 5.52339 50.2438 4.27908 50.9619C2.88155 51.7687 2.8797 53.2327 4.28093 54.0487C5.3517 54.669 7.01324 54.8204 8.41632 54.165L22.1074 62.1219C21.116 63.8019 20.5695 65.5798 20.5677 67.413C20.5677 67.9521 20.6102 68.4856 20.6969 69.0136L8.51232 76.1029C7.28093 75.5859 5.61939 75.6192 4.50616 76.2672C3.10493 77.0813 3.10862 78.5472 4.52093 79.3632C5.7597 80.0776 7.69631 80.0702 8.93139 79.3521C10.1868 78.6247 10.2662 77.4358 9.42985 76.6382L20.9314 69.9478C21.644 72.6376 23.4902 75.1484 26.3462 77.2899L23.1985 79.1213C21.9652 78.6099 20.3092 78.6432 19.2015 79.2875C17.7985 80.1035 17.8022 81.5693 19.2145 82.3835C20.4588 83.1035 22.3954 83.0887 23.6268 82.3742C24.7677 81.7096 25.0446 80.5281 24.116 79.6549L27.1659 77.8807C27.6385 78.2019 28.1185 78.5213 28.6372 78.8241C31.2883 80.3638 34.3548 81.5195 37.6335 82.2893L28.4766 87.6284C27.2434 87.1078 25.5782 87.1392 24.4631 87.789C23.06 88.6032 23.0655 90.069 24.476 90.8832C25.7129 91.5976 27.6495 91.5939 28.8883 90.8739C30.0329 90.2093 30.3025 89.0389 29.3868 88.1638L38.9942 82.5644C41.8742 83.1386 44.8834 83.445 47.9037 83.445C51.0126 83.445 54.1142 83.1219 57.0791 82.5127L66.8471 88.2007C65.924 89.0776 66.2028 90.2536 67.3456 90.9146C68.5769 91.6346 70.5191 91.6401 71.7542 90.9256C73.1849 90.1004 73.1499 88.6327 71.7689 87.8296C70.6575 87.1835 68.9979 87.1502 67.7628 87.6672L58.4212 82.2266C61.6243 81.4567 64.6317 80.325 67.2403 78.8186C67.8071 78.4918 68.3314 78.1466 68.8428 77.7976L71.9185 79.581C70.9899 80.4579 71.2705 81.6358 72.4096 82.3004C73.6465 83.0204 75.5886 83.0241 76.8219 82.3096C78.2305 81.4973 78.2397 80.0296 76.8348 79.2136C75.7271 78.5693 74.0711 78.5361 72.8379 79.0475L69.6569 77.2013C72.5111 75.0506 74.3591 72.5342 75.0717 69.8407L86.8077 76.6752C85.964 77.4709 86.0434 78.6635 87.3006 79.3946C88.5376 80.1146 90.4742 80.1182 91.7111 79.4038C93.1197 78.5915 93.1289 77.1256 91.7259 76.3078ZM87.0292 51.3607C87.98 50.8069 89.5843 50.8142 90.5314 51.3607C91.3123 51.813 91.3049 52.3982 90.5277 52.8506C89.5825 53.4007 87.9855 53.4044 87.0422 52.8598C86.2483 52.4001 86.2483 51.813 87.0292 51.3607ZM71.9942 48.5878C72.9449 48.0358 74.5492 48.0413 75.4982 48.5878C76.2791 49.0401 76.2699 49.6253 75.4926 50.0776C74.5474 50.6278 72.9505 50.6315 72.0071 50.0869C71.2132 49.6272 71.2132 49.0401 71.9942 48.5878ZM19.6502 50.4044C18.8729 49.9521 18.8637 49.3669 19.6446 48.9146C20.5972 48.3644 22.2015 48.3644 23.1468 48.9146C23.9259 49.365 23.9295 49.9521 23.1357 50.4118C22.1923 50.9564 20.5972 50.9546 19.6502 50.4044ZM4.74247 53.2512C3.96708 52.7989 3.95601 52.2136 4.73878 51.7613C5.69139 51.2112 7.29385 51.2112 8.24093 51.7613C9.02185 52.2155 9.02001 52.8007 8.22801 53.2586C7.28647 53.805 5.68955 53.8013 4.74247 53.2512ZM8.46616 78.5546C7.52093 79.1029 5.92401 79.1084 4.98062 78.5638C4.18678 78.1022 4.19047 77.517 4.96955 77.0647C5.92401 76.5109 7.52647 76.5219 8.46985 77.0647C9.26001 77.5226 9.23601 78.1078 8.46616 78.5546ZM23.1615 81.5749C22.2145 82.125 20.6175 82.1287 19.6723 81.5859C18.8785 81.1244 18.8822 80.5392 19.6631 80.0869C20.6157 79.533 22.2145 79.5404 23.1634 80.0869C23.972 80.5539 23.9092 81.1392 23.1615 81.5749ZM28.4231 90.0764C27.4742 90.6266 25.8791 90.6302 24.9357 90.0856C24.1419 89.6241 24.1455 89.0389 24.9246 88.5866C25.8791 88.0327 27.4834 88.0419 28.4268 88.5866C29.2077 89.0389 29.2003 89.6241 28.4231 90.0764ZM71.3037 88.629C72.0865 89.085 72.0791 89.6721 71.2908 90.1262C70.3492 90.6727 68.7523 90.669 67.8052 90.117C67.0299 89.6666 67.0188 89.0813 67.8015 88.6309C68.7505 88.0826 70.3492 88.0752 71.3037 88.629ZM76.3696 80.013C77.1523 80.4672 77.1486 81.0524 76.3585 81.5102C75.4151 82.0549 73.8182 82.053 72.8711 81.501C72.1123 81.0598 72.0717 80.4727 72.8674 80.0149C73.82 79.4647 75.4188 79.4592 76.3696 80.013ZM66.7769 78.0192C56.3535 84.0376 39.452 84.0432 29.0988 78.0247C24.1862 75.1706 21.4834 71.4026 21.4889 67.4149C21.4908 65.6204 22.0705 63.8739 23.1228 62.229C23.132 62.2179 23.1468 62.2106 23.156 62.1976C23.1597 62.1902 23.156 62.181 23.1579 62.1736C24.4631 60.1613 26.4939 58.3022 29.2225 56.7275C29.8022 56.3915 30.4095 56.0813 31.0262 55.7859L32.4828 56.6315C32.5887 56.6917 32.7142 56.7076 32.8318 56.6757C32.9494 56.6437 33.0497 56.5666 33.1106 56.461C33.1715 56.3555 33.1883 56.2301 33.1571 56.1123C33.1259 55.9945 33.0495 55.8937 32.9443 55.8321L32.0674 55.3226C36.8046 53.2604 42.4428 52.2136 48.092 52.2136C53.3812 52.2136 58.6557 53.1293 63.1769 54.9367L62.324 55.4333C62.2678 55.4616 62.2179 55.501 62.1775 55.5492C62.1371 55.5974 62.1069 55.6533 62.0889 55.7136C62.0709 55.7739 62.0654 55.8372 62.0728 55.8997C62.0801 55.9622 62.1002 56.0225 62.1317 56.077C62.1632 56.1314 62.2055 56.1788 62.256 56.2163C62.3065 56.2538 62.3641 56.2806 62.4254 56.295C62.4866 56.3095 62.5502 56.3112 62.6121 56.3002C62.674 56.2891 62.7331 56.2655 62.7855 56.2309L64.2366 55.389C65.1615 55.8007 66.0643 56.2364 66.9099 56.7275C69.3412 58.1398 71.228 59.7792 72.5148 61.557V61.5736C72.5277 61.5921 72.548 61.6013 72.5609 61.6179C73.8422 63.4087 74.5142 65.3416 74.5105 67.3299C74.5049 71.3472 71.7615 75.1429 66.7769 78.0192ZM91.2477 78.6044C90.3062 79.149 88.7074 79.1472 87.7622 78.597C86.9849 78.1447 86.9757 77.5595 87.7566 77.1072C88.7111 76.557 90.3136 76.557 91.2606 77.1072C92.0415 77.5613 92.0397 78.1466 91.2477 78.6044Z" fill="#989898"/>
<path d="M24.0352 60.0708C24.0352 60.608 24.0924 61.1416 24.1976 61.6733C24.1348 61.3668 24.0684 61.0603 24.0352 60.7539C24.0536 60.7354 24.0536 60.7354 24.0352 60.7354V60.0708Z" fill="#1E6373"/>
<path d="M71.9798 59.9602C71.9798 56.4156 69.6536 52.8894 65.0198 50.1941C55.6782 44.7664 40.5028 44.7664 31.1059 50.1941C26.3687 52.9374 24.0296 56.5264 24.0407 60.1282C24.0444 60.6451 24.0961 61.1621 24.1976 61.6734C24.1348 61.367 24.0684 61.0605 24.0352 60.7541L24.0536 66.8648C24.0536 70.391 26.3798 73.9171 31.0136 76.6125C40.3367 82.0402 55.5121 82.0402 64.909 76.6125C69.6536 73.8802 71.9982 70.2987 71.9982 66.7171L71.9798 59.9602Z" fill="#1E6373"/>
<path d="M24.0327 60.0708C24.0327 60.0893 24.0383 60.1077 24.0383 60.128C24.0383 60.3311 24.018 60.5342 24.0327 60.7354V60.0708Z" fill="#1E6373"/>
<path d="M24.0352 60.0708C24.0352 60.608 24.0924 61.1416 24.1976 61.6733C24.1348 61.3668 24.0684 61.0603 24.0352 60.7539C24.0536 60.7354 24.0536 60.7354 24.0352 60.7354V60.0708Z" fill="#1E6373"/>
<path d="M24.0234 60.0765L24.0419 66.8685C24.053 70.3983 26.3754 73.9245 31.013 76.6199C40.3379 82.0402 55.517 82.0402 64.9139 76.6162C69.6437 73.8839 72.0031 70.3023 71.9939 66.7245L71.9754 59.9343C71.9847 63.5103 69.6234 67.0937 64.8954 69.8242C55.4985 75.25 40.3194 75.25 30.9927 69.8297C26.3551 67.1343 24.0327 63.6082 24.0234 60.0765Z" fill="#1E6373"/>
<path d="M31.1031 50.1885C21.7062 55.6125 21.6582 64.4039 30.9923 69.8316C40.3191 75.2501 55.4982 75.2501 64.8951 69.8242C74.292 64.4002 74.34 55.6088 65.0133 50.1885C55.6791 44.7627 40.5 44.7627 31.1031 50.1885Z" fill="#33848C"/>
<path d="M47.9129 72.61C54.0975 72.61 59.9 71.2254 64.2514 68.7127C68.3997 66.3183 70.6871 63.2112 70.6908 59.9657C70.6963 56.7478 68.4495 53.6703 64.3695 51.298C60.0477 48.7872 54.2618 47.4026 48.0828 47.4026C41.8981 47.4026 36.0975 48.7872 31.7443 51.2998C27.5997 53.6943 25.3123 56.8014 25.3086 60.045C25.3049 63.2629 27.5517 66.3441 31.6391 68.7183C35.9554 71.2291 41.7357 72.61 47.9129 72.61Z" fill="#1E6373"/>
<path d="M68.0439 42.8093V58.4462C68.0439 61.437 66.0685 64.4278 62.1177 66.717C54.2716 71.2586 41.5701 71.2586 33.7793 66.717C29.9024 64.4647 27.9639 61.5109 27.9454 58.5755V42.9201C27.927 39.9293 29.9024 36.9385 33.8716 34.6493C41.7362 30.1078 54.4193 30.1078 62.2285 34.6493C66.1054 36.9016 68.0439 39.8555 68.0439 42.8093Z" fill="#DADADA"/>
<path d="M27.9531 42.9127V58.5663C27.9624 61.5201 29.9027 64.4666 33.7796 66.7207C41.5777 71.2512 54.2682 71.2512 62.1236 66.7152C66.0781 64.4333 68.0534 61.437 68.0442 58.4444V42.7927C68.0534 45.7835 66.0781 48.7798 62.1236 51.0635C54.2682 55.5995 41.5759 55.5976 33.7796 51.0672C29.9027 48.8149 27.9624 45.8666 27.9531 42.9127Z" fill="#F1F1F1"/>
<path d="M27.9531 55.1491V58.5663C27.9624 61.5201 29.9027 64.4666 33.7796 66.7207C41.5777 71.2512 54.2682 71.2512 62.1236 66.7152C66.0781 64.4334 68.0534 61.4371 68.0442 58.4444V55.0291C68.0534 58.0198 66.0781 61.0143 62.1236 63.298C54.2682 67.834 41.5759 67.834 33.7796 63.3017C29.9027 61.0494 27.9624 58.101 27.9531 55.1491Z" fill="#DADADA"/>
<path d="M33.8715 34.6457C26.0162 39.1798 25.9755 46.5312 33.7792 51.0672C41.5774 55.5977 54.2678 55.5995 62.1232 51.0635C69.9786 46.5275 70.0211 39.1761 62.2229 34.6457C54.4192 30.1097 41.7288 30.1097 33.8715 34.6457Z" fill="#F6F6F6"/>
<path d="M64.6658 37.1971V42.6433C64.6842 45.1171 63.0411 47.6094 59.755 49.511C53.2196 53.2771 42.6596 53.2771 36.1796 49.511C32.9488 47.6464 31.3242 45.191 31.3242 42.7356V37.2525C31.3242 34.7602 32.9673 32.2679 36.2534 30.3664C42.7888 26.6002 53.3304 26.6002 59.8288 30.3664C63.0596 32.2494 64.6658 34.7233 64.6658 37.1971Z" fill="#F1F1F1"/>
<path d="M31.33 37.2506V42.7336C31.3355 45.189 32.949 47.6426 36.1743 49.5164C42.6598 53.2863 53.2143 53.2863 59.7497 49.5127C63.0377 47.6149 64.6789 45.1226 64.6734 42.634V37.1509C64.6807 39.6395 63.0377 42.1318 59.7497 44.0296C53.2143 47.8013 42.6598 47.8013 36.1743 44.0333C32.949 42.1595 31.3374 39.7078 31.33 37.2506Z" fill="#F1F1F1"/>
<path d="M36.2519 30.3737C29.7165 34.1472 29.6833 40.2598 36.1744 44.0334C42.6599 47.8014 53.2144 47.8014 59.7497 44.0297C66.2851 40.258 66.3184 34.1435 59.8328 30.3737C53.3418 26.602 42.7854 26.602 36.2519 30.3737Z" fill="#F6F6F6"/>
<path d="M47.9406 45.4273C52.1461 45.4273 56.0877 44.4931 59.0341 42.791C61.7443 41.2254 63.2397 39.2316 63.2434 37.1731C63.2452 35.135 61.7794 33.1596 59.1135 31.6107C56.1892 29.9122 52.2624 28.9744 48.0569 28.9744C43.8514 28.9744 39.9117 29.9122 36.9652 31.6144C34.255 33.1781 32.7615 35.1719 32.7578 37.2285C32.756 39.2685 34.2237 41.2457 36.8932 42.7965C39.8138 44.495 43.7369 45.4273 47.9406 45.4273Z" fill="#F1F1F1"/>
<path d="M58.8731 13.9964C56.8109 12.7853 53.9476 12.9663 50.8036 14.7718C44.5396 18.3792 39.4608 27.1447 39.4866 34.3373C39.5125 37.9189 40.7753 40.4204 42.8116 41.6056L39.1765 39.4918C37.1402 38.3066 35.8774 35.8069 35.8516 32.2235C35.8516 25.0309 40.9045 16.2912 47.1685 12.6561C50.3143 10.8524 53.1759 10.6715 55.2362 11.8826L58.8731 13.9964Z" fill="#B5B5B5"/>
<path d="M50.7983 14.7811C57.0531 11.1701 62.1559 14.0574 62.1762 21.2445C62.1965 28.4501 57.1269 37.2138 50.8722 40.823C44.6174 44.4322 39.5165 41.5448 39.4962 34.3393C39.4758 27.1522 44.5454 18.3922 50.7983 14.7811Z" fill="#9B9B9B"/>
<path d="M45.7831 40.5718C42.9843 40.5718 41.308 38.2401 41.2969 34.3355C41.2785 27.8481 46.0415 19.6106 51.6982 16.3429C53.188 15.4844 54.6354 15.0303 55.8871 15.0303C58.6803 15.0303 60.3585 17.3546 60.3677 21.2518C60.3862 27.7484 55.6231 35.9952 49.9683 39.261C48.4803 40.1195 47.0348 40.5718 45.7831 40.5718Z" fill="#B5B5B5"/>
<path d="M50.8706 18.6101L55.6909 25.2156L50.8281 25.5184L50.8706 18.6101Z" fill="#8E8E8E"/>
<path d="M50.8281 25.5183L55.6909 25.2156L50.8447 31.3411L50.8281 25.5183Z" fill="#A1A1A1"/>
<path d="M45.9766 31.9189L50.8449 32.4414L50.8615 36.994L45.9766 31.9189Z" fill="#8E8E8E"/>
<path d="M50.8615 36.994L50.8486 32.4414L55.6947 26.3953L50.8615 36.994Z" fill="#9B9B9B"/>
<path d="M50.828 25.5183L50.8447 31.3411L45.9727 30.826L50.828 25.5183Z" fill="#8E8E8E"/>
<path d="M50.8705 18.6101L50.828 25.5184L45.9727 30.8261L50.8705 18.6101Z" fill="#A1A1A1"/>
<path opacity="0.3" d="M62.0196 19.2303L49.0282 41.7349C46.1925 42.8186 43.7168 42.5103 41.9888 41.0149L57.8436 13.5331C60.0091 14.2531 61.5303 16.2395 62.0196 19.2303ZM56.2725 13.2488L40.9346 39.8278C40.3162 38.9251 39.8768 37.7657 39.6719 36.3737L52.6633 13.8691C53.9519 13.378 55.1648 13.1712 56.2725 13.2488Z" fill="white"/>
<g opacity="0.3">
<path d="M32.5039 14.22V36.4938C32.5094 38.7775 34.0104 41.0575 37.0085 42.8003C43.0418 46.3061 52.8578 46.3061 58.9353 42.7966C61.9925 41.0317 63.5211 38.7148 63.5138 36.3997V14.1277C63.5211 16.4409 61.9925 18.7578 58.9353 20.5246C52.8578 24.0323 43.0399 24.0323 37.0104 20.5283C34.0104 18.7855 32.5094 16.5037 32.5039 14.22Z" fill="#50EFFF"/>
<path d="M37.0838 7.82486C31.0063 11.3326 30.9731 17.0187 37.01 20.5264C43.0432 24.0341 52.8592 24.0341 58.9368 20.5246C65.0125 17.0169 65.0438 11.3307 59.0125 7.82486C52.9755 4.31717 43.1595 4.31717 37.0838 7.82486Z" fill="#AAAAAA"/>
</g>
<path d="M59.043 47.2143C59.043 48.0764 59.6559 48.4161 60.3593 48.0081C61.0424 47.5983 61.6977 46.5995 61.6977 45.6931C61.6977 44.8531 61.107 44.4894 60.3593 44.9435C59.6577 45.2943 59.043 46.4315 59.043 47.2143Z" fill="#F6F6F6"/>
<path d="M59.2305 47.2142C59.2305 46.5164 59.7954 45.4382 60.4415 45.1133C61.0877 44.7256 61.5068 45.0044 61.5068 45.693C61.5068 46.5275 60.892 47.4653 60.2588 47.8456C59.668 48.189 59.2305 47.901 59.2305 47.2142Z" fill="#33848C"/>
<path d="M59.043 56.5264C59.043 57.3904 59.6559 57.7301 60.3593 57.3202C61.0424 56.9141 61.6977 55.9116 61.6977 55.007C61.6977 54.167 61.107 53.8033 60.3593 54.2575C59.6577 54.6082 59.043 55.7455 59.043 56.5283V56.5264Z" fill="#F6F6F6"/>
<path d="M59.2305 56.5282C59.2305 55.8304 59.7954 54.7522 60.4415 54.4273C61.0877 54.0396 61.5068 54.3184 61.5068 55.007C61.5068 55.8396 60.892 56.7793 60.2588 57.1577C59.668 57.5011 59.2305 57.215 59.2305 56.5282Z" fill="#A2A2A2"/>
<path d="M59.043 61.3337C59.043 62.1958 59.6559 62.5374 60.3593 62.1275C61.0424 61.7195 61.6977 60.7189 61.6977 59.8124C61.6977 58.9724 61.107 58.6106 60.3593 59.0648C59.6577 59.4155 59.043 60.5509 59.043 61.3337Z" fill="#F6F6F6"/>
<path d="M59.2305 61.3337C59.2305 60.6377 59.7954 59.5577 60.4415 59.2346C61.0877 58.8469 61.5068 59.1238 61.5068 59.8124C61.5068 60.6469 60.892 61.5847 60.2588 61.965C59.668 62.3084 59.2305 62.0204 59.2305 61.3337Z" fill="#8C8C8C"/>
</svg>
