<svg width="243" height="68" viewBox="0 0 243 68" fill="none" xmlns="http://www.w3.org/2000/svg">
<path d="M191.006 22.6393C187.296 17.1511 185.441 14.4069 186.569 12.2831C187.697 10.1592 191.009 10.1592 197.634 10.1592H198.683C200.76 10.1592 201.799 10.1592 202.678 10.6255C203.558 11.0917 204.14 11.9518 205.306 13.672L233.653 55.5127C237.373 61.0032 239.233 63.7484 238.106 65.8741C236.978 67.9999 233.662 67.9999 227.03 67.9999H225.916C223.836 67.9999 222.796 67.9999 221.916 67.5326C221.036 67.0654 220.453 66.2036 219.288 64.4801L191.006 22.6393ZM218.168 26.0455C216.829 24.0609 216.159 23.0687 216.11 21.941C216.109 21.9166 216.108 21.8922 216.108 21.8678C216.079 20.7395 216.679 19.7036 217.879 17.6318L219.895 14.1504C221.023 12.2024 221.587 11.2284 222.514 10.6938C223.441 10.1592 224.577 10.1592 226.849 10.1592C233.476 10.1592 236.789 10.1592 237.921 12.2664C239.053 14.3736 237.242 17.108 233.62 22.5766L231.36 25.989C228.422 30.4255 226.953 32.6438 224.857 32.6865C224.814 32.6874 224.771 32.6876 224.728 32.6871C222.632 32.6623 221.144 30.4567 218.168 26.0455ZM192.914 51.6947C195.813 47.2781 197.262 45.0697 199.335 45.0006C199.409 44.9981 199.483 44.9977 199.558 44.9994C201.631 45.0456 203.105 47.2378 206.052 51.6222C207.348 53.5494 207.996 54.5131 208.058 55.6079C208.06 55.6493 208.062 55.6908 208.063 55.7323C208.091 56.8285 207.525 57.8422 206.392 59.8695L204.139 63.9019C203.023 65.9005 202.464 66.8998 201.527 67.4498C200.589 67.9999 199.435 67.9999 197.126 67.9999C190.532 67.9999 187.235 67.9999 186.101 65.8999C184.968 63.7999 186.76 61.0699 190.344 55.6099L192.914 51.6947Z" fill="#3EABAF"/>
<path d="M158.446 42.3589C158.446 40.6255 159.851 39.2203 161.585 39.2203C163.318 39.2203 164.769 37.8087 164.576 36.086C164.42 34.6906 164.141 33.7177 163.737 33.1672C163.378 32.6628 162.9 32.3545 162.302 32.2424C161.704 32.0743 160.837 31.9902 159.702 31.9902C159.008 31.9902 158.446 31.4281 158.446 30.7348V22.5687C158.446 21.8753 159.008 21.3132 159.702 21.3132C164.843 21.3132 168.789 21.7056 171.539 22.4902C174.348 23.2749 176.411 24.564 177.726 26.3575C178.922 27.9268 179.639 29.9445 179.878 32.4106C180.177 34.8767 180.327 38.5758 180.327 43.5079C180.327 45.3652 178.821 46.8708 176.964 46.8708H162.271C160.159 46.8708 158.446 45.1581 158.446 43.0455V42.3589ZM161.495 65.5345C155.995 65.5345 151.661 65.1141 148.492 64.2734C145.384 63.3767 143.052 61.9755 141.498 60.0699C140.123 58.3885 139.226 56.3147 138.807 53.8486C138.389 51.3265 138.18 47.8796 138.18 43.5079C138.18 39.4725 138.329 36.2778 138.628 33.9239C138.927 31.5138 139.555 29.4681 140.511 27.7867C141.587 25.9371 143.231 24.5079 145.443 23.4991C145.71 23.3742 145.987 23.2547 146.276 23.1407C149.544 21.8486 151.178 21.2026 152.929 22.3931C154.68 23.5836 154.68 25.7488 154.68 30.0791V46.8708C154.68 48.7764 154.769 50.1495 154.949 50.9902C155.128 51.7749 155.547 52.3634 156.204 52.7557C156.922 53.2041 158.028 53.4563 159.522 53.5124C161.435 53.6244 163.468 53.6805 165.62 53.6805C169.446 53.6805 172.226 53.5964 173.96 53.4283C174.218 53.4093 174.347 53.3998 174.454 53.3977C176.61 53.3551 178.412 55.0292 178.527 57.1825C178.533 57.2896 178.533 57.419 178.533 57.6777V59.4569C178.533 60.7542 178.533 61.4029 178.299 62.0571C177.992 62.914 177.178 63.8439 176.369 64.2617C175.752 64.5807 175.214 64.6524 174.14 64.7958C172.529 65.011 170.705 65.1732 168.669 65.2823C166.636 65.4504 164.245 65.5345 161.495 65.5345Z" fill="white"/>
<path d="M112.057 44.5168C112.057 41.5463 112.027 39.5846 111.967 38.6318C111.847 37.0625 111.698 36.0256 111.518 35.5212C111.279 34.9607 110.861 34.6244 110.263 34.5123C109.665 34.3442 108.709 34.2601 107.393 34.2601C106.898 34.2601 106.497 33.8586 106.497 33.3634V27.355C106.497 25.914 106.497 25.1935 106.904 24.3617C107.058 24.0459 107.452 23.5014 107.704 23.2559C108.367 22.6094 108.817 22.4611 109.718 22.1646C111.443 21.597 113.418 21.3132 115.644 21.3132C121.024 21.3132 124.641 22.8545 126.494 25.9371C127.331 27.2823 127.899 28.9357 128.198 30.8973C128.497 32.8029 128.646 35.1569 128.646 37.9593V56.7778C128.646 60.5491 128.646 62.4347 127.475 63.6063C126.303 64.7778 124.418 64.7778 120.646 64.7778H120.057C116.285 64.7778 114.4 64.7778 113.228 63.6063C112.057 62.4347 112.057 60.5491 112.057 56.7778V44.5168ZM86.1406 29.9017C86.1406 26.1305 86.1406 24.2449 87.3122 23.0733C88.4838 21.9017 90.3694 21.9017 94.1406 21.9017H94.7304C98.5016 21.9017 100.387 21.9017 101.559 23.0733C102.73 24.2449 102.73 26.1305 102.73 29.9017V56.7778C102.73 60.5491 102.73 62.4347 101.559 63.6063C100.387 64.7778 98.5016 64.7778 94.7304 64.7778H94.1406C90.3694 64.7778 88.4838 64.7778 87.3122 63.6063C86.1406 62.4347 86.1406 60.5491 86.1406 56.7778V29.9017Z" fill="white"/>
<path d="M61.0469 8.97546C61.0469 7.06183 61.0469 6.10501 61.3675 5.35318C61.7724 4.40392 62.5284 3.64785 63.4777 3.24301C64.2295 2.92236 65.1863 2.92236 67.1 2.92236H71.5835C73.4972 2.92236 74.454 2.92236 75.2058 3.24301C76.1551 3.64785 76.9112 4.40392 77.316 5.35318C77.6366 6.10501 77.6366 7.06183 77.6366 8.97546C77.6366 10.8891 77.6366 11.8459 77.316 12.5977C76.9112 13.547 76.1551 14.3031 75.2058 14.7079C74.454 15.0286 73.4972 15.0286 71.5835 15.0286H67.1C65.1863 15.0286 64.2295 15.0286 63.4777 14.7079C62.5284 14.3031 61.7724 13.547 61.3675 12.5977C61.0469 11.8459 61.0469 10.8891 61.0469 8.97546ZM61.0469 30.5109C61.0469 26.7396 61.0469 24.854 62.2184 23.6824C63.39 22.5109 65.2756 22.5109 69.0469 22.5109H69.6366C73.4079 22.5109 75.2935 22.5109 76.4651 23.6824C77.6366 24.854 77.6366 26.7396 77.6366 30.5109V57.387C77.6366 61.1582 77.6366 63.0438 76.4651 64.2154C75.2935 65.387 73.4079 65.387 69.6366 65.387H69.0469C65.2756 65.387 63.39 65.387 62.2184 64.2154C61.0469 63.0438 61.0469 61.1582 61.0469 57.387V30.5109Z" fill="white"/>
<path d="M43.1453 31.7086C45.0865 29.5436 46.2535 26.8599 46.2535 23.9467C46.2535 17.1325 39.9418 11.5355 31.9629 11.0267V3.99304C31.9629 2.33689 30.3672 1 28.3903 1C26.4134 1 24.8176 2.33689 24.8176 3.99304V10.9768H15.2906V3.99304C15.2906 2.33689 13.6948 1 11.7179 1C9.74107 1 8.14529 2.33689 8.14529 3.99304V10.9768H4.57265C2.59578 10.9768 1 12.3137 1 13.9698C1 15.626 2.59578 16.9629 4.57265 16.9629H8.14529V50.884H4.57265C2.59578 50.884 1 52.2209 1 53.8771C1 55.5332 2.59578 56.8701 4.57265 56.8701H8.14529V63.8539C8.14529 65.51 9.74107 66.8469 11.7179 66.8469C13.6948 66.8469 15.2906 65.51 15.2906 63.8539V56.8701H24.8176V63.8539C24.8176 65.51 26.4134 66.8469 28.3903 66.8469C30.3672 66.8469 31.9629 65.51 31.9629 63.8539V56.8701H37.9173C46.456 56.8701 53.3988 51.0536 53.3988 43.9003C53.3988 38.2833 49.1116 33.5144 43.1453 31.7086ZM30.7721 16.9629C35.3689 16.9629 39.1082 20.0956 39.1082 23.9467C39.1082 27.7977 35.3689 30.9304 30.7721 30.9304H15.2906V16.9629H30.7721ZM37.9173 50.884H15.2906V36.9165H30.7721H37.9173C42.5141 36.9165 46.2535 40.0492 46.2535 43.9003C46.2535 47.7513 42.5141 50.884 37.9173 50.884Z" fill="white" stroke="white" stroke-width="2"/>
</svg>
