<svg width="217" height="42" viewBox="0 0 220 42" fill="none" xmlns="http://www.w3.org/2000/svg">
<path d="M117.728 14.5122C116.68 12.9991 116.156 12.2426 115.973 11.654C115.323 9.55181 116.492 7.31869 118.591 6.65647C119.178 6.47107 120.099 6.47107 121.94 6.47107C122.512 6.47107 122.798 6.47107 123.067 6.50765C123.992 6.63362 124.844 7.07916 125.475 7.76712C125.658 7.96689 125.821 8.202 126.148 8.6722L143.006 32.9496C144.072 34.4847 144.605 35.2522 144.788 35.8501C145.428 37.9429 144.268 40.1615 142.184 40.8293C141.588 41.0201 140.654 41.0201 138.785 41.0201C138.204 41.0201 137.913 41.0201 137.64 40.9824C136.72 40.8551 135.872 40.4113 135.243 39.727C135.057 39.5244 134.891 39.2855 134.56 38.8077L117.728 14.5122ZM134.01 16.0463C133.721 15.6275 133.576 15.4181 133.466 15.2103C132.89 14.1248 132.845 12.8351 133.344 11.7123C133.44 11.4974 133.57 11.2784 133.829 10.8406L135.001 8.8672C135.253 8.44272 135.378 8.23048 135.519 8.04632C136.177 7.18218 137.159 6.62316 138.239 6.49779C138.469 6.47107 138.715 6.47107 139.209 6.47107C140.658 6.47107 141.382 6.47107 141.855 6.58773C144.172 7.15987 145.475 9.62041 144.647 11.8587C144.479 12.315 144.072 12.9145 143.258 14.1133L141.969 16.0119C141.369 16.8965 141.068 17.3388 140.782 17.6193C139.237 19.1314 136.77 19.1421 135.211 17.6433C134.922 17.3653 134.618 16.9257 134.01 16.0463ZM118.546 31.197C119.126 30.3352 119.416 29.9043 119.691 29.6297C121.24 28.0818 123.746 28.0678 125.313 29.5984C125.591 29.8699 125.886 30.2976 126.475 31.1528C126.749 31.5508 126.886 31.7497 126.992 31.9471C127.568 33.023 127.621 34.303 127.137 35.4231C127.048 35.6286 126.928 35.8383 126.688 36.2577L125.37 38.5592C125.121 38.994 124.996 39.2115 124.857 39.4C124.2 40.2873 123.206 40.8637 122.109 40.9927C121.876 41.0201 121.626 41.0201 121.125 41.0201C119.685 41.0201 118.965 41.0201 118.494 40.9044C116.18 40.3353 114.874 37.8821 115.694 35.6446C115.86 35.1895 116.262 34.5922 117.066 33.3975L118.546 31.197Z" fill="#3EABAF"/>
<path d="M97.3878 25.7507C97.3878 24.6895 98.248 23.8292 99.3092 23.8292C100.37 23.8292 101.261 22.9645 101.135 21.9108C101.039 21.102 100.869 20.5363 100.627 20.2136C100.407 19.9123 100.114 19.7282 99.7484 19.6612C99.3824 19.5608 98.8517 19.5106 98.1564 19.5106C97.7319 19.5106 97.3878 19.1665 97.3878 18.742V13.9017C97.3878 13.4772 97.7319 13.1331 98.1564 13.1331C101.304 13.1331 103.72 13.3674 105.403 13.8361C107.123 14.3048 108.386 15.0748 109.191 16.1461C109.923 17.0834 110.362 18.2886 110.509 19.7617C110.692 21.2347 110.783 23.4442 110.783 26.3903C110.783 27.4996 109.884 28.3989 108.775 28.3989H99.6726C98.4107 28.3989 97.3878 27.376 97.3878 26.1141V25.7507ZM99.2543 39.547C95.8872 39.547 93.2337 39.2959 91.2939 38.7938C89.3907 38.2581 87.9633 37.4212 87.0118 36.2829C86.17 35.2786 85.621 34.0399 85.3648 32.5669C85.1086 31.0604 84.9805 29.0015 84.9805 26.3903C84.9805 23.9799 85.072 22.0716 85.255 20.6656C85.438 19.226 85.8223 18.0041 86.4079 16.9997C87.0667 15.895 88.0731 15.0413 89.4273 14.4387C89.8552 14.243 90.0691 14.1452 90.7828 14.0916C92.226 13.9834 94.332 15.336 94.8338 16.6935C95.082 17.3648 95.082 17.9247 95.082 19.0445V28.3989C95.082 29.5372 95.1369 30.3574 95.2467 30.8595C95.3565 31.3282 95.6127 31.6797 96.0153 31.9141C96.4545 32.1819 97.1316 32.3326 98.0465 32.366C99.2177 32.433 100.462 32.4665 101.78 32.4665C104.122 32.4665 105.824 32.4163 106.885 32.3158C108.398 32.2073 109.685 33.4053 109.685 34.922V35.9037C109.685 37.4919 108.621 38.8914 107.046 39.0992C106.047 39.2311 104.914 39.3301 103.646 39.3964C102.402 39.4968 100.938 39.547 99.2543 39.547Z" fill="#0A435A"/>
<path d="M68.987 26.9929C68.987 25.2185 68.9687 24.0468 68.9321 23.4777C68.8589 22.5403 68.7675 21.921 68.6577 21.6197C68.5113 21.2849 68.2551 21.084 67.8891 21.0171C67.5231 20.9166 66.9375 20.8664 66.1323 20.8664C65.8291 20.8664 65.5833 20.6206 65.5833 20.3174V16.7617C65.5833 16.4986 65.5833 17.1563 65.5838 17.1234C65.605 15.8353 67.0691 13.822 68.2879 13.4048C68.319 13.3942 67.0095 13.8185 67.5333 13.6487C68.5944 13.305 69.8109 13.1331 71.183 13.1331C74.477 13.1331 76.6913 14.0537 77.8259 15.895C78.3383 16.6984 78.686 17.686 78.869 18.8578C79.052 19.996 79.1435 21.4021 79.1435 23.076V34.0169C79.1435 35.019 79.1435 35.5201 79.0541 35.9356C78.7236 37.4737 77.5221 38.6752 75.984 39.0058C75.5684 39.0951 75.0674 39.0951 74.0653 39.0951C73.0631 39.0951 72.562 39.0951 72.1465 39.0058C70.6084 38.6752 69.4069 37.4737 69.0764 35.9356C68.987 35.5201 68.987 35.019 68.987 34.0169V26.9929ZM53.1211 18.5628C53.1211 17.5606 53.1211 17.0596 53.2104 16.6441C53.541 15.106 54.7425 13.9045 56.2806 13.5739C56.6961 13.4846 57.1972 13.4846 58.1993 13.4846C59.2014 13.4846 59.7025 13.4846 60.118 13.5739C61.6561 13.9045 62.8576 15.106 63.1882 16.6441C63.2775 17.0596 63.2775 17.5606 63.2775 18.5628V34.0169C63.2775 35.019 63.2775 35.5201 63.1882 35.9356C62.8576 37.4737 61.6561 38.6752 60.118 39.0058C59.7025 39.0951 59.2014 39.0951 58.1993 39.0951C57.1972 39.0951 56.6961 39.0951 56.2806 39.0058C54.7425 38.6752 53.541 37.4737 53.2104 35.9356C53.1211 35.5201 53.1211 35.019 53.1211 34.0169V18.5628Z" fill="#0A435A"/>
<path d="M37.7598 5.76367C37.7598 3.76683 39.3785 2.14807 41.3754 2.14807H44.3006C46.2974 2.14807 47.9162 3.76683 47.9162 5.76367C47.9162 7.76051 46.2974 9.37927 44.3006 9.37927H41.3754C39.3785 9.37927 37.7598 7.76051 37.7598 5.76367ZM37.7598 18.9268C37.7598 17.9246 37.7598 17.4236 37.8491 17.008C38.1796 15.4699 39.3811 14.2684 40.9193 13.9379C41.3348 13.8486 41.8358 13.8486 42.838 13.8486C43.8401 13.8486 44.3412 13.8486 44.7567 13.9379C46.2948 14.2684 47.4963 15.4699 47.8269 17.008C47.9162 17.4236 47.9162 17.9246 47.9162 18.9268V34.3809C47.9162 35.383 47.9162 35.8841 47.8269 36.2996C47.4963 37.8377 46.2948 39.0392 44.7567 39.3698C44.3412 39.4591 43.8401 39.4591 42.838 39.4591C41.8358 39.4591 41.3348 39.4591 40.9193 39.3698C39.3811 39.0392 38.1796 37.8377 37.8491 36.2996C37.7598 35.8841 37.7598 35.383 37.7598 34.3809V18.9268Z" fill="#0A435A"/>
<path d="M26.8018 19.3427C27.9901 18.0495 28.7046 16.4465 28.7046 14.7064C28.7046 10.6362 24.8406 7.29301 19.9558 6.98908V2.78779C19.9558 1.79854 18.9788 1 17.7686 1C16.5583 1 15.5814 1.79854 15.5814 2.78779V6.95928H9.74883V2.78779C9.74883 1.79854 8.77188 1 7.56162 1C6.35137 1 5.37441 1.79854 5.37441 2.78779V6.95928H3.18721C1.97695 6.95928 1 7.75783 1 8.74707C1 9.73631 1.97695 10.5349 3.18721 10.5349H5.37441V30.7964H3.18721C1.97695 30.7964 1 31.595 1 32.5842C1 33.5735 1.97695 34.372 3.18721 34.372H5.37441V38.5435C5.37441 39.5327 6.35137 40.3313 7.56162 40.3313C8.77188 40.3313 9.74883 39.5327 9.74883 38.5435V34.372H15.5814V38.5435C15.5814 39.5327 16.5583 40.3313 17.7686 40.3313C18.9788 40.3313 19.9558 39.5327 19.9558 38.5435V34.372H23.6011C28.8286 34.372 33.079 30.8977 33.079 26.6249C33.079 23.2698 30.4544 20.4213 26.8018 19.3427ZM19.2267 10.5349C22.0409 10.5349 24.3302 12.4061 24.3302 14.7064C24.3302 17.0066 22.0409 18.8779 19.2267 18.8779H9.74883V10.5349H19.2267ZM23.6011 30.7964H9.74883V22.4534H19.2267H23.6011C26.4153 22.4534 28.7046 24.3246 28.7046 26.6249C28.7046 28.9252 26.4153 30.7964 23.6011 30.7964Z" fill="#0A435A" stroke="#0A435A" stroke-width="2"/>
</svg>
