<svg width="278" height="270" viewBox="0 0 278 270" fill="none" xmlns="http://www.w3.org/2000/svg">
<path d="M22.1641 128.794C20.8233 128.794 19.5126 128.397 18.3977 127.652C17.2829 126.907 16.4139 125.848 15.9008 124.609C15.3877 123.37 15.2534 122.007 15.515 120.692C15.7766 119.377 16.4223 118.169 17.3704 117.221C18.3185 116.273 19.5265 115.627 20.8415 115.366C22.1566 115.104 23.5197 115.238 24.7585 115.752C25.9973 116.265 27.0561 117.134 27.801 118.248C28.5459 119.363 28.9435 120.674 28.9435 122.015C28.942 123.812 28.2272 125.536 26.9562 126.807C25.6851 128.078 23.9617 128.793 22.1641 128.794ZM22.1641 116.409C21.0547 116.409 19.9701 116.738 19.0476 117.354C18.1252 117.971 17.4063 118.847 16.9818 119.872C16.5574 120.897 16.4465 122.025 16.6631 123.113C16.8798 124.201 17.4143 125.201 18.199 125.985C18.9837 126.769 19.9834 127.303 21.0717 127.519C22.1599 127.735 23.2878 127.624 24.3126 127.199C25.3375 126.774 26.2133 126.055 26.8293 125.132C27.4452 124.209 27.7737 123.124 27.7731 122.015C27.7716 120.528 27.1801 119.103 26.1284 118.051C25.0768 117 23.651 116.41 22.1641 116.409ZM154.697 12.6086C154.578 12.6095 154.462 12.5744 154.364 12.5079C154.266 12.4415 154.191 12.3468 154.147 12.2364C154.104 12.1261 154.096 12.0052 154.123 11.8899C154.15 11.7745 154.211 11.6701 154.299 11.5904L165.464 1.32623C165.52 1.27164 165.587 1.22884 165.66 1.20035C165.732 1.17187 165.81 1.15827 165.888 1.16037C165.967 1.16246 166.044 1.18021 166.115 1.21257C166.186 1.24492 166.25 1.29122 166.303 1.34873C166.356 1.40624 166.397 1.47379 166.423 1.54739C166.45 1.62099 166.461 1.69915 166.457 1.77725C166.453 1.85535 166.433 1.9318 166.399 2.00208C166.364 2.07236 166.316 2.13506 166.257 2.18645L155.092 12.4535C154.984 12.5528 154.843 12.6081 154.697 12.6086Z" fill="#808080"/>
<path d="M165.412 13.0558C165.331 13.0559 165.252 13.0394 165.178 13.0072C165.104 12.9749 165.037 12.9277 164.982 12.8685L154.715 1.7032C154.61 1.58874 154.554 1.4372 154.561 1.28191C154.568 1.12663 154.636 0.980314 154.75 0.875165C154.865 0.770017 155.016 0.714645 155.171 0.72123C155.327 0.727814 155.473 0.795816 155.578 0.910277L165.842 12.0756C165.919 12.1593 165.969 12.2634 165.988 12.3752C166.006 12.4871 165.992 12.6019 165.946 12.7058C165.901 12.8096 165.826 12.8979 165.731 12.9601C165.636 13.0222 165.526 13.0555 165.412 13.0558ZM191.558 269.279H176.806C176.703 269.279 176.602 269.252 176.513 269.201C176.424 269.149 176.351 269.075 176.299 268.986C176.248 268.897 176.221 268.796 176.221 268.694C176.221 268.591 176.248 268.49 176.3 268.401L183.676 255.624C183.727 255.535 183.801 255.462 183.89 255.41C183.979 255.359 184.079 255.332 184.182 255.332C184.285 255.332 184.385 255.359 184.474 255.41C184.563 255.462 184.637 255.535 184.688 255.624L192.067 268.401C192.119 268.491 192.146 268.592 192.146 268.695C192.146 268.797 192.118 268.899 192.067 268.988C192.015 269.077 191.941 269.15 191.852 269.202C191.762 269.253 191.661 269.28 191.558 269.279ZM177.806 268.109H190.534L184.17 257.087L177.806 268.109Z" fill="#808080"/>
<path d="M134.094 238.973C133.801 238.973 136.329 240.623 97.7626 214.275C83.6952 204.671 72.1855 191.778 64.2335 176.715C56.2814 161.653 52.1276 144.876 52.1328 127.843V51.3184C52.1331 51.2194 52.1585 51.1221 52.2066 51.0357C52.2547 50.9492 52.3239 50.8763 52.4079 50.8239C52.4986 50.7654 61.7328 44.9867 76.339 39.2928C89.8217 34.0261 110.786 27.7705 134.094 27.7705C157.402 27.7705 178.363 34.0349 191.846 39.2928C206.455 44.9867 215.689 50.7654 215.78 50.8239C215.864 50.8763 215.933 50.9492 215.981 51.0357C216.029 51.1221 216.055 51.2194 216.055 51.3184V127.843C216.058 144.877 211.902 161.655 203.948 176.718C195.993 191.78 184.481 204.673 170.41 214.275C131.823 240.646 134.375 238.973 134.094 238.973ZM53.3032 51.649V127.843C53.2978 144.685 57.405 161.274 65.2678 176.168C73.1306 191.062 84.5113 203.81 98.421 213.306L134.094 237.676L169.767 213.306C183.676 203.81 195.057 191.062 202.92 176.168C210.783 161.274 214.89 144.685 214.885 127.843V51.649C213.258 50.66 204.515 45.487 191.395 40.3754C178.012 35.1585 157.206 28.9438 134.094 28.9438C110.982 28.9438 90.1757 35.1585 76.7925 40.3754C63.6727 45.487 54.93 50.66 53.3032 51.649Z" fill="#01777B"/>
<path d="M104.694 204.128C92.2786 195.652 82.1203 184.272 75.1019 170.978C68.0835 157.683 64.4173 142.876 64.4219 127.843V58.1798C75.6457 52.328 102.874 40.0625 134.094 40.0625C165.314 40.0625 192.528 52.3163 203.766 58.1798V127.843C203.771 142.876 200.105 157.683 193.086 170.978C186.068 184.272 175.909 195.652 163.494 204.128L134.094 224.211L104.694 204.128Z" fill="#808080"/>
<path d="M0.9375 168.341H138.819V193.056H0.9375V168.341Z" fill="#C6C6C6"/>
<path d="M18.72 187.882C18.5648 187.882 18.4159 187.821 18.3062 187.711C18.1964 187.601 18.1348 187.452 18.1348 187.297V173.762C18.1348 173.607 18.1964 173.458 18.3062 173.348C18.4159 173.238 18.5648 173.177 18.72 173.177C18.8752 173.177 19.024 173.238 19.1337 173.348C19.2435 173.458 19.3051 173.607 19.3051 173.762V187.297C19.3051 187.452 19.2435 187.601 19.1337 187.711C19.024 187.821 18.8752 187.882 18.72 187.882Z" fill="white"/>
<path d="M12.8595 184.497C12.7309 184.497 12.6059 184.454 12.504 184.376C12.402 184.298 12.3287 184.188 12.2954 184.064C12.262 183.939 12.2706 183.808 12.3197 183.689C12.3688 183.57 12.4557 183.47 12.5669 183.406L24.3028 176.638C24.3694 176.596 24.4439 176.567 24.5218 176.555C24.5997 176.542 24.6793 176.545 24.756 176.564C24.8327 176.582 24.9047 176.617 24.9679 176.664C25.031 176.711 25.0839 176.771 25.1234 176.839C25.1629 176.908 25.1882 176.983 25.1977 177.061C25.2072 177.14 25.2008 177.219 25.1788 177.295C25.1568 177.371 25.1197 177.441 25.0697 177.503C25.0198 177.564 24.958 177.614 24.888 177.651C12.3504 184.883 13.0907 184.497 12.8595 184.497Z" fill="white"/>
<path d="M24.5966 184.497C24.3625 184.497 25.0853 184.872 12.5798 177.651C12.4525 177.57 12.3613 177.443 12.3254 177.296C12.2895 177.149 12.3116 176.995 12.3871 176.864C12.4627 176.733 12.5858 176.637 12.7307 176.595C12.8757 176.553 13.0313 176.568 13.165 176.638L24.8892 183.406C25.0005 183.47 25.0874 183.57 25.1365 183.689C25.1856 183.808 25.1941 183.939 25.1608 184.064C25.1275 184.188 25.0542 184.298 24.9522 184.376C24.8502 184.454 24.7252 184.497 24.5966 184.497ZM39.3608 187.997C39.2056 187.997 39.0568 187.935 38.9471 187.825C38.8373 187.716 38.7757 187.567 38.7757 187.412V173.873C38.7757 173.718 38.8373 173.569 38.9471 173.459C39.0568 173.35 39.2056 173.288 39.3608 173.288C39.516 173.288 39.6649 173.35 39.7746 173.459C39.8844 173.569 39.946 173.718 39.946 173.873V187.412C39.946 187.567 39.8844 187.716 39.7746 187.825C39.6649 187.935 39.516 187.997 39.3608 187.997Z" fill="white"/>
<path d="M33.5002 184.612C33.3715 184.611 33.2466 184.569 33.1446 184.49C33.0426 184.412 32.9693 184.302 32.936 184.178C32.9027 184.054 32.9112 183.922 32.9603 183.803C33.0094 183.684 33.0963 183.585 33.2076 183.52L44.9318 176.752C44.9984 176.71 45.0728 176.682 45.1507 176.669C45.2286 176.656 45.3083 176.659 45.3849 176.678C45.4616 176.697 45.5336 176.731 45.5968 176.778C45.6599 176.826 45.7128 176.885 45.7523 176.953C45.7918 177.022 45.8171 177.097 45.8266 177.176C45.8361 177.254 45.8297 177.334 45.8077 177.409C45.7857 177.485 45.7486 177.556 45.6987 177.617C45.6487 177.678 45.5869 177.728 45.5169 177.765C32.9881 184.995 33.7284 184.612 33.5002 184.612Z" fill="white"/>
<path d="M45.2216 184.612C44.9905 184.612 45.7102 184.986 33.2048 177.765C33.0775 177.684 32.9863 177.557 32.9504 177.41C32.9145 177.264 32.9366 177.109 33.0121 176.978C33.0877 176.848 33.2108 176.751 33.3557 176.709C33.5007 176.667 33.6563 176.683 33.79 176.753L45.5142 183.52C45.6255 183.585 45.7124 183.684 45.7615 183.803C45.8106 183.922 45.8191 184.054 45.7858 184.178C45.7525 184.302 45.6792 184.412 45.5772 184.49C45.4752 184.569 45.3503 184.611 45.2216 184.612ZM60.0005 188.108C59.8453 188.108 59.6964 188.046 59.5867 187.937C59.4769 187.827 59.4153 187.678 59.4153 187.523V173.988C59.4153 173.832 59.4769 173.683 59.5867 173.574C59.6964 173.464 59.8453 173.402 60.0005 173.402C60.1557 173.402 60.3045 173.464 60.4143 173.574C60.524 173.683 60.5857 173.832 60.5857 173.988V187.523C60.5857 187.678 60.524 187.827 60.4143 187.937C60.3045 188.046 60.1557 188.108 60.0005 188.108Z" fill="white"/>
<path d="M54.1479 184.74C54.0183 184.741 53.8921 184.699 53.789 184.62C53.686 184.542 53.6119 184.431 53.5785 184.306C53.545 184.181 53.554 184.048 53.6041 183.929C53.6542 183.809 53.7425 183.71 53.8553 183.646L65.559 176.863C65.6936 176.786 65.8536 176.765 66.0036 176.805C66.1537 176.846 66.2816 176.944 66.3592 177.079C66.4368 177.213 66.4578 177.373 66.4174 177.523C66.3771 177.673 66.2788 177.801 66.1442 177.879C53.6241 185.109 54.3673 184.74 54.1479 184.74Z" fill="white"/>
<path d="M65.8521 184.74C65.621 184.74 66.3437 185.112 53.8383 177.894C53.7036 177.816 53.6053 177.688 53.565 177.538C53.5247 177.388 53.5456 177.228 53.6232 177.094C53.7008 176.959 53.8287 176.861 53.9788 176.82C54.1289 176.78 54.2888 176.801 54.4235 176.878L66.1447 183.632C66.2657 183.691 66.3623 183.791 66.4182 183.914C66.4741 184.037 66.4859 184.175 66.4514 184.306C66.417 184.436 66.3385 184.551 66.2293 184.63C66.1201 184.709 65.9868 184.748 65.8521 184.74ZM80.6339 188.222C80.4787 188.222 80.3298 188.161 80.2201 188.051C80.1104 187.941 80.0487 187.792 80.0487 187.637V174.099C80.0487 173.944 80.1104 173.795 80.2201 173.685C80.3298 173.575 80.4787 173.514 80.6339 173.514C80.7891 173.514 80.9379 173.575 81.0477 173.685C81.1574 173.795 81.2191 173.944 81.2191 174.099V187.637C81.2191 187.792 81.1574 187.941 81.0477 188.051C80.9379 188.161 80.7891 188.222 80.6339 188.222Z" fill="white"/>
<path d="M74.7736 184.837C74.645 184.837 74.52 184.794 74.418 184.716C74.316 184.637 74.2427 184.528 74.2094 184.403C74.1761 184.279 74.1847 184.147 74.2338 184.029C74.2828 183.91 74.3697 183.81 74.481 183.746L86.2023 176.978C86.2689 176.936 86.3433 176.907 86.4212 176.894C86.4991 176.882 86.5788 176.885 86.6554 176.904C86.7321 176.922 86.8042 176.956 86.8673 177.004C86.9304 177.051 86.9833 177.111 87.0228 177.179C87.0623 177.247 87.0876 177.323 87.0971 177.401C87.1066 177.48 87.1002 177.559 87.0782 177.635C87.0562 177.711 87.0191 177.781 86.9692 177.842C86.9192 177.903 86.8574 177.954 86.7874 177.99C74.2645 185.223 75.0047 184.837 74.7736 184.837Z" fill="white"/>
<path d="M86.4938 184.837C86.2627 184.837 86.9854 185.212 74.48 177.99C74.41 177.954 74.3482 177.903 74.2982 177.842C74.2483 177.781 74.2112 177.711 74.1892 177.635C74.1672 177.559 74.1608 177.48 74.1703 177.401C74.1798 177.323 74.2051 177.247 74.2446 177.179C74.2841 177.111 74.337 177.051 74.4001 177.004C74.4633 176.956 74.5353 176.922 74.612 176.904C74.6886 176.885 74.7683 176.882 74.8462 176.894C74.9241 176.907 74.9985 176.936 75.0651 176.978L86.7864 183.746C86.8977 183.81 86.9846 183.91 87.0337 184.029C87.0827 184.147 87.0913 184.279 87.058 184.403C87.0247 184.528 86.9514 184.637 86.8494 184.716C86.7474 184.794 86.6224 184.837 86.4938 184.837ZM105.913 187.081H93.0625C92.9073 187.081 92.7585 187.02 92.6487 186.91C92.539 186.8 92.4773 186.651 92.4773 186.496C92.4773 186.341 92.539 186.192 92.6487 186.082C92.7585 185.973 92.9073 185.911 93.0625 185.911H105.922C106.077 185.911 106.226 185.973 106.336 186.082C106.445 186.192 106.507 186.341 106.507 186.496C106.507 186.651 106.445 186.8 106.336 186.91C106.226 187.02 106.077 187.081 105.922 187.081H105.913ZM126.895 187.081H114.036C113.88 187.081 113.731 187.02 113.622 186.91C113.512 186.8 113.45 186.651 113.45 186.496C113.45 186.341 113.512 186.192 113.622 186.082C113.731 185.973 113.88 185.911 114.036 185.911H126.895C127.05 185.911 127.199 185.973 127.309 186.082C127.419 186.192 127.48 186.341 127.48 186.496C127.48 186.651 127.419 186.8 127.309 186.91C127.199 187.02 127.05 187.081 126.895 187.081Z" fill="white"/>
<path d="M156.047 114.085H148.595V95.8595C148.595 92.0136 147.067 88.3252 144.348 85.6058C141.628 82.8863 137.94 81.3586 134.094 81.3586C130.248 81.3586 126.56 82.8863 123.84 85.6058C121.121 88.3252 119.593 92.0136 119.593 95.8595V114.085H112.141V95.8595C112.141 90.0371 114.454 84.4532 118.571 80.3362C122.688 76.2192 128.271 73.9062 134.094 73.9062C139.916 73.9062 145.5 76.2192 149.617 80.3362C153.734 84.4532 156.047 90.0371 156.047 95.8595V114.085Z" fill="#01777B"/>
<path d="M159.897 101.076H108.289C105.92 101.076 104 102.997 104 105.366V142.961C104 145.33 105.92 147.25 108.289 147.25H159.897C162.266 147.25 164.186 145.33 164.186 142.961V105.366C164.186 102.997 162.266 101.076 159.897 101.076Z" fill="#007377"/>
<path d="M134.093 125.877C136.895 125.877 139.167 123.605 139.167 120.803C139.167 118.001 136.895 115.729 134.093 115.729C131.291 115.729 129.02 118.001 129.02 120.803C129.02 123.605 131.291 125.877 134.093 125.877Z" fill="#01777B"/>
<path d="M131.734 122.734H136.451V132.598H131.734V122.734Z" fill="#01777B"/>
<path d="M19.0373 12.5059H68.5761C69.5508 12.5059 70.4855 12.893 71.1747 13.5822C71.8639 14.2714 72.2511 15.2062 72.2511 16.1808V60.4589L78.8607 68.3179H19.0373C18.5548 68.3179 18.0771 68.2228 17.6314 68.0381C17.1857 67.8534 16.7807 67.5826 16.4397 67.2413C16.0987 66.9001 15.8283 66.4949 15.6439 66.0491C15.4595 65.6032 15.3649 65.1254 15.3652 64.6429V16.1808C15.3652 15.2067 15.752 14.2724 16.4406 13.5833C17.1291 12.8942 18.0631 12.5066 19.0373 12.5059Z" fill="#007377"/>
<path d="M52.4442 53.3368C50.112 54.8796 47.4055 55.7616 44.6121 55.8891C41.8188 56.0166 39.0431 55.3849 36.5801 54.0611C34.117 52.7373 32.0587 50.7709 30.6238 48.3708C29.189 45.9708 28.4312 43.2268 28.4311 40.4306H23.4805C23.4789 44.1725 24.5053 47.843 26.4476 51.0414C28.3899 54.2398 31.1735 56.8432 34.4945 58.5674C37.8155 60.2917 41.5464 61.0705 45.2799 60.8188C49.0134 60.5672 52.606 59.2948 55.6657 57.1405C55.7812 57.0601 55.889 56.969 55.9875 56.8684L58.6062 59.4842L61.1518 47.6723L49.3398 50.2178L52.4442 53.3368ZM35.3685 27.5273C37.7005 25.9847 40.4068 25.1027 43.1999 24.975C45.9929 24.8474 48.7684 25.4789 51.2314 26.8023C53.6943 28.1258 55.7527 30.0918 57.1877 32.4914C58.6228 34.891 59.3809 37.6346 59.3816 40.4306H64.3322C64.3333 36.6889 63.3065 33.0188 61.364 29.8208C59.4215 26.6228 56.6379 24.0199 53.3169 22.296C49.996 20.5721 46.2653 19.7936 42.5321 20.0453C38.7989 20.2971 35.2065 21.5694 32.1471 23.7235C32.0321 23.8048 31.9244 23.8958 31.8252 23.9957L29.2065 21.3623L26.6727 33.1772L38.4846 30.6317L35.3685 27.5273Z" fill="white"/>
<path d="M256.314 244.944C267.773 244.944 277.062 235.655 277.062 224.196C277.062 212.737 267.773 203.448 256.314 203.448C244.855 203.448 235.566 212.737 235.566 224.196C235.566 235.655 244.855 244.944 256.314 244.944Z" fill="#808080"/>
<path d="M265.262 230.393C268.684 230.393 271.459 227.619 271.459 224.196C271.459 220.774 268.684 217.999 265.262 217.999C261.839 217.999 259.064 220.774 259.064 224.196C259.064 227.619 261.839 230.393 265.262 230.393Z" fill="#01777B"/>
<path d="M249.401 216.024V232.369H228.861C228.803 231.464 228.403 230.616 227.742 229.995C227.081 229.375 226.208 229.03 225.302 229.03C224.396 229.03 223.523 229.375 222.862 229.995C222.201 230.616 221.801 231.464 221.743 232.369H212.11L208.327 229.855L204.635 232.369L200.784 229.855L197.858 232.369H187.372L181.084 224.407L187.372 216.024H249.401Z" fill="#808080"/>
<path d="M235.987 223.734H191.142C190.987 223.734 190.838 223.672 190.728 223.562C190.618 223.453 190.557 223.304 190.557 223.149C190.557 222.993 190.618 222.845 190.728 222.735C190.838 222.625 190.987 222.563 191.142 222.563H235.987C236.143 222.563 236.292 222.625 236.401 222.735C236.511 222.845 236.573 222.993 236.573 223.149C236.573 223.304 236.511 223.453 236.401 223.562C236.292 223.672 236.143 223.734 235.987 223.734Z" fill="white"/>
<path d="M258.564 194.173C258.409 194.173 258.26 194.111 258.151 194.002C258.041 193.892 257.979 193.743 257.979 193.588V190.077C257.979 189.922 258.041 189.773 258.151 189.663C258.26 189.553 258.409 189.492 258.564 189.492C258.72 189.492 258.868 189.553 258.978 189.663C259.088 189.773 259.15 189.922 259.15 190.077V193.588C259.15 193.743 259.088 193.892 258.978 194.002C258.868 194.111 258.72 194.173 258.564 194.173ZM258.564 187.151C258.409 187.151 258.26 187.089 258.151 186.98C258.041 186.87 257.979 186.721 257.979 186.566V183.055C257.979 182.899 258.041 182.751 258.151 182.641C258.26 182.531 258.409 182.469 258.564 182.469C258.72 182.469 258.868 182.531 258.978 182.641C259.088 182.751 259.15 182.899 259.15 183.055V186.566C259.15 186.721 259.088 186.87 258.978 186.98C258.868 187.089 258.72 187.151 258.564 187.151ZM258.564 180.129C258.409 180.129 258.26 180.067 258.151 179.957C258.041 179.848 257.979 179.699 257.979 179.543V176.032C257.979 175.877 258.041 175.728 258.151 175.619C258.26 175.509 258.409 175.447 258.564 175.447C258.72 175.447 258.868 175.509 258.978 175.619C259.088 175.728 259.15 175.877 259.15 176.032V179.543C259.15 179.699 259.088 179.848 258.978 179.957C258.868 180.067 258.72 180.129 258.564 180.129ZM258.564 173.106C258.409 173.106 258.26 173.045 258.151 172.935C258.041 172.825 257.979 172.676 257.979 172.521V169.01C257.979 168.855 258.041 168.706 258.151 168.596C258.26 168.487 258.409 168.425 258.564 168.425C258.72 168.425 258.868 168.487 258.978 168.596C259.088 168.706 259.15 168.855 259.15 169.01V172.521C259.15 172.676 259.088 172.825 258.978 172.935C258.868 173.045 258.72 173.106 258.564 173.106ZM258.564 166.084C258.409 166.084 258.26 166.023 258.151 165.913C258.041 165.803 257.979 165.654 257.979 165.499V161.988C257.979 161.833 258.041 161.684 258.151 161.574C258.26 161.464 258.409 161.403 258.564 161.403C258.72 161.403 258.868 161.464 258.978 161.574C259.088 161.684 259.15 161.833 259.15 161.988V165.499C259.15 165.654 259.088 165.803 258.978 165.913C258.868 166.023 258.72 166.084 258.564 166.084ZM258.564 159.062C258.409 159.062 258.26 159 258.151 158.891C258.041 158.781 257.979 158.632 257.979 158.477V154.966C257.979 154.811 258.041 154.662 258.151 154.552C258.26 154.442 258.409 154.381 258.564 154.381C258.72 154.381 258.868 154.442 258.978 154.552C259.088 154.662 259.15 154.811 259.15 154.966V158.477C259.15 158.632 259.088 158.781 258.978 158.891C258.868 159 258.72 159.062 258.564 159.062ZM258.564 152.04C258.409 152.04 258.26 151.978 258.151 151.868C258.041 151.759 257.979 151.61 257.979 151.455V147.943C257.979 147.788 258.041 147.639 258.151 147.53C258.26 147.42 258.409 147.358 258.564 147.358C258.72 147.358 258.868 147.42 258.978 147.53C259.088 147.639 259.15 147.788 259.15 147.943V151.455C259.15 151.61 259.088 151.759 258.978 151.868C258.868 151.978 258.72 152.04 258.564 152.04ZM258.564 145.018C258.409 145.018 258.26 144.956 258.151 144.846C258.041 144.736 257.979 144.588 257.979 144.432V140.921C257.979 140.766 258.041 140.617 258.151 140.507C258.26 140.398 258.409 140.336 258.564 140.336C258.72 140.336 258.868 140.398 258.978 140.507C259.088 140.617 259.15 140.766 259.15 140.921V144.432C259.15 144.588 259.088 144.736 258.978 144.846C258.868 144.956 258.72 145.018 258.564 145.018ZM258.564 137.995C258.409 137.995 258.26 137.934 258.151 137.824C258.041 137.714 257.979 137.565 257.979 137.41V133.899C257.979 133.744 258.041 133.595 258.151 133.485C258.26 133.376 258.409 133.314 258.564 133.314C258.72 133.314 258.868 133.376 258.978 133.485C259.088 133.595 259.15 133.744 259.15 133.899V137.41C259.15 137.565 259.088 137.714 258.978 137.824C258.868 137.934 258.72 137.995 258.564 137.995ZM258.564 130.973C258.409 130.973 258.26 130.911 258.151 130.802C258.041 130.692 257.979 130.543 257.979 130.388V126.877C257.979 126.722 258.041 126.573 258.151 126.463C258.26 126.353 258.409 126.292 258.564 126.292C258.72 126.292 258.868 126.353 258.978 126.463C259.088 126.573 259.15 126.722 259.15 126.877V130.388C259.15 130.543 259.088 130.692 258.978 130.802C258.868 130.911 258.72 130.973 258.564 130.973ZM258.564 123.951C258.409 123.951 258.26 123.889 258.151 123.78C258.041 123.67 257.979 123.521 257.979 123.366V119.855C257.979 119.699 258.041 119.551 258.151 119.441C258.26 119.331 258.409 119.269 258.564 119.269C258.72 119.269 258.868 119.331 258.978 119.441C259.088 119.551 259.15 119.699 259.15 119.855V123.366C259.15 123.521 259.088 123.67 258.978 123.78C258.868 123.889 258.72 123.951 258.564 123.951ZM256.657 118.836H253.146C252.99 118.836 252.841 118.775 252.732 118.665C252.622 118.555 252.56 118.406 252.56 118.251C252.56 118.096 252.622 117.947 252.732 117.837C252.841 117.728 252.99 117.666 253.146 117.666H256.657C256.812 117.666 256.961 117.728 257.07 117.837C257.18 117.947 257.242 118.096 257.242 118.251C257.242 118.406 257.18 118.555 257.07 118.665C256.961 118.775 256.812 118.836 256.657 118.836ZM249.634 118.836H246.123C245.968 118.836 245.819 118.775 245.71 118.665C245.6 118.555 245.538 118.406 245.538 118.251C245.538 118.096 245.6 117.947 245.71 117.837C245.819 117.728 245.968 117.666 246.123 117.666H249.634C249.79 117.666 249.938 117.728 250.048 117.837C250.158 117.947 250.22 118.096 250.22 118.251C250.22 118.406 250.158 118.555 250.048 118.665C249.938 118.775 249.79 118.836 249.634 118.836ZM242.612 118.836H239.101C238.946 118.836 238.797 118.775 238.687 118.665C238.578 118.555 238.516 118.406 238.516 118.251C238.516 118.096 238.578 117.947 238.687 117.837C238.797 117.728 238.946 117.666 239.101 117.666H242.612C242.767 117.666 242.916 117.728 243.026 117.837C243.136 117.947 243.197 118.096 243.197 118.251C243.197 118.406 243.136 118.555 243.026 118.665C242.916 118.775 242.767 118.836 242.612 118.836ZM235.59 118.836H232.079C231.924 118.836 231.775 118.775 231.665 118.665C231.555 118.555 231.494 118.406 231.494 118.251C231.494 118.096 231.555 117.947 231.665 117.837C231.775 117.728 231.924 117.666 232.079 117.666H235.59C235.745 117.666 235.894 117.728 236.004 117.837C236.114 117.947 236.175 118.096 236.175 118.251C236.175 118.406 236.114 118.555 236.004 118.665C235.894 118.775 235.745 118.836 235.59 118.836ZM228.568 118.836H225.057C224.901 118.836 224.753 118.775 224.643 118.665C224.533 118.555 224.471 118.406 224.471 118.251C224.471 118.096 224.533 117.947 224.643 117.837C224.753 117.728 224.901 117.666 225.057 117.666H228.568C228.723 117.666 228.872 117.728 228.982 117.837C229.091 117.947 229.153 118.096 229.153 118.251C229.153 118.406 229.091 118.555 228.982 118.665C228.872 118.775 228.723 118.836 228.568 118.836ZM221.546 118.836H218.034C217.879 118.836 217.73 118.775 217.621 118.665C217.511 118.555 217.449 118.406 217.449 118.251C217.449 118.096 217.511 117.947 217.621 117.837C217.73 117.728 217.879 117.666 218.034 117.666H221.546C221.701 117.666 221.85 117.728 221.959 117.837C222.069 117.947 222.131 118.096 222.131 118.251C222.131 118.406 222.069 118.555 221.959 118.665C221.85 118.775 221.701 118.836 221.546 118.836Z" fill="#007377"/>
<path d="M201.849 26.3486C201.762 26.35 201.676 26.3322 201.597 26.2965C201.519 26.2607 201.449 26.2079 201.393 26.1418C201.337 26.0758 201.296 25.9981 201.274 25.9145C201.251 25.8308 201.248 25.7433 201.264 25.6581L205.486 2.48475C205.513 2.33188 205.6 2.19621 205.728 2.10759C205.855 2.01898 206.013 1.98467 206.166 2.01222C206.319 2.03976 206.454 2.12691 206.543 2.25449C206.632 2.38207 206.666 2.53962 206.638 2.69249L202.422 25.8629C202.399 25.9983 202.329 26.1212 202.224 26.21C202.119 26.2988 201.986 26.3479 201.849 26.3486ZM217.002 33.5201C216.891 33.5196 216.782 33.4874 216.688 33.4272C216.595 33.367 216.52 33.2814 216.473 33.1803C216.427 33.0792 216.41 32.9669 216.425 32.8566C216.439 32.7463 216.486 32.6425 216.557 32.5574L231.801 14.5981C231.902 14.4797 232.045 14.4062 232.2 14.3936C232.355 14.3809 232.508 14.4303 232.627 14.5308C232.745 14.6313 232.818 14.7747 232.831 14.9294C232.844 15.0841 232.794 15.2376 232.694 15.3559L217.447 33.3152C217.392 33.3795 217.324 33.431 217.247 33.4664C217.17 33.5018 217.087 33.5201 217.002 33.5201ZM224.077 48.1906C223.956 48.191 223.838 48.1537 223.739 48.084C223.64 48.0143 223.565 47.9156 223.524 47.8015C223.472 47.6556 223.481 47.4952 223.547 47.3553C223.613 47.2155 223.732 47.1076 223.878 47.0554L248.526 38.2425C248.672 38.1905 248.833 38.1987 248.973 38.2654C249.114 38.3321 249.222 38.4517 249.274 38.598C249.326 38.7443 249.317 38.9052 249.251 39.0454C249.184 39.1856 249.064 39.2936 248.918 39.3456C222.476 48.7992 224.232 48.1906 224.077 48.1906ZM30.7698 267.088C25.4607 267.089 20.2436 265.701 15.6369 263.062C15.5703 263.023 15.5118 262.972 15.4649 262.911C15.4181 262.85 15.3836 262.781 15.3637 262.706C15.3437 262.632 15.3386 262.554 15.3485 262.478C15.3585 262.402 15.3835 262.328 15.4219 262.262C15.4603 262.195 15.5115 262.137 15.5725 262.09C15.6335 262.043 15.7031 262.008 15.7775 261.988C15.8518 261.968 15.9293 261.963 16.0056 261.973C16.0819 261.983 16.1555 262.008 16.2221 262.047C22.6891 265.754 30.3262 266.858 37.5783 265.132C44.8303 263.407 51.152 258.982 55.2561 252.759C59.3601 246.536 60.9378 238.982 59.668 231.637C58.3981 224.291 54.3762 217.706 48.4212 213.222C42.4662 208.738 35.0259 206.692 27.6154 207.501C20.2049 208.31 13.3815 211.913 8.53462 217.577C3.68772 223.241 1.18183 230.539 1.52722 237.986C1.87261 245.432 5.04331 252.467 10.3937 257.658C10.4759 257.771 10.5151 257.909 10.5041 258.048C10.4931 258.188 10.4327 258.318 10.3338 258.417C10.2349 258.515 10.1039 258.575 9.96467 258.586C9.82541 258.596 9.68699 258.557 9.57442 258.474C4.51447 253.557 1.32131 247.034 0.541749 240.022C-0.237811 233.01 1.44473 225.944 5.30124 220.036C9.15774 214.128 14.9483 209.745 21.6813 207.636C28.4143 205.528 35.6709 205.826 42.2084 208.479C48.7459 211.132 54.1577 215.976 57.5169 222.18C60.8761 228.385 61.9738 235.564 60.6221 242.488C59.2703 249.413 55.5532 255.653 50.1072 260.138C44.6613 264.624 37.8252 267.076 30.7698 267.076V267.088Z" fill="#C6C6C6"/>
<path d="M52.4443 249.14C50.2522 252.951 47.0939 256.117 43.288 258.319C39.482 260.521 35.1629 261.68 30.7661 261.68C26.3692 261.68 22.0501 260.521 18.2442 258.319C14.4382 256.117 11.28 252.951 9.08789 249.14C11.2808 245.33 14.4391 242.165 18.2447 239.965C22.0503 237.764 26.3686 236.605 30.7646 236.605C35.1606 236.605 39.4789 237.764 43.2845 239.965C47.0901 242.165 50.2484 245.33 52.4413 249.14H52.4443Z" fill="#C6C6C6"/>
<path d="M30.7701 237.696C36.8121 237.696 41.7102 232.798 41.7102 226.756C41.7102 220.714 36.8121 215.816 30.7701 215.816C24.7281 215.816 19.8301 220.714 19.8301 226.756C19.8301 232.798 24.7281 237.696 30.7701 237.696Z" fill="#C6C6C6"/>
<path d="M83.7677 236.951H80.2566C80.1014 236.951 79.9525 236.889 79.8428 236.78C79.7331 236.67 79.6714 236.521 79.6714 236.366C79.6714 236.211 79.7331 236.062 79.8428 235.952C79.9525 235.842 80.1014 235.781 80.2566 235.781H83.7677C83.9229 235.781 84.0717 235.842 84.1815 235.952C84.2912 236.062 84.3529 236.211 84.3529 236.366C84.3529 236.521 84.2912 236.67 84.1815 236.78C84.0717 236.889 83.9229 236.951 83.7677 236.951ZM76.7455 236.951H73.2344C73.0792 236.951 72.9303 236.889 72.8206 236.78C72.7108 236.67 72.6492 236.521 72.6492 236.366C72.6492 236.211 72.7108 236.062 72.8206 235.952C72.9303 235.842 73.0792 235.781 73.2344 235.781H76.7455C76.9007 235.781 77.0495 235.842 77.1593 235.952C77.269 236.062 77.3307 236.211 77.3307 236.366C77.3307 236.521 77.269 236.67 77.1593 236.78C77.0495 236.889 76.9007 236.951 76.7455 236.951ZM69.7232 236.951H66.2121C66.0569 236.951 65.9081 236.889 65.7983 236.78C65.6886 236.67 65.627 236.521 65.627 236.366C65.627 236.211 65.6886 236.062 65.7983 235.952C65.9081 235.842 66.0569 235.781 66.2121 235.781H69.7232C69.8785 235.781 70.0273 235.842 70.137 235.952C70.2468 236.062 70.3084 236.211 70.3084 236.366C70.3084 236.521 70.2468 236.67 70.137 236.78C70.0273 236.889 69.8785 236.951 69.7232 236.951ZM86.6936 236.366C86.5384 236.366 86.3896 236.304 86.2798 236.194C86.1701 236.085 86.1084 235.936 86.1084 235.781V232.27C86.1084 232.114 86.1701 231.965 86.2798 231.856C86.3896 231.746 86.5384 231.684 86.6936 231.684C86.8488 231.684 86.9977 231.746 87.1074 231.856C87.2172 231.965 87.2788 232.114 87.2788 232.27V235.781C87.2788 235.936 87.2172 236.085 87.1074 236.194C86.9977 236.304 86.8488 236.366 86.6936 236.366ZM86.6936 229.344C86.5384 229.344 86.3896 229.282 86.2798 229.172C86.1701 229.062 86.1084 228.914 86.1084 228.758V225.247C86.1084 225.092 86.1701 224.943 86.2798 224.834C86.3896 224.724 86.5384 224.662 86.6936 224.662C86.8488 224.662 86.9977 224.724 87.1074 224.834C87.2172 224.943 87.2788 225.092 87.2788 225.247V228.758C87.2788 228.914 87.2172 229.062 87.1074 229.172C86.9977 229.282 86.8488 229.344 86.6936 229.344ZM86.6936 222.321C86.5384 222.321 86.3896 222.26 86.2798 222.15C86.1701 222.04 86.1084 221.891 86.1084 221.736V218.225C86.1084 218.07 86.1701 217.921 86.2798 217.811C86.3896 217.702 86.5384 217.64 86.6936 217.64C86.8488 217.64 86.9977 217.702 87.1074 217.811C87.2172 217.921 87.2788 218.07 87.2788 218.225V221.736C87.2788 221.891 87.2172 222.04 87.1074 222.15C86.9977 222.26 86.8488 222.321 86.6936 222.321ZM86.6936 215.299C86.5384 215.299 86.3896 215.238 86.2798 215.128C86.1701 215.018 86.1084 214.869 86.1084 214.714V211.203C86.1084 211.048 86.1701 210.899 86.2798 210.789C86.3896 210.679 86.5384 210.618 86.6936 210.618C86.8488 210.618 86.9977 210.679 87.1074 210.789C87.2172 210.899 87.2788 211.048 87.2788 211.203V214.714C87.2788 214.869 87.2172 215.018 87.1074 215.128C86.9977 215.238 86.8488 215.299 86.6936 215.299ZM86.6936 208.277C86.5384 208.277 86.3896 208.215 86.2798 208.106C86.1701 207.996 86.1084 207.847 86.1084 207.692V204.181C86.1084 204.025 86.1701 203.877 86.2798 203.767C86.3896 203.657 86.5384 203.595 86.6936 203.595C86.8488 203.595 86.9977 203.657 87.1074 203.767C87.2172 203.877 87.2788 204.025 87.2788 204.181V207.692C87.2788 207.847 87.2172 207.996 87.1074 208.106C86.9977 208.215 86.8488 208.277 86.6936 208.277ZM86.6936 201.255C86.5384 201.255 86.3896 201.193 86.2798 201.083C86.1701 200.974 86.1084 200.825 86.1084 200.67V197.158C86.1084 197.003 86.1701 196.854 86.2798 196.745C86.3896 196.635 86.5384 196.573 86.6936 196.573C86.8488 196.573 86.9977 196.635 87.1074 196.745C87.2172 196.854 87.2788 197.003 87.2788 197.158V200.67C87.2788 200.825 87.2172 200.974 87.1074 201.083C86.9977 201.193 86.8488 201.255 86.6936 201.255Z" fill="#007377"/>
</svg>
