<svg width="34" height="34" viewBox="0 0 34 34" fill="none" xmlns="http://www.w3.org/2000/svg">
<circle cx="17" cy="17" r="17" fill="#EBEDED"/>
<path opacity="0.2" d="M16.9991 31.4805C24.997 31.4805 31.4805 24.997 31.4805 16.9991C31.4805 9.00116 24.997 2.51758 16.9991 2.51758C9.00116 2.51758 2.51758 9.00116 2.51758 16.9991C2.51758 24.997 9.00116 31.4805 16.9991 31.4805Z" fill="#03E8B0"/>
<path fill-rule="evenodd" clip-rule="evenodd" d="M21.4258 9.57353C21.7144 9.45395 21.9026 9.17218 21.9026 8.85962H21.903C21.903 8.65468 21.8216 8.45812 21.6768 8.31321C21.532 8.16829 21.3355 8.08689 21.1307 8.08691C20.8183 8.08677 20.5365 8.27494 20.4169 8.56367C20.2972 8.8524 20.3632 9.18481 20.5841 9.40587C20.8049 9.62694 21.1371 9.69311 21.4258 9.57353ZM13.4176 8.92054C13.4176 9.23312 13.2294 9.51494 12.9408 9.63457C12.6521 9.75421 12.3199 9.6881 12.099 9.46707C11.8781 9.24604 11.812 8.91363 11.9316 8.62485C12.0511 8.33607 12.3328 8.1478 12.6452 8.14783C13.0718 8.14783 13.4176 8.49378 13.4176 8.92054ZM17.7012 8.75207C17.3743 8.41301 16.994 8.01858 16.4834 8.24087V8.24061C15.9404 8.44975 15.8499 9.23661 16.2929 9.59878C16.7606 10.011 17.204 10.4499 17.6474 10.8888L17.6474 10.8889L17.6474 10.8889L17.6474 10.8889L17.6474 10.8889L17.6474 10.8889L17.6474 10.8889L17.6475 10.8889L17.6475 10.8889L17.6475 10.889L17.6475 10.889L17.6475 10.889L17.6475 10.889L17.6475 10.889L17.6475 10.889L17.6475 10.889L17.6475 10.889L17.6475 10.889L17.6476 10.889C17.8816 11.1207 18.1156 11.3524 18.3531 11.5801C18.6152 11.8398 19.0326 11.9804 19.3744 11.7939C19.8189 11.5952 19.9513 10.9424 19.6244 10.5857C19.0545 9.9832 18.4525 9.41204 17.8208 8.87471C17.7817 8.83555 17.7419 8.79424 17.7012 8.75207ZM23.87 10.4927C23.7619 10.0292 23.1392 9.85885 22.7501 10.0684H22.7502C22.2031 10.5299 21.7236 11.0614 21.2443 11.5928C20.9757 11.8907 20.707 12.1885 20.4265 12.4739C20.0793 12.824 20.2036 13.5159 20.6642 13.7065C20.983 13.8538 21.3802 13.7809 21.6058 13.5078C22.2243 12.8617 22.8433 12.2158 23.4796 11.5874C23.7701 11.313 24.0348 10.9049 23.87 10.4927ZM10.3112 10.1965C10.7166 9.95195 11.2177 10.1141 11.5177 10.4466C11.9424 10.8754 12.3755 11.2952 12.8082 11.7147L12.8083 11.7147C13.0628 11.9614 13.3172 12.208 13.5697 12.4562C14.0209 12.8738 13.7061 13.7577 13.0766 13.7604C12.6902 13.8199 12.4367 13.5551 12.1899 13.2972C12.1003 13.2034 12.0115 13.1106 11.9175 13.0347C11.2995 12.5225 10.7332 11.9524 10.1725 11.3777C9.85498 11.0507 9.94989 10.4507 10.3116 10.1965H10.3112ZM11.7541 15.4082C12.1778 14.8178 11.5145 13.9609 10.835 14.2231L10.8358 14.223C10.2372 14.6291 9.75485 15.1779 9.27257 15.7266L9.27257 15.7266C8.99079 16.0472 8.70904 16.3677 8.40413 16.6598C7.94617 17.0846 8.26231 17.9599 8.89182 17.9842C9.32552 18.0365 9.60534 17.7143 9.86679 17.4133C9.92951 17.3411 9.99117 17.2701 10.0536 17.2058C10.2801 16.9499 10.5247 16.7098 10.7692 16.4699C11.115 16.1305 11.4605 15.7914 11.7541 15.4082ZM24.6158 16.1179C25.0832 15.8124 25.7884 16.1597 25.8034 16.7235C25.8537 17.1106 25.5867 17.3642 25.3264 17.6114C25.2305 17.7025 25.1355 17.7928 25.0576 17.8885C24.5484 18.5021 23.9893 19.0738 23.4122 19.6238C22.9907 20.0224 22.2031 19.7427 22.1274 19.1657C22.0481 18.6866 22.3939 18.3534 22.7158 18.0432C22.7943 17.9675 22.8715 17.8931 22.9407 17.8183C23.2059 17.572 23.4525 17.3056 23.6987 17.0395L23.6987 17.0395L23.6987 17.0395L23.6987 17.0394C23.9942 16.7201 24.2893 16.4012 24.6157 16.1181L24.6158 16.1179ZM13.7606 20.9106C13.7498 20.3592 13.0609 20.0363 12.6069 20.3079V20.3084C12.2338 20.6342 11.893 20.9945 11.552 21.3552C11.2789 21.6439 11.0057 21.9328 10.7156 22.2044L10.703 22.2165C10.3684 22.5415 9.93959 22.9579 10.1171 23.4717C10.2225 24.0108 11.0142 24.192 11.3857 23.8163C11.957 23.2594 12.5231 22.6956 13.0311 22.081C13.1073 21.9868 13.2003 21.8977 13.2942 21.8077C13.5546 21.5583 13.8221 21.3019 13.7606 20.9106ZM20.6757 20.2882C20.9271 20.2018 21.2455 20.1951 21.4579 20.3761C21.7247 20.6297 21.9972 20.8773 22.2698 21.1248L22.2698 21.1248C22.8004 21.6068 23.3311 22.0887 23.8193 22.6155C24.0476 22.8466 24.0679 23.2345 23.9166 23.5128C23.703 24.0129 22.9709 24.025 22.6156 23.6709C22.2744 23.3489 21.9395 23.0192 21.6045 22.6893L21.6045 22.6893L21.6044 22.6893L21.6044 22.6893L21.6044 22.6892L21.6043 22.6892L21.6043 22.6892L21.6042 22.6891C21.2351 22.3257 20.8658 21.9621 20.4878 21.6085C20.0516 21.2694 20.1541 20.4841 20.6757 20.2881L20.6757 20.2882ZM15.706 22.4733C15.4371 22.1881 14.9978 21.9962 14.6238 22.1989L14.6237 22.1986C14.1752 22.3946 14.0402 23.0553 14.3725 23.4108C14.9238 23.9882 15.4943 24.5491 16.1086 25.0587C16.2053 25.137 16.296 25.233 16.3877 25.3298C16.6313 25.5874 16.8808 25.8513 17.2636 25.806C17.9161 25.7993 18.2291 24.9059 17.7662 24.4654C17.0622 23.8193 16.3841 23.1463 15.706 22.4733ZM14.8991 11.7493C15.3256 11.7493 15.6714 11.4033 15.6714 10.9766C15.6714 10.7716 15.59 10.5751 15.4451 10.4302C15.3003 10.2852 15.1038 10.2038 14.899 10.2039C14.4725 10.2039 14.1267 10.5499 14.1268 10.9766C14.1268 11.4034 14.4726 11.7493 14.8991 11.7493ZM9.64054 12.8639C9.64061 13.1765 9.45246 13.4583 9.16384 13.578C8.87522 13.6977 8.54296 13.6316 8.32202 13.4106C8.10108 13.1896 8.03496 12.8572 8.1545 12.5684C8.27405 12.2796 8.55571 12.0913 8.86813 12.0913C9.07296 12.0913 9.26941 12.1727 9.41427 12.3176C9.55912 12.4624 9.64051 12.659 9.64054 12.8639ZM25.9015 12.6704C25.9015 13.0971 25.5558 13.4431 25.1292 13.4431C24.7027 13.4431 24.3569 13.0971 24.3569 12.6704C24.3569 12.2436 24.7027 11.8977 25.1292 11.8977C25.5558 11.8977 25.9015 12.2436 25.9015 12.6704ZM23.0189 15.6634C23.4454 15.6633 23.7912 15.3173 23.7911 14.8906C23.7911 14.6856 23.7097 14.4891 23.5648 14.3442C23.42 14.1993 23.2235 14.1179 23.0187 14.118C22.5922 14.118 22.2464 14.464 22.2465 14.8908C22.2465 15.3175 22.5923 15.6634 23.0189 15.6634ZM25.8972 21.1306C25.8972 21.5573 25.5514 21.9033 25.1249 21.9033C24.6984 21.9033 24.3526 21.5574 24.3526 21.1306C24.3525 20.7039 24.6983 20.3579 25.1248 20.3579C25.3296 20.3579 25.5261 20.4393 25.671 20.5842C25.8158 20.7291 25.8972 20.9256 25.8972 21.1306ZM19.3983 23.7299C19.6869 23.6102 19.8751 23.3284 19.875 23.0158C19.875 22.8109 19.7937 22.6143 19.6488 22.4694C19.5039 22.3245 19.3075 22.2431 19.1026 22.2431C18.7902 22.2431 18.5086 22.4314 18.389 22.7202C18.2695 23.009 18.3356 23.3414 18.5565 23.5624C18.7774 23.7834 19.1097 23.8495 19.3983 23.7299ZM22.0943 25.1283C22.0943 25.4409 21.9062 25.7228 21.6176 25.8424C21.3289 25.9621 20.9967 25.896 20.7757 25.675C20.5548 25.454 20.4887 25.1216 20.6082 24.8328C20.7278 24.544 21.0094 24.3557 21.3219 24.3557C21.5267 24.3557 21.7231 24.4371 21.868 24.582C22.0128 24.7269 22.0942 24.9234 22.0943 25.1283ZM13.1627 25.8425C13.4513 25.7228 13.6395 25.441 13.6395 25.1284C13.6395 24.7017 13.2937 24.3557 12.8672 24.3557C12.5547 24.3557 12.2731 24.544 12.1535 24.8328C12.0339 25.1215 12.1 25.4539 12.3209 25.675C12.5418 25.896 12.8741 25.9621 13.1627 25.8425ZM11.7553 19.0767C11.7554 19.3893 11.5672 19.6711 11.2785 19.7908C10.9899 19.9104 10.6577 19.8443 10.4367 19.6233C10.2158 19.4022 10.1497 19.0698 10.2693 18.781C10.3889 18.4923 10.6706 18.304 10.983 18.304C11.4095 18.304 11.7553 18.65 11.7553 19.0767ZM9.16378 22.0361C9.4524 21.9164 9.64057 21.6346 9.64054 21.322C9.64054 21.1171 9.55915 20.9205 9.4143 20.7756C9.26944 20.6307 9.07298 20.5493 8.86813 20.5493C8.55571 20.5493 8.27406 20.7376 8.15451 21.0264C8.03496 21.3152 8.10106 21.6476 8.32199 21.8686C8.54291 22.0896 8.87515 22.1557 9.16378 22.0361Z" fill="#03E8B0"/>
</svg>
