<svg width="212" height="212" viewBox="0 0 212 212" fill="none" xmlns="http://www.w3.org/2000/svg">
<rect x="0.371094" y="0.370117" width="211.259" height="211.259" rx="105.63" fill="white"/>
<path opacity="0.2" d="M208.466 131.553C194.358 188.141 137.041 222.577 80.4463 208.468C23.8783 194.36 -10.5603 137.043 3.55121 80.4584C17.6528 23.864 74.9667 -10.5778 131.545 3.53034C188.136 17.6385 222.571 74.9624 208.463 131.553H208.466Z" fill="#F7931A"/>
<path fill-rule="evenodd" clip-rule="evenodd" d="M137.815 93.7273C139.239 84.1923 131.979 79.0666 122.052 75.6472L125.272 62.7309L117.408 60.7715L114.273 73.3474C112.208 72.8324 110.085 72.3464 107.976 71.865L111.133 59.2062L103.276 57.2468L100.053 70.1586C98.3424 69.769 96.6629 69.3838 95.0327 68.9785L95.0417 68.9382L84.199 66.2309L82.1075 74.6283C82.1075 74.6283 87.9408 75.9651 87.8177 76.048C91.002 76.8429 91.5797 78.9501 91.4812 80.6206L87.8132 95.3351C88.0327 95.3911 88.317 95.4717 88.6305 95.5971L87.802 95.3911L82.6583 116.004C82.2687 116.971 81.2812 118.422 79.0553 117.871C79.1337 117.986 73.3406 116.445 73.3406 116.445L69.4375 125.447L79.6711 127.998C80.8261 128.287 81.9671 128.585 83.0955 128.879L83.0965 128.879L83.1009 128.88C83.8303 129.071 84.5545 129.26 85.2738 129.444L82.0201 142.51L89.8734 144.47L93.098 131.545C95.241 132.127 97.3235 132.664 99.3613 133.17L96.1501 146.035L104.012 147.994L107.266 134.955C120.673 137.492 130.756 136.469 134.995 124.345C138.415 114.582 134.827 108.95 127.774 105.275C132.91 104.086 136.78 100.707 137.812 93.7273H137.815ZM119.855 118.915C117.623 127.876 103.593 124.168 97.1802 122.473L97.1799 122.473C96.6057 122.321 96.0926 122.186 95.6545 122.077L99.9718 104.769C100.507 104.903 101.162 105.05 101.903 105.216L101.903 105.216C108.538 106.705 122.135 109.756 119.857 118.915H119.855ZM103.231 97.1904C108.582 98.618 120.247 101.73 122.278 93.5896C124.356 85.2618 113.014 82.7518 107.474 81.5259C106.851 81.3881 106.302 81.2665 105.853 81.1547L101.939 96.8522C102.309 96.9445 102.744 97.0605 103.231 97.1904Z" fill="#F7931A"/>
</svg>
