<svg width="1440" height="1024" viewBox="0 0 1440 1024" fill="none" xmlns="http://www.w3.org/2000/svg">
<g opacity="0.7">
<mask id="mask0_668_38310" style="mask-type:alpha" maskUnits="userSpaceOnUse" x="-55" y="-31" width="1457" height="1082">
<rect x="-54.5879" y="-30.5171" width="1456" height="1081" fill="white"/>
</mask>
<g mask="url(#mask0_668_38310)">
<g filter="url(#filter0_f_668_38310)">
<path d="M-88.8907 399.519L165.47 399.519C165.47 399.519 674.191 996.128 -88.8906 1131.12L-88.8907 399.519Z" fill="#EEF3FF"/>
</g>
<g filter="url(#filter1_f_668_38310)">
<path d="M1422.68 1075.62L-54.1182 1075.62C-54.1182 1075.62 1029.14 226.719 1272.48 587.835C1502.72 929.505 1422.68 1075.62 1422.68 1075.62Z" fill="#5280FF" fill-opacity="0.06"/>
</g>
<g filter="url(#filter2_f_668_38310)">
<path d="M621.919 705.588L1134.3 1216.03C1134.3 1216.03 760.834 905.158 426.129 1195.69L621.919 705.588Z" fill="#00FFFF" fill-opacity="0.04"/>
</g>
<g filter="url(#filter3_f_668_38310)">
<path d="M180.5 511.836L-449.018 148.947C-449.018 148.947 -6.30706 354.356 240.383 -11.2985L180.5 511.836Z" fill="#00FFFF" fill-opacity="0.04"/>
</g>
<g filter="url(#filter4_f_668_38310)">
<path d="M-64.7564 372.132L-64.7563 -32.9255C-64.7563 -32.9255 194.128 264.191 83.9999 330.934C-20.1974 394.083 -64.7564 372.132 -64.7564 372.132Z" fill="#5280FF" fill-opacity="0.08"/>
</g>
</g>
<g opacity="0.6">
<path d="M-263 1124.15C-221.17 1078.67 -51.6696 838.747 252.898 838.747C633.608 838.747 846.394 1397.79 1420.49 935.971" stroke="white" stroke-width="0.987317"/>
<path d="M-263 622.658C-221.17 577.182 -51.6696 337.256 252.898 337.256C633.608 337.256 846.394 896.298 1420.49 434.481" stroke="white" stroke-width="0.987317"/>
<path d="M-263 1107.97C-221.17 1062.5 -51.6696 822.57 252.898 822.57C633.608 822.57 846.394 1381.61 1420.49 919.794" stroke="white" stroke-width="0.987317"/>
<path d="M-263 1091.79C-221.17 1046.32 -51.6696 806.393 252.898 806.393C633.608 806.393 846.394 1365.43 1420.49 903.617" stroke="white" stroke-width="0.987317"/>
<path d="M-263 1075.62C-221.17 1030.14 -51.6696 790.215 252.898 790.215C633.608 790.215 846.394 1349.26 1420.49 887.44" stroke="white" stroke-width="0.987317"/>
<path d="M-263 1059.44C-221.17 1013.96 -51.6696 774.038 252.898 774.038C633.608 774.038 846.394 1333.08 1420.49 871.263" stroke="white" stroke-width="0.987317"/>
<path d="M-263 1043.26C-221.17 997.787 -51.6696 757.861 252.898 757.861C633.608 757.861 846.394 1316.9 1420.49 855.086" stroke="white" stroke-width="0.987317"/>
<path d="M-263 1027.09C-221.17 981.609 -51.6696 741.684 252.898 741.684C633.608 741.684 846.394 1300.73 1420.49 838.909" stroke="white" stroke-width="0.987317"/>
<path d="M-263 1010.91C-221.17 965.433 -51.6696 725.507 252.898 725.507C633.608 725.507 846.394 1284.55 1420.49 822.732" stroke="white" stroke-width="0.987317"/>
<path d="M-263 994.731C-221.17 949.255 -51.6696 709.33 252.898 709.33C633.608 709.33 846.394 1268.37 1420.49 806.555" stroke="white" stroke-width="0.987317"/>
<path d="M-263 978.554C-221.17 933.078 -51.6696 693.153 252.898 693.153C633.608 693.153 846.394 1252.19 1420.49 790.377" stroke="white" stroke-width="0.987317"/>
<path d="M-263 962.377C-221.17 916.901 -51.6696 676.976 252.898 676.976C633.608 676.976 846.394 1236.02 1420.49 774.201" stroke="white" stroke-width="0.987317"/>
<path d="M-263 946.2C-221.17 900.724 -51.6696 660.799 252.898 660.799C633.608 660.799 846.394 1219.84 1420.49 758.023" stroke="white" stroke-width="0.987317"/>
<path d="M-263 930.023C-221.17 884.547 -51.6696 644.622 252.898 644.622C633.608 644.622 846.394 1203.66 1420.49 741.846" stroke="white" stroke-width="0.987317"/>
<path d="M-263 913.846C-221.17 868.37 -51.6696 628.444 252.898 628.444C633.608 628.444 846.394 1187.49 1420.49 725.669" stroke="white" stroke-width="0.987317"/>
<path d="M-263 897.669C-221.17 852.193 -51.6696 612.268 252.898 612.268C633.608 612.268 846.394 1171.31 1420.49 709.492" stroke="white" stroke-width="0.987317"/>
<path d="M-263 881.492C-221.17 836.016 -51.6696 596.09 252.898 596.09C633.608 596.09 846.394 1155.13 1420.49 693.315" stroke="white" stroke-width="0.987317"/>
<path d="M-263 865.314C-221.17 819.838 -51.6696 579.913 252.898 579.913C633.608 579.913 846.394 1138.95 1420.49 677.138" stroke="white" stroke-width="0.987317"/>
<path d="M-263 849.137C-221.17 803.661 -51.6696 563.736 252.898 563.736C633.608 563.736 846.394 1122.78 1420.49 660.96" stroke="white" stroke-width="0.987317"/>
<path d="M-263 832.96C-221.17 787.484 -51.6696 547.559 252.898 547.559C633.608 547.559 846.394 1106.6 1420.49 644.783" stroke="white" stroke-width="0.987317"/>
<path d="M-263 816.783C-221.17 771.307 -51.6696 531.382 252.898 531.382C633.608 531.382 846.394 1090.42 1420.49 628.606" stroke="white" stroke-width="0.987317"/>
<path d="M-263 800.606C-221.17 755.13 -51.6696 515.205 252.898 515.205C633.608 515.205 846.394 1074.25 1420.49 612.429" stroke="white" stroke-width="0.987317"/>
<path d="M-263 784.428C-221.17 738.952 -51.6696 499.027 252.898 499.027C633.608 499.027 846.394 1058.07 1420.49 596.251" stroke="white" stroke-width="0.987317"/>
<path d="M-263 768.252C-221.17 722.776 -51.6696 482.851 252.898 482.851C633.608 482.851 846.394 1041.89 1420.49 580.075" stroke="white" stroke-width="0.987317"/>
<path d="M-263 752.075C-221.17 706.599 -51.6696 466.673 252.898 466.673C633.608 466.673 846.394 1025.71 1420.49 563.898" stroke="white" stroke-width="0.987317"/>
<path d="M-263 735.897C-221.17 690.421 -51.6696 450.496 252.898 450.496C633.608 450.496 846.394 1009.54 1420.49 547.72" stroke="white" stroke-width="0.987317"/>
<path d="M-263 719.72C-221.17 674.244 -51.6696 434.319 252.898 434.319C633.608 434.319 846.394 993.36 1420.49 531.543" stroke="white" stroke-width="0.987317"/>
<path d="M-263 703.543C-221.17 658.067 -51.6696 418.142 252.898 418.142C633.608 418.142 846.394 977.184 1420.49 515.367" stroke="white" stroke-width="0.987317"/>
<path d="M-263 687.366C-221.17 641.89 -51.6696 401.965 252.898 401.965C633.608 401.965 846.394 961.006 1420.49 499.189" stroke="white" stroke-width="0.987317"/>
<path d="M-263 671.189C-221.17 625.713 -51.6696 385.788 252.898 385.788C633.608 385.788 846.394 944.829 1420.49 483.012" stroke="white" stroke-width="0.987317"/>
<path d="M-263 655.012C-221.17 609.536 -51.6696 369.61 252.898 369.61C633.608 369.61 846.394 928.652 1420.49 466.835" stroke="white" stroke-width="0.987317"/>
<path d="M-263 638.835C-221.17 593.359 -51.6696 353.434 252.898 353.434C633.608 353.434 846.394 912.475 1420.49 450.658" stroke="white" stroke-width="0.987317"/>
</g>
<g opacity="0.8">
<path d="M-176.49 433.555C-134.661 406.65 34.8402 264.701 339.408 264.701C720.118 264.701 932.903 595.451 1507 322.222" stroke="white" stroke-width="0.987317"/>
<path d="M-176.49 136.854C-134.661 109.949 34.8402 -32 339.408 -32C720.118 -32 932.903 298.75 1507 25.5218" stroke="white" stroke-width="0.987317"/>
<path d="M-176.49 423.984C-134.661 397.079 34.8402 255.13 339.408 255.13C720.118 255.13 932.903 585.88 1507 312.652" stroke="white" stroke-width="0.987317"/>
<path d="M-176.49 414.413C-134.661 387.508 34.8402 245.559 339.408 245.559C720.118 245.559 932.903 576.309 1507 303.081" stroke="white" stroke-width="0.987317"/>
<path d="M-176.49 404.842C-134.661 377.937 34.8402 235.988 339.408 235.988C720.118 235.988 932.903 566.738 1507 293.51" stroke="white" stroke-width="0.987317"/>
<path d="M-176.49 395.271C-134.661 368.366 34.8402 226.417 339.408 226.417C720.118 226.417 932.903 557.167 1507 283.939" stroke="white" stroke-width="0.987317"/>
<path d="M-176.49 385.7C-134.661 358.795 34.8402 216.846 339.408 216.846C720.118 216.846 932.903 547.596 1507 274.367" stroke="white" stroke-width="0.987317"/>
<path d="M-176.49 376.129C-134.661 349.224 34.8402 207.275 339.408 207.275C720.118 207.275 932.903 538.025 1507 264.797" stroke="white" stroke-width="0.987317"/>
<path d="M-176.49 366.558C-134.661 339.653 34.8402 197.704 339.408 197.704C720.118 197.704 932.903 528.454 1507 255.226" stroke="white" stroke-width="0.987317"/>
<path d="M-176.49 356.987C-134.661 330.082 34.8402 188.133 339.408 188.133C720.118 188.133 932.903 518.883 1507 245.655" stroke="white" stroke-width="0.987317"/>
<path d="M-176.49 347.416C-134.661 320.511 34.8402 178.562 339.408 178.562C720.118 178.562 932.903 509.312 1507 236.084" stroke="white" stroke-width="0.987317"/>
<path d="M-176.49 337.845C-134.661 310.94 34.8402 168.991 339.408 168.991C720.118 168.991 932.903 499.741 1507 226.513" stroke="white" stroke-width="0.987317"/>
<path d="M-176.49 328.274C-134.661 301.369 34.8402 159.42 339.408 159.42C720.118 159.42 932.903 490.17 1507 216.942" stroke="white" stroke-width="0.987317"/>
<path d="M-176.49 318.703C-134.661 291.798 34.8402 149.849 339.408 149.849C720.118 149.849 932.903 480.599 1507 207.371" stroke="white" stroke-width="0.987317"/>
<path d="M-176.49 309.132C-134.661 282.227 34.8402 140.278 339.408 140.278C720.118 140.278 932.903 471.028 1507 197.8" stroke="white" stroke-width="0.987317"/>
<path d="M-176.49 299.561C-134.661 272.656 34.8402 130.707 339.408 130.707C720.118 130.707 932.903 461.457 1507 188.229" stroke="white" stroke-width="0.987317"/>
<path d="M-176.49 289.99C-134.661 263.085 34.8402 121.136 339.408 121.136C720.118 121.136 932.903 451.886 1507 178.658" stroke="white" stroke-width="0.987317"/>
<path d="M-176.49 280.419C-134.661 253.514 34.8402 111.565 339.408 111.565C720.118 111.565 932.903 442.315 1507 169.087" stroke="white" stroke-width="0.987317"/>
<path d="M-176.49 270.848C-134.661 243.943 34.8402 101.994 339.408 101.994C720.118 101.994 932.903 432.744 1507 159.515" stroke="white" stroke-width="0.987317"/>
<path d="M-176.49 261.277C-134.661 234.372 34.8402 92.4229 339.408 92.4229C720.118 92.4229 932.903 423.173 1507 149.945" stroke="white" stroke-width="0.987317"/>
<path d="M-176.49 251.706C-134.661 224.801 34.8402 82.8521 339.408 82.8521C720.118 82.8521 932.903 413.602 1507 140.374" stroke="white" stroke-width="0.987317"/>
<path d="M-176.49 242.135C-134.661 215.23 34.8402 73.2808 339.408 73.2808C720.118 73.2808 932.903 404.031 1507 130.803" stroke="white" stroke-width="0.987317"/>
<path d="M-176.49 232.564C-134.661 205.659 34.8402 63.71 339.408 63.71C720.118 63.71 932.903 394.46 1507 121.232" stroke="white" stroke-width="0.987317"/>
<path d="M-176.49 222.993C-134.661 196.088 34.8402 54.1392 339.408 54.1392C720.118 54.1392 932.903 384.889 1507 111.661" stroke="white" stroke-width="0.987317"/>
<path d="M-176.49 213.422C-134.661 186.517 34.8402 44.5679 339.408 44.5679C720.118 44.5679 932.903 375.318 1507 102.09" stroke="white" stroke-width="0.987317"/>
<path d="M-176.49 203.851C-134.661 176.946 34.8402 34.9971 339.408 34.9971C720.118 34.9971 932.903 365.747 1507 92.5188" stroke="white" stroke-width="0.987317"/>
<path d="M-176.49 194.28C-134.661 167.375 34.8402 25.4258 339.408 25.4258C720.118 25.4258 932.903 356.176 1507 82.9476" stroke="white" stroke-width="0.987317"/>
<path d="M-176.49 184.709C-134.661 157.804 34.8402 15.855 339.408 15.855C720.118 15.855 932.903 346.605 1507 73.3768" stroke="white" stroke-width="0.987317"/>
<path d="M-176.49 175.138C-134.661 148.233 34.8402 6.28418 339.408 6.28418C720.118 6.28418 932.903 337.034 1507 63.806" stroke="white" stroke-width="0.987317"/>
<path d="M-176.49 165.567C-134.661 138.662 34.8402 -3.28711 339.408 -3.28711C720.118 -3.28711 932.903 327.463 1507 54.2347" stroke="white" stroke-width="0.987317"/>
<path d="M-176.49 155.996C-134.661 129.091 34.8402 -12.8584 339.408 -12.8584C720.118 -12.8584 932.903 317.892 1507 44.6634" stroke="white" stroke-width="0.987317"/>
<path d="M-176.49 146.426C-134.661 119.52 34.8402 -22.4287 339.408 -22.4287C720.118 -22.4287 932.903 308.322 1507 35.0931" stroke="white" stroke-width="0.987317"/>
</g>
</g>
<defs>
<filter id="filter0_f_668_38310" x="-256.735" y="231.675" width="756.162" height="1067.29" filterUnits="userSpaceOnUse" color-interpolation-filters="sRGB">
<feFlood flood-opacity="0" result="BackgroundImageFix"/>
<feBlend mode="normal" in="SourceGraphic" in2="BackgroundImageFix" result="shape"/>
<feGaussianBlur stdDeviation="83.9219" result="effect1_foregroundBlur_668_38310"/>
</filter>
<filter id="filter1_f_668_38310" x="-221.963" y="330.54" width="1825.95" height="912.92" filterUnits="userSpaceOnUse" color-interpolation-filters="sRGB">
<feFlood flood-opacity="0" result="BackgroundImageFix"/>
<feBlend mode="normal" in="SourceGraphic" in2="BackgroundImageFix" result="shape"/>
<feGaussianBlur stdDeviation="83.9219" result="effect1_foregroundBlur_668_38310"/>
</filter>
<filter id="filter2_f_668_38310" x="258.285" y="537.744" width="1043.85" height="846.131" filterUnits="userSpaceOnUse" color-interpolation-filters="sRGB">
<feFlood flood-opacity="0" result="BackgroundImageFix"/>
<feBlend mode="normal" in="SourceGraphic" in2="BackgroundImageFix" result="shape"/>
<feGaussianBlur stdDeviation="83.9219" result="effect1_foregroundBlur_668_38310"/>
</filter>
<filter id="filter3_f_668_38310" x="-616.861" y="-179.142" width="1025.09" height="858.822" filterUnits="userSpaceOnUse" color-interpolation-filters="sRGB">
<feFlood flood-opacity="0" result="BackgroundImageFix"/>
<feBlend mode="normal" in="SourceGraphic" in2="BackgroundImageFix" result="shape"/>
<feGaussianBlur stdDeviation="83.9219" result="effect1_foregroundBlur_668_38310"/>
</filter>
<filter id="filter4_f_668_38310" x="-232.6" y="-200.769" width="511.723" height="744.437" filterUnits="userSpaceOnUse" color-interpolation-filters="sRGB">
<feFlood flood-opacity="0" result="BackgroundImageFix"/>
<feBlend mode="normal" in="SourceGraphic" in2="BackgroundImageFix" result="shape"/>
<feGaussianBlur stdDeviation="83.9219" result="effect1_foregroundBlur_668_38310"/>
</filter>
</defs>
</svg>
